%FSLAX25Y25*%
%MOIN*%
G70*
G01*
G75*
G04 Layer_Color=32896*
%ADD10R,0.01575X0.01969*%
%ADD11R,0.01969X0.12992*%
%ADD12R,0.05118X0.12992*%
%ADD13R,0.04724X0.03150*%
%ADD14R,0.04724X0.04724*%
%ADD15R,0.04331X0.06693*%
%ADD16R,0.04750X0.01600*%
%ADD17R,0.06693X0.04331*%
%ADD18R,0.03543X0.03150*%
%ADD19R,0.03150X0.03543*%
%ADD20O,0.12047X0.03504*%
%ADD21R,0.33622X0.21063*%
%ADD22O,0.03504X0.12047*%
%ADD23R,0.21063X0.33622*%
%ADD24R,0.26772X0.07087*%
%ADD25C,0.01000*%
%ADD26C,0.05906*%
%ADD27R,0.05906X0.05906*%
%ADD28C,0.19400*%
%ADD29R,0.05906X0.05906*%
%ADD30C,0.05512*%
%ADD31O,0.03937X0.07874*%
%ADD32O,0.03937X0.07874*%
%ADD33C,0.06000*%
%ADD34O,0.07874X0.03937*%
%ADD35O,0.07874X0.03937*%
%ADD36C,0.05000*%
%ADD37C,0.02598*%
%ADD38C,0.00500*%
%ADD39C,0.00787*%
%ADD40C,0.00300*%
%ADD41C,0.00400*%
%ADD42C,0.00333*%
%ADD43C,0.00750*%
%ADD44R,0.02375X0.02769*%
%ADD45R,0.02769X0.13792*%
%ADD46R,0.05918X0.13792*%
%ADD47R,0.05524X0.03950*%
%ADD48R,0.05524X0.05524*%
%ADD49R,0.05131X0.07493*%
%ADD50R,0.05550X0.02400*%
%ADD51R,0.07493X0.05131*%
%ADD52R,0.04343X0.03950*%
%ADD53R,0.03950X0.04343*%
%ADD54O,0.12835X0.04291*%
%ADD55R,0.34409X0.21850*%
%ADD56O,0.04291X0.12835*%
%ADD57R,0.21850X0.34409*%
%ADD58R,0.27575X0.07890*%
%ADD59C,0.06706*%
%ADD60R,0.06706X0.06706*%
%ADD61C,0.20200*%
%ADD62R,0.06706X0.06706*%
%ADD63C,0.06312*%
%ADD64O,0.04737X0.08674*%
%ADD65O,0.04737X0.08674*%
%ADD66C,0.06800*%
%ADD67O,0.08674X0.04737*%
%ADD68O,0.08674X0.04737*%
%ADD69C,0.05800*%
%ADD70C,0.03402*%
D38*
X261123Y340000D02*
X262122D01*
X261623D01*
Y337001D01*
X261123Y337501D01*
X266621Y338500D02*
X268620D01*
X274618Y337001D02*
X272619D01*
Y338500D01*
X273619Y338001D01*
X274118D01*
X274618Y338500D01*
Y339500D01*
X274118Y340000D01*
X273119D01*
X272619Y339500D01*
X275618Y337001D02*
Y339000D01*
X276618Y340000D01*
X277617Y339000D01*
Y337001D01*
X281616D02*
X282616D01*
X282116D01*
Y340000D01*
X281616D01*
X282616D01*
X284115D02*
Y338001D01*
X285615D01*
X286115Y338500D01*
Y340000D01*
X263122Y344500D02*
X261123D01*
X263122Y342501D01*
Y342001D01*
X262622Y341501D01*
X261623D01*
X261123Y342001D01*
X267121Y343001D02*
X269120D01*
X275118Y342001D02*
X274618Y341501D01*
X273619D01*
X273119Y342001D01*
Y344000D01*
X273619Y344500D01*
X274618D01*
X275118Y344000D01*
Y343001D01*
X274118D01*
X276118Y344500D02*
Y341501D01*
X278117Y344500D01*
Y341501D01*
X279117D02*
Y344500D01*
X280616D01*
X281116Y344000D01*
Y342001D01*
X280616Y341501D01*
X279117D01*
X261123Y346501D02*
X261623Y346001D01*
X262622D01*
X263122Y346501D01*
Y347001D01*
X262622Y347500D01*
X262122D01*
X262622D01*
X263122Y348000D01*
Y348500D01*
X262622Y349000D01*
X261623D01*
X261123Y348500D01*
X267121Y347500D02*
X269120D01*
X273119Y349000D02*
Y346001D01*
X274618D01*
X275118Y346501D01*
Y347500D01*
X274618Y348000D01*
X273119D01*
X280616Y346001D02*
X279617D01*
X279117Y346501D01*
Y348500D01*
X279617Y349000D01*
X280616D01*
X281116Y348500D01*
Y346501D01*
X280616Y346001D01*
X282116D02*
Y348500D01*
X282616Y349000D01*
X283615D01*
X284115Y348500D01*
Y346001D01*
X285115D02*
X287114D01*
X286115D01*
Y349000D01*
X262622Y353500D02*
Y350501D01*
X261123Y352000D01*
X263122D01*
X267121D02*
X269120D01*
X273119Y351001D02*
X273619Y350501D01*
X274618D01*
X275118Y351001D01*
Y351501D01*
X274618Y352000D01*
X274118D01*
X274618D01*
X275118Y352500D01*
Y353000D01*
X274618Y353500D01*
X273619D01*
X273119Y353000D01*
X276118Y353500D02*
Y353000D01*
X276618D01*
Y353500D01*
X276118D01*
X278617Y351001D02*
X279117Y350501D01*
X280117D01*
X280616Y351001D01*
Y351501D01*
X280117Y352000D01*
X279617D01*
X280117D01*
X280616Y352500D01*
Y353000D01*
X280117Y353500D01*
X279117D01*
X278617Y353000D01*
X281616Y350501D02*
Y352500D01*
X282616Y353500D01*
X283615Y352500D01*
Y350501D01*
X287614D02*
X288614D01*
X288114D01*
Y353500D01*
X287614D01*
X288614D01*
X290113D02*
Y350501D01*
X292113Y353500D01*
Y350501D01*
X263122Y355001D02*
X261123D01*
Y356501D01*
X262122Y356001D01*
X262622D01*
X263122Y356501D01*
Y357500D01*
X262622Y358000D01*
X261623D01*
X261123Y357500D01*
X267121Y356501D02*
X269120D01*
X273119Y355001D02*
X275118D01*
X274118D01*
Y358000D01*
X280616Y355001D02*
X279617D01*
X279117Y355501D01*
Y357500D01*
X279617Y358000D01*
X280616D01*
X281116Y357500D01*
Y355501D01*
X280616Y355001D01*
X282116D02*
Y357500D01*
X282616Y358000D01*
X283615D01*
X284115Y357500D01*
Y355001D01*
X285115D02*
X287114D01*
X286115D01*
Y358000D01*
X263122Y359501D02*
X262122Y360001D01*
X261123Y361000D01*
Y362000D01*
X261623Y362500D01*
X262622D01*
X263122Y362000D01*
Y361500D01*
X262622Y361000D01*
X261123D01*
X267121D02*
X269120D01*
X275118Y360001D02*
X274618Y359501D01*
X273619D01*
X273119Y360001D01*
Y362000D01*
X273619Y362500D01*
X274618D01*
X275118Y362000D01*
Y361000D01*
X274118D01*
X276118Y362500D02*
Y359501D01*
X278117Y362500D01*
Y359501D01*
X279117D02*
Y362500D01*
X280616D01*
X281116Y362000D01*
Y360001D01*
X280616Y359501D01*
X279117D01*
X270123Y364501D02*
X270622Y364001D01*
X271622D01*
X272122Y364501D01*
Y365001D01*
X271622Y365500D01*
X272122Y366000D01*
Y366500D01*
X271622Y367000D01*
X270622D01*
X270123Y366500D01*
Y366000D01*
X270622Y365500D01*
X270123Y365001D01*
Y364501D01*
X270622Y365500D02*
X271622D01*
X276121D02*
X278120D01*
X282119Y364501D02*
X282619Y364001D01*
X283618D01*
X284118Y364501D01*
Y365001D01*
X283618Y365500D01*
X283119D01*
X283618D01*
X284118Y366000D01*
Y366500D01*
X283618Y367000D01*
X282619D01*
X282119Y366500D01*
X285118Y367000D02*
Y366500D01*
X285618D01*
Y367000D01*
X285118D01*
X287617Y364501D02*
X288117Y364001D01*
X289117D01*
X289616Y364501D01*
Y365001D01*
X289117Y365500D01*
X288617D01*
X289117D01*
X289616Y366000D01*
Y366500D01*
X289117Y367000D01*
X288117D01*
X287617Y366500D01*
X290616Y364001D02*
Y366000D01*
X291616Y367000D01*
X292615Y366000D01*
Y364001D01*
X157315Y340000D02*
X158315D01*
X157815D01*
Y337001D01*
X157315Y337501D01*
X162814Y338500D02*
X164813D01*
X170811Y337001D02*
X168812D01*
Y338500D01*
X169811Y338001D01*
X170311D01*
X170811Y338500D01*
Y339500D01*
X170311Y340000D01*
X169312D01*
X168812Y339500D01*
X171811Y337001D02*
Y339000D01*
X172810Y340000D01*
X173810Y339000D01*
Y337001D01*
X177809D02*
X178808D01*
X178309D01*
Y340000D01*
X177809D01*
X178808D01*
X180308D02*
Y338001D01*
X181807D01*
X182307Y338500D01*
Y340000D01*
X159315Y344500D02*
X157315D01*
X159315Y342501D01*
Y342001D01*
X158815Y341501D01*
X157815D01*
X157315Y342001D01*
X163313Y343001D02*
X165313D01*
X171311Y342001D02*
X170811Y341501D01*
X169811D01*
X169312Y342001D01*
Y344000D01*
X169811Y344500D01*
X170811D01*
X171311Y344000D01*
Y343001D01*
X170311D01*
X172311Y344500D02*
Y341501D01*
X174310Y344500D01*
Y341501D01*
X175310D02*
Y344500D01*
X176809D01*
X177309Y344000D01*
Y342001D01*
X176809Y341501D01*
X175310D01*
X157315Y346501D02*
X157815Y346001D01*
X158815D01*
X159315Y346501D01*
Y347001D01*
X158815Y347500D01*
X158315D01*
X158815D01*
X159315Y348000D01*
Y348500D01*
X158815Y349000D01*
X157815D01*
X157315Y348500D01*
X163313Y347500D02*
X165313D01*
X169312Y349000D02*
Y346001D01*
X170811D01*
X171311Y346501D01*
Y347500D01*
X170811Y348000D01*
X169312D01*
X176809Y346001D02*
X175810D01*
X175310Y346501D01*
Y348500D01*
X175810Y349000D01*
X176809D01*
X177309Y348500D01*
Y346501D01*
X176809Y346001D01*
X178309D02*
Y348500D01*
X178808Y349000D01*
X179808D01*
X180308Y348500D01*
Y346001D01*
X181308D02*
X183307D01*
X182307D01*
Y349000D01*
X158815Y353500D02*
Y350501D01*
X157315Y352000D01*
X159315D01*
X163313D02*
X165313D01*
X169312Y351001D02*
X169811Y350501D01*
X170811D01*
X171311Y351001D01*
Y351501D01*
X170811Y352000D01*
X170311D01*
X170811D01*
X171311Y352500D01*
Y353000D01*
X170811Y353500D01*
X169811D01*
X169312Y353000D01*
X172311Y353500D02*
Y353000D01*
X172810D01*
Y353500D01*
X172311D01*
X174810Y351001D02*
X175310Y350501D01*
X176309D01*
X176809Y351001D01*
Y351501D01*
X176309Y352000D01*
X175810D01*
X176309D01*
X176809Y352500D01*
Y353000D01*
X176309Y353500D01*
X175310D01*
X174810Y353000D01*
X177809Y350501D02*
Y352500D01*
X178808Y353500D01*
X179808Y352500D01*
Y350501D01*
X183807D02*
X184807D01*
X184307D01*
Y353500D01*
X183807D01*
X184807D01*
X186306D02*
Y350501D01*
X188305Y353500D01*
Y350501D01*
X159315Y355001D02*
X157315D01*
Y356501D01*
X158315Y356001D01*
X158815D01*
X159315Y356501D01*
Y357500D01*
X158815Y358000D01*
X157815D01*
X157315Y357500D01*
X163313Y356501D02*
X165313D01*
X169312Y355001D02*
X171311D01*
X170311D01*
Y358000D01*
X176809Y355001D02*
X175810D01*
X175310Y355501D01*
Y357500D01*
X175810Y358000D01*
X176809D01*
X177309Y357500D01*
Y355501D01*
X176809Y355001D01*
X178309D02*
Y357500D01*
X178808Y358000D01*
X179808D01*
X180308Y357500D01*
Y355001D01*
X181308D02*
X183307D01*
X182307D01*
Y358000D01*
X159315Y359501D02*
X158315Y360001D01*
X157315Y361000D01*
Y362000D01*
X157815Y362500D01*
X158815D01*
X159315Y362000D01*
Y361500D01*
X158815Y361000D01*
X157315D01*
X163313D02*
X165313D01*
X171311Y360001D02*
X170811Y359501D01*
X169811D01*
X169312Y360001D01*
Y362000D01*
X169811Y362500D01*
X170811D01*
X171311Y362000D01*
Y361000D01*
X170311D01*
X172311Y362500D02*
Y359501D01*
X174310Y362500D01*
Y359501D01*
X175310D02*
Y362500D01*
X176809D01*
X177309Y362000D01*
Y360001D01*
X176809Y359501D01*
X175310D01*
X166315Y364501D02*
X166815Y364001D01*
X167815D01*
X168315Y364501D01*
Y365001D01*
X167815Y365500D01*
X168315Y366000D01*
Y366500D01*
X167815Y367000D01*
X166815D01*
X166315Y366500D01*
Y366000D01*
X166815Y365500D01*
X166315Y365001D01*
Y364501D01*
X166815Y365500D02*
X167815D01*
X172313D02*
X174313D01*
X178312Y364501D02*
X178811Y364001D01*
X179811D01*
X180311Y364501D01*
Y365001D01*
X179811Y365500D01*
X179311D01*
X179811D01*
X180311Y366000D01*
Y366500D01*
X179811Y367000D01*
X178811D01*
X178312Y366500D01*
X181311Y367000D02*
Y366500D01*
X181810D01*
Y367000D01*
X181311D01*
X183810Y364501D02*
X184310Y364001D01*
X185309D01*
X185809Y364501D01*
Y365001D01*
X185309Y365500D01*
X184810D01*
X185309D01*
X185809Y366000D01*
Y366500D01*
X185309Y367000D01*
X184310D01*
X183810Y366500D01*
X186809Y364001D02*
Y366000D01*
X187809Y367000D01*
X188808Y366000D01*
Y364001D01*
X56500Y340000D02*
X57500D01*
X57000D01*
Y337001D01*
X56500Y337501D01*
X61998Y338500D02*
X63998D01*
X69996Y337001D02*
X67996D01*
Y338500D01*
X68996Y338001D01*
X69496D01*
X69996Y338500D01*
Y339500D01*
X69496Y340000D01*
X68496D01*
X67996Y339500D01*
X70995Y337001D02*
Y339000D01*
X71995Y340000D01*
X72995Y339000D01*
Y337001D01*
X76993D02*
X77993D01*
X77493D01*
Y340000D01*
X76993D01*
X77993D01*
X79493D02*
Y338001D01*
X80992D01*
X81492Y338500D01*
Y340000D01*
X58499Y344500D02*
X56500D01*
X58499Y342501D01*
Y342001D01*
X57999Y341501D01*
X57000D01*
X56500Y342001D01*
X62498Y343001D02*
X64497D01*
X70495Y342001D02*
X69996Y341501D01*
X68996D01*
X68496Y342001D01*
Y344000D01*
X68996Y344500D01*
X69996D01*
X70495Y344000D01*
Y343001D01*
X69496D01*
X71495Y344500D02*
Y341501D01*
X73494Y344500D01*
Y341501D01*
X74494D02*
Y344500D01*
X75994D01*
X76494Y344000D01*
Y342001D01*
X75994Y341501D01*
X74494D01*
X56500Y346501D02*
X57000Y346001D01*
X57999D01*
X58499Y346501D01*
Y347001D01*
X57999Y347500D01*
X57500D01*
X57999D01*
X58499Y348000D01*
Y348500D01*
X57999Y349000D01*
X57000D01*
X56500Y348500D01*
X62498Y347500D02*
X64497D01*
X68496Y349000D02*
Y346001D01*
X69996D01*
X70495Y346501D01*
Y347500D01*
X69996Y348000D01*
X68496D01*
X75994Y346001D02*
X74994D01*
X74494Y346501D01*
Y348500D01*
X74994Y349000D01*
X75994D01*
X76494Y348500D01*
Y346501D01*
X75994Y346001D01*
X77493D02*
Y348500D01*
X77993Y349000D01*
X78993D01*
X79493Y348500D01*
Y346001D01*
X80492D02*
X82492D01*
X81492D01*
Y349000D01*
X57999Y353500D02*
Y350501D01*
X56500Y352000D01*
X58499D01*
X62498D02*
X64497D01*
X68496Y351001D02*
X68996Y350501D01*
X69996D01*
X70495Y351001D01*
Y351501D01*
X69996Y352000D01*
X69496D01*
X69996D01*
X70495Y352500D01*
Y353000D01*
X69996Y353500D01*
X68996D01*
X68496Y353000D01*
X71495Y353500D02*
Y353000D01*
X71995D01*
Y353500D01*
X71495D01*
X73994Y351001D02*
X74494Y350501D01*
X75494D01*
X75994Y351001D01*
Y351501D01*
X75494Y352000D01*
X74994D01*
X75494D01*
X75994Y352500D01*
Y353000D01*
X75494Y353500D01*
X74494D01*
X73994Y353000D01*
X76993Y350501D02*
Y352500D01*
X77993Y353500D01*
X78993Y352500D01*
Y350501D01*
X82991D02*
X83991D01*
X83491D01*
Y353500D01*
X82991D01*
X83991D01*
X85491D02*
Y350501D01*
X87490Y353500D01*
Y350501D01*
X58499Y355001D02*
X56500D01*
Y356501D01*
X57500Y356001D01*
X57999D01*
X58499Y356501D01*
Y357500D01*
X57999Y358000D01*
X57000D01*
X56500Y357500D01*
X62498Y356501D02*
X64497D01*
X68496Y355001D02*
X70495D01*
X69496D01*
Y358000D01*
X75994Y355001D02*
X74994D01*
X74494Y355501D01*
Y357500D01*
X74994Y358000D01*
X75994D01*
X76494Y357500D01*
Y355501D01*
X75994Y355001D01*
X77493D02*
Y357500D01*
X77993Y358000D01*
X78993D01*
X79493Y357500D01*
Y355001D01*
X80492D02*
X82492D01*
X81492D01*
Y358000D01*
X58499Y359501D02*
X57500Y360001D01*
X56500Y361000D01*
Y362000D01*
X57000Y362500D01*
X57999D01*
X58499Y362000D01*
Y361500D01*
X57999Y361000D01*
X56500D01*
X62498D02*
X64497D01*
X70495Y360001D02*
X69996Y359501D01*
X68996D01*
X68496Y360001D01*
Y362000D01*
X68996Y362500D01*
X69996D01*
X70495Y362000D01*
Y361000D01*
X69496D01*
X71495Y362500D02*
Y359501D01*
X73494Y362500D01*
Y359501D01*
X74494D02*
Y362500D01*
X75994D01*
X76494Y362000D01*
Y360001D01*
X75994Y359501D01*
X74494D01*
X65500Y364501D02*
X66000Y364001D01*
X67000D01*
X67499Y364501D01*
Y365001D01*
X67000Y365500D01*
X67499Y366000D01*
Y366500D01*
X67000Y367000D01*
X66000D01*
X65500Y366500D01*
Y366000D01*
X66000Y365500D01*
X65500Y365001D01*
Y364501D01*
X66000Y365500D02*
X67000D01*
X71498D02*
X73497D01*
X77496Y364501D02*
X77996Y364001D01*
X78996D01*
X79496Y364501D01*
Y365001D01*
X78996Y365500D01*
X78496D01*
X78996D01*
X79496Y366000D01*
Y366500D01*
X78996Y367000D01*
X77996D01*
X77496Y366500D01*
X80495Y367000D02*
Y366500D01*
X80995D01*
Y367000D01*
X80495D01*
X82994Y364501D02*
X83494Y364001D01*
X84494D01*
X84994Y364501D01*
Y365001D01*
X84494Y365500D01*
X83994D01*
X84494D01*
X84994Y366000D01*
Y366500D01*
X84494Y367000D01*
X83494D01*
X82994Y366500D01*
X85993Y364001D02*
Y366000D01*
X86993Y367000D01*
X87993Y366000D01*
Y364001D01*
M02*
