%FSLAX25Y25*%
%MOIN*%
G70*
G01*
G75*
G04 Layer_Color=16711935*
%ADD10R,0.01575X0.01969*%
%ADD11R,0.01969X0.12992*%
%ADD12R,0.05118X0.12992*%
%ADD13R,0.04724X0.03150*%
%ADD14R,0.04724X0.04724*%
%ADD15R,0.04331X0.06693*%
%ADD16R,0.04750X0.01600*%
%ADD17R,0.06693X0.04331*%
%ADD18R,0.03543X0.03150*%
%ADD19R,0.03150X0.03543*%
%ADD20O,0.12047X0.03504*%
%ADD21R,0.33622X0.21063*%
%ADD22O,0.03504X0.12047*%
%ADD23R,0.21063X0.33622*%
%ADD24R,0.26772X0.07087*%
%ADD25C,0.01000*%
%ADD26C,0.05906*%
%ADD27R,0.05906X0.05906*%
%ADD28C,0.19400*%
%ADD29R,0.05906X0.05906*%
%ADD30C,0.05512*%
%ADD31O,0.03937X0.07874*%
%ADD32O,0.03937X0.07874*%
%ADD33C,0.06000*%
%ADD34O,0.07874X0.03937*%
%ADD35O,0.07874X0.03937*%
%ADD36C,0.05000*%
%ADD37C,0.02598*%
%ADD38C,0.00500*%
%ADD39C,0.00787*%
%ADD40C,0.00300*%
%ADD41C,0.00400*%
%ADD42C,0.00333*%
%ADD43C,0.00750*%
%ADD44R,0.02375X0.02769*%
%ADD45R,0.02769X0.13792*%
%ADD46R,0.05918X0.13792*%
%ADD47R,0.05524X0.03950*%
%ADD48R,0.05524X0.05524*%
%ADD49R,0.05131X0.07493*%
%ADD50R,0.05550X0.02400*%
%ADD51R,0.07493X0.05131*%
%ADD52R,0.04343X0.03950*%
%ADD53R,0.03950X0.04343*%
%ADD54O,0.12835X0.04291*%
%ADD55R,0.34409X0.21850*%
%ADD56O,0.04291X0.12835*%
%ADD57R,0.21850X0.34409*%
%ADD58R,0.27575X0.07890*%
%ADD59C,0.06706*%
%ADD60R,0.06706X0.06706*%
%ADD61C,0.20200*%
%ADD62R,0.06706X0.06706*%
%ADD63C,0.06312*%
%ADD64O,0.04737X0.08674*%
%ADD65O,0.04737X0.08674*%
%ADD66C,0.06800*%
%ADD67O,0.08674X0.04737*%
%ADD68O,0.08674X0.04737*%
%ADD69C,0.05800*%
%ADD70C,0.03402*%
D59*
X435660Y357000D02*
D03*
X373173D02*
D03*
X295623Y332000D02*
D03*
X285623D02*
D03*
X275623D02*
D03*
X265623D02*
D03*
Y379500D02*
D03*
Y369500D02*
D03*
X191815Y332000D02*
D03*
X181815D02*
D03*
X171815D02*
D03*
X161815D02*
D03*
Y379500D02*
D03*
Y369500D02*
D03*
X91000Y332000D02*
D03*
X81000D02*
D03*
X71000D02*
D03*
X61000D02*
D03*
Y379500D02*
D03*
Y369500D02*
D03*
X298579Y53212D02*
D03*
Y43212D02*
D03*
Y33212D02*
D03*
Y23212D02*
D03*
X268401Y53026D02*
D03*
Y43026D02*
D03*
Y33026D02*
D03*
Y23026D02*
D03*
X112886Y23922D02*
D03*
X69927Y75311D02*
D03*
Y65311D02*
D03*
Y55311D02*
D03*
Y45311D02*
D03*
Y25311D02*
D03*
Y35311D02*
D03*
X341838Y20877D02*
D03*
X351838D02*
D03*
X84642Y304702D02*
D03*
X104642D02*
D03*
X114642D02*
D03*
X124642D02*
D03*
X134642D02*
D03*
X144642D02*
D03*
X154642D02*
D03*
X164642D02*
D03*
X94642D02*
D03*
X380642D02*
D03*
X370642Y294702D02*
D03*
X380642D02*
D03*
X370642Y284702D02*
D03*
X380642D02*
D03*
X370642Y274702D02*
D03*
X380642D02*
D03*
X370642Y264702D02*
D03*
X380642D02*
D03*
X370642Y254702D02*
D03*
X380642D02*
D03*
X370642Y244702D02*
D03*
X380642D02*
D03*
X370642Y234702D02*
D03*
X380642D02*
D03*
X370642Y224702D02*
D03*
X380642D02*
D03*
X370642Y214702D02*
D03*
X380642D02*
D03*
X370642Y204702D02*
D03*
X380642D02*
D03*
X370642Y194702D02*
D03*
X380642D02*
D03*
X370642Y184702D02*
D03*
X380642D02*
D03*
X370642Y174702D02*
D03*
X380642D02*
D03*
X370642Y164702D02*
D03*
X380642D02*
D03*
X370642Y154702D02*
D03*
X380642D02*
D03*
X370642Y144702D02*
D03*
X380642D02*
D03*
X370642Y134702D02*
D03*
X380642D02*
D03*
X340642Y304702D02*
D03*
X330642D02*
D03*
X320642D02*
D03*
X310642D02*
D03*
X300642D02*
D03*
X290642D02*
D03*
X280642D02*
D03*
X180642Y114702D02*
D03*
X170642D02*
D03*
X160642D02*
D03*
X150642D02*
D03*
X140642D02*
D03*
X130642D02*
D03*
X120642D02*
D03*
X87142Y258702D02*
D03*
Y268702D02*
D03*
Y248702D02*
D03*
Y238702D02*
D03*
Y228702D02*
D03*
Y218702D02*
D03*
X378790Y16874D02*
D03*
Y26874D02*
D03*
Y36874D02*
D03*
Y46874D02*
D03*
Y56874D02*
D03*
Y66874D02*
D03*
Y76874D02*
D03*
X155492Y24034D02*
D03*
X116000Y223000D02*
D03*
X268465Y218112D02*
D03*
X342624Y162743D02*
D03*
X332624D02*
D03*
X288455Y243147D02*
D03*
X268026Y241403D02*
D03*
X353750Y271044D02*
D03*
Y281044D02*
D03*
X286000Y163000D02*
D03*
X296000D02*
D03*
X306000D02*
D03*
X240000Y162743D02*
D03*
X250000D02*
D03*
X260000D02*
D03*
X307877Y86132D02*
D03*
X297877D02*
D03*
X360642Y114702D02*
D03*
X350642D02*
D03*
X340642D02*
D03*
X330642D02*
D03*
X320642D02*
D03*
X310642D02*
D03*
X300642D02*
D03*
X61376Y92926D02*
D03*
X71376D02*
D03*
X103274Y149809D02*
D03*
X93274D02*
D03*
X83274D02*
D03*
X73274D02*
D03*
X63274D02*
D03*
X104049Y87064D02*
D03*
X433804Y143000D02*
D03*
Y153000D02*
D03*
Y163000D02*
D03*
Y173000D02*
D03*
X270642Y114702D02*
D03*
X260642D02*
D03*
X250642D02*
D03*
X240642D02*
D03*
X230642D02*
D03*
X220642D02*
D03*
X210642D02*
D03*
D60*
X445660Y357000D02*
D03*
X383173D02*
D03*
X305623Y332000D02*
D03*
X201815D02*
D03*
X101000D02*
D03*
X122886Y23922D02*
D03*
X331838Y20877D02*
D03*
X74642Y304702D02*
D03*
X270642D02*
D03*
X110642Y114702D02*
D03*
X165492Y24034D02*
D03*
X258465Y218112D02*
D03*
X322624Y162743D02*
D03*
X298455Y243147D02*
D03*
X258026Y241403D02*
D03*
X276000Y163000D02*
D03*
X230000Y162743D02*
D03*
X287877Y86132D02*
D03*
X290642Y114702D02*
D03*
X81376Y92926D02*
D03*
X113274Y149809D02*
D03*
X114049Y87064D02*
D03*
X200642Y114702D02*
D03*
D61*
X443160Y337000D02*
D03*
X418160Y357000D02*
D03*
X380673Y337000D02*
D03*
X355673Y357000D02*
D03*
X249223Y384794D02*
D03*
X321623Y332500D02*
D03*
Y384500D02*
D03*
X249223Y332600D02*
D03*
X145415Y384794D02*
D03*
X217815Y332500D02*
D03*
Y384500D02*
D03*
X145415Y332600D02*
D03*
X44600Y384794D02*
D03*
X117000Y332500D02*
D03*
Y384500D02*
D03*
X44600Y332600D02*
D03*
D62*
X265623Y389500D02*
D03*
X161815D02*
D03*
X61000D02*
D03*
X298579Y13212D02*
D03*
X268401Y13026D02*
D03*
X69927Y15311D02*
D03*
X370642Y304702D02*
D03*
X87142Y278702D02*
D03*
X378790Y86874D02*
D03*
X116000Y233000D02*
D03*
X353750Y291044D02*
D03*
X433804Y133000D02*
D03*
D63*
X131000Y208000D02*
D03*
Y248000D02*
D03*
X230000Y258702D02*
D03*
X270000D02*
D03*
X109290Y280679D02*
D03*
X149290D02*
D03*
X148956Y268981D02*
D03*
X108956D02*
D03*
X197608Y227341D02*
D03*
X157608D02*
D03*
X197747Y242179D02*
D03*
X157747D02*
D03*
X324823Y77196D02*
D03*
Y37196D02*
D03*
X340599Y58428D02*
D03*
Y98428D02*
D03*
X412271Y134393D02*
D03*
Y174393D02*
D03*
X399087Y173954D02*
D03*
Y133954D02*
D03*
X251830Y75708D02*
D03*
Y35708D02*
D03*
X240836Y75769D02*
D03*
Y35768D02*
D03*
X398423Y283150D02*
D03*
X438423D02*
D03*
X398862Y265573D02*
D03*
X438862D02*
D03*
X398423Y248434D02*
D03*
X438423D02*
D03*
X397984Y229977D02*
D03*
X437984D02*
D03*
X397984Y212839D02*
D03*
X437984D02*
D03*
X357126Y215000D02*
D03*
X317126D02*
D03*
X197556Y213779D02*
D03*
X157556D02*
D03*
X214081Y206462D02*
D03*
Y246462D02*
D03*
X357000Y229000D02*
D03*
X317000D02*
D03*
X357126Y244000D02*
D03*
X317126D02*
D03*
X237811Y206023D02*
D03*
Y246023D02*
D03*
X108988Y291414D02*
D03*
X148988D02*
D03*
X169748Y77962D02*
D03*
X129748D02*
D03*
X169611Y92503D02*
D03*
X129611D02*
D03*
X135746Y60333D02*
D03*
X175746D02*
D03*
X220167Y94252D02*
D03*
X180167D02*
D03*
X59000Y109906D02*
D03*
X99000D02*
D03*
X135874Y45695D02*
D03*
X175874D02*
D03*
X99000Y124000D02*
D03*
X59000D02*
D03*
X89920Y176499D02*
D03*
X129920D02*
D03*
X89933Y191306D02*
D03*
X129933D02*
D03*
X60000Y208000D02*
D03*
Y168000D02*
D03*
X45335Y207791D02*
D03*
Y167791D02*
D03*
X305148Y283150D02*
D03*
X265148D02*
D03*
X305148Y268000D02*
D03*
X265148D02*
D03*
X338657Y255000D02*
D03*
Y295000D02*
D03*
X357000Y199109D02*
D03*
X317000D02*
D03*
D64*
X297303Y201839D02*
D03*
X292302D02*
D03*
X342126Y184275D02*
D03*
X337126D02*
D03*
X297742Y222493D02*
D03*
X292742D02*
D03*
X238000Y291795D02*
D03*
X243000D02*
D03*
X193350Y304539D02*
D03*
X198350D02*
D03*
D65*
X287302Y201839D02*
D03*
X332126Y184275D02*
D03*
X287742Y222493D02*
D03*
X248000Y291795D02*
D03*
X203350Y304539D02*
D03*
D66*
X466000Y212839D02*
D03*
X456000D02*
D03*
X466000Y242179D02*
D03*
X456000D02*
D03*
X466000Y272000D02*
D03*
X456000D02*
D03*
X466000Y302000D02*
D03*
X456000D02*
D03*
X437000D02*
D03*
X427000D02*
D03*
D67*
X324000Y267000D02*
D03*
Y272000D02*
D03*
D68*
Y277000D02*
D03*
D69*
X275373Y380250D02*
D03*
X297623Y366000D02*
D03*
X285623Y353500D02*
D03*
X291623Y348500D02*
D03*
X171565Y380250D02*
D03*
X193815Y366000D02*
D03*
X181815Y353500D02*
D03*
X187815Y348500D02*
D03*
X70750Y380250D02*
D03*
X93000Y366000D02*
D03*
X81000Y353500D02*
D03*
X87000Y348500D02*
D03*
X141000Y232433D02*
D03*
X228361Y53919D02*
D03*
X207481Y73007D02*
D03*
X228221Y44930D02*
D03*
X150086Y134994D02*
D03*
X174882Y69889D02*
D03*
X285148Y65132D02*
D03*
X345000Y134994D02*
D03*
X356682Y74899D02*
D03*
X206979Y82033D02*
D03*
X257425Y82426D02*
D03*
X389870Y138566D02*
D03*
X200077Y94313D02*
D03*
X185123Y82402D02*
D03*
X255000Y134702D02*
D03*
X280000Y125000D02*
D03*
X124642Y203000D02*
D03*
D70*
X206949Y278475D02*
D03*
Y270975D02*
D03*
Y263475D02*
D03*
X199449Y278475D02*
D03*
Y270975D02*
D03*
Y263475D02*
D03*
X191949Y270975D02*
D03*
Y263475D02*
D03*
X184449Y278475D02*
D03*
Y270975D02*
D03*
Y263475D02*
D03*
X191949Y278475D02*
D03*
X208994Y19977D02*
D03*
X201494D02*
D03*
X193994D02*
D03*
X208994Y27477D02*
D03*
X201494D02*
D03*
X193994D02*
D03*
X201494Y34977D02*
D03*
X193994D02*
D03*
X208994Y42477D02*
D03*
X201494D02*
D03*
X193994D02*
D03*
X208994Y34977D02*
D03*
M02*
