M48
;Layer_Color=9474304
;FILE_FORMAT=2:5
INCH,LZ
;TYPE=PLATED
T1F00S00C0.01299
T2F00S00C0.02800
T3F00S00C0.03150
T4F00S00C0.03346
T5F00S00C0.03543
T6F00S00C0.08600
;TYPE=NON_PLATED
T7F00S00C0.08600
%
T01
X0193994Y0019977
X0201494
X0208994
Y0027477
X0201494
X0193994
Y0034977
X0201494
Y0042477
X0208994
Y0034977
X0193994Y0042477
X0191949Y0263475
X0199449
X0206949
Y0270975
Y0278475
X0199449
Y0270975
X0191949
X0184449
Y0278475
X0191949
X0184449Y0263475
T02
X0228221Y004493
X038987Y0138566
X0345Y0134994
X0356682Y0074899
X0285148Y0065132
X0257425Y0082426
X0255Y0134702
X028Y0125
X0228361Y0053919
X0207481Y0073007
X0206979Y0082033
X0200077Y0094313
X0185123Y0082402
X0174882Y0069889
X0150086Y0134994
X0124642Y0203
X0141Y0232433
X0181815Y03535
X0187815Y03485
X0087
X0081Y03535
X0285623
X0291623Y03485
X0297623Y0366
X0275373Y038025
X0193815Y0366
X0171565Y038025
X0093Y0366
X007075Y038025
T03
X0287302Y0201839
X0292302
X0297303
X0332126Y0184275
X0337126
X0342126
X020335Y0304539
X019835
X019335
X0238Y0291795
X0243
X0248
X0324Y0277
Y0272
Y0267
X0297742Y0222493
X0292742
X0287742
T04
X0135874Y0045695
X0175874
X0240836Y0035768
X025183Y0035708
X0324823Y0037196
X0399087Y0133954
X0412271Y0134393
Y0174393
X0399087Y0173954
X0357Y0199109
X0317
X0237811Y0206023
X0214081Y0206462
X0220167Y0094252
X0240836Y0075769
X025183Y0075708
X0324823Y0077196
X0340599Y0058428
Y0098428
X0180167Y0094252
X0169611Y0092503
X0169748Y0077962
X0175746Y0060333
X0135746
X0129748Y0077962
X0129611Y0092503
X0099Y0109906
Y0124
X0059
Y0109906
X006Y0168
X008992Y0176499
X0089933Y0191306
X0129933
X012992Y0176499
X0131Y0208
X006
X0045335Y0207791
Y0167791
X0157556Y0213779
X0157608Y0227341
X0157747Y0242179
X0131Y0248
X0148956Y0268981
X014929Y0280679
X0148988Y0291414
X0108988
X010929Y0280679
X0108956Y0268981
X0197747Y0242179
X0197608Y0227341
X0197556Y0213779
X0214081Y0246462
X0237811Y0246023
X023Y0258702
X027
X0265148Y0268
Y028315
X0305148
Y0268
X0317126Y0244
X0317Y0229
X0317126Y0215
X0357126
X0357Y0229
X0357126Y0244
X0338657Y0255
Y0295
X0398423Y028315
X0398862Y0265573
X0398423Y0248434
X0397984Y0229977
Y0212839
X0437984
Y0229977
X0438423Y0248434
X0438862Y0265573
X0438423Y028315
T05
X0069927Y0015311
Y0025311
Y0035311
Y0045311
X0112886Y0023922
X0122886
X0155492Y0024034
X0165492
X0268401Y0023026
Y0033026
Y0043026
Y0013026
X0298579Y0013212
Y0023212
Y0033212
Y0043212
X0331838Y0020877
X0341838
X0351838
X037879Y0016874
Y0026874
Y0036874
Y0046874
Y0056874
Y0066874
Y0076874
Y0086874
X0380642Y0134702
Y0144702
Y0154702
Y0164702
Y0174702
Y0184702
Y0194702
Y0204702
X0370642
Y0194702
Y0184702
Y0174702
Y0164702
Y0154702
Y0144702
Y0134702
X0433804Y0133
Y0143
Y0153
Y0163
Y0173
X0342624Y0162743
X0332624
X0322624
X0306Y0163
X0296
X0286
X0276
X026Y0162743
X025
X024
X023
X0230642Y0114702
X0240642
X0250642
X0260642
X0270642
X0290642
X0300642
X0310642
X0320642
X0330642
X0340642
X0350642
X0360642
X0307877Y0086132
X0297877
X0287877
X0298579Y0053212
X0268401Y0053026
X0220642Y0114702
X0210642
X0200642
X0180642Y0114702
X0170642
X0160642
X0150642
X0140642
X0130642
X0120642
X0110642
X0114049Y0087064
X0104049
X0081376Y0092926
X0071376
X0061376
X0069927Y0075311
Y0065311
Y0055311
X0073274Y0149809
X0083274
X0093274
X0103274
X0113274
X0063274
X0087142Y0218702
Y0228702
Y0238702
Y0248702
Y0258702
Y0268702
Y0278702
X0084642Y0304702
X0074642
X0094642
X0104642
X0114642
X0124642
X0134642
X0144642
X0154642
X0164642
X0161815Y0332
X0171815
X0181815
X0191815
X0201815
X0101
X0091
X0081
X0071
X0061
X0116Y0233
Y0223
X0258465Y0218112
X0268465
X0268026Y0241403
X0258026
X0288455Y0243147
X0298455
X0300642Y0304702
X0310642
X0320642
X0330642
X0340642
X035375Y0291044
Y0281044
Y0271044
X0290642Y0304702
X0280642
X0270642
X0275623Y0332
X0285623
X0295623
X0305623
X0265623
X0370642Y0304702
X0380642
Y0294702
X0370642
Y0284702
X0380642
Y0274702
X0370642
Y0264702
X0380642
Y0254702
X0370642
Y0244702
X0380642
Y0234702
X0370642
Y0224702
X0380642
Y0214702
X0370642
X0456Y0212839
X0466
Y0242179
X0456
Y0272
X0466
Y0302
X0456
X0437
X0427
X043566Y0357
X044566
X0383173
X0373173
X0265623Y03695
Y03795
Y03895
X0161815
Y03795
Y03695
X0061
Y03795
Y03895
T06
X00446Y03326
X0117Y03325
X0145415Y03326
X0217815Y03325
X0249223Y03326
X0321623Y03325
Y03845
X0249223Y0384794
X0217815Y03845
X0145415Y0384794
X0117Y03845
X00446Y0384794
T07
X0355673Y0357
X0380673Y0337
X041816Y0357
X044316Y0337
M30
