G04 Layer_Physical_Order=2*
G04 Layer_Color=16711680*
%FSLAX25Y25*%
%MOIN*%
G70*
G01*
G75*
%ADD23C,0.01000*%
%ADD24C,0.05905*%
%ADD25R,0.05905X0.05905*%
%ADD26C,0.05512*%
%ADD27R,0.05905X0.05905*%
%ADD28O,0.07874X0.04000*%
%ADD29O,0.07874X0.04000*%
%ADD30C,0.07874*%
%ADD31O,0.07874X0.03937*%
%ADD32O,0.07874X0.03937*%
%ADD33O,0.07874X0.03930*%
%ADD34O,0.07874X0.03930*%
%ADD35C,0.06000*%
%ADD36C,0.05000*%
%ADD37C,0.02598*%
G36*
X162500Y422500D02*
X106000D01*
Y495000D01*
X162500D01*
Y422500D01*
D02*
G37*
G36*
X227500D02*
X170000D01*
Y495000D01*
X227500D01*
Y422500D01*
D02*
G37*
G36*
X295000D02*
X237500D01*
Y495000D01*
X295000D01*
Y422500D01*
D02*
G37*
G36*
X538000Y409000D02*
Y110000D01*
X537500Y109500D01*
X107500D01*
Y409500D01*
X537500D01*
X538000Y409000D01*
D02*
G37*
%LPC*%
G36*
X117000Y482487D02*
X115968Y482351D01*
X115007Y481953D01*
X114181Y481319D01*
X113547Y480493D01*
X113149Y479532D01*
X113013Y478500D01*
X113149Y477468D01*
X113547Y476507D01*
X114181Y475681D01*
X115007Y475047D01*
X115968Y474649D01*
X117000Y474513D01*
X118032Y474649D01*
X118993Y475047D01*
X119819Y475681D01*
X120453Y476507D01*
X120851Y477468D01*
X120987Y478500D01*
X120851Y479532D01*
X120453Y480493D01*
X119819Y481319D01*
X118993Y481953D01*
X118032Y482351D01*
X117000Y482487D01*
D02*
G37*
G36*
X116500Y488000D02*
X113079D01*
X113149Y487468D01*
X113547Y486507D01*
X114181Y485681D01*
X115007Y485047D01*
X115968Y484649D01*
X116500Y484579D01*
Y488000D01*
D02*
G37*
G36*
X137500Y435421D02*
Y432000D01*
X140921D01*
X140851Y432532D01*
X140453Y433493D01*
X139819Y434319D01*
X138993Y434953D01*
X138032Y435351D01*
X137500Y435421D01*
D02*
G37*
G36*
X120953Y472453D02*
X113047D01*
Y464547D01*
X120953D01*
Y472453D01*
D02*
G37*
G36*
X117500Y492421D02*
Y489000D01*
X120921D01*
X120851Y489532D01*
X120453Y490493D01*
X119819Y491319D01*
X118993Y491953D01*
X118032Y492351D01*
X117500Y492421D01*
D02*
G37*
G36*
X120921Y488000D02*
X117500D01*
Y484579D01*
X118032Y484649D01*
X118993Y485047D01*
X119819Y485681D01*
X120453Y486507D01*
X120851Y487468D01*
X120921Y488000D01*
D02*
G37*
G36*
X116500Y492421D02*
X115968Y492351D01*
X115007Y491953D01*
X114181Y491319D01*
X113547Y490493D01*
X113149Y489532D01*
X113079Y489000D01*
X116500D01*
Y492421D01*
D02*
G37*
G36*
X155000Y470530D02*
X154086Y470410D01*
X153235Y470057D01*
X152504Y469496D01*
X151943Y468765D01*
X151590Y467914D01*
X151470Y467000D01*
X151590Y466086D01*
X151943Y465235D01*
X152504Y464504D01*
X153235Y463943D01*
X153471Y463845D01*
Y440133D01*
X148790Y435453D01*
X143047D01*
Y427547D01*
X150953D01*
Y433290D01*
X156081Y438419D01*
X156413Y438915D01*
X156529Y439500D01*
Y463845D01*
X156765Y463943D01*
X157496Y464504D01*
X158057Y465235D01*
X158410Y466086D01*
X158530Y467000D01*
X158410Y467914D01*
X158057Y468765D01*
X157496Y469496D01*
X156765Y470057D01*
X155914Y470410D01*
X155000Y470530D01*
D02*
G37*
G36*
X127000Y435487D02*
X125968Y435351D01*
X125007Y434953D01*
X124181Y434319D01*
X123547Y433493D01*
X123149Y432532D01*
X123013Y431500D01*
X123149Y430468D01*
X123547Y429507D01*
X124181Y428681D01*
X125007Y428047D01*
X125968Y427649D01*
X127000Y427513D01*
X128032Y427649D01*
X128993Y428047D01*
X129819Y428681D01*
X130453Y429507D01*
X130851Y430468D01*
X130987Y431500D01*
X130851Y432532D01*
X130453Y433493D01*
X129819Y434319D01*
X128993Y434953D01*
X128032Y435351D01*
X127000Y435487D01*
D02*
G37*
G36*
X117000D02*
X115968Y435351D01*
X115007Y434953D01*
X114181Y434319D01*
X113547Y433493D01*
X113149Y432532D01*
X113013Y431500D01*
X113149Y430468D01*
X113547Y429507D01*
X114181Y428681D01*
X115007Y428047D01*
X115968Y427649D01*
X117000Y427513D01*
X118032Y427649D01*
X118993Y428047D01*
X119819Y428681D01*
X120453Y429507D01*
X120851Y430468D01*
X120987Y431500D01*
X120851Y432532D01*
X120453Y433493D01*
X119819Y434319D01*
X118993Y434953D01*
X118032Y435351D01*
X117000Y435487D01*
D02*
G37*
G36*
X136500Y435421D02*
X135968Y435351D01*
X135007Y434953D01*
X134181Y434319D01*
X133547Y433493D01*
X133149Y432532D01*
X133079Y432000D01*
X136500D01*
Y435421D01*
D02*
G37*
G36*
Y431000D02*
X133079D01*
X133149Y430468D01*
X133547Y429507D01*
X134181Y428681D01*
X135007Y428047D01*
X135968Y427649D01*
X136500Y427579D01*
Y431000D01*
D02*
G37*
G36*
X140921D02*
X137500D01*
Y427579D01*
X138032Y427649D01*
X138993Y428047D01*
X139819Y428681D01*
X140453Y429507D01*
X140851Y430468D01*
X140921Y431000D01*
D02*
G37*
G36*
X182000Y482487D02*
X180968Y482351D01*
X180007Y481953D01*
X179181Y481319D01*
X178547Y480493D01*
X178149Y479532D01*
X178013Y478500D01*
X178149Y477468D01*
X178547Y476507D01*
X179181Y475681D01*
X180007Y475047D01*
X180968Y474649D01*
X182000Y474513D01*
X183032Y474649D01*
X183993Y475047D01*
X184819Y475681D01*
X185453Y476507D01*
X185851Y477468D01*
X185987Y478500D01*
X185851Y479532D01*
X185453Y480493D01*
X184819Y481319D01*
X183993Y481953D01*
X183032Y482351D01*
X182000Y482487D01*
D02*
G37*
G36*
X202500Y435421D02*
Y432000D01*
X205921D01*
X205851Y432532D01*
X205453Y433493D01*
X204819Y434319D01*
X203993Y434953D01*
X203032Y435351D01*
X202500Y435421D01*
D02*
G37*
G36*
X185953Y472453D02*
X178047D01*
Y464547D01*
X185953D01*
Y472453D01*
D02*
G37*
G36*
X181500Y488000D02*
X178079D01*
X178149Y487468D01*
X178547Y486507D01*
X179181Y485681D01*
X180007Y485047D01*
X180968Y484649D01*
X181500Y484579D01*
Y488000D01*
D02*
G37*
G36*
Y492421D02*
X180968Y492351D01*
X180007Y491953D01*
X179181Y491319D01*
X178547Y490493D01*
X178149Y489532D01*
X178079Y489000D01*
X181500D01*
Y492421D01*
D02*
G37*
G36*
X182500D02*
Y489000D01*
X185921D01*
X185851Y489532D01*
X185453Y490493D01*
X184819Y491319D01*
X183993Y491953D01*
X183032Y492351D01*
X182500Y492421D01*
D02*
G37*
G36*
X185921Y488000D02*
X182500D01*
Y484579D01*
X183032Y484649D01*
X183993Y485047D01*
X184819Y485681D01*
X185453Y486507D01*
X185851Y487468D01*
X185921Y488000D01*
D02*
G37*
G36*
X192000Y435487D02*
X190968Y435351D01*
X190007Y434953D01*
X189181Y434319D01*
X188547Y433493D01*
X188149Y432532D01*
X188013Y431500D01*
X188149Y430468D01*
X188547Y429507D01*
X189181Y428681D01*
X190007Y428047D01*
X190968Y427649D01*
X192000Y427513D01*
X193032Y427649D01*
X193993Y428047D01*
X194819Y428681D01*
X195453Y429507D01*
X195851Y430468D01*
X195987Y431500D01*
X195851Y432532D01*
X195453Y433493D01*
X194819Y434319D01*
X193993Y434953D01*
X193032Y435351D01*
X192000Y435487D01*
D02*
G37*
G36*
X182000D02*
X180968Y435351D01*
X180007Y434953D01*
X179181Y434319D01*
X178547Y433493D01*
X178149Y432532D01*
X178013Y431500D01*
X178149Y430468D01*
X178547Y429507D01*
X179181Y428681D01*
X180007Y428047D01*
X180968Y427649D01*
X182000Y427513D01*
X183032Y427649D01*
X183993Y428047D01*
X184819Y428681D01*
X185453Y429507D01*
X185851Y430468D01*
X185987Y431500D01*
X185851Y432532D01*
X185453Y433493D01*
X184819Y434319D01*
X183993Y434953D01*
X183032Y435351D01*
X182000Y435487D01*
D02*
G37*
G36*
X222000Y470030D02*
X221086Y469910D01*
X220235Y469557D01*
X219504Y468996D01*
X218943Y468265D01*
X218590Y467414D01*
X218470Y466500D01*
X218590Y465586D01*
X218943Y464735D01*
X219504Y464004D01*
X220235Y463443D01*
X220471Y463345D01*
Y442134D01*
X213790Y435453D01*
X208047D01*
Y427547D01*
X215953D01*
Y433290D01*
X223081Y440419D01*
X223413Y440915D01*
X223529Y441500D01*
Y463345D01*
X223765Y463443D01*
X224496Y464004D01*
X225057Y464735D01*
X225410Y465586D01*
X225530Y466500D01*
X225410Y467414D01*
X225057Y468265D01*
X224496Y468996D01*
X223765Y469557D01*
X222914Y469910D01*
X222000Y470030D01*
D02*
G37*
G36*
X205921Y431000D02*
X202500D01*
Y427579D01*
X203032Y427649D01*
X203993Y428047D01*
X204819Y428681D01*
X205453Y429507D01*
X205851Y430468D01*
X205921Y431000D01*
D02*
G37*
G36*
X201500Y435421D02*
X200968Y435351D01*
X200007Y434953D01*
X199181Y434319D01*
X198547Y433493D01*
X198149Y432532D01*
X198079Y432000D01*
X201500D01*
Y435421D01*
D02*
G37*
G36*
Y431000D02*
X198079D01*
X198149Y430468D01*
X198547Y429507D01*
X199181Y428681D01*
X200007Y428047D01*
X200968Y427649D01*
X201500Y427579D01*
Y431000D01*
D02*
G37*
G36*
X252453Y472453D02*
X244547D01*
Y464547D01*
X252453D01*
Y472453D01*
D02*
G37*
G36*
X248500Y482487D02*
X247468Y482351D01*
X246507Y481953D01*
X245681Y481319D01*
X245047Y480493D01*
X244649Y479532D01*
X244513Y478500D01*
X244649Y477468D01*
X245047Y476507D01*
X245681Y475681D01*
X246507Y475047D01*
X247468Y474649D01*
X248500Y474513D01*
X249532Y474649D01*
X250493Y475047D01*
X251319Y475681D01*
X251953Y476507D01*
X252351Y477468D01*
X252487Y478500D01*
X252351Y479532D01*
X251953Y480493D01*
X251319Y481319D01*
X250493Y481953D01*
X249532Y482351D01*
X248500Y482487D01*
D02*
G37*
G36*
X269000Y435421D02*
Y432000D01*
X272421D01*
X272351Y432532D01*
X271953Y433493D01*
X271319Y434319D01*
X270493Y434953D01*
X269532Y435351D01*
X269000Y435421D01*
D02*
G37*
G36*
X248000Y492421D02*
X247468Y492351D01*
X246507Y491953D01*
X245681Y491319D01*
X245047Y490493D01*
X244649Y489532D01*
X244579Y489000D01*
X248000D01*
Y492421D01*
D02*
G37*
G36*
X249000D02*
Y489000D01*
X252421D01*
X252351Y489532D01*
X251953Y490493D01*
X251319Y491319D01*
X250493Y491953D01*
X249532Y492351D01*
X249000Y492421D01*
D02*
G37*
G36*
X248000Y488000D02*
X244579D01*
X244649Y487468D01*
X245047Y486507D01*
X245681Y485681D01*
X246507Y485047D01*
X247468Y484649D01*
X248000Y484579D01*
Y488000D01*
D02*
G37*
G36*
X252421D02*
X249000D01*
Y484579D01*
X249532Y484649D01*
X250493Y485047D01*
X251319Y485681D01*
X251953Y486507D01*
X252351Y487468D01*
X252421Y488000D01*
D02*
G37*
G36*
X248500Y435487D02*
X247468Y435351D01*
X246507Y434953D01*
X245681Y434319D01*
X245047Y433493D01*
X244649Y432532D01*
X244513Y431500D01*
X244649Y430468D01*
X245047Y429507D01*
X245681Y428681D01*
X246507Y428047D01*
X247468Y427649D01*
X248500Y427513D01*
X249532Y427649D01*
X250493Y428047D01*
X251319Y428681D01*
X251953Y429507D01*
X252351Y430468D01*
X252487Y431500D01*
X252351Y432532D01*
X251953Y433493D01*
X251319Y434319D01*
X250493Y434953D01*
X249532Y435351D01*
X248500Y435487D01*
D02*
G37*
G36*
X258500D02*
X257468Y435351D01*
X256507Y434953D01*
X255681Y434319D01*
X255047Y433493D01*
X254649Y432532D01*
X254513Y431500D01*
X254649Y430468D01*
X255047Y429507D01*
X255681Y428681D01*
X256507Y428047D01*
X257468Y427649D01*
X258500Y427513D01*
X259532Y427649D01*
X260493Y428047D01*
X261319Y428681D01*
X261953Y429507D01*
X262351Y430468D01*
X262487Y431500D01*
X262351Y432532D01*
X261953Y433493D01*
X261319Y434319D01*
X260493Y434953D01*
X259532Y435351D01*
X258500Y435487D01*
D02*
G37*
G36*
X272421Y431000D02*
X269000D01*
Y427579D01*
X269532Y427649D01*
X270493Y428047D01*
X271319Y428681D01*
X271953Y429507D01*
X272351Y430468D01*
X272421Y431000D01*
D02*
G37*
G36*
X268000Y435421D02*
X267468Y435351D01*
X266507Y434953D01*
X265681Y434319D01*
X265047Y433493D01*
X264649Y432532D01*
X264579Y432000D01*
X268000D01*
Y435421D01*
D02*
G37*
G36*
X288000Y470530D02*
X287086Y470410D01*
X286235Y470057D01*
X285504Y469496D01*
X284943Y468765D01*
X284590Y467914D01*
X284470Y467000D01*
X284590Y466086D01*
X284943Y465235D01*
X285504Y464504D01*
X286235Y463943D01*
X286471Y463845D01*
Y441634D01*
X280290Y435453D01*
X274547D01*
Y427547D01*
X282453D01*
Y433290D01*
X289081Y439919D01*
X289413Y440415D01*
X289529Y441000D01*
Y463845D01*
X289765Y463943D01*
X290496Y464504D01*
X291057Y465235D01*
X291410Y466086D01*
X291530Y467000D01*
X291410Y467914D01*
X291057Y468765D01*
X290496Y469496D01*
X289765Y470057D01*
X288914Y470410D01*
X288000Y470530D01*
D02*
G37*
G36*
X268000Y431000D02*
X264579D01*
X264649Y430468D01*
X265047Y429507D01*
X265681Y428681D01*
X266507Y428047D01*
X267468Y427649D01*
X268000Y427579D01*
Y431000D01*
D02*
G37*
G36*
X138000Y191487D02*
X136968Y191351D01*
X136007Y190953D01*
X135181Y190319D01*
X134547Y189493D01*
X134149Y188532D01*
X134013Y187500D01*
X134149Y186468D01*
X134547Y185507D01*
X135181Y184681D01*
X136007Y184047D01*
X136968Y183649D01*
X138000Y183513D01*
X139032Y183649D01*
X139993Y184047D01*
X140819Y184681D01*
X141453Y185507D01*
X141851Y186468D01*
X141987Y187500D01*
X141851Y188532D01*
X141453Y189493D01*
X140819Y190319D01*
X139993Y190953D01*
X139032Y191351D01*
X138000Y191487D01*
D02*
G37*
G36*
X337486Y180684D02*
X323798D01*
X323212Y180568D01*
X322716Y180236D01*
X319486Y177006D01*
X318823Y177050D01*
X318461Y177521D01*
X317635Y178155D01*
X316674Y178553D01*
X315642Y178689D01*
X314610Y178553D01*
X313649Y178155D01*
X312823Y177521D01*
X312189Y176695D01*
X311791Y175734D01*
X311655Y174702D01*
X311791Y173670D01*
X312189Y172709D01*
X312823Y171883D01*
X313649Y171249D01*
X314610Y170851D01*
X315642Y170715D01*
X316674Y170851D01*
X317635Y171249D01*
X318461Y171883D01*
X319095Y172709D01*
X319287Y173173D01*
X319345D01*
X319930Y173289D01*
X320426Y173621D01*
X321192Y174387D01*
X321720Y174207D01*
X321791Y173670D01*
X322189Y172709D01*
X322823Y171883D01*
X323649Y171249D01*
X324610Y170851D01*
X325642Y170715D01*
X326674Y170851D01*
X327138Y171043D01*
X340263Y157919D01*
X340759Y157587D01*
X341344Y157471D01*
X470366D01*
X476341Y151496D01*
X476149Y151032D01*
X476013Y150000D01*
X476149Y148968D01*
X476547Y148007D01*
X477181Y147181D01*
X478007Y146547D01*
X478968Y146149D01*
X480000Y146013D01*
X481032Y146149D01*
X481993Y146547D01*
X482819Y147181D01*
X483453Y148007D01*
X483851Y148968D01*
X483987Y150000D01*
X483851Y151032D01*
X483453Y151993D01*
X482819Y152819D01*
X481993Y153453D01*
X481032Y153851D01*
X480000Y153987D01*
X478968Y153851D01*
X478504Y153659D01*
X472081Y160081D01*
X471585Y160413D01*
X471000Y160529D01*
X341978D01*
X329301Y173206D01*
X329493Y173670D01*
X329629Y174702D01*
X329493Y175734D01*
X329095Y176695D01*
X328765Y177125D01*
X329011Y177625D01*
X332273D01*
X332519Y177125D01*
X332189Y176695D01*
X331791Y175734D01*
X331655Y174702D01*
X331791Y173670D01*
X332189Y172709D01*
X332823Y171883D01*
X333649Y171249D01*
X334610Y170851D01*
X335642Y170715D01*
X336674Y170851D01*
X337635Y171249D01*
X338461Y171883D01*
X339095Y172709D01*
X339493Y173670D01*
X339564Y174207D01*
X340092Y174387D01*
X351560Y162919D01*
X352056Y162587D01*
X352641Y162471D01*
X484345D01*
X484443Y162235D01*
X485004Y161504D01*
X485735Y160943D01*
X486586Y160590D01*
X487500Y160470D01*
X488414Y160590D01*
X489265Y160943D01*
X489996Y161504D01*
X490557Y162235D01*
X490910Y163086D01*
X491030Y164000D01*
X490910Y164914D01*
X490557Y165765D01*
X489996Y166496D01*
X489265Y167057D01*
X488414Y167410D01*
X487500Y167530D01*
X486586Y167410D01*
X485735Y167057D01*
X485004Y166496D01*
X484443Y165765D01*
X484345Y165529D01*
X353275D01*
X338568Y180236D01*
X338072Y180568D01*
X337486Y180684D01*
D02*
G37*
G36*
X439563Y194202D02*
X436142D01*
Y190781D01*
X436674Y190851D01*
X437635Y191249D01*
X438461Y191883D01*
X439095Y192709D01*
X439493Y193670D01*
X439563Y194202D01*
D02*
G37*
G36*
X435142D02*
X431721D01*
X431791Y193670D01*
X432189Y192709D01*
X432823Y191883D01*
X433649Y191249D01*
X434610Y190851D01*
X435142Y190781D01*
Y194202D01*
D02*
G37*
G36*
X236142Y178623D02*
Y175202D01*
X239563D01*
X239493Y175734D01*
X239095Y176695D01*
X238461Y177521D01*
X237635Y178155D01*
X236674Y178553D01*
X236142Y178623D01*
D02*
G37*
G36*
X225142D02*
X224610Y178553D01*
X223649Y178155D01*
X222823Y177521D01*
X222189Y176695D01*
X221791Y175734D01*
X221721Y175202D01*
X225142D01*
Y178623D01*
D02*
G37*
G36*
X235142D02*
X234610Y178553D01*
X233649Y178155D01*
X232823Y177521D01*
X232189Y176695D01*
X231791Y175734D01*
X231721Y175202D01*
X235142D01*
Y178623D01*
D02*
G37*
G36*
X226142D02*
Y175202D01*
X229563D01*
X229493Y175734D01*
X229095Y176695D01*
X228461Y177521D01*
X227635Y178155D01*
X226674Y178553D01*
X226142Y178623D01*
D02*
G37*
G36*
X141953Y181453D02*
X134047D01*
Y173547D01*
X141953D01*
Y181453D01*
D02*
G37*
G36*
X254500Y200288D02*
X253520Y200159D01*
X252606Y199781D01*
X251821Y199179D01*
X251219Y198394D01*
X250841Y197480D01*
X250712Y196500D01*
X250841Y195519D01*
X251219Y194606D01*
X251821Y193821D01*
X252606Y193219D01*
X253520Y192841D01*
X254500Y192712D01*
X255481Y192841D01*
X256394Y193219D01*
X257179Y193821D01*
X257781Y194606D01*
X258159Y195519D01*
X258288Y196500D01*
X258159Y197480D01*
X257781Y198394D01*
X257179Y199179D01*
X256394Y199781D01*
X255481Y200159D01*
X254500Y200288D01*
D02*
G37*
G36*
X330842Y207058D02*
X329554Y206889D01*
X328353Y206391D01*
X327321Y205600D01*
X326530Y204569D01*
X326033Y203368D01*
X325863Y202079D01*
X326033Y200790D01*
X326530Y199589D01*
X327321Y198558D01*
X328353Y197766D01*
X329554Y197269D01*
X330842Y197099D01*
X332131Y197269D01*
X333332Y197766D01*
X334364Y198558D01*
X335155Y199589D01*
X335652Y200790D01*
X335822Y202079D01*
X335652Y203368D01*
X335155Y204569D01*
X334364Y205600D01*
X333332Y206391D01*
X332131Y206889D01*
X330842Y207058D01*
D02*
G37*
G36*
X502953Y204953D02*
X495047D01*
Y197047D01*
X502953D01*
Y204953D01*
D02*
G37*
G36*
X365678Y201579D02*
X361264D01*
Y197165D01*
X362053Y197269D01*
X363254Y197766D01*
X364285Y198558D01*
X365076Y199589D01*
X365574Y200790D01*
X365678Y201579D01*
D02*
G37*
G36*
X380842Y207058D02*
X379554Y206889D01*
X378353Y206391D01*
X377321Y205600D01*
X376530Y204569D01*
X376033Y203368D01*
X375863Y202079D01*
X376033Y200790D01*
X376530Y199589D01*
X377321Y198558D01*
X378353Y197766D01*
X379554Y197269D01*
X380842Y197099D01*
X382131Y197269D01*
X383332Y197766D01*
X384364Y198558D01*
X385155Y199589D01*
X385652Y200790D01*
X385822Y202079D01*
X385652Y203368D01*
X385155Y204569D01*
X384364Y205600D01*
X383332Y206391D01*
X382131Y206889D01*
X380842Y207058D01*
D02*
G37*
G36*
X436142Y198623D02*
Y195202D01*
X439563D01*
X439493Y195734D01*
X439095Y196695D01*
X438461Y197521D01*
X437635Y198155D01*
X436674Y198553D01*
X436142Y198623D01*
D02*
G37*
G36*
X141921Y197000D02*
X138500D01*
Y193579D01*
X139032Y193649D01*
X139993Y194047D01*
X140819Y194681D01*
X141453Y195507D01*
X141851Y196468D01*
X141921Y197000D01*
D02*
G37*
G36*
X137500D02*
X134079D01*
X134149Y196468D01*
X134547Y195507D01*
X135181Y194681D01*
X136007Y194047D01*
X136968Y193649D01*
X137500Y193579D01*
Y197000D01*
D02*
G37*
G36*
X445142Y198623D02*
X444610Y198553D01*
X443649Y198155D01*
X442823Y197521D01*
X442189Y196695D01*
X441791Y195734D01*
X441721Y195202D01*
X445142D01*
Y198623D01*
D02*
G37*
G36*
X435142D02*
X434610Y198553D01*
X433649Y198155D01*
X432823Y197521D01*
X432189Y196695D01*
X431791Y195734D01*
X431721Y195202D01*
X435142D01*
Y198623D01*
D02*
G37*
G36*
X138000Y241487D02*
X136968Y241351D01*
X136007Y240953D01*
X135181Y240319D01*
X134547Y239493D01*
X134149Y238532D01*
X134013Y237500D01*
X134149Y236468D01*
X134547Y235507D01*
X135181Y234681D01*
X136007Y234047D01*
X136968Y233649D01*
X138000Y233513D01*
X139032Y233649D01*
X139496Y233841D01*
X182419Y190919D01*
X182915Y190587D01*
X183500Y190471D01*
X247710D01*
X261689Y176492D01*
Y171029D01*
X248170D01*
X248001Y171529D01*
X248461Y171883D01*
X249095Y172709D01*
X249493Y173670D01*
X249629Y174702D01*
X249493Y175734D01*
X249095Y176695D01*
X248461Y177521D01*
X247635Y178155D01*
X246674Y178553D01*
X245642Y178689D01*
X244610Y178553D01*
X243649Y178155D01*
X242823Y177521D01*
X242189Y176695D01*
X241791Y175734D01*
X241655Y174702D01*
X241791Y173670D01*
X242189Y172709D01*
X242823Y171883D01*
X243284Y171529D01*
X243114Y171029D01*
X238170D01*
X238000Y171529D01*
X238461Y171883D01*
X239095Y172709D01*
X239493Y173670D01*
X239563Y174202D01*
X231721D01*
X231791Y173670D01*
X232189Y172709D01*
X232823Y171883D01*
X233283Y171529D01*
X233114Y171029D01*
X228170D01*
X228000Y171529D01*
X228461Y171883D01*
X229095Y172709D01*
X229493Y173670D01*
X229563Y174202D01*
X221721D01*
X221791Y173670D01*
X222189Y172709D01*
X222823Y171883D01*
X223284Y171529D01*
X223114Y171029D01*
X218170D01*
X218001Y171529D01*
X218461Y171883D01*
X219095Y172709D01*
X219493Y173670D01*
X219629Y174702D01*
X219493Y175734D01*
X219095Y176695D01*
X218461Y177521D01*
X217635Y178155D01*
X216674Y178553D01*
X215642Y178689D01*
X214610Y178553D01*
X213649Y178155D01*
X212823Y177521D01*
X212189Y176695D01*
X211791Y175734D01*
X211655Y174702D01*
X211791Y173670D01*
X212189Y172709D01*
X212823Y171883D01*
X213283Y171529D01*
X213114Y171029D01*
X208170D01*
X208000Y171529D01*
X208461Y171883D01*
X209095Y172709D01*
X209493Y173670D01*
X209629Y174702D01*
X209493Y175734D01*
X209095Y176695D01*
X208461Y177521D01*
X207635Y178155D01*
X206674Y178553D01*
X205642Y178689D01*
X204610Y178553D01*
X203649Y178155D01*
X202823Y177521D01*
X202189Y176695D01*
X201791Y175734D01*
X201655Y174702D01*
X201791Y173670D01*
X202189Y172709D01*
X202823Y171883D01*
X203284Y171529D01*
X203114Y171029D01*
X198170D01*
X198001Y171529D01*
X198461Y171883D01*
X199095Y172709D01*
X199493Y173670D01*
X199629Y174702D01*
X199493Y175734D01*
X199095Y176695D01*
X198461Y177521D01*
X197635Y178155D01*
X196674Y178553D01*
X195642Y178689D01*
X194610Y178553D01*
X193649Y178155D01*
X192823Y177521D01*
X192461Y177050D01*
X191798Y177006D01*
X166967Y201837D01*
X166471Y202169D01*
X165885Y202285D01*
X165378D01*
X141659Y226004D01*
X141851Y226468D01*
X141987Y227500D01*
X141851Y228532D01*
X141453Y229493D01*
X140819Y230319D01*
X139993Y230953D01*
X139032Y231351D01*
X138000Y231487D01*
X136968Y231351D01*
X136007Y230953D01*
X135181Y230319D01*
X134547Y229493D01*
X134149Y228532D01*
X134013Y227500D01*
X134149Y226468D01*
X134547Y225507D01*
X135181Y224681D01*
X136007Y224047D01*
X136968Y223649D01*
X138000Y223513D01*
X139032Y223649D01*
X139496Y223841D01*
X162749Y200588D01*
X162631Y199998D01*
X162106Y199781D01*
X161321Y199179D01*
X160719Y198394D01*
X160341Y197480D01*
X160212Y196500D01*
X160341Y195519D01*
X160719Y194606D01*
X161321Y193821D01*
X162106Y193219D01*
X163020Y192841D01*
X164000Y192712D01*
X164980Y192841D01*
X165894Y193219D01*
X166679Y193821D01*
X167281Y194606D01*
X167659Y195519D01*
X167728Y196043D01*
X168256Y196222D01*
X185327Y179152D01*
X185147Y178624D01*
X184610Y178553D01*
X183649Y178155D01*
X182823Y177521D01*
X182189Y176695D01*
X181791Y175734D01*
X181655Y174702D01*
X181791Y173670D01*
X182189Y172709D01*
X182823Y171883D01*
X183649Y171249D01*
X184610Y170851D01*
X185642Y170715D01*
X186674Y170851D01*
X187635Y171249D01*
X188461Y171883D01*
X189095Y172709D01*
X189160Y172866D01*
X189660Y172766D01*
Y172547D01*
X189776Y171962D01*
X190108Y171465D01*
X193155Y168419D01*
X193651Y168087D01*
X194236Y167971D01*
X270440D01*
X271025Y168087D01*
X271521Y168419D01*
X274146Y171043D01*
X274610Y170851D01*
X275642Y170715D01*
X276674Y170851D01*
X277635Y171249D01*
X278461Y171883D01*
X279095Y172709D01*
X279493Y173670D01*
X279629Y174702D01*
X279493Y175734D01*
X279095Y176695D01*
X278461Y177521D01*
X277635Y178155D01*
X276674Y178553D01*
X275642Y178689D01*
X274610Y178553D01*
X273649Y178155D01*
X272823Y177521D01*
X272189Y176695D01*
X271791Y175734D01*
X271655Y174702D01*
X271791Y173670D01*
X271983Y173206D01*
X270095Y171318D01*
X269595Y171525D01*
Y178655D01*
X263852D01*
X249425Y193081D01*
X248929Y193413D01*
X248344Y193529D01*
X217585D01*
X217338Y194029D01*
X217781Y194606D01*
X218159Y195519D01*
X218288Y196500D01*
X218159Y197480D01*
X217781Y198394D01*
X217179Y199179D01*
X216394Y199781D01*
X215480Y200159D01*
X214500Y200288D01*
X213520Y200159D01*
X212606Y199781D01*
X211821Y199179D01*
X211219Y198394D01*
X210841Y197480D01*
X210712Y196500D01*
X210841Y195519D01*
X211219Y194606D01*
X211662Y194029D01*
X211415Y193529D01*
X207085D01*
X206838Y194029D01*
X207281Y194606D01*
X207659Y195519D01*
X207788Y196500D01*
X207659Y197480D01*
X207281Y198394D01*
X206679Y199179D01*
X205894Y199781D01*
X204980Y200159D01*
X204000Y200288D01*
X203019Y200159D01*
X202106Y199781D01*
X201321Y199179D01*
X200719Y198394D01*
X200341Y197480D01*
X200212Y196500D01*
X200341Y195519D01*
X200719Y194606D01*
X201162Y194029D01*
X200915Y193529D01*
X184134D01*
X141659Y236004D01*
X141851Y236468D01*
X141987Y237500D01*
X141851Y238532D01*
X141453Y239493D01*
X140819Y240319D01*
X139993Y240953D01*
X139032Y241351D01*
X138000Y241487D01*
D02*
G37*
G36*
X247723Y153000D02*
X244500D01*
Y149777D01*
X244981Y149841D01*
X245894Y150219D01*
X246679Y150821D01*
X247281Y151606D01*
X247659Y152520D01*
X247723Y153000D01*
D02*
G37*
G36*
X243500D02*
X240278D01*
X240341Y152520D01*
X240719Y151606D01*
X241321Y150821D01*
X242106Y150219D01*
X243020Y149841D01*
X243500Y149777D01*
Y153000D01*
D02*
G37*
G36*
X434000Y154969D02*
X433456Y154897D01*
X432483Y154494D01*
X431647Y153853D01*
X431006Y153017D01*
X430603Y152044D01*
X430531Y151500D01*
X434000D01*
Y154969D01*
D02*
G37*
G36*
X459500Y155469D02*
X458956Y155397D01*
X457983Y154994D01*
X457147Y154353D01*
X456506Y153517D01*
X456103Y152544D01*
X456031Y152000D01*
X459500D01*
Y155469D01*
D02*
G37*
G36*
X435000Y154969D02*
Y151500D01*
X438469D01*
X438397Y152044D01*
X437994Y153017D01*
X437353Y153853D01*
X436517Y154494D01*
X435544Y154897D01*
X435000Y154969D01*
D02*
G37*
G36*
X394000Y156487D02*
X392968Y156351D01*
X392007Y155953D01*
X391181Y155319D01*
X390547Y154493D01*
X390149Y153532D01*
X390013Y152500D01*
X390149Y151468D01*
X390547Y150507D01*
X391181Y149681D01*
X392007Y149047D01*
X392968Y148649D01*
X394000Y148513D01*
X395032Y148649D01*
X395993Y149047D01*
X396819Y149681D01*
X397453Y150507D01*
X397851Y151468D01*
X397987Y152500D01*
X397851Y153532D01*
X397453Y154493D01*
X396819Y155319D01*
X395993Y155953D01*
X395032Y156351D01*
X394000Y156487D01*
D02*
G37*
G36*
X438469Y150500D02*
X435000D01*
Y147031D01*
X435544Y147103D01*
X436517Y147506D01*
X437353Y148147D01*
X437994Y148983D01*
X438397Y149956D01*
X438469Y150500D01*
D02*
G37*
G36*
X434000D02*
X430531D01*
X430603Y149956D01*
X431006Y148983D01*
X431647Y148147D01*
X432483Y147506D01*
X433456Y147103D01*
X434000Y147031D01*
Y150500D01*
D02*
G37*
G36*
X450000Y155535D02*
X448956Y155397D01*
X447983Y154994D01*
X447147Y154353D01*
X446506Y153517D01*
X446103Y152544D01*
X445965Y151500D01*
X446103Y150456D01*
X446506Y149483D01*
X447147Y148647D01*
X447983Y148006D01*
X448956Y147603D01*
X450000Y147466D01*
X451044Y147603D01*
X452017Y148006D01*
X452853Y148647D01*
X453494Y149483D01*
X453897Y150456D01*
X454035Y151500D01*
X453897Y152544D01*
X453494Y153517D01*
X452853Y154353D01*
X452017Y154994D01*
X451044Y155397D01*
X450000Y155535D01*
D02*
G37*
G36*
X463969Y151000D02*
X460500D01*
Y147531D01*
X461044Y147603D01*
X462017Y148006D01*
X462853Y148647D01*
X463494Y149483D01*
X463897Y150456D01*
X463969Y151000D01*
D02*
G37*
G36*
X459500D02*
X456031D01*
X456103Y150456D01*
X456506Y149483D01*
X457147Y148647D01*
X457983Y148006D01*
X458956Y147603D01*
X459500Y147531D01*
Y151000D01*
D02*
G37*
G36*
X395642Y178689D02*
X394610Y178553D01*
X393649Y178155D01*
X392823Y177521D01*
X392189Y176695D01*
X391791Y175734D01*
X391655Y174702D01*
X391791Y173670D01*
X392189Y172709D01*
X392823Y171883D01*
X393649Y171249D01*
X394610Y170851D01*
X395642Y170715D01*
X396674Y170851D01*
X397635Y171249D01*
X398461Y171883D01*
X399095Y172709D01*
X399493Y173670D01*
X399629Y174702D01*
X399493Y175734D01*
X399095Y176695D01*
X398461Y177521D01*
X397635Y178155D01*
X396674Y178553D01*
X395642Y178689D01*
D02*
G37*
G36*
X385642D02*
X384610Y178553D01*
X383649Y178155D01*
X382823Y177521D01*
X382189Y176695D01*
X381791Y175734D01*
X381655Y174702D01*
X381791Y173670D01*
X382189Y172709D01*
X382823Y171883D01*
X383649Y171249D01*
X384610Y170851D01*
X385642Y170715D01*
X386674Y170851D01*
X387635Y171249D01*
X388461Y171883D01*
X389095Y172709D01*
X389493Y173670D01*
X389629Y174702D01*
X389493Y175734D01*
X389095Y176695D01*
X388461Y177521D01*
X387635Y178155D01*
X386674Y178553D01*
X385642Y178689D01*
D02*
G37*
G36*
X405642D02*
X404610Y178553D01*
X403649Y178155D01*
X402823Y177521D01*
X402189Y176695D01*
X401791Y175734D01*
X401655Y174702D01*
X401791Y173670D01*
X402189Y172709D01*
X402823Y171883D01*
X403649Y171249D01*
X404610Y170851D01*
X405642Y170715D01*
X406674Y170851D01*
X407635Y171249D01*
X408461Y171883D01*
X409095Y172709D01*
X409493Y173670D01*
X409629Y174702D01*
X409493Y175734D01*
X409095Y176695D01*
X408461Y177521D01*
X407635Y178155D01*
X406674Y178553D01*
X405642Y178689D01*
D02*
G37*
G36*
X359595Y178655D02*
X351689D01*
Y170749D01*
X359595D01*
Y178655D01*
D02*
G37*
G36*
X179595D02*
X171689D01*
Y170749D01*
X179595D01*
Y178655D01*
D02*
G37*
G36*
X375642Y178689D02*
X374610Y178553D01*
X373649Y178155D01*
X372823Y177521D01*
X372189Y176695D01*
X371791Y175734D01*
X371655Y174702D01*
X371791Y173670D01*
X372189Y172709D01*
X372823Y171883D01*
X373649Y171249D01*
X374610Y170851D01*
X375642Y170715D01*
X376674Y170851D01*
X377635Y171249D01*
X378461Y171883D01*
X379095Y172709D01*
X379493Y173670D01*
X379629Y174702D01*
X379493Y175734D01*
X379095Y176695D01*
X378461Y177521D01*
X377635Y178155D01*
X376674Y178553D01*
X375642Y178689D01*
D02*
G37*
G36*
X243500Y157222D02*
X243020Y157159D01*
X242106Y156781D01*
X241321Y156179D01*
X240719Y155394D01*
X240341Y154481D01*
X240278Y154000D01*
X243500D01*
Y157222D01*
D02*
G37*
G36*
X460500Y155469D02*
Y152000D01*
X463969D01*
X463897Y152544D01*
X463494Y153517D01*
X462853Y154353D01*
X462017Y154994D01*
X461044Y155397D01*
X460500Y155469D01*
D02*
G37*
G36*
X244500Y157222D02*
Y154000D01*
X247723D01*
X247659Y154481D01*
X247281Y155394D01*
X246679Y156179D01*
X245894Y156781D01*
X244981Y157159D01*
X244500Y157222D01*
D02*
G37*
G36*
X365642Y178689D02*
X364610Y178553D01*
X363649Y178155D01*
X362823Y177521D01*
X362189Y176695D01*
X361791Y175734D01*
X361655Y174702D01*
X361791Y173670D01*
X362189Y172709D01*
X362823Y171883D01*
X363649Y171249D01*
X364610Y170851D01*
X365642Y170715D01*
X366674Y170851D01*
X367635Y171249D01*
X368461Y171883D01*
X369095Y172709D01*
X369493Y173670D01*
X369629Y174702D01*
X369493Y175734D01*
X369095Y176695D01*
X368461Y177521D01*
X367635Y178155D01*
X366674Y178553D01*
X365642Y178689D01*
D02*
G37*
G36*
X158000Y165030D02*
X157086Y164910D01*
X156235Y164557D01*
X155504Y163996D01*
X154943Y163265D01*
X154590Y162414D01*
X154470Y161500D01*
X154590Y160586D01*
X154943Y159735D01*
X155504Y159004D01*
X156235Y158443D01*
X157086Y158090D01*
X158000Y157970D01*
X158914Y158090D01*
X159765Y158443D01*
X160496Y159004D01*
X161057Y159735D01*
X161410Y160586D01*
X161530Y161500D01*
X161410Y162414D01*
X161057Y163265D01*
X160496Y163996D01*
X159765Y164557D01*
X158914Y164910D01*
X158000Y165030D01*
D02*
G37*
G36*
X252000Y231000D02*
X248778D01*
X248841Y230520D01*
X249219Y229606D01*
X249821Y228821D01*
X250606Y228219D01*
X251519Y227841D01*
X252000Y227778D01*
Y231000D01*
D02*
G37*
G36*
X292500Y235288D02*
X291519Y235159D01*
X290606Y234781D01*
X289821Y234179D01*
X289219Y233394D01*
X288841Y232481D01*
X288712Y231500D01*
X288841Y230520D01*
X289219Y229606D01*
X289821Y228821D01*
X290606Y228219D01*
X291519Y227841D01*
X292500Y227712D01*
X293480Y227841D01*
X294394Y228219D01*
X295179Y228821D01*
X295781Y229606D01*
X296159Y230520D01*
X296288Y231500D01*
X296159Y232481D01*
X295781Y233394D01*
X295179Y234179D01*
X294394Y234781D01*
X293480Y235159D01*
X292500Y235288D01*
D02*
G37*
G36*
X256223Y231000D02*
X253000D01*
Y227778D01*
X253481Y227841D01*
X254394Y228219D01*
X255179Y228821D01*
X255781Y229606D01*
X256159Y230520D01*
X256223Y231000D01*
D02*
G37*
G36*
X177397Y233000D02*
X173000D01*
Y230474D01*
X174437D01*
X175220Y230577D01*
X175950Y230879D01*
X176577Y231360D01*
X177058Y231987D01*
X177360Y232717D01*
X177397Y233000D01*
D02*
G37*
G36*
X172000D02*
X167603D01*
X167640Y232717D01*
X167943Y231987D01*
X168423Y231360D01*
X169050Y230879D01*
X169780Y230577D01*
X170563Y230474D01*
X172000D01*
Y233000D01*
D02*
G37*
G36*
X216500Y223500D02*
X212103D01*
X212140Y223217D01*
X212442Y222487D01*
X212923Y221860D01*
X213550Y221379D01*
X214280Y221077D01*
X215063Y220974D01*
X216500D01*
Y223500D01*
D02*
G37*
G36*
X445642Y228689D02*
X444610Y228553D01*
X443649Y228155D01*
X442823Y227521D01*
X442189Y226695D01*
X441791Y225734D01*
X441655Y224702D01*
X441791Y223670D01*
X442189Y222709D01*
X442823Y221883D01*
X443649Y221249D01*
X444610Y220851D01*
X445642Y220715D01*
X446674Y220851D01*
X447635Y221249D01*
X448461Y221883D01*
X449095Y222709D01*
X449493Y223670D01*
X449629Y224702D01*
X449493Y225734D01*
X449095Y226695D01*
X448461Y227521D01*
X447635Y228155D01*
X446674Y228553D01*
X445642Y228689D01*
D02*
G37*
G36*
X221897Y223500D02*
X217500D01*
Y220974D01*
X218937D01*
X219720Y221077D01*
X220450Y221379D01*
X221077Y221860D01*
X221557Y222487D01*
X221860Y223217D01*
X221897Y223500D01*
D02*
G37*
G36*
X499000Y234987D02*
X497968Y234851D01*
X497007Y234453D01*
X496181Y233819D01*
X495547Y232993D01*
X495355Y232529D01*
X484000D01*
X483415Y232413D01*
X482919Y232081D01*
X449013Y198176D01*
X448801Y197858D01*
X448800Y197857D01*
X448277Y197724D01*
X448183Y197735D01*
X447635Y198155D01*
X446674Y198553D01*
X446142Y198623D01*
Y194702D01*
X445642D01*
Y194202D01*
X441721D01*
X441791Y193670D01*
X442189Y192709D01*
X442519Y192279D01*
X442273Y191779D01*
X441189D01*
X440604Y191662D01*
X440108Y191331D01*
X427138Y178361D01*
X426674Y178553D01*
X425642Y178689D01*
X424610Y178553D01*
X423649Y178155D01*
X422823Y177521D01*
X422189Y176695D01*
X421791Y175734D01*
X421655Y174702D01*
X421791Y173670D01*
X422189Y172709D01*
X422519Y172279D01*
X422273Y171779D01*
X420728D01*
X419301Y173206D01*
X419493Y173670D01*
X419629Y174702D01*
X419493Y175734D01*
X419095Y176695D01*
X418461Y177521D01*
X417635Y178155D01*
X416674Y178553D01*
X415642Y178689D01*
X414610Y178553D01*
X413649Y178155D01*
X412823Y177521D01*
X412189Y176695D01*
X411791Y175734D01*
X411655Y174702D01*
X411791Y173670D01*
X412189Y172709D01*
X412823Y171883D01*
X413649Y171249D01*
X414610Y170851D01*
X415642Y170715D01*
X416674Y170851D01*
X417138Y171043D01*
X419013Y169168D01*
X419510Y168836D01*
X420095Y168720D01*
X430315D01*
X430900Y168836D01*
X431396Y169168D01*
X457199Y194971D01*
X475345D01*
X475443Y194735D01*
X476004Y194004D01*
X476735Y193443D01*
X477586Y193090D01*
X478500Y192970D01*
X479414Y193090D01*
X480265Y193443D01*
X480996Y194004D01*
X481557Y194735D01*
X481910Y195586D01*
X482030Y196500D01*
X481910Y197414D01*
X481557Y198265D01*
X480996Y198996D01*
X480265Y199557D01*
X479414Y199910D01*
X478500Y200030D01*
X477586Y199910D01*
X476735Y199557D01*
X476004Y198996D01*
X475443Y198265D01*
X475345Y198029D01*
X456566D01*
X455980Y197913D01*
X455484Y197581D01*
X452086Y194183D01*
X451624Y194375D01*
Y196461D01*
X479910Y224747D01*
X480322Y224492D01*
X480339Y224469D01*
X480212Y223500D01*
X480341Y222519D01*
X480719Y221606D01*
X481321Y220821D01*
X482106Y220219D01*
X483019Y219841D01*
X484000Y219712D01*
X484980Y219841D01*
X485894Y220219D01*
X486679Y220821D01*
X487281Y221606D01*
X487659Y222519D01*
X487788Y223500D01*
X487659Y224481D01*
X487281Y225394D01*
X486679Y226179D01*
X485894Y226781D01*
X484980Y227159D01*
X484000Y227288D01*
X483031Y227161D01*
X483008Y227179D01*
X482753Y227590D01*
X484633Y229471D01*
X495355D01*
X495547Y229007D01*
X496181Y228181D01*
X497007Y227547D01*
X497968Y227149D01*
X499000Y227013D01*
X500032Y227149D01*
X500993Y227547D01*
X501819Y228181D01*
X502453Y229007D01*
X502851Y229968D01*
X502987Y231000D01*
X502851Y232032D01*
X502453Y232993D01*
X501819Y233819D01*
X500993Y234453D01*
X500032Y234851D01*
X499000Y234987D01*
D02*
G37*
G36*
X195453Y232453D02*
X187547D01*
Y224547D01*
X195453D01*
Y232453D01*
D02*
G37*
G36*
X435642Y238689D02*
X434610Y238553D01*
X433649Y238155D01*
X432823Y237521D01*
X432189Y236695D01*
X431791Y235734D01*
X431655Y234702D01*
X431791Y233670D01*
X432189Y232709D01*
X432823Y231883D01*
X433649Y231249D01*
X434610Y230851D01*
X435642Y230715D01*
X436674Y230851D01*
X437635Y231249D01*
X438461Y231883D01*
X439095Y232709D01*
X439493Y233670D01*
X439629Y234702D01*
X439493Y235734D01*
X439095Y236695D01*
X438461Y237521D01*
X437635Y238155D01*
X436674Y238553D01*
X435642Y238689D01*
D02*
G37*
G36*
X445642Y248689D02*
X444610Y248553D01*
X443649Y248155D01*
X442823Y247521D01*
X442189Y246695D01*
X441791Y245734D01*
X441655Y244702D01*
X441791Y243670D01*
X442189Y242709D01*
X442823Y241883D01*
X443649Y241249D01*
X444610Y240851D01*
X445642Y240715D01*
X446674Y240851D01*
X447635Y241249D01*
X448461Y241883D01*
X449095Y242709D01*
X449493Y243670D01*
X449629Y244702D01*
X449493Y245734D01*
X449095Y246695D01*
X448461Y247521D01*
X447635Y248155D01*
X446674Y248553D01*
X445642Y248689D01*
D02*
G37*
G36*
X435642D02*
X434610Y248553D01*
X433649Y248155D01*
X432823Y247521D01*
X432189Y246695D01*
X431791Y245734D01*
X431655Y244702D01*
X431791Y243670D01*
X432189Y242709D01*
X432823Y241883D01*
X433649Y241249D01*
X434610Y240851D01*
X435642Y240715D01*
X436674Y240851D01*
X437635Y241249D01*
X438461Y241883D01*
X439095Y242709D01*
X439493Y243670D01*
X439629Y244702D01*
X439493Y245734D01*
X439095Y246695D01*
X438461Y247521D01*
X437635Y248155D01*
X436674Y248553D01*
X435642Y248689D01*
D02*
G37*
G36*
X236000Y251487D02*
X234968Y251351D01*
X234007Y250953D01*
X233181Y250319D01*
X232547Y249493D01*
X232149Y248532D01*
X232013Y247500D01*
X232149Y246468D01*
X232547Y245507D01*
X233181Y244681D01*
X234007Y244047D01*
X234968Y243649D01*
X236000Y243513D01*
X237032Y243649D01*
X237993Y244047D01*
X238819Y244681D01*
X239453Y245507D01*
X239851Y246468D01*
X239987Y247500D01*
X239851Y248532D01*
X239453Y249493D01*
X238819Y250319D01*
X237993Y250953D01*
X237032Y251351D01*
X236000Y251487D01*
D02*
G37*
G36*
X435642Y258689D02*
X434610Y258553D01*
X433649Y258155D01*
X432823Y257521D01*
X432189Y256695D01*
X431791Y255734D01*
X431655Y254702D01*
X431791Y253670D01*
X432189Y252709D01*
X432823Y251883D01*
X433649Y251249D01*
X434610Y250851D01*
X435642Y250715D01*
X436674Y250851D01*
X437635Y251249D01*
X438461Y251883D01*
X439095Y252709D01*
X439493Y253670D01*
X439629Y254702D01*
X439493Y255734D01*
X439095Y256695D01*
X438461Y257521D01*
X437635Y258155D01*
X436674Y258553D01*
X435642Y258689D01*
D02*
G37*
G36*
X473000Y252788D02*
X472019Y252659D01*
X471106Y252281D01*
X470321Y251679D01*
X469719Y250894D01*
X469341Y249980D01*
X469212Y249000D01*
X469341Y248020D01*
X469719Y247106D01*
X470321Y246321D01*
X471106Y245719D01*
X472019Y245341D01*
X473000Y245212D01*
X473981Y245341D01*
X474894Y245719D01*
X475679Y246321D01*
X476281Y247106D01*
X476659Y248020D01*
X476788Y249000D01*
X476659Y249980D01*
X476281Y250894D01*
X475679Y251679D01*
X474894Y252281D01*
X473981Y252659D01*
X473000Y252788D01*
D02*
G37*
G36*
X252000Y235223D02*
X251519Y235159D01*
X250606Y234781D01*
X249821Y234179D01*
X249219Y233394D01*
X248841Y232481D01*
X248778Y232000D01*
X252000D01*
Y235223D01*
D02*
G37*
G36*
X445642Y238689D02*
X444610Y238553D01*
X443649Y238155D01*
X442823Y237521D01*
X442189Y236695D01*
X441791Y235734D01*
X441655Y234702D01*
X441791Y233670D01*
X442189Y232709D01*
X442823Y231883D01*
X443649Y231249D01*
X444610Y230851D01*
X445642Y230715D01*
X446674Y230851D01*
X447635Y231249D01*
X448461Y231883D01*
X449095Y232709D01*
X449493Y233670D01*
X449629Y234702D01*
X449493Y235734D01*
X449095Y236695D01*
X448461Y237521D01*
X447635Y238155D01*
X446674Y238553D01*
X445642Y238689D01*
D02*
G37*
G36*
X253000Y235223D02*
Y232000D01*
X256223D01*
X256159Y232481D01*
X255781Y233394D01*
X255179Y234179D01*
X254394Y234781D01*
X253481Y235159D01*
X253000Y235223D01*
D02*
G37*
G36*
X191500Y242487D02*
X190468Y242351D01*
X189507Y241953D01*
X188681Y241319D01*
X188047Y240493D01*
X187649Y239532D01*
X187513Y238500D01*
X187649Y237468D01*
X188047Y236507D01*
X188681Y235681D01*
X189507Y235047D01*
X190468Y234649D01*
X191500Y234513D01*
X192532Y234649D01*
X193493Y235047D01*
X194319Y235681D01*
X194953Y236507D01*
X195351Y237468D01*
X195487Y238500D01*
X195351Y239532D01*
X194953Y240493D01*
X194319Y241319D01*
X193493Y241953D01*
X192532Y242351D01*
X191500Y242487D01*
D02*
G37*
G36*
X239953Y241453D02*
X232047D01*
Y233547D01*
X239953D01*
Y241453D01*
D02*
G37*
G36*
X252500Y206000D02*
X249277D01*
X249341Y205520D01*
X249719Y204606D01*
X250321Y203821D01*
X251106Y203219D01*
X252020Y202841D01*
X252500Y202778D01*
Y206000D01*
D02*
G37*
G36*
X361264Y206993D02*
Y202579D01*
X365678D01*
X365574Y203368D01*
X365076Y204569D01*
X364285Y205600D01*
X363254Y206391D01*
X362053Y206889D01*
X361264Y206993D01*
D02*
G37*
G36*
X256722Y206000D02*
X253500D01*
Y202778D01*
X253980Y202841D01*
X254894Y203219D01*
X255679Y203821D01*
X256281Y204606D01*
X256659Y205520D01*
X256722Y206000D01*
D02*
G37*
G36*
X473000Y212788D02*
X472019Y212659D01*
X471106Y212281D01*
X470321Y211679D01*
X469719Y210894D01*
X469341Y209981D01*
X469212Y209000D01*
X469341Y208019D01*
X469719Y207106D01*
X470321Y206321D01*
X471106Y205719D01*
X472019Y205341D01*
X473000Y205212D01*
X473981Y205341D01*
X474894Y205719D01*
X475679Y206321D01*
X476281Y207106D01*
X476659Y208019D01*
X476788Y209000D01*
X476659Y209981D01*
X476281Y210894D01*
X475679Y211679D01*
X474894Y212281D01*
X473981Y212659D01*
X473000Y212788D01*
D02*
G37*
G36*
X138000Y211487D02*
X136968Y211351D01*
X136007Y210953D01*
X135181Y210319D01*
X134547Y209493D01*
X134149Y208532D01*
X134013Y207500D01*
X134149Y206468D01*
X134547Y205507D01*
X135181Y204681D01*
X136007Y204047D01*
X136968Y203649D01*
X138000Y203513D01*
X139032Y203649D01*
X139993Y204047D01*
X140819Y204681D01*
X141453Y205507D01*
X141851Y206468D01*
X141987Y207500D01*
X141851Y208532D01*
X141453Y209493D01*
X140819Y210319D01*
X139993Y210953D01*
X139032Y211351D01*
X138000Y211487D01*
D02*
G37*
G36*
X137500Y201421D02*
X136968Y201351D01*
X136007Y200953D01*
X135181Y200319D01*
X134547Y199493D01*
X134149Y198532D01*
X134079Y198000D01*
X137500D01*
Y201421D01*
D02*
G37*
G36*
X360264Y201579D02*
X355850D01*
X355954Y200790D01*
X356451Y199589D01*
X357243Y198558D01*
X358274Y197766D01*
X359475Y197269D01*
X360264Y197165D01*
Y201579D01*
D02*
G37*
G36*
X138500Y201421D02*
Y198000D01*
X141921D01*
X141851Y198532D01*
X141453Y199493D01*
X140819Y200319D01*
X139993Y200953D01*
X139032Y201351D01*
X138500Y201421D01*
D02*
G37*
G36*
X360264Y206993D02*
X359475Y206889D01*
X358274Y206391D01*
X357243Y205600D01*
X356451Y204569D01*
X355954Y203368D01*
X355850Y202579D01*
X360264D01*
Y206993D01*
D02*
G37*
G36*
X445642Y208689D02*
X444610Y208553D01*
X443649Y208155D01*
X442823Y207521D01*
X442189Y206695D01*
X441791Y205734D01*
X441655Y204702D01*
X441791Y203670D01*
X442189Y202709D01*
X442823Y201883D01*
X443649Y201249D01*
X444610Y200851D01*
X445642Y200715D01*
X446674Y200851D01*
X447635Y201249D01*
X448461Y201883D01*
X449095Y202709D01*
X449493Y203670D01*
X449629Y204702D01*
X449493Y205734D01*
X449095Y206695D01*
X448461Y207521D01*
X447635Y208155D01*
X446674Y208553D01*
X445642Y208689D01*
D02*
G37*
G36*
X252500Y210223D02*
X252020Y210159D01*
X251106Y209781D01*
X250321Y209179D01*
X249719Y208394D01*
X249341Y207481D01*
X249277Y207000D01*
X252500D01*
Y210223D01*
D02*
G37*
G36*
X499500Y214921D02*
Y211500D01*
X502921D01*
X502851Y212032D01*
X502453Y212993D01*
X501819Y213819D01*
X500993Y214453D01*
X500032Y214851D01*
X499500Y214921D01*
D02*
G37*
G36*
X498500D02*
X497968Y214851D01*
X497007Y214453D01*
X496181Y213819D01*
X495547Y212993D01*
X495149Y212032D01*
X495079Y211500D01*
X498500D01*
Y214921D01*
D02*
G37*
G36*
X138000Y221487D02*
X136968Y221351D01*
X136007Y220953D01*
X135181Y220319D01*
X134547Y219493D01*
X134149Y218532D01*
X134013Y217500D01*
X134149Y216468D01*
X134547Y215507D01*
X135181Y214681D01*
X136007Y214047D01*
X136968Y213649D01*
X138000Y213513D01*
X139032Y213649D01*
X139993Y214047D01*
X140819Y214681D01*
X141453Y215507D01*
X141851Y216468D01*
X141987Y217500D01*
X141851Y218532D01*
X141453Y219493D01*
X140819Y220319D01*
X139993Y220953D01*
X139032Y221351D01*
X138000Y221487D01*
D02*
G37*
G36*
X435642Y228689D02*
X434610Y228553D01*
X433649Y228155D01*
X432823Y227521D01*
X432189Y226695D01*
X431791Y225734D01*
X431655Y224702D01*
X431791Y223670D01*
X432189Y222709D01*
X432823Y221883D01*
X433649Y221249D01*
X434610Y220851D01*
X435642Y220715D01*
X436674Y220851D01*
X437635Y221249D01*
X438461Y221883D01*
X439095Y222709D01*
X439493Y223670D01*
X439629Y224702D01*
X439493Y225734D01*
X439095Y226695D01*
X438461Y227521D01*
X437635Y228155D01*
X436674Y228553D01*
X435642Y228689D01*
D02*
G37*
G36*
X499000Y224987D02*
X497968Y224851D01*
X497007Y224453D01*
X496181Y223819D01*
X495547Y222993D01*
X495149Y222032D01*
X495013Y221000D01*
X495149Y219968D01*
X495547Y219007D01*
X496181Y218181D01*
X497007Y217547D01*
X497968Y217149D01*
X499000Y217013D01*
X500032Y217149D01*
X500993Y217547D01*
X501819Y218181D01*
X502453Y219007D01*
X502851Y219968D01*
X502987Y221000D01*
X502851Y222032D01*
X502453Y222993D01*
X501819Y223819D01*
X500993Y224453D01*
X500032Y224851D01*
X499000Y224987D01*
D02*
G37*
G36*
X498500Y210500D02*
X495079D01*
X495149Y209968D01*
X495547Y209007D01*
X496181Y208181D01*
X497007Y207547D01*
X497968Y207149D01*
X498500Y207079D01*
Y210500D01*
D02*
G37*
G36*
X253500Y210223D02*
Y207000D01*
X256722D01*
X256659Y207481D01*
X256281Y208394D01*
X255679Y209179D01*
X254894Y209781D01*
X253980Y210159D01*
X253500Y210223D01*
D02*
G37*
G36*
X502921Y210500D02*
X499500D01*
Y207079D01*
X500032Y207149D01*
X500993Y207547D01*
X501819Y208181D01*
X502453Y209007D01*
X502851Y209968D01*
X502921Y210500D01*
D02*
G37*
G36*
X445642Y218689D02*
X444610Y218553D01*
X443649Y218155D01*
X442823Y217521D01*
X442189Y216695D01*
X441791Y215734D01*
X441655Y214702D01*
X441791Y213670D01*
X442189Y212709D01*
X442823Y211883D01*
X443649Y211249D01*
X444610Y210851D01*
X445642Y210715D01*
X446674Y210851D01*
X447635Y211249D01*
X448461Y211883D01*
X449095Y212709D01*
X449493Y213670D01*
X449629Y214702D01*
X449493Y215734D01*
X449095Y216695D01*
X448461Y217521D01*
X447635Y218155D01*
X446674Y218553D01*
X445642Y218689D01*
D02*
G37*
G36*
X435642D02*
X434610Y218553D01*
X433649Y218155D01*
X432823Y217521D01*
X432189Y216695D01*
X431791Y215734D01*
X431655Y214702D01*
X431791Y213670D01*
X432189Y212709D01*
X432823Y211883D01*
X433649Y211249D01*
X434610Y210851D01*
X435642Y210715D01*
X436674Y210851D01*
X437635Y211249D01*
X438461Y211883D01*
X439095Y212709D01*
X439493Y213670D01*
X439629Y214702D01*
X439493Y215734D01*
X439095Y216695D01*
X438461Y217521D01*
X437635Y218155D01*
X436674Y218553D01*
X435642Y218689D01*
D02*
G37*
G36*
X528500Y133987D02*
X527468Y133851D01*
X526507Y133453D01*
X525681Y132819D01*
X525047Y131993D01*
X524649Y131032D01*
X524513Y130000D01*
X524649Y128968D01*
X525047Y128007D01*
X525681Y127181D01*
X526507Y126547D01*
X527468Y126149D01*
X528500Y126013D01*
X529532Y126149D01*
X530493Y126547D01*
X531319Y127181D01*
X531953Y128007D01*
X532351Y128968D01*
X532487Y130000D01*
X532351Y131032D01*
X531953Y131993D01*
X531319Y132819D01*
X530493Y133453D01*
X529532Y133851D01*
X528500Y133987D01*
D02*
G37*
G36*
X433500Y129469D02*
Y126000D01*
X436969D01*
X436897Y126544D01*
X436494Y127517D01*
X435853Y128353D01*
X435017Y128994D01*
X434044Y129397D01*
X433500Y129469D01*
D02*
G37*
G36*
X333000Y131421D02*
X332468Y131351D01*
X331507Y130953D01*
X330681Y130319D01*
X330047Y129493D01*
X329649Y128532D01*
X329579Y128000D01*
X333000D01*
Y131421D01*
D02*
G37*
G36*
X343000D02*
X342468Y131351D01*
X341507Y130953D01*
X340681Y130319D01*
X340047Y129493D01*
X339649Y128532D01*
X339579Y128000D01*
X343000D01*
Y131421D01*
D02*
G37*
G36*
X334000D02*
Y128000D01*
X337421D01*
X337351Y128532D01*
X336953Y129493D01*
X336319Y130319D01*
X335493Y130953D01*
X334532Y131351D01*
X334000Y131421D01*
D02*
G37*
G36*
X141260Y125745D02*
Y124000D01*
X143005D01*
X142926Y124397D01*
X142418Y125158D01*
X141657Y125666D01*
X141260Y125745D01*
D02*
G37*
G36*
X140260D02*
X139863Y125666D01*
X139102Y125158D01*
X138594Y124397D01*
X138515Y124000D01*
X140260D01*
Y125745D01*
D02*
G37*
G36*
X174000Y157288D02*
X173020Y157159D01*
X172106Y156781D01*
X171321Y156179D01*
X170719Y155394D01*
X170341Y154481D01*
X170212Y153500D01*
X170341Y152520D01*
X170719Y151606D01*
X171321Y150821D01*
X172106Y150219D01*
X172471Y150068D01*
Y145000D01*
X172587Y144415D01*
X172919Y143919D01*
X187492Y129345D01*
X187341Y128981D01*
X187212Y128000D01*
X187341Y127020D01*
X187719Y126106D01*
X188321Y125321D01*
X189106Y124719D01*
X190020Y124341D01*
X191000Y124212D01*
X191981Y124341D01*
X192894Y124719D01*
X193679Y125321D01*
X194281Y126106D01*
X194659Y127020D01*
X194788Y128000D01*
X194659Y128981D01*
X194281Y129894D01*
X193679Y130679D01*
X192894Y131281D01*
X191981Y131659D01*
X191000Y131788D01*
X190020Y131659D01*
X189655Y131508D01*
X175529Y145633D01*
Y150068D01*
X175894Y150219D01*
X176679Y150821D01*
X177281Y151606D01*
X177659Y152520D01*
X177788Y153500D01*
X177659Y154481D01*
X177281Y155394D01*
X176679Y156179D01*
X175894Y156781D01*
X174980Y157159D01*
X174000Y157288D01*
D02*
G37*
G36*
X432500Y129469D02*
X431956Y129397D01*
X430983Y128994D01*
X430147Y128353D01*
X429506Y127517D01*
X429103Y126544D01*
X429031Y126000D01*
X432500D01*
Y129469D01*
D02*
G37*
G36*
X251000Y131788D02*
X250020Y131659D01*
X249106Y131281D01*
X248321Y130679D01*
X247719Y129894D01*
X247341Y128981D01*
X247212Y128000D01*
X247341Y127020D01*
X247719Y126106D01*
X248321Y125321D01*
X249106Y124719D01*
X250020Y124341D01*
X251000Y124212D01*
X251980Y124341D01*
X252894Y124719D01*
X253679Y125321D01*
X254281Y126106D01*
X254659Y127020D01*
X254788Y128000D01*
X254659Y128981D01*
X254281Y129894D01*
X253679Y130679D01*
X252894Y131281D01*
X251980Y131659D01*
X251000Y131788D01*
D02*
G37*
G36*
X354000Y131421D02*
Y128000D01*
X357421D01*
X357351Y128532D01*
X356953Y129493D01*
X356319Y130319D01*
X355493Y130953D01*
X354532Y131351D01*
X354000Y131421D01*
D02*
G37*
G36*
X128005Y130500D02*
X126260D01*
Y128755D01*
X126657Y128834D01*
X127418Y129342D01*
X127926Y130103D01*
X128005Y130500D01*
D02*
G37*
G36*
X125260D02*
X123515D01*
X123594Y130103D01*
X124102Y129342D01*
X124863Y128834D01*
X125260Y128755D01*
Y130500D01*
D02*
G37*
G36*
X132760D02*
X131015D01*
X131094Y130103D01*
X131602Y129342D01*
X132363Y128834D01*
X132760Y128755D01*
Y130500D01*
D02*
G37*
G36*
X140260D02*
X138515D01*
X138594Y130103D01*
X139102Y129342D01*
X139863Y128834D01*
X140260Y128755D01*
Y130500D01*
D02*
G37*
G36*
X135505D02*
X133760D01*
Y128755D01*
X134157Y128834D01*
X134917Y129342D01*
X135426Y130103D01*
X135505Y130500D01*
D02*
G37*
G36*
X364000Y131421D02*
Y128000D01*
X367421D01*
X367351Y128532D01*
X366953Y129493D01*
X366319Y130319D01*
X365493Y130953D01*
X364532Y131351D01*
X364000Y131421D01*
D02*
G37*
G36*
X363000D02*
X362468Y131351D01*
X361507Y130953D01*
X360681Y130319D01*
X360047Y129493D01*
X359649Y128532D01*
X359579Y128000D01*
X363000D01*
Y131421D01*
D02*
G37*
G36*
X397953Y136453D02*
X390047D01*
Y128547D01*
X397953D01*
Y136453D01*
D02*
G37*
G36*
X120505Y130500D02*
X118760D01*
Y128755D01*
X119157Y128834D01*
X119918Y129342D01*
X120426Y130103D01*
X120505Y130500D01*
D02*
G37*
G36*
X117760D02*
X116015D01*
X116094Y130103D01*
X116602Y129342D01*
X117363Y128834D01*
X117760Y128755D01*
Y130500D01*
D02*
G37*
G36*
X132760Y123000D02*
X131015D01*
X131094Y122603D01*
X131602Y121842D01*
X132363Y121334D01*
X132760Y121255D01*
Y123000D01*
D02*
G37*
G36*
X128005D02*
X126260D01*
Y121255D01*
X126657Y121334D01*
X127418Y121842D01*
X127926Y122603D01*
X128005Y123000D01*
D02*
G37*
G36*
X135505D02*
X133760D01*
Y121255D01*
X134157Y121334D01*
X134917Y121842D01*
X135426Y122603D01*
X135505Y123000D01*
D02*
G37*
G36*
X143005D02*
X141260D01*
Y121255D01*
X141657Y121334D01*
X142418Y121842D01*
X142926Y122603D01*
X143005Y123000D01*
D02*
G37*
G36*
X140260D02*
X138515D01*
X138594Y122603D01*
X139102Y121842D01*
X139863Y121334D01*
X140260Y121255D01*
Y123000D01*
D02*
G37*
G36*
X250500Y119788D02*
X249519Y119659D01*
X248606Y119281D01*
X247821Y118679D01*
X247219Y117894D01*
X246841Y116981D01*
X246712Y116000D01*
X246841Y115020D01*
X247219Y114106D01*
X247821Y113321D01*
X248606Y112719D01*
X249519Y112341D01*
X250500Y112212D01*
X251481Y112341D01*
X252394Y112719D01*
X253179Y113321D01*
X253781Y114106D01*
X254159Y115020D01*
X254288Y116000D01*
X254159Y116981D01*
X253781Y117894D01*
X253179Y118679D01*
X252394Y119281D01*
X251481Y119659D01*
X250500Y119788D01*
D02*
G37*
G36*
X190500D02*
X189520Y119659D01*
X188606Y119281D01*
X187821Y118679D01*
X187219Y117894D01*
X186841Y116981D01*
X186712Y116000D01*
X186841Y115020D01*
X187219Y114106D01*
X187821Y113321D01*
X188606Y112719D01*
X189520Y112341D01*
X190500Y112212D01*
X191481Y112341D01*
X192394Y112719D01*
X193179Y113321D01*
X193781Y114106D01*
X194159Y115020D01*
X194288Y116000D01*
X194159Y116981D01*
X193781Y117894D01*
X193179Y118679D01*
X192394Y119281D01*
X191481Y119659D01*
X190500Y119788D01*
D02*
G37*
G36*
X117760Y123000D02*
X116015D01*
X116094Y122603D01*
X116602Y121842D01*
X117363Y121334D01*
X117760Y121255D01*
Y123000D01*
D02*
G37*
G36*
X125260D02*
X123515D01*
X123594Y122603D01*
X124102Y121842D01*
X124863Y121334D01*
X125260Y121255D01*
Y123000D01*
D02*
G37*
G36*
X120505D02*
X118760D01*
Y121255D01*
X119157Y121334D01*
X119918Y121842D01*
X120426Y122603D01*
X120505Y123000D01*
D02*
G37*
G36*
X333000Y127000D02*
X329579D01*
X329649Y126468D01*
X330047Y125507D01*
X330681Y124681D01*
X331507Y124047D01*
X332468Y123649D01*
X333000Y123579D01*
Y127000D01*
D02*
G37*
G36*
X125260Y125745D02*
X124863Y125666D01*
X124102Y125158D01*
X123594Y124397D01*
X123515Y124000D01*
X125260D01*
Y125745D01*
D02*
G37*
G36*
X118760D02*
Y124000D01*
X120505D01*
X120426Y124397D01*
X119918Y125158D01*
X119157Y125666D01*
X118760Y125745D01*
D02*
G37*
G36*
X126260D02*
Y124000D01*
X128005D01*
X127926Y124397D01*
X127418Y125158D01*
X126657Y125666D01*
X126260Y125745D01*
D02*
G37*
G36*
X133760D02*
Y124000D01*
X135505D01*
X135426Y124397D01*
X134917Y125158D01*
X134157Y125666D01*
X133760Y125745D01*
D02*
G37*
G36*
X132760D02*
X132363Y125666D01*
X131602Y125158D01*
X131094Y124397D01*
X131015Y124000D01*
X132760D01*
Y125745D01*
D02*
G37*
G36*
X343000Y127000D02*
X339579D01*
X339649Y126468D01*
X340047Y125507D01*
X340681Y124681D01*
X341507Y124047D01*
X342468Y123649D01*
X343000Y123579D01*
Y127000D01*
D02*
G37*
G36*
X337421D02*
X334000D01*
Y123579D01*
X334532Y123649D01*
X335493Y124047D01*
X336319Y124681D01*
X336953Y125507D01*
X337351Y126468D01*
X337421Y127000D01*
D02*
G37*
G36*
X363000D02*
X359579D01*
X359649Y126468D01*
X360047Y125507D01*
X360681Y124681D01*
X361507Y124047D01*
X362468Y123649D01*
X363000Y123579D01*
Y127000D01*
D02*
G37*
G36*
X117760Y125745D02*
X117363Y125666D01*
X116602Y125158D01*
X116094Y124397D01*
X116015Y124000D01*
X117760D01*
Y125745D01*
D02*
G37*
G36*
X367421Y127000D02*
X364000D01*
Y123579D01*
X364532Y123649D01*
X365493Y124047D01*
X366319Y124681D01*
X366953Y125507D01*
X367351Y126468D01*
X367421Y127000D01*
D02*
G37*
G36*
X118760Y140745D02*
Y139000D01*
X120505D01*
X120426Y139397D01*
X119918Y140158D01*
X119157Y140666D01*
X118760Y140745D01*
D02*
G37*
G36*
X117760D02*
X117363Y140666D01*
X116602Y140158D01*
X116094Y139397D01*
X116015Y139000D01*
X117760D01*
Y140745D01*
D02*
G37*
G36*
X125260D02*
X124863Y140666D01*
X124102Y140158D01*
X123594Y139397D01*
X123515Y139000D01*
X125260D01*
Y140745D01*
D02*
G37*
G36*
X132760D02*
X132363Y140666D01*
X131602Y140158D01*
X131094Y139397D01*
X131015Y139000D01*
X132760D01*
Y140745D01*
D02*
G37*
G36*
X126260D02*
Y139000D01*
X128005D01*
X127926Y139397D01*
X127418Y140158D01*
X126657Y140666D01*
X126260Y140745D01*
D02*
G37*
G36*
X287500Y141500D02*
X284536D01*
X284590Y141086D01*
X284943Y140235D01*
X285504Y139504D01*
X286235Y138943D01*
X287086Y138590D01*
X287500Y138536D01*
Y141500D01*
D02*
G37*
G36*
X143005Y138000D02*
X141260D01*
Y136255D01*
X141657Y136334D01*
X142418Y136842D01*
X142926Y137603D01*
X143005Y138000D01*
D02*
G37*
G36*
X291464Y141500D02*
X288500D01*
Y138536D01*
X288914Y138590D01*
X289765Y138943D01*
X290496Y139504D01*
X291057Y140235D01*
X291410Y141086D01*
X291464Y141500D01*
D02*
G37*
G36*
X397921Y142000D02*
X394500D01*
Y138579D01*
X395032Y138649D01*
X395993Y139047D01*
X396819Y139681D01*
X397453Y140507D01*
X397851Y141468D01*
X397921Y142000D01*
D02*
G37*
G36*
X393500D02*
X390079D01*
X390149Y141468D01*
X390547Y140507D01*
X391181Y139681D01*
X392007Y139047D01*
X392968Y138649D01*
X393500Y138579D01*
Y142000D01*
D02*
G37*
G36*
X133760Y140745D02*
Y139000D01*
X135505D01*
X135426Y139397D01*
X134917Y140158D01*
X134157Y140666D01*
X133760Y140745D01*
D02*
G37*
G36*
X393500Y146421D02*
X392968Y146351D01*
X392007Y145953D01*
X391181Y145319D01*
X390547Y144493D01*
X390149Y143532D01*
X390079Y143000D01*
X393500D01*
Y146421D01*
D02*
G37*
G36*
X288500Y145464D02*
Y142500D01*
X291464D01*
X291410Y142914D01*
X291057Y143765D01*
X290496Y144496D01*
X289765Y145057D01*
X288914Y145410D01*
X288500Y145464D01*
D02*
G37*
G36*
X394500Y146421D02*
Y143000D01*
X397921D01*
X397851Y143532D01*
X397453Y144493D01*
X396819Y145319D01*
X395993Y145953D01*
X395032Y146351D01*
X394500Y146421D01*
D02*
G37*
G36*
X424500Y155034D02*
X423456Y154897D01*
X422483Y154494D01*
X421647Y153853D01*
X421006Y153017D01*
X420603Y152044D01*
X420466Y151000D01*
X420603Y149956D01*
X421006Y148983D01*
X421647Y148147D01*
X422483Y147506D01*
X423456Y147103D01*
X424500Y146966D01*
X425544Y147103D01*
X426517Y147506D01*
X427353Y148147D01*
X427994Y148983D01*
X428397Y149956D01*
X428535Y151000D01*
X428397Y152044D01*
X427994Y153017D01*
X427353Y153853D01*
X426517Y154494D01*
X425544Y154897D01*
X424500Y155034D01*
D02*
G37*
G36*
X532453Y153953D02*
X524547D01*
Y146047D01*
X532453D01*
Y153953D01*
D02*
G37*
G36*
X141260Y140745D02*
Y139000D01*
X143005D01*
X142926Y139397D01*
X142418Y140158D01*
X141657Y140666D01*
X141260Y140745D01*
D02*
G37*
G36*
X140260D02*
X139863Y140666D01*
X139102Y140158D01*
X138594Y139397D01*
X138515Y139000D01*
X140260D01*
Y140745D01*
D02*
G37*
G36*
X528000Y143921D02*
X527468Y143851D01*
X526507Y143453D01*
X525681Y142819D01*
X525047Y141993D01*
X524649Y141032D01*
X524579Y140500D01*
X528000D01*
Y143921D01*
D02*
G37*
G36*
X287500Y145464D02*
X287086Y145410D01*
X286235Y145057D01*
X285504Y144496D01*
X284943Y143765D01*
X284590Y142914D01*
X284536Y142500D01*
X287500D01*
Y145464D01*
D02*
G37*
G36*
X529000Y143921D02*
Y140500D01*
X532421D01*
X532351Y141032D01*
X531953Y141993D01*
X531319Y142819D01*
X530493Y143453D01*
X529532Y143851D01*
X529000Y143921D01*
D02*
G37*
G36*
X126260Y133245D02*
Y131500D01*
X128005D01*
X127926Y131897D01*
X127418Y132658D01*
X126657Y133166D01*
X126260Y133245D01*
D02*
G37*
G36*
X125260D02*
X124863Y133166D01*
X124102Y132658D01*
X123594Y131897D01*
X123515Y131500D01*
X125260D01*
Y133245D01*
D02*
G37*
G36*
X132760D02*
X132363Y133166D01*
X131602Y132658D01*
X131094Y131897D01*
X131015Y131500D01*
X132760D01*
Y133245D01*
D02*
G37*
G36*
X140260D02*
X139863Y133166D01*
X139102Y132658D01*
X138594Y131897D01*
X138515Y131500D01*
X140260D01*
Y133245D01*
D02*
G37*
G36*
X133760D02*
Y131500D01*
X135505D01*
X135426Y131897D01*
X134917Y132658D01*
X134157Y133166D01*
X133760Y133245D01*
D02*
G37*
G36*
X479500Y133921D02*
X478968Y133851D01*
X478007Y133453D01*
X477181Y132819D01*
X476547Y131993D01*
X476149Y131032D01*
X476079Y130500D01*
X479500D01*
Y133921D01*
D02*
G37*
G36*
X143005Y130500D02*
X141260D01*
Y128755D01*
X141657Y128834D01*
X142418Y129342D01*
X142926Y130103D01*
X143005Y130500D01*
D02*
G37*
G36*
X480500Y133921D02*
Y130500D01*
X483921D01*
X483851Y131032D01*
X483453Y131993D01*
X482819Y132819D01*
X481993Y133453D01*
X481032Y133851D01*
X480500Y133921D01*
D02*
G37*
G36*
X118760Y133245D02*
Y131500D01*
X120505D01*
X120426Y131897D01*
X119918Y132658D01*
X119157Y133166D01*
X118760Y133245D01*
D02*
G37*
G36*
X117760D02*
X117363Y133166D01*
X116602Y132658D01*
X116094Y131897D01*
X116015Y131500D01*
X117760D01*
Y133245D01*
D02*
G37*
G36*
X141260D02*
Y131500D01*
X143005D01*
X142926Y131897D01*
X142418Y132658D01*
X141657Y133166D01*
X141260Y133245D01*
D02*
G37*
G36*
X128005Y138000D02*
X126260D01*
Y136255D01*
X126657Y136334D01*
X127418Y136842D01*
X127926Y137603D01*
X128005Y138000D01*
D02*
G37*
G36*
X125260D02*
X123515D01*
X123594Y137603D01*
X124102Y136842D01*
X124863Y136334D01*
X125260Y136255D01*
Y138000D01*
D02*
G37*
G36*
X132760D02*
X131015D01*
X131094Y137603D01*
X131602Y136842D01*
X132363Y136334D01*
X132760Y136255D01*
Y138000D01*
D02*
G37*
G36*
X140260D02*
X138515D01*
X138594Y137603D01*
X139102Y136842D01*
X139863Y136334D01*
X140260Y136255D01*
Y138000D01*
D02*
G37*
G36*
X135505D02*
X133760D01*
Y136255D01*
X134157Y136334D01*
X134917Y136842D01*
X135426Y137603D01*
X135505Y138000D01*
D02*
G37*
G36*
X528000Y139500D02*
X524579D01*
X524649Y138968D01*
X525047Y138007D01*
X525681Y137181D01*
X526507Y136547D01*
X527468Y136149D01*
X528000Y136079D01*
Y139500D01*
D02*
G37*
G36*
X480000Y143987D02*
X478968Y143851D01*
X478007Y143453D01*
X477181Y142819D01*
X476547Y141993D01*
X476149Y141032D01*
X476013Y140000D01*
X476149Y138968D01*
X476547Y138007D01*
X477181Y137181D01*
X478007Y136547D01*
X478968Y136149D01*
X480000Y136013D01*
X481032Y136149D01*
X481993Y136547D01*
X482819Y137181D01*
X483453Y138007D01*
X483851Y138968D01*
X483987Y140000D01*
X483851Y141032D01*
X483453Y141993D01*
X482819Y142819D01*
X481993Y143453D01*
X481032Y143851D01*
X480000Y143987D01*
D02*
G37*
G36*
X532421Y139500D02*
X529000D01*
Y136079D01*
X529532Y136149D01*
X530493Y136547D01*
X531319Y137181D01*
X531953Y138007D01*
X532351Y138968D01*
X532421Y139500D01*
D02*
G37*
G36*
X120505Y138000D02*
X118760D01*
Y136255D01*
X119157Y136334D01*
X119918Y136842D01*
X120426Y137603D01*
X120505Y138000D01*
D02*
G37*
G36*
X117760D02*
X116015D01*
X116094Y137603D01*
X116602Y136842D01*
X117363Y136334D01*
X117760Y136255D01*
Y138000D01*
D02*
G37*
G36*
X445642Y258689D02*
X444610Y258553D01*
X443649Y258155D01*
X442823Y257521D01*
X442189Y256695D01*
X441791Y255734D01*
X441655Y254702D01*
X441791Y253670D01*
X442189Y252709D01*
X442823Y251883D01*
X443649Y251249D01*
X444610Y250851D01*
X445642Y250715D01*
X446674Y250851D01*
X447635Y251249D01*
X448461Y251883D01*
X449095Y252709D01*
X449493Y253670D01*
X449629Y254702D01*
X449493Y255734D01*
X449095Y256695D01*
X448461Y257521D01*
X447635Y258155D01*
X446674Y258553D01*
X445642Y258689D01*
D02*
G37*
G36*
X349000Y392421D02*
Y389000D01*
X352421D01*
X352351Y389532D01*
X351953Y390493D01*
X351319Y391319D01*
X350493Y391953D01*
X349532Y392351D01*
X349000Y392421D01*
D02*
G37*
G36*
X348000D02*
X347468Y392351D01*
X346507Y391953D01*
X345681Y391319D01*
X345047Y390493D01*
X344649Y389532D01*
X344579Y389000D01*
X348000D01*
Y392421D01*
D02*
G37*
G36*
X523000Y394500D02*
X519579D01*
X519649Y393968D01*
X520047Y393007D01*
X520681Y392181D01*
X521507Y391547D01*
X522468Y391149D01*
X523000Y391079D01*
Y394500D01*
D02*
G37*
G36*
X274500Y397000D02*
X271079D01*
X271149Y396468D01*
X271547Y395507D01*
X272181Y394681D01*
X273007Y394047D01*
X273968Y393649D01*
X274500Y393579D01*
Y397000D01*
D02*
G37*
G36*
X527421Y394500D02*
X524000D01*
Y391079D01*
X524532Y391149D01*
X525493Y391547D01*
X526319Y392181D01*
X526953Y393007D01*
X527351Y393968D01*
X527421Y394500D01*
D02*
G37*
G36*
X348000Y388000D02*
X344579D01*
X344649Y387468D01*
X345047Y386507D01*
X345681Y385681D01*
X346507Y385047D01*
X347468Y384649D01*
X348000Y384579D01*
Y388000D01*
D02*
G37*
G36*
X322453Y392453D02*
X314547D01*
Y384547D01*
X322453D01*
Y392453D01*
D02*
G37*
G36*
X352421Y388000D02*
X349000D01*
Y384579D01*
X349532Y384649D01*
X350493Y385047D01*
X351319Y385681D01*
X351953Y386507D01*
X352351Y387468D01*
X352421Y388000D01*
D02*
G37*
G36*
X411000Y390421D02*
Y387000D01*
X414421D01*
X414351Y387532D01*
X413953Y388493D01*
X413319Y389319D01*
X412493Y389953D01*
X411532Y390351D01*
X411000Y390421D01*
D02*
G37*
G36*
X410000D02*
X409468Y390351D01*
X408507Y389953D01*
X407681Y389319D01*
X407047Y388493D01*
X406649Y387532D01*
X406579Y387000D01*
X410000D01*
Y390421D01*
D02*
G37*
G36*
X278921Y397000D02*
X275500D01*
Y393579D01*
X276032Y393649D01*
X276993Y394047D01*
X277819Y394681D01*
X278453Y395507D01*
X278851Y396468D01*
X278921Y397000D01*
D02*
G37*
G36*
X523000Y398921D02*
X522468Y398851D01*
X521507Y398453D01*
X520681Y397819D01*
X520047Y396993D01*
X519649Y396032D01*
X519579Y395500D01*
X523000D01*
Y398921D01*
D02*
G37*
G36*
X215722Y398500D02*
X212500D01*
Y395278D01*
X212981Y395341D01*
X213894Y395719D01*
X214679Y396321D01*
X215281Y397106D01*
X215659Y398020D01*
X215722Y398500D01*
D02*
G37*
G36*
X524000Y398921D02*
Y395500D01*
X527421D01*
X527351Y396032D01*
X526953Y396993D01*
X526319Y397819D01*
X525493Y398453D01*
X524532Y398851D01*
X524000Y398921D01*
D02*
G37*
G36*
X275500Y401421D02*
Y398000D01*
X278921D01*
X278851Y398532D01*
X278453Y399493D01*
X277819Y400319D01*
X276993Y400953D01*
X276032Y401351D01*
X275500Y401421D01*
D02*
G37*
G36*
X274500D02*
X273968Y401351D01*
X273007Y400953D01*
X272181Y400319D01*
X271547Y399493D01*
X271149Y398532D01*
X271079Y398000D01*
X274500D01*
Y401421D01*
D02*
G37*
G36*
X461000Y397500D02*
X457778D01*
X457841Y397020D01*
X458219Y396106D01*
X458821Y395321D01*
X459606Y394719D01*
X460520Y394341D01*
X461000Y394278D01*
Y397500D01*
D02*
G37*
G36*
X501500Y401788D02*
X500520Y401659D01*
X499606Y401281D01*
X498821Y400679D01*
X498219Y399894D01*
X497841Y398980D01*
X497712Y398000D01*
X497841Y397020D01*
X498219Y396106D01*
X498821Y395321D01*
X499606Y394719D01*
X500520Y394341D01*
X501500Y394212D01*
X502481Y394341D01*
X503394Y394719D01*
X504179Y395321D01*
X504781Y396106D01*
X505159Y397020D01*
X505288Y398000D01*
X505159Y398980D01*
X504781Y399894D01*
X504179Y400679D01*
X503394Y401281D01*
X502481Y401659D01*
X501500Y401788D01*
D02*
G37*
G36*
X465223Y397500D02*
X462000D01*
Y394278D01*
X462480Y394341D01*
X463394Y394719D01*
X464179Y395321D01*
X464781Y396106D01*
X465159Y397020D01*
X465223Y397500D01*
D02*
G37*
G36*
X211500Y398500D02*
X208278D01*
X208341Y398020D01*
X208719Y397106D01*
X209321Y396321D01*
X210106Y395719D01*
X211019Y395341D01*
X211500Y395278D01*
Y398500D01*
D02*
G37*
G36*
X252000Y402788D02*
X251020Y402659D01*
X250106Y402281D01*
X249321Y401679D01*
X248719Y400894D01*
X248341Y399980D01*
X248212Y399000D01*
X248341Y398020D01*
X248719Y397106D01*
X249321Y396321D01*
X250106Y395719D01*
X251020Y395341D01*
X252000Y395212D01*
X252980Y395341D01*
X253894Y395719D01*
X254679Y396321D01*
X255281Y397106D01*
X255659Y398020D01*
X255788Y399000D01*
X255659Y399980D01*
X255281Y400894D01*
X254679Y401679D01*
X253894Y402281D01*
X252980Y402659D01*
X252000Y402788D01*
D02*
G37*
G36*
X169142Y368623D02*
X168610Y368553D01*
X167649Y368155D01*
X166823Y367521D01*
X166189Y366695D01*
X165791Y365734D01*
X165721Y365202D01*
X169142D01*
Y368623D01*
D02*
G37*
G36*
X173563Y364202D02*
X170142D01*
Y360781D01*
X170674Y360851D01*
X171635Y361249D01*
X172461Y361883D01*
X173095Y362709D01*
X173493Y363670D01*
X173563Y364202D01*
D02*
G37*
G36*
X170142Y368623D02*
Y365202D01*
X173563D01*
X173493Y365734D01*
X173095Y366695D01*
X172461Y367521D01*
X171635Y368155D01*
X170674Y368553D01*
X170142Y368623D01*
D02*
G37*
G36*
X212000Y389288D02*
X211019Y389159D01*
X210106Y388781D01*
X209321Y388179D01*
X208719Y387394D01*
X208341Y386480D01*
X208212Y385500D01*
X208341Y384520D01*
X208719Y383606D01*
X209321Y382821D01*
X210106Y382219D01*
X211019Y381841D01*
X212000Y381712D01*
X212981Y381841D01*
X213894Y382219D01*
X214679Y382821D01*
X215281Y383606D01*
X215659Y384520D01*
X215788Y385500D01*
X215659Y386480D01*
X215281Y387394D01*
X214679Y388179D01*
X213894Y388781D01*
X212981Y389159D01*
X212000Y389288D01*
D02*
G37*
G36*
X527453Y388953D02*
X519547D01*
Y381047D01*
X527453D01*
Y388953D01*
D02*
G37*
G36*
X143595Y368655D02*
X135689D01*
Y360749D01*
X143595D01*
Y368655D01*
D02*
G37*
G36*
X445642Y368689D02*
X444610Y368553D01*
X443649Y368155D01*
X442823Y367521D01*
X442189Y366695D01*
X441791Y365734D01*
X441655Y364702D01*
X441791Y363670D01*
X442189Y362709D01*
X442823Y361883D01*
X443649Y361249D01*
X444610Y360851D01*
X445642Y360715D01*
X446674Y360851D01*
X447635Y361249D01*
X448461Y361883D01*
X449095Y362709D01*
X449493Y363670D01*
X449629Y364702D01*
X449493Y365734D01*
X449095Y366695D01*
X448461Y367521D01*
X447635Y368155D01*
X446674Y368553D01*
X445642Y368689D01*
D02*
G37*
G36*
X339595Y368655D02*
X331689D01*
Y360749D01*
X339595D01*
Y368655D01*
D02*
G37*
G36*
X169142Y364202D02*
X165721D01*
X165791Y363670D01*
X166189Y362709D01*
X166823Y361883D01*
X167649Y361249D01*
X168610Y360851D01*
X169142Y360781D01*
Y364202D01*
D02*
G37*
G36*
X439595Y368655D02*
X431689D01*
Y360749D01*
X439595D01*
Y368655D01*
D02*
G37*
G36*
X252000Y389288D02*
X251020Y389159D01*
X250106Y388781D01*
X249321Y388179D01*
X248719Y387394D01*
X248341Y386480D01*
X248212Y385500D01*
X248341Y384520D01*
X248719Y383606D01*
X249321Y382821D01*
X250106Y382219D01*
X251020Y381841D01*
X252000Y381712D01*
X252980Y381841D01*
X253894Y382219D01*
X254679Y382821D01*
X255281Y383606D01*
X255659Y384520D01*
X255788Y385500D01*
X255659Y386480D01*
X255281Y387394D01*
X254679Y388179D01*
X253894Y388781D01*
X252980Y389159D01*
X252000Y389288D01*
D02*
G37*
G36*
X414421Y386000D02*
X411000D01*
Y382579D01*
X411532Y382649D01*
X412493Y383047D01*
X413319Y383681D01*
X413953Y384507D01*
X414351Y385468D01*
X414421Y386000D01*
D02*
G37*
G36*
X410000D02*
X406579D01*
X406649Y385468D01*
X407047Y384507D01*
X407681Y383681D01*
X408507Y383047D01*
X409468Y382649D01*
X410000Y382579D01*
Y386000D01*
D02*
G37*
G36*
X278953Y391453D02*
X271047D01*
Y383547D01*
X278953D01*
Y391453D01*
D02*
G37*
G36*
X338500Y392487D02*
X337468Y392351D01*
X336507Y391953D01*
X335681Y391319D01*
X335047Y390493D01*
X334649Y389532D01*
X334513Y388500D01*
X334649Y387468D01*
X335047Y386507D01*
X335681Y385681D01*
X336507Y385047D01*
X337468Y384649D01*
X338500Y384513D01*
X339532Y384649D01*
X340493Y385047D01*
X341319Y385681D01*
X341953Y386507D01*
X342351Y387468D01*
X342487Y388500D01*
X342351Y389532D01*
X341953Y390493D01*
X341319Y391319D01*
X340493Y391953D01*
X339532Y392351D01*
X338500Y392487D01*
D02*
G37*
G36*
X328500D02*
X327468Y392351D01*
X326507Y391953D01*
X325681Y391319D01*
X325047Y390493D01*
X324649Y389532D01*
X324513Y388500D01*
X324649Y387468D01*
X325047Y386507D01*
X325681Y385681D01*
X326507Y385047D01*
X327468Y384649D01*
X328500Y384513D01*
X329532Y384649D01*
X330493Y385047D01*
X331319Y385681D01*
X331953Y386507D01*
X332351Y387468D01*
X332487Y388500D01*
X332351Y389532D01*
X331953Y390493D01*
X331319Y391319D01*
X330493Y391953D01*
X329532Y392351D01*
X328500Y392487D01*
D02*
G37*
G36*
X501500Y389288D02*
X500520Y389159D01*
X499606Y388781D01*
X498821Y388179D01*
X498219Y387394D01*
X497841Y386480D01*
X497712Y385500D01*
X497841Y384520D01*
X498219Y383606D01*
X498821Y382821D01*
X499606Y382219D01*
X500520Y381841D01*
X501500Y381712D01*
X502481Y381841D01*
X503394Y382219D01*
X504179Y382821D01*
X504781Y383606D01*
X505159Y384520D01*
X505288Y385500D01*
X505159Y386480D01*
X504781Y387394D01*
X504179Y388179D01*
X503394Y388781D01*
X502481Y389159D01*
X501500Y389288D01*
D02*
G37*
G36*
X461500D02*
X460520Y389159D01*
X459606Y388781D01*
X458821Y388179D01*
X458219Y387394D01*
X457841Y386480D01*
X457712Y385500D01*
X457841Y384520D01*
X458219Y383606D01*
X458821Y382821D01*
X459606Y382219D01*
X460520Y381841D01*
X461500Y381712D01*
X462480Y381841D01*
X463394Y382219D01*
X464179Y382821D01*
X464781Y383606D01*
X465159Y384520D01*
X465288Y385500D01*
X465159Y386480D01*
X464781Y387394D01*
X464179Y388179D01*
X463394Y388781D01*
X462480Y389159D01*
X461500Y389288D01*
D02*
G37*
G36*
X390500Y390487D02*
X389468Y390351D01*
X388507Y389953D01*
X387681Y389319D01*
X387047Y388493D01*
X386649Y387532D01*
X386513Y386500D01*
X386649Y385468D01*
X387047Y384507D01*
X387681Y383681D01*
X388507Y383047D01*
X389468Y382649D01*
X390500Y382513D01*
X391532Y382649D01*
X392493Y383047D01*
X393319Y383681D01*
X393953Y384507D01*
X394351Y385468D01*
X394487Y386500D01*
X394351Y387532D01*
X393953Y388493D01*
X393319Y389319D01*
X392493Y389953D01*
X391532Y390351D01*
X390500Y390487D01*
D02*
G37*
G36*
X384453Y390453D02*
X376547D01*
Y382547D01*
X384453D01*
Y390453D01*
D02*
G37*
G36*
X400500Y390487D02*
X399468Y390351D01*
X398507Y389953D01*
X397681Y389319D01*
X397047Y388493D01*
X396649Y387532D01*
X396513Y386500D01*
X396649Y385468D01*
X397047Y384507D01*
X397681Y383681D01*
X398507Y383047D01*
X399468Y382649D01*
X400500Y382513D01*
X401532Y382649D01*
X402493Y383047D01*
X403319Y383681D01*
X403953Y384507D01*
X404351Y385468D01*
X404487Y386500D01*
X404351Y387532D01*
X403953Y388493D01*
X403319Y389319D01*
X402493Y389953D01*
X401532Y390351D01*
X400500Y390487D01*
D02*
G37*
G36*
X461000Y401722D02*
X460520Y401659D01*
X459606Y401281D01*
X458821Y400679D01*
X458219Y399894D01*
X457841Y398980D01*
X457778Y398500D01*
X461000D01*
Y401722D01*
D02*
G37*
G36*
X211500Y402723D02*
X211019Y402659D01*
X210106Y402281D01*
X209321Y401679D01*
X208719Y400894D01*
X208341Y399980D01*
X208278Y399500D01*
X211500D01*
Y402723D01*
D02*
G37*
G36*
X462000Y401722D02*
Y398500D01*
X465223D01*
X465159Y398980D01*
X464781Y399894D01*
X464179Y400679D01*
X463394Y401281D01*
X462480Y401659D01*
X462000Y401722D01*
D02*
G37*
G36*
X212500Y402723D02*
Y399500D01*
X215722D01*
X215659Y399980D01*
X215281Y400894D01*
X214679Y401679D01*
X213894Y402281D01*
X212981Y402659D01*
X212500Y402723D01*
D02*
G37*
G36*
X507500Y295000D02*
X503103D01*
X503139Y294725D01*
X503439Y294003D01*
X503914Y293383D01*
X504534Y292907D01*
X505257Y292608D01*
X506032Y292506D01*
X507500D01*
Y295000D01*
D02*
G37*
G36*
X483000Y295921D02*
Y292500D01*
X486421D01*
X486351Y293032D01*
X485953Y293993D01*
X485319Y294819D01*
X484493Y295453D01*
X483532Y295851D01*
X483000Y295921D01*
D02*
G37*
G36*
X512897Y295000D02*
X508500D01*
Y292506D01*
X509969D01*
X510743Y292608D01*
X511466Y292907D01*
X512086Y293383D01*
X512562Y294003D01*
X512861Y294725D01*
X512897Y295000D01*
D02*
G37*
G36*
X509969Y308494D02*
X506032D01*
X505257Y308392D01*
X504534Y308093D01*
X503914Y307617D01*
X503439Y306997D01*
X503139Y306275D01*
X503037Y305500D01*
X503139Y304725D01*
X503439Y304003D01*
X503914Y303383D01*
X504087Y303250D01*
Y302750D01*
X503914Y302617D01*
X503439Y301997D01*
X503139Y301275D01*
X503037Y300500D01*
X503139Y299725D01*
X503439Y299003D01*
X503914Y298383D01*
X504087Y298250D01*
Y297750D01*
X503914Y297617D01*
X503439Y296997D01*
X503139Y296275D01*
X503103Y296000D01*
X512897D01*
X512861Y296275D01*
X512562Y296997D01*
X512086Y297617D01*
X511912Y297750D01*
Y298250D01*
X512086Y298383D01*
X512562Y299003D01*
X512861Y299725D01*
X512963Y300500D01*
X512861Y301275D01*
X512562Y301997D01*
X512086Y302617D01*
X511913Y302750D01*
Y303250D01*
X512086Y303383D01*
X512562Y304003D01*
X512861Y304725D01*
X512963Y305500D01*
X512861Y306275D01*
X512562Y306997D01*
X512086Y307617D01*
X511466Y308093D01*
X510744Y308392D01*
X509969Y308494D01*
D02*
G37*
G36*
X189500Y300987D02*
X188468Y300851D01*
X187507Y300453D01*
X186681Y299819D01*
X186047Y298993D01*
X185649Y298032D01*
X185513Y297000D01*
X185649Y295968D01*
X186047Y295007D01*
X186681Y294181D01*
X187507Y293547D01*
X188468Y293149D01*
X189500Y293013D01*
X190532Y293149D01*
X191493Y293547D01*
X192319Y294181D01*
X192953Y295007D01*
X193351Y295968D01*
X193487Y297000D01*
X193351Y298032D01*
X192953Y298993D01*
X192319Y299819D01*
X191493Y300453D01*
X190532Y300851D01*
X189500Y300987D01*
D02*
G37*
G36*
X294953Y297953D02*
X287047D01*
Y290047D01*
X294953D01*
Y297953D01*
D02*
G37*
G36*
X301000Y297987D02*
X299968Y297851D01*
X299007Y297453D01*
X298181Y296819D01*
X297547Y295993D01*
X297149Y295032D01*
X297013Y294000D01*
X297149Y292968D01*
X297547Y292007D01*
X298181Y291181D01*
X299007Y290547D01*
X299968Y290149D01*
X301000Y290013D01*
X302032Y290149D01*
X302993Y290547D01*
X303819Y291181D01*
X304453Y292007D01*
X304851Y292968D01*
X304987Y294000D01*
X304851Y295032D01*
X304453Y295993D01*
X303819Y296819D01*
X302993Y297453D01*
X302032Y297851D01*
X301000Y297987D01*
D02*
G37*
G36*
X435642Y298689D02*
X434610Y298553D01*
X433649Y298155D01*
X432823Y297521D01*
X432189Y296695D01*
X431791Y295734D01*
X431655Y294702D01*
X431791Y293670D01*
X432189Y292709D01*
X432823Y291883D01*
X433649Y291249D01*
X434610Y290851D01*
X435642Y290715D01*
X436674Y290851D01*
X437635Y291249D01*
X438461Y291883D01*
X439095Y292709D01*
X439493Y293670D01*
X439629Y294702D01*
X439493Y295734D01*
X439095Y296695D01*
X438461Y297521D01*
X437635Y298155D01*
X436674Y298553D01*
X435642Y298689D01*
D02*
G37*
G36*
X482000Y295921D02*
X481468Y295851D01*
X480507Y295453D01*
X479681Y294819D01*
X479047Y293993D01*
X478649Y293032D01*
X478579Y292500D01*
X482000D01*
Y295921D01*
D02*
G37*
G36*
X445642Y298689D02*
X444610Y298553D01*
X443649Y298155D01*
X442823Y297521D01*
X442189Y296695D01*
X441791Y295734D01*
X441655Y294702D01*
X441791Y293670D01*
X442189Y292709D01*
X442823Y291883D01*
X443649Y291249D01*
X444610Y290851D01*
X445642Y290715D01*
X446674Y290851D01*
X447635Y291249D01*
X448461Y291883D01*
X449095Y292709D01*
X449493Y293670D01*
X449629Y294702D01*
X449493Y295734D01*
X449095Y296695D01*
X448461Y297521D01*
X447635Y298155D01*
X446674Y298553D01*
X445642Y298689D01*
D02*
G37*
G36*
X329500Y320421D02*
Y317000D01*
X332921D01*
X332851Y317532D01*
X332453Y318493D01*
X331819Y319319D01*
X330993Y319953D01*
X330032Y320351D01*
X329500Y320421D01*
D02*
G37*
G36*
X328500D02*
X327968Y320351D01*
X327007Y319953D01*
X326181Y319319D01*
X325547Y318493D01*
X325149Y317532D01*
X325079Y317000D01*
X328500D01*
Y320421D01*
D02*
G37*
G36*
X189500Y330987D02*
X188468Y330851D01*
X187507Y330453D01*
X186681Y329819D01*
X186047Y328993D01*
X185649Y328032D01*
X185513Y327000D01*
X185649Y325968D01*
X186047Y325007D01*
X186377Y324577D01*
X186131Y324077D01*
X180047D01*
X179462Y323960D01*
X178966Y323629D01*
X161919Y306581D01*
X161587Y306085D01*
X161471Y305500D01*
Y219500D01*
X161587Y218915D01*
X161919Y218419D01*
X172919Y207419D01*
X173415Y207087D01*
X174000Y206971D01*
X193000D01*
X193585Y207087D01*
X194081Y207419D01*
X211707Y225044D01*
X212114Y224799D01*
X212138Y224768D01*
X212103Y224500D01*
X221897D01*
X221860Y224783D01*
X221557Y225513D01*
X221077Y226140D01*
X220933Y226250D01*
Y226750D01*
X221077Y226860D01*
X221557Y227487D01*
X221860Y228217D01*
X221963Y229000D01*
X221860Y229783D01*
X221557Y230513D01*
X221077Y231140D01*
X220933Y231250D01*
Y231750D01*
X221077Y231860D01*
X221557Y232487D01*
X221860Y233217D01*
X221963Y234000D01*
X221860Y234783D01*
X221557Y235513D01*
X221077Y236140D01*
X220450Y236620D01*
X219720Y236923D01*
X218937Y237026D01*
X215063D01*
X214280Y236923D01*
X213550Y236620D01*
X212923Y236140D01*
X212442Y235513D01*
X212140Y234783D01*
X212037Y234000D01*
X212140Y233217D01*
X212442Y232487D01*
X212923Y231860D01*
X213067Y231750D01*
Y231250D01*
X212923Y231140D01*
X212442Y230513D01*
X212154Y229817D01*
X192367Y210029D01*
X174634D01*
X164529Y220133D01*
Y304867D01*
X180681Y321018D01*
X187564D01*
X187664Y320518D01*
X187507Y320453D01*
X186681Y319819D01*
X186047Y318993D01*
X185649Y318032D01*
X185579Y317500D01*
X189500D01*
Y316500D01*
X185579D01*
X185649Y315968D01*
X186047Y315007D01*
X186681Y314181D01*
X186825Y314070D01*
X186798Y313461D01*
X165982Y292644D01*
X165650Y292148D01*
X165534Y291563D01*
Y240032D01*
X165650Y239446D01*
X165982Y238950D01*
X166478Y238618D01*
X167063Y238502D01*
X167535D01*
X167537Y238500D01*
X167640Y237717D01*
X167943Y236987D01*
X168423Y236360D01*
X168567Y236250D01*
Y235750D01*
X168423Y235640D01*
X167943Y235013D01*
X167640Y234283D01*
X167603Y234000D01*
X177397D01*
X177360Y234283D01*
X177058Y235013D01*
X176577Y235640D01*
X176433Y235750D01*
Y236250D01*
X176577Y236360D01*
X177058Y236987D01*
X177360Y237717D01*
X177463Y238500D01*
X177360Y239283D01*
X177058Y240013D01*
X176577Y240640D01*
X176433Y240750D01*
Y241250D01*
X176577Y241360D01*
X177058Y241987D01*
X177360Y242717D01*
X177463Y243500D01*
X177360Y244283D01*
X177058Y245013D01*
X176577Y245640D01*
X175950Y246121D01*
X175220Y246423D01*
X174437Y246526D01*
X170563D01*
X169780Y246423D01*
X169092Y246138D01*
X168727Y246268D01*
X168592Y246335D01*
Y290930D01*
X185092Y307429D01*
X185540Y307208D01*
X185513Y307000D01*
X185649Y305968D01*
X186047Y305007D01*
X186681Y304181D01*
X187507Y303547D01*
X188468Y303149D01*
X189500Y303013D01*
X190532Y303149D01*
X191493Y303547D01*
X192319Y304181D01*
X192953Y305007D01*
X193145Y305471D01*
X332711D01*
X431983Y206198D01*
X431791Y205734D01*
X431655Y204702D01*
X431791Y203670D01*
X432189Y202709D01*
X432823Y201883D01*
X433649Y201249D01*
X434610Y200851D01*
X435642Y200715D01*
X436674Y200851D01*
X437635Y201249D01*
X438461Y201883D01*
X439095Y202709D01*
X439493Y203670D01*
X439629Y204702D01*
X439493Y205734D01*
X439095Y206695D01*
X438461Y207521D01*
X437635Y208155D01*
X436674Y208553D01*
X435642Y208689D01*
X434610Y208553D01*
X434146Y208361D01*
X334425Y308081D01*
X333929Y308413D01*
X333344Y308529D01*
X269792D01*
X269622Y309029D01*
X269819Y309181D01*
X270453Y310007D01*
X270851Y310968D01*
X270922Y311505D01*
X271450Y311685D01*
X272168Y310966D01*
X272665Y310634D01*
X273250Y310518D01*
X342574D01*
X343159Y310634D01*
X343655Y310966D01*
X345862Y313173D01*
X431997D01*
X432189Y312709D01*
X432823Y311883D01*
X433649Y311249D01*
X434610Y310851D01*
X435642Y310715D01*
X436674Y310851D01*
X437635Y311249D01*
X438461Y311883D01*
X439095Y312709D01*
X439493Y313670D01*
X439629Y314702D01*
X439493Y315734D01*
X439095Y316695D01*
X438461Y317521D01*
X437635Y318155D01*
X436674Y318553D01*
X435642Y318689D01*
X434610Y318553D01*
X433649Y318155D01*
X432823Y317521D01*
X432189Y316695D01*
X431997Y316231D01*
X345229D01*
X344644Y316115D01*
X344147Y315783D01*
X343415Y315051D01*
X342953Y315242D01*
Y320453D01*
X335047D01*
Y313577D01*
X332369D01*
X332123Y314077D01*
X332453Y314507D01*
X332851Y315468D01*
X332921Y316000D01*
X329000D01*
X325079D01*
X325149Y315468D01*
X325547Y314507D01*
X325877Y314077D01*
X325631Y313577D01*
X322369D01*
X322123Y314077D01*
X322453Y314507D01*
X322851Y315468D01*
X322987Y316500D01*
X322851Y317532D01*
X322453Y318493D01*
X321819Y319319D01*
X320993Y319953D01*
X320032Y320351D01*
X319000Y320487D01*
X317968Y320351D01*
X317007Y319953D01*
X316181Y319319D01*
X315547Y318493D01*
X315149Y317532D01*
X315013Y316500D01*
X315149Y315468D01*
X315547Y314507D01*
X315877Y314077D01*
X315631Y313577D01*
X312369D01*
X312123Y314077D01*
X312453Y314507D01*
X312851Y315468D01*
X312987Y316500D01*
X312851Y317532D01*
X312453Y318493D01*
X311819Y319319D01*
X310993Y319953D01*
X310032Y320351D01*
X309000Y320487D01*
X307968Y320351D01*
X307007Y319953D01*
X306181Y319319D01*
X305547Y318493D01*
X305149Y317532D01*
X305013Y316500D01*
X305149Y315468D01*
X305547Y314507D01*
X305877Y314077D01*
X305631Y313577D01*
X302369D01*
X302123Y314077D01*
X302453Y314507D01*
X302851Y315468D01*
X302987Y316500D01*
X302851Y317532D01*
X302453Y318493D01*
X301819Y319319D01*
X300993Y319953D01*
X300032Y320351D01*
X299000Y320487D01*
X297968Y320351D01*
X297007Y319953D01*
X296181Y319319D01*
X295547Y318493D01*
X295149Y317532D01*
X295013Y316500D01*
X295149Y315468D01*
X295547Y314507D01*
X295877Y314077D01*
X295631Y313577D01*
X292369D01*
X292123Y314077D01*
X292453Y314507D01*
X292851Y315468D01*
X292987Y316500D01*
X292851Y317532D01*
X292453Y318493D01*
X291819Y319319D01*
X290993Y319953D01*
X290032Y320351D01*
X289000Y320487D01*
X287968Y320351D01*
X287007Y319953D01*
X286181Y319319D01*
X285547Y318493D01*
X285149Y317532D01*
X285013Y316500D01*
X285149Y315468D01*
X285547Y314507D01*
X285877Y314077D01*
X285631Y313577D01*
X273883D01*
X269926Y317534D01*
X269906Y317547D01*
X270058Y318047D01*
X270953D01*
Y323224D01*
X271453Y323481D01*
X271740Y323289D01*
X272325Y323173D01*
X431997D01*
X432189Y322709D01*
X432823Y321883D01*
X433649Y321249D01*
X434610Y320851D01*
X435642Y320715D01*
X436674Y320851D01*
X437635Y321249D01*
X438461Y321883D01*
X439095Y322709D01*
X439493Y323670D01*
X439629Y324702D01*
X439493Y325734D01*
X439095Y326695D01*
X438461Y327521D01*
X437635Y328155D01*
X436674Y328553D01*
X435642Y328689D01*
X434610Y328553D01*
X433649Y328155D01*
X432823Y327521D01*
X432189Y326695D01*
X431997Y326231D01*
X272958D01*
X271656Y327534D01*
X271159Y327866D01*
X270574Y327982D01*
X195250D01*
X194665Y327866D01*
X194168Y327534D01*
X193950Y327315D01*
X193422Y327495D01*
X193351Y328032D01*
X192953Y328993D01*
X192319Y329819D01*
X191493Y330453D01*
X190532Y330851D01*
X189500Y330987D01*
D02*
G37*
G36*
X435642Y338689D02*
X434610Y338553D01*
X433649Y338155D01*
X432823Y337521D01*
X432189Y336695D01*
X431791Y335734D01*
X431655Y334702D01*
X431791Y333670D01*
X432189Y332709D01*
X432823Y331883D01*
X433649Y331249D01*
X434610Y330851D01*
X435642Y330715D01*
X436674Y330851D01*
X437635Y331249D01*
X438461Y331883D01*
X439095Y332709D01*
X439493Y333670D01*
X439629Y334702D01*
X439493Y335734D01*
X439095Y336695D01*
X438461Y337521D01*
X437635Y338155D01*
X436674Y338553D01*
X435642Y338689D01*
D02*
G37*
G36*
X445642Y328689D02*
X444610Y328553D01*
X443649Y328155D01*
X442823Y327521D01*
X442189Y326695D01*
X441791Y325734D01*
X441655Y324702D01*
X441791Y323670D01*
X442189Y322709D01*
X442823Y321883D01*
X443649Y321249D01*
X444610Y320851D01*
X445642Y320715D01*
X446674Y320851D01*
X447635Y321249D01*
X448461Y321883D01*
X449095Y322709D01*
X449493Y323670D01*
X449629Y324702D01*
X449493Y325734D01*
X449095Y326695D01*
X448461Y327521D01*
X447635Y328155D01*
X446674Y328553D01*
X445642Y328689D01*
D02*
G37*
G36*
X435642Y308689D02*
X434610Y308553D01*
X433649Y308155D01*
X432823Y307521D01*
X432189Y306695D01*
X431791Y305734D01*
X431655Y304702D01*
X431791Y303670D01*
X432189Y302709D01*
X432823Y301883D01*
X433649Y301249D01*
X434610Y300851D01*
X435642Y300715D01*
X436674Y300851D01*
X437635Y301249D01*
X438461Y301883D01*
X439095Y302709D01*
X439493Y303670D01*
X439629Y304702D01*
X439493Y305734D01*
X439095Y306695D01*
X438461Y307521D01*
X437635Y308155D01*
X436674Y308553D01*
X435642Y308689D01*
D02*
G37*
G36*
X482500Y305987D02*
X481468Y305851D01*
X480507Y305453D01*
X479681Y304819D01*
X479047Y303993D01*
X478649Y303032D01*
X478513Y302000D01*
X478649Y300968D01*
X479047Y300007D01*
X479681Y299181D01*
X480507Y298547D01*
X481468Y298149D01*
X482500Y298013D01*
X483532Y298149D01*
X484493Y298547D01*
X485319Y299181D01*
X485953Y300007D01*
X486351Y300968D01*
X486487Y302000D01*
X486351Y303032D01*
X485953Y303993D01*
X485319Y304819D01*
X484493Y305453D01*
X483532Y305851D01*
X482500Y305987D01*
D02*
G37*
G36*
X445642Y308689D02*
X444610Y308553D01*
X443649Y308155D01*
X442823Y307521D01*
X442189Y306695D01*
X441791Y305734D01*
X441655Y304702D01*
X441791Y303670D01*
X442189Y302709D01*
X442823Y301883D01*
X443649Y301249D01*
X444610Y300851D01*
X445642Y300715D01*
X446674Y300851D01*
X447635Y301249D01*
X448461Y301883D01*
X449095Y302709D01*
X449493Y303670D01*
X449629Y304702D01*
X449493Y305734D01*
X449095Y306695D01*
X448461Y307521D01*
X447635Y308155D01*
X446674Y308553D01*
X445642Y308689D01*
D02*
G37*
G36*
Y318689D02*
X444610Y318553D01*
X443649Y318155D01*
X442823Y317521D01*
X442189Y316695D01*
X441791Y315734D01*
X441655Y314702D01*
X441791Y313670D01*
X442189Y312709D01*
X442823Y311883D01*
X443649Y311249D01*
X444610Y310851D01*
X445642Y310715D01*
X446674Y310851D01*
X447635Y311249D01*
X448461Y311883D01*
X449095Y312709D01*
X449493Y313670D01*
X449629Y314702D01*
X449493Y315734D01*
X449095Y316695D01*
X448461Y317521D01*
X447635Y318155D01*
X446674Y318553D01*
X445642Y318689D01*
D02*
G37*
G36*
X486453Y315953D02*
X478547D01*
Y308047D01*
X486453D01*
Y315953D01*
D02*
G37*
G36*
X486421Y291500D02*
X483000D01*
Y288079D01*
X483532Y288149D01*
X484493Y288547D01*
X485319Y289181D01*
X485953Y290007D01*
X486351Y290968D01*
X486421Y291500D01*
D02*
G37*
G36*
X487500Y280288D02*
X486519Y280159D01*
X485606Y279781D01*
X484821Y279179D01*
X484219Y278394D01*
X483841Y277481D01*
X483712Y276500D01*
X483841Y275519D01*
X484219Y274606D01*
X484821Y273821D01*
X485606Y273219D01*
X486519Y272841D01*
X487500Y272712D01*
X488481Y272841D01*
X489394Y273219D01*
X490179Y273821D01*
X490781Y274606D01*
X491159Y275519D01*
X491288Y276500D01*
X491159Y277481D01*
X490781Y278394D01*
X490179Y279179D01*
X489394Y279781D01*
X488481Y280159D01*
X487500Y280288D01*
D02*
G37*
G36*
X445642Y278689D02*
X444610Y278553D01*
X443649Y278155D01*
X442823Y277521D01*
X442189Y276695D01*
X441791Y275734D01*
X441655Y274702D01*
X441791Y273670D01*
X442189Y272709D01*
X442823Y271883D01*
X443649Y271249D01*
X444610Y270851D01*
X445642Y270715D01*
X446674Y270851D01*
X447635Y271249D01*
X448461Y271883D01*
X449095Y272709D01*
X449493Y273670D01*
X449629Y274702D01*
X449493Y275734D01*
X449095Y276695D01*
X448461Y277521D01*
X447635Y278155D01*
X446674Y278553D01*
X445642Y278689D01*
D02*
G37*
G36*
X527500Y280288D02*
X526519Y280159D01*
X525606Y279781D01*
X524821Y279179D01*
X524219Y278394D01*
X523841Y277481D01*
X523712Y276500D01*
X523841Y275519D01*
X524219Y274606D01*
X524821Y273821D01*
X525606Y273219D01*
X526519Y272841D01*
X527500Y272712D01*
X528480Y272841D01*
X529394Y273219D01*
X530179Y273821D01*
X530781Y274606D01*
X531159Y275519D01*
X531288Y276500D01*
X531159Y277481D01*
X530781Y278394D01*
X530179Y279179D01*
X529394Y279781D01*
X528480Y280159D01*
X527500Y280288D01*
D02*
G37*
G36*
X347000Y284030D02*
X346086Y283910D01*
X345235Y283557D01*
X344504Y282996D01*
X343943Y282265D01*
X343590Y281414D01*
X343470Y280500D01*
X343590Y279586D01*
X343688Y279351D01*
X297919Y233581D01*
X297587Y233085D01*
X297471Y232500D01*
Y204626D01*
X297587Y204041D01*
X297919Y203545D01*
X301654Y199810D01*
X301639Y199775D01*
X301537Y199000D01*
X301639Y198225D01*
X301939Y197503D01*
X302414Y196883D01*
X303034Y196407D01*
X303757Y196108D01*
X304532Y196006D01*
X308469D01*
X309243Y196108D01*
X309966Y196407D01*
X310586Y196883D01*
X311062Y197503D01*
X311361Y198225D01*
X311463Y199000D01*
X311361Y199775D01*
X311062Y200497D01*
X310586Y201117D01*
X310413Y201250D01*
Y201750D01*
X310586Y201883D01*
X311062Y202503D01*
X311361Y203225D01*
X311463Y204000D01*
X311361Y204775D01*
X311062Y205497D01*
X310586Y206117D01*
X310413Y206250D01*
Y206750D01*
X310586Y206883D01*
X311062Y207503D01*
X311361Y208225D01*
X311463Y209000D01*
X311361Y209775D01*
X311062Y210497D01*
X310586Y211117D01*
X309966Y211593D01*
X309243Y211892D01*
X308469Y211994D01*
X304532D01*
X303757Y211892D01*
X303034Y211593D01*
X302414Y211117D01*
X301939Y210497D01*
X301639Y209775D01*
X301537Y209000D01*
X301639Y208225D01*
X301939Y207503D01*
X302414Y206883D01*
X302587Y206750D01*
Y206250D01*
X302414Y206117D01*
X301939Y205497D01*
X301663Y204833D01*
X301233Y204637D01*
X301173Y204616D01*
X300529Y205260D01*
Y231398D01*
X300545Y231408D01*
X301083Y231154D01*
X301139Y230725D01*
X301438Y230003D01*
X301914Y229383D01*
X302087Y229250D01*
Y228750D01*
X301914Y228617D01*
X301438Y227997D01*
X301139Y227275D01*
X301037Y226500D01*
X301139Y225725D01*
X301438Y225003D01*
X301914Y224383D01*
X302087Y224250D01*
Y223750D01*
X301914Y223617D01*
X301438Y222997D01*
X301139Y222275D01*
X301037Y221500D01*
X301139Y220725D01*
X301438Y220003D01*
X301914Y219383D01*
X302534Y218907D01*
X303257Y218608D01*
X304031Y218506D01*
X307968D01*
X308743Y218608D01*
X309466Y218907D01*
X310086Y219383D01*
X310232Y219573D01*
X310731Y219606D01*
X313471Y216866D01*
Y196133D01*
X300108Y182771D01*
X299776Y182274D01*
X299660Y181689D01*
Y176638D01*
X299160Y176538D01*
X299095Y176695D01*
X298461Y177521D01*
X297635Y178155D01*
X296674Y178553D01*
X295642Y178689D01*
X294610Y178553D01*
X294387Y178461D01*
X294229Y178537D01*
X293961Y178825D01*
X294029Y179168D01*
Y202861D01*
X294894Y203219D01*
X295679Y203821D01*
X296281Y204606D01*
X296659Y205520D01*
X296788Y206500D01*
X296659Y207481D01*
X296281Y208394D01*
X295679Y209179D01*
X294894Y209781D01*
X293981Y210159D01*
X293000Y210288D01*
X292020Y210159D01*
X291106Y209781D01*
X290321Y209179D01*
X289719Y208394D01*
X289341Y207481D01*
X289212Y206500D01*
X289341Y205520D01*
X289719Y204606D01*
X290321Y203821D01*
X290971Y203323D01*
Y179801D01*
X290108Y178939D01*
X289776Y178442D01*
X289660Y177857D01*
Y176638D01*
X289160Y176538D01*
X289095Y176695D01*
X288461Y177521D01*
X287635Y178155D01*
X286674Y178553D01*
X285642Y178689D01*
X284610Y178553D01*
X283649Y178155D01*
X282823Y177521D01*
X282189Y176695D01*
X281791Y175734D01*
X281655Y174702D01*
X281791Y173670D01*
X282189Y172709D01*
X282823Y171883D01*
X283649Y171249D01*
X284610Y170851D01*
X285642Y170715D01*
X286674Y170851D01*
X287635Y171249D01*
X288461Y171883D01*
X289095Y172709D01*
X289160Y172866D01*
X289660Y172766D01*
Y149811D01*
X289776Y149225D01*
X290108Y148729D01*
X306922Y131915D01*
X306731Y131453D01*
X299547D01*
Y123547D01*
X307453D01*
Y130731D01*
X307915Y130922D01*
X309841Y128996D01*
X309649Y128532D01*
X309513Y127500D01*
X309649Y126468D01*
X310047Y125507D01*
X310681Y124681D01*
X311507Y124047D01*
X312468Y123649D01*
X313500Y123513D01*
X314532Y123649D01*
X315493Y124047D01*
X316319Y124681D01*
X316953Y125507D01*
X317351Y126468D01*
X317487Y127500D01*
X317351Y128532D01*
X316953Y129493D01*
X316319Y130319D01*
X315493Y130953D01*
X314532Y131351D01*
X313500Y131487D01*
X312468Y131351D01*
X312004Y131159D01*
X292719Y150444D01*
Y171333D01*
X293219Y171579D01*
X293649Y171249D01*
X294610Y170851D01*
X295642Y170715D01*
X296674Y170851D01*
X297635Y171249D01*
X298461Y171883D01*
X299095Y172709D01*
X299160Y172866D01*
X299660Y172766D01*
Y149811D01*
X299776Y149225D01*
X300108Y148729D01*
X319841Y128996D01*
X319649Y128532D01*
X319513Y127500D01*
X319649Y126468D01*
X320047Y125507D01*
X320681Y124681D01*
X321507Y124047D01*
X322468Y123649D01*
X323500Y123513D01*
X324532Y123649D01*
X325493Y124047D01*
X326319Y124681D01*
X326953Y125507D01*
X327351Y126468D01*
X327487Y127500D01*
X327351Y128532D01*
X326953Y129493D01*
X326319Y130319D01*
X325493Y130953D01*
X324532Y131351D01*
X323500Y131487D01*
X322468Y131351D01*
X322004Y131159D01*
X302719Y150444D01*
Y171333D01*
X303219Y171579D01*
X303649Y171249D01*
X304610Y170851D01*
X305642Y170715D01*
X306674Y170851D01*
X307138Y171043D01*
X347518Y130663D01*
Y129436D01*
X347018Y129336D01*
X346953Y129493D01*
X346319Y130319D01*
X345493Y130953D01*
X344532Y131351D01*
X344000Y131421D01*
Y127500D01*
Y123579D01*
X344532Y123649D01*
X345493Y124047D01*
X346319Y124681D01*
X346953Y125507D01*
X347046Y125526D01*
X347618Y125152D01*
X347634Y125070D01*
X347966Y124574D01*
X352621Y119919D01*
X353118Y119587D01*
X353703Y119471D01*
X472973D01*
X473558Y119587D01*
X474055Y119919D01*
X475585Y121449D01*
X476047Y121258D01*
Y116047D01*
X483953D01*
Y121258D01*
X484415Y121449D01*
X486945Y118919D01*
X487442Y118587D01*
X488027Y118471D01*
X524855D01*
X525047Y118007D01*
X525681Y117181D01*
X526507Y116547D01*
X527468Y116149D01*
X528500Y116013D01*
X529532Y116149D01*
X530493Y116547D01*
X531319Y117181D01*
X531953Y118007D01*
X532351Y118968D01*
X532487Y120000D01*
X532351Y121032D01*
X531953Y121993D01*
X531319Y122819D01*
X530493Y123453D01*
X529532Y123851D01*
X528500Y123987D01*
X527468Y123851D01*
X526507Y123453D01*
X525681Y122819D01*
X525047Y121993D01*
X524855Y121529D01*
X488660D01*
X484656Y125534D01*
X484159Y125866D01*
X483574Y125982D01*
X481936D01*
X481836Y126482D01*
X481993Y126547D01*
X482819Y127181D01*
X483453Y128007D01*
X483851Y128968D01*
X483921Y129500D01*
X480000D01*
X476079D01*
X476149Y128968D01*
X476547Y128007D01*
X477181Y127181D01*
X478007Y126547D01*
X478164Y126482D01*
X478064Y125982D01*
X476426D01*
X475841Y125866D01*
X475345Y125534D01*
X472340Y122529D01*
X436393D01*
X436146Y123029D01*
X436494Y123483D01*
X436897Y124456D01*
X436969Y125000D01*
X429031D01*
X429103Y124456D01*
X429506Y123483D01*
X429854Y123029D01*
X429607Y122529D01*
X426393D01*
X426146Y123029D01*
X426494Y123483D01*
X426897Y124456D01*
X427035Y125500D01*
X426897Y126544D01*
X426494Y127517D01*
X425853Y128353D01*
X425017Y128994D01*
X424044Y129397D01*
X423000Y129534D01*
X421956Y129397D01*
X420983Y128994D01*
X420147Y128353D01*
X419506Y127517D01*
X419103Y126544D01*
X418965Y125500D01*
X419103Y124456D01*
X419506Y123483D01*
X419854Y123029D01*
X419607Y122529D01*
X354336D01*
X353815Y123050D01*
X353995Y123578D01*
X354532Y123649D01*
X355493Y124047D01*
X356319Y124681D01*
X356953Y125507D01*
X357351Y126468D01*
X357421Y127000D01*
X353500D01*
Y127500D01*
X353000D01*
Y131421D01*
X352468Y131351D01*
X351507Y130953D01*
X351077Y130623D01*
X350577Y130869D01*
Y131297D01*
X350460Y131882D01*
X350129Y132378D01*
X309301Y173206D01*
X309493Y173670D01*
X309629Y174702D01*
X309493Y175734D01*
X309095Y176695D01*
X308461Y177521D01*
X307635Y178155D01*
X306674Y178553D01*
X305642Y178689D01*
X304610Y178553D01*
X303649Y178155D01*
X303219Y177825D01*
X302719Y178071D01*
Y181056D01*
X316081Y194419D01*
X316413Y194915D01*
X316529Y195500D01*
Y217500D01*
X316413Y218085D01*
X316081Y218581D01*
X312966Y221696D01*
Y224969D01*
X312850Y225554D01*
X312518Y226050D01*
X312022Y226381D01*
X311437Y226498D01*
X310964D01*
X310963Y226500D01*
X310861Y227275D01*
X310561Y227997D01*
X310086Y228617D01*
X309913Y228750D01*
Y229250D01*
X310086Y229383D01*
X310561Y230003D01*
X310861Y230725D01*
X310963Y231500D01*
X310861Y232275D01*
X310561Y232997D01*
X310086Y233617D01*
X309466Y234093D01*
X308743Y234392D01*
X307968Y234494D01*
X304031D01*
X303839Y234469D01*
X303605Y234942D01*
X345851Y277188D01*
X346086Y277090D01*
X347000Y276970D01*
X347914Y277090D01*
X348765Y277443D01*
X349496Y278004D01*
X350057Y278735D01*
X350410Y279586D01*
X350530Y280500D01*
X350410Y281414D01*
X350057Y282265D01*
X349496Y282996D01*
X348765Y283557D01*
X347914Y283910D01*
X347000Y284030D01*
D02*
G37*
G36*
X189500Y280987D02*
X188468Y280851D01*
X187507Y280453D01*
X186681Y279819D01*
X186047Y278993D01*
X185649Y278032D01*
X185513Y277000D01*
X185649Y275968D01*
X186047Y275007D01*
X186681Y274181D01*
X187507Y273547D01*
X188468Y273149D01*
X189500Y273013D01*
X190532Y273149D01*
X191493Y273547D01*
X192319Y274181D01*
X192953Y275007D01*
X193351Y275968D01*
X193487Y277000D01*
X193351Y278032D01*
X192953Y278993D01*
X192319Y279819D01*
X191493Y280453D01*
X190532Y280851D01*
X189500Y280987D01*
D02*
G37*
G36*
X435642Y268689D02*
X434610Y268553D01*
X433649Y268155D01*
X432823Y267521D01*
X432189Y266695D01*
X431791Y265734D01*
X431655Y264702D01*
X431791Y263670D01*
X432189Y262709D01*
X432823Y261883D01*
X433649Y261249D01*
X434610Y260851D01*
X435642Y260715D01*
X436674Y260851D01*
X437635Y261249D01*
X438461Y261883D01*
X439095Y262709D01*
X439493Y263670D01*
X439629Y264702D01*
X439493Y265734D01*
X439095Y266695D01*
X438461Y267521D01*
X437635Y268155D01*
X436674Y268553D01*
X435642Y268689D01*
D02*
G37*
G36*
X484000Y267288D02*
X483019Y267159D01*
X482106Y266781D01*
X481321Y266179D01*
X480719Y265394D01*
X480341Y264480D01*
X480212Y263500D01*
X480341Y262520D01*
X480719Y261606D01*
X481321Y260821D01*
X482106Y260219D01*
X483019Y259841D01*
X484000Y259712D01*
X484980Y259841D01*
X485894Y260219D01*
X486679Y260821D01*
X487281Y261606D01*
X487659Y262520D01*
X487788Y263500D01*
X487659Y264480D01*
X487281Y265394D01*
X486679Y266179D01*
X485894Y266781D01*
X484980Y267159D01*
X484000Y267288D01*
D02*
G37*
G36*
X445642Y268689D02*
X444610Y268553D01*
X443649Y268155D01*
X442823Y267521D01*
X442189Y266695D01*
X441791Y265734D01*
X441655Y264702D01*
X441791Y263670D01*
X442189Y262709D01*
X442823Y261883D01*
X443649Y261249D01*
X444610Y260851D01*
X445642Y260715D01*
X446674Y260851D01*
X447635Y261249D01*
X448461Y261883D01*
X449095Y262709D01*
X449493Y263670D01*
X449629Y264702D01*
X449493Y265734D01*
X449095Y266695D01*
X448461Y267521D01*
X447635Y268155D01*
X446674Y268553D01*
X445642Y268689D01*
D02*
G37*
G36*
X435642Y278689D02*
X434610Y278553D01*
X433649Y278155D01*
X432823Y277521D01*
X432189Y276695D01*
X431791Y275734D01*
X431655Y274702D01*
X431791Y273670D01*
X432189Y272709D01*
X432823Y271883D01*
X433649Y271249D01*
X434610Y270851D01*
X435642Y270715D01*
X436674Y270851D01*
X437635Y271249D01*
X438461Y271883D01*
X439095Y272709D01*
X439493Y273670D01*
X439629Y274702D01*
X439493Y275734D01*
X439095Y276695D01*
X438461Y277521D01*
X437635Y278155D01*
X436674Y278553D01*
X435642Y278689D01*
D02*
G37*
G36*
X189500Y270987D02*
X188468Y270851D01*
X187507Y270453D01*
X186681Y269819D01*
X186047Y268993D01*
X185649Y268032D01*
X185513Y267000D01*
X185649Y265968D01*
X186047Y265007D01*
X186681Y264181D01*
X187507Y263547D01*
X188468Y263149D01*
X189500Y263013D01*
X190532Y263149D01*
X191493Y263547D01*
X192319Y264181D01*
X192953Y265007D01*
X193351Y265968D01*
X193487Y267000D01*
X193351Y268032D01*
X192953Y268993D01*
X192319Y269819D01*
X191493Y270453D01*
X190532Y270851D01*
X189500Y270987D01*
D02*
G37*
G36*
X330343Y286914D02*
X329554Y286810D01*
X328353Y286313D01*
X327321Y285521D01*
X326530Y284490D01*
X326033Y283289D01*
X325929Y282500D01*
X330343D01*
Y286914D01*
D02*
G37*
G36*
X445642Y288689D02*
X444610Y288553D01*
X443649Y288155D01*
X442823Y287521D01*
X442189Y286695D01*
X441791Y285734D01*
X441655Y284702D01*
X441791Y283670D01*
X442189Y282709D01*
X442823Y281883D01*
X443649Y281249D01*
X444610Y280851D01*
X445642Y280715D01*
X446674Y280851D01*
X447635Y281249D01*
X448461Y281883D01*
X449095Y282709D01*
X449493Y283670D01*
X449629Y284702D01*
X449493Y285734D01*
X449095Y286695D01*
X448461Y287521D01*
X447635Y288155D01*
X446674Y288553D01*
X445642Y288689D01*
D02*
G37*
G36*
X331343Y286914D02*
Y282500D01*
X335756D01*
X335652Y283289D01*
X335155Y284490D01*
X334364Y285521D01*
X333332Y286313D01*
X332131Y286810D01*
X331343Y286914D01*
D02*
G37*
G36*
X482000Y291500D02*
X478579D01*
X478649Y290968D01*
X479047Y290007D01*
X479681Y289181D01*
X480507Y288547D01*
X481468Y288149D01*
X482000Y288079D01*
Y291500D01*
D02*
G37*
G36*
X189500Y290987D02*
X188468Y290851D01*
X187507Y290453D01*
X186681Y289819D01*
X186047Y288993D01*
X185649Y288032D01*
X185513Y287000D01*
X185649Y285968D01*
X186047Y285007D01*
X186681Y284181D01*
X187507Y283547D01*
X188468Y283149D01*
X189500Y283013D01*
X190532Y283149D01*
X191493Y283547D01*
X192319Y284181D01*
X192953Y285007D01*
X193351Y285968D01*
X193487Y287000D01*
X193351Y288032D01*
X192953Y288993D01*
X192319Y289819D01*
X191493Y290453D01*
X190532Y290851D01*
X189500Y290987D01*
D02*
G37*
G36*
X411158Y286980D02*
X409869Y286810D01*
X408668Y286313D01*
X407636Y285521D01*
X406845Y284490D01*
X406348Y283289D01*
X406178Y282000D01*
X406348Y280711D01*
X406845Y279510D01*
X407636Y278479D01*
X408668Y277688D01*
X409869Y277190D01*
X411158Y277020D01*
X412446Y277190D01*
X413647Y277688D01*
X414679Y278479D01*
X415470Y279510D01*
X415967Y280711D01*
X416137Y282000D01*
X415967Y283289D01*
X415470Y284490D01*
X414679Y285521D01*
X413647Y286313D01*
X412446Y286810D01*
X411158Y286980D01*
D02*
G37*
G36*
X371000D02*
X369711Y286810D01*
X368510Y286313D01*
X367479Y285521D01*
X366687Y284490D01*
X366190Y283289D01*
X366020Y282000D01*
X366190Y280711D01*
X366687Y279510D01*
X367479Y278479D01*
X368510Y277688D01*
X369711Y277190D01*
X371000Y277020D01*
X372289Y277190D01*
X373490Y277688D01*
X374521Y278479D01*
X375312Y279510D01*
X375810Y280711D01*
X375980Y282000D01*
X375810Y283289D01*
X375312Y284490D01*
X374521Y285521D01*
X373490Y286313D01*
X372289Y286810D01*
X371000Y286980D01*
D02*
G37*
G36*
X330343Y281500D02*
X325929D01*
X326033Y280711D01*
X326530Y279510D01*
X327321Y278479D01*
X328353Y277688D01*
X329554Y277190D01*
X330343Y277086D01*
Y281500D01*
D02*
G37*
G36*
X435642Y288689D02*
X434610Y288553D01*
X433649Y288155D01*
X432823Y287521D01*
X432189Y286695D01*
X431791Y285734D01*
X431655Y284702D01*
X431791Y283670D01*
X432189Y282709D01*
X432823Y281883D01*
X433649Y281249D01*
X434610Y280851D01*
X435642Y280715D01*
X436674Y280851D01*
X437635Y281249D01*
X438461Y281883D01*
X439095Y282709D01*
X439493Y283670D01*
X439629Y284702D01*
X439493Y285734D01*
X439095Y286695D01*
X438461Y287521D01*
X437635Y288155D01*
X436674Y288553D01*
X435642Y288689D01*
D02*
G37*
G36*
X335756Y281500D02*
X331343D01*
Y277086D01*
X332131Y277190D01*
X333332Y277688D01*
X334364Y278479D01*
X335155Y279510D01*
X335652Y280711D01*
X335756Y281500D01*
D02*
G37*
G36*
X445642Y338689D02*
X444610Y338553D01*
X443649Y338155D01*
X442823Y337521D01*
X442189Y336695D01*
X441791Y335734D01*
X441655Y334702D01*
X441791Y333670D01*
X442189Y332709D01*
X442823Y331883D01*
X443649Y331249D01*
X444610Y330851D01*
X445642Y330715D01*
X446674Y330851D01*
X447635Y331249D01*
X448461Y331883D01*
X449095Y332709D01*
X449493Y333670D01*
X449629Y334702D01*
X449493Y335734D01*
X449095Y336695D01*
X448461Y337521D01*
X447635Y338155D01*
X446674Y338553D01*
X445642Y338689D01*
D02*
G37*
G36*
X486453Y367453D02*
X478547D01*
Y359547D01*
X486453D01*
Y367453D01*
D02*
G37*
G36*
X322953Y365453D02*
X315047D01*
Y357547D01*
X322953D01*
Y365453D01*
D02*
G37*
G36*
X287000Y367987D02*
X285968Y367851D01*
X285007Y367453D01*
X284181Y366819D01*
X283547Y365993D01*
X283149Y365032D01*
X283013Y364000D01*
X283149Y362968D01*
X283547Y362007D01*
X284181Y361181D01*
X285007Y360547D01*
X285968Y360149D01*
X287000Y360013D01*
X288032Y360149D01*
X288993Y360547D01*
X289819Y361181D01*
X290453Y362007D01*
X290851Y362968D01*
X290987Y364000D01*
X290851Y365032D01*
X290453Y365993D01*
X289819Y366819D01*
X288993Y367453D01*
X288032Y367851D01*
X287000Y367987D01*
D02*
G37*
G36*
X159642Y368689D02*
X158610Y368553D01*
X157649Y368155D01*
X156823Y367521D01*
X156189Y366695D01*
X155791Y365734D01*
X155655Y364702D01*
X155791Y363670D01*
X156189Y362709D01*
X156823Y361883D01*
X157649Y361249D01*
X158610Y360851D01*
X159642Y360715D01*
X160674Y360851D01*
X161635Y361249D01*
X162461Y361883D01*
X163095Y362709D01*
X163493Y363670D01*
X163629Y364702D01*
X163493Y365734D01*
X163095Y366695D01*
X162461Y367521D01*
X161635Y368155D01*
X160674Y368553D01*
X159642Y368689D01*
D02*
G37*
G36*
X149642D02*
X148610Y368553D01*
X147649Y368155D01*
X146823Y367521D01*
X146189Y366695D01*
X145791Y365734D01*
X145655Y364702D01*
X145791Y363670D01*
X146189Y362709D01*
X146823Y361883D01*
X147649Y361249D01*
X148610Y360851D01*
X149642Y360715D01*
X150674Y360851D01*
X151635Y361249D01*
X152461Y361883D01*
X153095Y362709D01*
X153493Y363670D01*
X153629Y364702D01*
X153493Y365734D01*
X153095Y366695D01*
X152461Y367521D01*
X151635Y368155D01*
X150674Y368553D01*
X149642Y368689D01*
D02*
G37*
G36*
X482500Y357487D02*
X481468Y357351D01*
X480507Y356953D01*
X479681Y356319D01*
X479047Y355493D01*
X478649Y354532D01*
X478513Y353500D01*
X478649Y352468D01*
X479047Y351507D01*
X479681Y350681D01*
X480507Y350047D01*
X481468Y349649D01*
X482500Y349513D01*
X483532Y349649D01*
X484493Y350047D01*
X485319Y350681D01*
X485953Y351507D01*
X486351Y352468D01*
X486487Y353500D01*
X486351Y354532D01*
X485953Y355493D01*
X485319Y356319D01*
X484493Y356953D01*
X483532Y357351D01*
X482500Y357487D01*
D02*
G37*
G36*
X319000Y355487D02*
X317968Y355351D01*
X317007Y354953D01*
X316181Y354319D01*
X315547Y353493D01*
X315149Y352532D01*
X315013Y351500D01*
X315149Y350468D01*
X315547Y349507D01*
X316181Y348681D01*
X317007Y348047D01*
X317968Y347649D01*
X319000Y347513D01*
X320032Y347649D01*
X320993Y348047D01*
X321819Y348681D01*
X322453Y349507D01*
X322851Y350468D01*
X322987Y351500D01*
X322851Y352532D01*
X322453Y353493D01*
X321819Y354319D01*
X320993Y354953D01*
X320032Y355351D01*
X319000Y355487D01*
D02*
G37*
G36*
X287000Y357987D02*
X285968Y357851D01*
X285007Y357453D01*
X284181Y356819D01*
X283547Y355993D01*
X283149Y355032D01*
X283013Y354000D01*
X283149Y352968D01*
X283547Y352007D01*
X284181Y351181D01*
X285007Y350547D01*
X285968Y350149D01*
X287000Y350013D01*
X288032Y350149D01*
X288993Y350547D01*
X289819Y351181D01*
X290453Y352007D01*
X290851Y352968D01*
X290987Y354000D01*
X290851Y355032D01*
X290453Y355993D01*
X289819Y356819D01*
X288993Y357453D01*
X288032Y357851D01*
X287000Y357987D01*
D02*
G37*
G36*
X445642Y358689D02*
X444610Y358553D01*
X443649Y358155D01*
X442823Y357521D01*
X442189Y356695D01*
X441791Y355734D01*
X441655Y354702D01*
X441791Y353670D01*
X442189Y352709D01*
X442823Y351883D01*
X443649Y351249D01*
X444610Y350851D01*
X445642Y350715D01*
X446674Y350851D01*
X447635Y351249D01*
X448461Y351883D01*
X449095Y352709D01*
X449493Y353670D01*
X449629Y354702D01*
X449493Y355734D01*
X449095Y356695D01*
X448461Y357521D01*
X447635Y358155D01*
X446674Y358553D01*
X445642Y358689D01*
D02*
G37*
G36*
X435642D02*
X434610Y358553D01*
X433649Y358155D01*
X432823Y357521D01*
X432189Y356695D01*
X431791Y355734D01*
X431655Y354702D01*
X431791Y353670D01*
X432189Y352709D01*
X432823Y351883D01*
X433649Y351249D01*
X434610Y350851D01*
X435642Y350715D01*
X436674Y350851D01*
X437635Y351249D01*
X438461Y351883D01*
X439095Y352709D01*
X439493Y353670D01*
X439629Y354702D01*
X439493Y355734D01*
X439095Y356695D01*
X438461Y357521D01*
X437635Y358155D01*
X436674Y358553D01*
X435642Y358689D01*
D02*
G37*
G36*
X179642Y368689D02*
X178610Y368553D01*
X177649Y368155D01*
X176823Y367521D01*
X176189Y366695D01*
X175791Y365734D01*
X175655Y364702D01*
X175791Y363670D01*
X176189Y362709D01*
X176823Y361883D01*
X177649Y361249D01*
X178610Y360851D01*
X179642Y360715D01*
X180674Y360851D01*
X181635Y361249D01*
X182461Y361883D01*
X183095Y362709D01*
X183493Y363670D01*
X183629Y364702D01*
X183493Y365734D01*
X183095Y366695D01*
X182461Y367521D01*
X181635Y368155D01*
X180674Y368553D01*
X179642Y368689D01*
D02*
G37*
G36*
X355642D02*
X354610Y368553D01*
X353649Y368155D01*
X352823Y367521D01*
X352189Y366695D01*
X351791Y365734D01*
X351655Y364702D01*
X351791Y363670D01*
X352189Y362709D01*
X352823Y361883D01*
X353649Y361249D01*
X354610Y360851D01*
X355642Y360715D01*
X356674Y360851D01*
X357635Y361249D01*
X358461Y361883D01*
X359095Y362709D01*
X359493Y363670D01*
X359629Y364702D01*
X359493Y365734D01*
X359095Y366695D01*
X358461Y367521D01*
X357635Y368155D01*
X356674Y368553D01*
X355642Y368689D01*
D02*
G37*
G36*
X345642D02*
X344610Y368553D01*
X343649Y368155D01*
X342823Y367521D01*
X342189Y366695D01*
X341791Y365734D01*
X341655Y364702D01*
X341791Y363670D01*
X342189Y362709D01*
X342823Y361883D01*
X343649Y361249D01*
X344610Y360851D01*
X345642Y360715D01*
X346674Y360851D01*
X347635Y361249D01*
X348461Y361883D01*
X349095Y362709D01*
X349493Y363670D01*
X349629Y364702D01*
X349493Y365734D01*
X349095Y366695D01*
X348461Y367521D01*
X347635Y368155D01*
X346674Y368553D01*
X345642Y368689D01*
D02*
G37*
G36*
X385642D02*
X384610Y368553D01*
X383649Y368155D01*
X382823Y367521D01*
X382189Y366695D01*
X381791Y365734D01*
X381655Y364702D01*
X381791Y363670D01*
X382189Y362709D01*
X382823Y361883D01*
X383649Y361249D01*
X384610Y360851D01*
X385642Y360715D01*
X386674Y360851D01*
X387635Y361249D01*
X388461Y361883D01*
X389095Y362709D01*
X389493Y363670D01*
X389629Y364702D01*
X389493Y365734D01*
X389095Y366695D01*
X388461Y367521D01*
X387635Y368155D01*
X386674Y368553D01*
X385642Y368689D01*
D02*
G37*
G36*
X396344Y375529D02*
X378643D01*
X378058Y375413D01*
X377561Y375081D01*
X370108Y367628D01*
X369776Y367132D01*
X369760Y367050D01*
X369188Y366676D01*
X369095Y366695D01*
X368461Y367521D01*
X367635Y368155D01*
X366674Y368553D01*
X365642Y368689D01*
X364610Y368553D01*
X363649Y368155D01*
X362823Y367521D01*
X362189Y366695D01*
X361791Y365734D01*
X361655Y364702D01*
X361791Y363670D01*
X362189Y362709D01*
X362823Y361883D01*
X363649Y361249D01*
X364610Y360851D01*
X365642Y360715D01*
X366674Y360851D01*
X367198Y361068D01*
X367481Y360644D01*
X365149Y358312D01*
X364914Y358410D01*
X364000Y358530D01*
X363086Y358410D01*
X362235Y358057D01*
X361504Y357496D01*
X360943Y356765D01*
X360590Y355914D01*
X360470Y355000D01*
X360590Y354086D01*
X360943Y353235D01*
X361504Y352504D01*
X362235Y351943D01*
X363086Y351590D01*
X364000Y351470D01*
X364914Y351590D01*
X365765Y351943D01*
X366496Y352504D01*
X367057Y353235D01*
X367410Y354086D01*
X367530Y355000D01*
X367410Y355914D01*
X367312Y356149D01*
X372271Y361108D01*
X372522Y361484D01*
X372972Y361639D01*
X373122Y361653D01*
X373649Y361249D01*
X374610Y360851D01*
X375642Y360715D01*
X376674Y360851D01*
X377635Y361249D01*
X378461Y361883D01*
X379095Y362709D01*
X379493Y363670D01*
X379629Y364702D01*
X379493Y365734D01*
X379095Y366695D01*
X378461Y367521D01*
X377635Y368155D01*
X376674Y368553D01*
X376137Y368624D01*
X375957Y369152D01*
X379276Y372471D01*
X395710D01*
X401983Y366198D01*
X401791Y365734D01*
X401655Y364702D01*
X401791Y363670D01*
X402189Y362709D01*
X402823Y361883D01*
X403649Y361249D01*
X404610Y360851D01*
X405642Y360715D01*
X406674Y360851D01*
X407635Y361249D01*
X408461Y361883D01*
X409095Y362709D01*
X409493Y363670D01*
X409629Y364702D01*
X409493Y365734D01*
X409095Y366695D01*
X408461Y367521D01*
X407635Y368155D01*
X406674Y368553D01*
X405642Y368689D01*
X404610Y368553D01*
X404146Y368361D01*
X397425Y375081D01*
X396929Y375413D01*
X396344Y375529D01*
D02*
G37*
G36*
X395642Y368689D02*
X394610Y368553D01*
X393649Y368155D01*
X392823Y367521D01*
X392189Y366695D01*
X391791Y365734D01*
X391655Y364702D01*
X391791Y363670D01*
X392189Y362709D01*
X392823Y361883D01*
X393649Y361249D01*
X394610Y360851D01*
X395642Y360715D01*
X396674Y360851D01*
X397635Y361249D01*
X398461Y361883D01*
X399095Y362709D01*
X399493Y363670D01*
X399629Y364702D01*
X399493Y365734D01*
X399095Y366695D01*
X398461Y367521D01*
X397635Y368155D01*
X396674Y368553D01*
X395642Y368689D01*
D02*
G37*
G36*
X199642D02*
X198610Y368553D01*
X197649Y368155D01*
X196823Y367521D01*
X196189Y366695D01*
X195791Y365734D01*
X195655Y364702D01*
X195791Y363670D01*
X196189Y362709D01*
X196823Y361883D01*
X197649Y361249D01*
X198610Y360851D01*
X199642Y360715D01*
X200674Y360851D01*
X201635Y361249D01*
X202461Y361883D01*
X203095Y362709D01*
X203493Y363670D01*
X203629Y364702D01*
X203493Y365734D01*
X203095Y366695D01*
X202461Y367521D01*
X201635Y368155D01*
X200674Y368553D01*
X199642Y368689D01*
D02*
G37*
G36*
X189642D02*
X188610Y368553D01*
X187649Y368155D01*
X186823Y367521D01*
X186189Y366695D01*
X185791Y365734D01*
X185655Y364702D01*
X185791Y363670D01*
X186189Y362709D01*
X186823Y361883D01*
X187649Y361249D01*
X188610Y360851D01*
X189642Y360715D01*
X190674Y360851D01*
X191635Y361249D01*
X192461Y361883D01*
X193095Y362709D01*
X193493Y363670D01*
X193629Y364702D01*
X193493Y365734D01*
X193095Y366695D01*
X192461Y367521D01*
X191635Y368155D01*
X190674Y368553D01*
X189642Y368689D01*
D02*
G37*
G36*
X209642D02*
X208610Y368553D01*
X207649Y368155D01*
X206823Y367521D01*
X206189Y366695D01*
X205791Y365734D01*
X205655Y364702D01*
X205791Y363670D01*
X206189Y362709D01*
X206823Y361883D01*
X207649Y361249D01*
X208610Y360851D01*
X209642Y360715D01*
X210674Y360851D01*
X211635Y361249D01*
X212461Y361883D01*
X213095Y362709D01*
X213493Y363670D01*
X213629Y364702D01*
X213493Y365734D01*
X213095Y366695D01*
X212461Y367521D01*
X211635Y368155D01*
X210674Y368553D01*
X209642Y368689D01*
D02*
G37*
G36*
X229642D02*
X228610Y368553D01*
X227649Y368155D01*
X226823Y367521D01*
X226189Y366695D01*
X225791Y365734D01*
X225655Y364702D01*
X225791Y363670D01*
X226189Y362709D01*
X226823Y361883D01*
X227649Y361249D01*
X228610Y360851D01*
X229642Y360715D01*
X230674Y360851D01*
X231635Y361249D01*
X232461Y361883D01*
X233095Y362709D01*
X233493Y363670D01*
X233629Y364702D01*
X233493Y365734D01*
X233095Y366695D01*
X232461Y367521D01*
X231635Y368155D01*
X230674Y368553D01*
X229642Y368689D01*
D02*
G37*
G36*
X219642D02*
X218610Y368553D01*
X217649Y368155D01*
X216823Y367521D01*
X216189Y366695D01*
X215791Y365734D01*
X215655Y364702D01*
X215791Y363670D01*
X216189Y362709D01*
X216823Y361883D01*
X217649Y361249D01*
X218610Y360851D01*
X219642Y360715D01*
X220674Y360851D01*
X221635Y361249D01*
X222461Y361883D01*
X223095Y362709D01*
X223493Y363670D01*
X223629Y364702D01*
X223493Y365734D01*
X223095Y366695D01*
X222461Y367521D01*
X221635Y368155D01*
X220674Y368553D01*
X219642Y368689D01*
D02*
G37*
G36*
X509969Y357494D02*
X506032D01*
X505257Y357392D01*
X504534Y357093D01*
X503914Y356617D01*
X503439Y355997D01*
X503139Y355275D01*
X503037Y354500D01*
X503139Y353725D01*
X503439Y353003D01*
X503914Y352383D01*
X504087Y352250D01*
Y351750D01*
X503914Y351617D01*
X503439Y350997D01*
X503139Y350275D01*
X503037Y349500D01*
X503139Y348725D01*
X503439Y348003D01*
X503914Y347383D01*
X504087Y347250D01*
Y346750D01*
X503914Y346617D01*
X503439Y345997D01*
X503139Y345275D01*
X503103Y345000D01*
X512897D01*
X512861Y345275D01*
X512562Y345997D01*
X512086Y346617D01*
X511912Y346750D01*
Y347250D01*
X512086Y347383D01*
X512562Y348003D01*
X512861Y348725D01*
X512963Y349500D01*
X512861Y350275D01*
X512562Y350997D01*
X512086Y351617D01*
X511913Y351750D01*
Y352250D01*
X512086Y352383D01*
X512562Y353003D01*
X512861Y353725D01*
X512963Y354500D01*
X512861Y355275D01*
X512562Y355997D01*
X512086Y356617D01*
X511466Y357093D01*
X510744Y357392D01*
X509969Y357494D01*
D02*
G37*
G36*
X435642Y348689D02*
X434610Y348553D01*
X433649Y348155D01*
X432823Y347521D01*
X432189Y346695D01*
X431791Y345734D01*
X431655Y344702D01*
X431791Y343670D01*
X432189Y342709D01*
X432823Y341883D01*
X433649Y341249D01*
X434610Y340851D01*
X435642Y340715D01*
X436674Y340851D01*
X437635Y341249D01*
X438461Y341883D01*
X439095Y342709D01*
X439493Y343670D01*
X439629Y344702D01*
X439493Y345734D01*
X439095Y346695D01*
X438461Y347521D01*
X437635Y348155D01*
X436674Y348553D01*
X435642Y348689D01*
D02*
G37*
G36*
X212500Y347530D02*
X211586Y347410D01*
X210735Y347057D01*
X210004Y346496D01*
X209443Y345765D01*
X209090Y344914D01*
X208970Y344000D01*
X209090Y343086D01*
X209443Y342235D01*
X210004Y341504D01*
X210735Y340943D01*
X211586Y340590D01*
X212500Y340470D01*
X213414Y340590D01*
X214265Y340943D01*
X214996Y341504D01*
X215557Y342235D01*
X215910Y343086D01*
X216030Y344000D01*
X215910Y344914D01*
X215557Y345765D01*
X214996Y346496D01*
X214265Y347057D01*
X213414Y347410D01*
X212500Y347530D01*
D02*
G37*
G36*
X231500Y344000D02*
X228536D01*
X228590Y343586D01*
X228943Y342735D01*
X229504Y342004D01*
X230235Y341443D01*
X231086Y341090D01*
X231500Y341036D01*
Y344000D01*
D02*
G37*
G36*
X445642Y348689D02*
X444610Y348553D01*
X443649Y348155D01*
X442823Y347521D01*
X442189Y346695D01*
X441791Y345734D01*
X441655Y344702D01*
X441791Y343670D01*
X442189Y342709D01*
X442823Y341883D01*
X443649Y341249D01*
X444610Y340851D01*
X445642Y340715D01*
X446674Y340851D01*
X447635Y341249D01*
X448461Y341883D01*
X449095Y342709D01*
X449493Y343670D01*
X449629Y344702D01*
X449493Y345734D01*
X449095Y346695D01*
X448461Y347521D01*
X447635Y348155D01*
X446674Y348553D01*
X445642Y348689D01*
D02*
G37*
G36*
X290953Y343500D02*
X287500D01*
Y340047D01*
X290953D01*
Y343500D01*
D02*
G37*
G36*
X482000Y343000D02*
X478579D01*
X478649Y342468D01*
X479047Y341507D01*
X479681Y340681D01*
X480507Y340047D01*
X481468Y339649D01*
X482000Y339579D01*
Y343000D01*
D02*
G37*
G36*
X193453Y340953D02*
X185547D01*
Y333047D01*
X193453D01*
Y340953D01*
D02*
G37*
G36*
X286500Y343500D02*
X283047D01*
Y340047D01*
X286500D01*
Y343500D01*
D02*
G37*
G36*
X486421Y343000D02*
X483000D01*
Y339579D01*
X483532Y339649D01*
X484493Y340047D01*
X485319Y340681D01*
X485953Y341507D01*
X486351Y342468D01*
X486421Y343000D01*
D02*
G37*
G36*
X235464Y344000D02*
X232500D01*
Y341036D01*
X232914Y341090D01*
X233765Y341443D01*
X234496Y342004D01*
X235057Y342735D01*
X235410Y343586D01*
X235464Y344000D01*
D02*
G37*
G36*
X290953Y347953D02*
X287500D01*
Y344500D01*
X290953D01*
Y347953D01*
D02*
G37*
G36*
X286500D02*
X283047D01*
Y344500D01*
X286500D01*
Y347953D01*
D02*
G37*
G36*
X232500Y347964D02*
Y345000D01*
X235464D01*
X235410Y345414D01*
X235057Y346265D01*
X234496Y346996D01*
X233765Y347557D01*
X232914Y347910D01*
X232500Y347964D01*
D02*
G37*
G36*
X231500D02*
X231086Y347910D01*
X230235Y347557D01*
X229504Y346996D01*
X228943Y346265D01*
X228590Y345414D01*
X228536Y345000D01*
X231500D01*
Y347964D01*
D02*
G37*
G36*
X483000Y347421D02*
Y344000D01*
X486421D01*
X486351Y344532D01*
X485953Y345493D01*
X485319Y346319D01*
X484493Y346953D01*
X483532Y347351D01*
X483000Y347421D01*
D02*
G37*
G36*
X512897Y344000D02*
X508500D01*
Y341506D01*
X509969D01*
X510743Y341608D01*
X511466Y341907D01*
X512086Y342383D01*
X512562Y343003D01*
X512861Y343725D01*
X512897Y344000D01*
D02*
G37*
G36*
X482000Y347421D02*
X481468Y347351D01*
X480507Y346953D01*
X479681Y346319D01*
X479047Y345493D01*
X478649Y344532D01*
X478579Y344000D01*
X482000D01*
Y347421D01*
D02*
G37*
G36*
X507500Y344000D02*
X503103D01*
X503139Y343725D01*
X503439Y343003D01*
X503914Y342383D01*
X504534Y341907D01*
X505257Y341608D01*
X506032Y341506D01*
X507500D01*
Y344000D01*
D02*
G37*
%LPD*%
G36*
X446161Y188258D02*
X429681Y171779D01*
X429011D01*
X428765Y172279D01*
X429095Y172709D01*
X429493Y173670D01*
X429629Y174702D01*
X429493Y175734D01*
X429301Y176198D01*
X441823Y188720D01*
X445969D01*
X446161Y188258D01*
D02*
G37*
G36*
X263877Y314423D02*
X263547Y313993D01*
X263149Y313032D01*
X263013Y312000D01*
X263149Y310968D01*
X263547Y310007D01*
X264181Y309181D01*
X264378Y309029D01*
X264209Y308529D01*
X193145D01*
X192953Y308993D01*
X192319Y309819D01*
X191493Y310453D01*
X191474Y310546D01*
X191848Y311118D01*
X191930Y311134D01*
X192426Y311466D01*
X195883Y314923D01*
X263631D01*
X263877Y314423D01*
D02*
G37*
G36*
X263047Y318047D02*
X262574Y317982D01*
X195250D01*
X194665Y317866D01*
X194168Y317534D01*
X193950Y317315D01*
X193422Y317495D01*
X193351Y318032D01*
X192953Y318993D01*
X192319Y319819D01*
X191493Y320453D01*
X191474Y320546D01*
X191848Y321118D01*
X191930Y321134D01*
X192426Y321466D01*
X195883Y324923D01*
X263047D01*
X263047Y318047D01*
D02*
G37*
D23*
X333344Y307000D02*
X435642Y204702D01*
X325642Y174702D02*
X341344Y159000D01*
X471000D01*
X480000Y150000D01*
X352641Y164000D02*
X487500D01*
X337486Y179155D02*
X352641Y164000D01*
X323798Y179155D02*
X337486D01*
X319345Y174702D02*
X323798Y179155D01*
X315642Y174702D02*
X319345D01*
X305642D02*
X349047Y131297D01*
Y125656D02*
Y131297D01*
Y125656D02*
X353703Y121000D01*
X472973D01*
X476426Y124453D01*
X483574D01*
X488027Y120000D01*
X528500D01*
X301189Y149811D02*
X323500Y127500D01*
X301189Y181689D02*
X315000Y195500D01*
Y217500D01*
X301189Y149811D02*
Y181689D01*
X291189Y149811D02*
X313500Y127500D01*
X291189Y149811D02*
Y177857D01*
X292500Y179168D01*
Y206000D01*
X293000Y206500D01*
X425642Y174702D02*
X441189Y190249D01*
X447486D01*
X450095Y192858D01*
Y197095D01*
X484000Y231000D01*
X499000D01*
X456566Y196500D02*
X478500D01*
X430315Y170249D02*
X456566Y196500D01*
X420095Y170249D02*
X430315D01*
X415642Y174702D02*
X420095Y170249D01*
X189500Y307000D02*
X333344D01*
X345229Y314702D02*
X435642D01*
X342574Y312047D02*
X345229Y314702D01*
X273250Y312047D02*
X342574D01*
X268844Y316453D02*
X273250Y312047D01*
X195250Y316453D02*
X268844D01*
X191344Y312547D02*
X195250Y316453D01*
X188047Y312547D02*
X191344D01*
X167063Y291563D02*
X188047Y312547D01*
X167063Y240032D02*
Y291563D01*
X172500Y238500D02*
Y240032D01*
X272325Y324702D02*
X435642D01*
X270574Y326453D02*
X272325Y324702D01*
X195250Y326453D02*
X270574D01*
X191344Y322547D02*
X195250Y326453D01*
X180047Y322547D02*
X191344D01*
X163000Y305500D02*
X180047Y322547D01*
X163000Y219500D02*
Y305500D01*
Y219500D02*
X174000Y208500D01*
X193000D01*
X213500Y229000D01*
X217000D01*
X138000Y237500D02*
X183500Y192000D01*
X248344D01*
X265642Y174702D01*
X138000Y227500D02*
X164744Y200756D01*
X165885D01*
X191189Y175452D01*
Y172547D02*
Y175452D01*
Y172547D02*
X194236Y169500D01*
X270440D01*
X275642Y174702D01*
X155000Y439500D02*
Y467000D01*
X147000Y431500D02*
X155000Y439500D01*
X222000Y441500D02*
Y466500D01*
X212000Y431500D02*
X222000Y441500D01*
X288000Y441000D02*
Y467000D01*
X278500Y431500D02*
X288000Y441000D01*
X364000Y355000D02*
X371189Y362189D01*
Y366546D01*
X378643Y374000D01*
X396344D01*
X405642Y364702D01*
X306000Y226500D02*
X307531Y224969D01*
X311437D01*
Y221063D02*
Y224969D01*
Y221063D02*
X315000Y217500D01*
X304969Y200532D02*
X306500Y199000D01*
X303095Y200532D02*
X304969D01*
X299000Y204626D02*
X303095Y200532D01*
X299000Y204626D02*
Y232500D01*
X347000Y280500D01*
X174000Y145000D02*
Y153500D01*
Y145000D02*
X191000Y128000D01*
X167063Y240032D02*
X172500D01*
D24*
X323500Y127500D02*
D03*
X313500D02*
D03*
X333500D02*
D03*
X343500D02*
D03*
X353500D02*
D03*
X363500D02*
D03*
X236000Y247500D02*
D03*
X191500Y238500D02*
D03*
X445642Y364702D02*
D03*
X435642Y354702D02*
D03*
X445642D02*
D03*
X435642Y344702D02*
D03*
X445642D02*
D03*
X435642Y334702D02*
D03*
X445642D02*
D03*
X435642Y324702D02*
D03*
X445642D02*
D03*
X435642Y314702D02*
D03*
X445642D02*
D03*
X435642Y304702D02*
D03*
X445642D02*
D03*
X435642Y294702D02*
D03*
X445642D02*
D03*
X435642Y284702D02*
D03*
X445642D02*
D03*
X435642Y274702D02*
D03*
X445642D02*
D03*
X435642Y264702D02*
D03*
X445642D02*
D03*
X435642Y254702D02*
D03*
X445642D02*
D03*
X435642Y244702D02*
D03*
X445642D02*
D03*
X435642Y234702D02*
D03*
X445642D02*
D03*
X435642Y224702D02*
D03*
X445642D02*
D03*
X435642Y214702D02*
D03*
X445642D02*
D03*
X435642Y204702D02*
D03*
X445642D02*
D03*
X435642Y194702D02*
D03*
X445642D02*
D03*
X149642Y364702D02*
D03*
X169642D02*
D03*
X179642D02*
D03*
X189642D02*
D03*
X199642D02*
D03*
X209642D02*
D03*
X219642D02*
D03*
X229642D02*
D03*
X159642D02*
D03*
X405642D02*
D03*
X395642D02*
D03*
X385642D02*
D03*
X375642D02*
D03*
X365642D02*
D03*
X355642D02*
D03*
X345642D02*
D03*
X335642Y174702D02*
D03*
X325642D02*
D03*
X315642D02*
D03*
X305642D02*
D03*
X295642D02*
D03*
X285642D02*
D03*
X275642D02*
D03*
X425642D02*
D03*
X415642D02*
D03*
X405642D02*
D03*
X395642D02*
D03*
X385642D02*
D03*
X375642D02*
D03*
X365642D02*
D03*
X189500Y267000D02*
D03*
Y277000D02*
D03*
Y287000D02*
D03*
Y297000D02*
D03*
Y307000D02*
D03*
Y317000D02*
D03*
Y327000D02*
D03*
X138000Y197500D02*
D03*
Y187500D02*
D03*
Y207500D02*
D03*
Y217500D02*
D03*
Y227500D02*
D03*
Y237500D02*
D03*
X245642Y174702D02*
D03*
X235642D02*
D03*
X225642D02*
D03*
X215642D02*
D03*
X205642D02*
D03*
X195642D02*
D03*
X185642D02*
D03*
X499000Y211000D02*
D03*
Y221000D02*
D03*
Y231000D02*
D03*
X480000Y130000D02*
D03*
Y140000D02*
D03*
Y150000D02*
D03*
X528500Y140000D02*
D03*
Y130000D02*
D03*
Y120000D02*
D03*
X390500Y386500D02*
D03*
X400500D02*
D03*
X410500D02*
D03*
X394000Y152500D02*
D03*
Y142500D02*
D03*
X289000Y316500D02*
D03*
X299000D02*
D03*
X309000D02*
D03*
X319000D02*
D03*
X329000D02*
D03*
X287000Y364000D02*
D03*
Y354000D02*
D03*
X319000Y351500D02*
D03*
X301000Y294000D02*
D03*
X267000Y312000D02*
D03*
X328500Y388500D02*
D03*
X338500D02*
D03*
X348500D02*
D03*
X482500Y343500D02*
D03*
Y353500D02*
D03*
Y292000D02*
D03*
Y302000D02*
D03*
X523500Y395000D02*
D03*
X275000Y397500D02*
D03*
X137000Y431500D02*
D03*
X127000D02*
D03*
X117000D02*
D03*
Y488500D02*
D03*
Y478500D02*
D03*
X202000Y431500D02*
D03*
X192000D02*
D03*
X182000D02*
D03*
Y488500D02*
D03*
Y478500D02*
D03*
X268500Y431500D02*
D03*
X258500D02*
D03*
X248500D02*
D03*
Y488500D02*
D03*
Y478500D02*
D03*
D25*
X303500Y127500D02*
D03*
X139642Y364702D02*
D03*
X335642D02*
D03*
X265642Y174702D02*
D03*
X355642D02*
D03*
X175642D02*
D03*
X380500Y386500D02*
D03*
X339000Y316500D02*
D03*
X291000Y294000D02*
D03*
X318500Y388500D02*
D03*
X147000Y431500D02*
D03*
X212000D02*
D03*
X278500D02*
D03*
D26*
X164000Y196500D02*
D03*
X204000D02*
D03*
X254500D02*
D03*
X214500D02*
D03*
X473000Y249000D02*
D03*
Y209000D02*
D03*
X190500Y116000D02*
D03*
X250500D02*
D03*
X191000Y128000D02*
D03*
X251000D02*
D03*
X174000Y153500D02*
D03*
X244000D02*
D03*
X292500Y231500D02*
D03*
X252500D02*
D03*
X293000Y206500D02*
D03*
X253000D02*
D03*
X501500Y398000D02*
D03*
X461500D02*
D03*
Y385500D02*
D03*
X501500D02*
D03*
X212000D02*
D03*
X252000D02*
D03*
X212000Y399000D02*
D03*
X252000D02*
D03*
X487500Y276500D02*
D03*
X527500D02*
D03*
X484000Y263500D02*
D03*
Y223500D02*
D03*
D27*
X236000Y237500D02*
D03*
X191500Y228500D02*
D03*
X435642Y364702D02*
D03*
X189500Y337000D02*
D03*
X138000Y177500D02*
D03*
X499000Y201000D02*
D03*
X480000Y120000D02*
D03*
X528500Y150000D02*
D03*
X394000Y132500D02*
D03*
X287000Y344000D02*
D03*
X319000Y361500D02*
D03*
X267000Y322000D02*
D03*
X482500Y363500D02*
D03*
Y312000D02*
D03*
X523500Y385000D02*
D03*
X275000Y387500D02*
D03*
X117000Y468500D02*
D03*
X182000D02*
D03*
X248500D02*
D03*
D28*
X217000Y224000D02*
D03*
Y229000D02*
D03*
X172500Y238500D02*
D03*
D29*
X217000Y234000D02*
D03*
D30*
X411158Y282000D02*
D03*
X371000D02*
D03*
X330842D02*
D03*
Y202079D02*
D03*
X360764D02*
D03*
X380842D02*
D03*
D31*
X306000Y221500D02*
D03*
Y226500D02*
D03*
X306500Y199000D02*
D03*
Y204000D02*
D03*
X508000Y344500D02*
D03*
Y349500D02*
D03*
Y295500D02*
D03*
Y300500D02*
D03*
D32*
X306000Y231500D02*
D03*
X306500Y209000D02*
D03*
X508000Y354500D02*
D03*
Y305500D02*
D03*
D33*
X172500Y233500D02*
D03*
D34*
Y243500D02*
D03*
D35*
X434500Y151000D02*
D03*
X424500D02*
D03*
X460000Y151500D02*
D03*
X450000D02*
D03*
X433000Y125500D02*
D03*
X423000D02*
D03*
D36*
X212500Y344000D02*
D03*
X158000Y161500D02*
D03*
X232000Y344500D02*
D03*
X487500Y164000D02*
D03*
X478500Y196500D02*
D03*
X155000Y467000D02*
D03*
X222000Y466500D02*
D03*
X288000Y467000D02*
D03*
Y142000D02*
D03*
X364000Y355000D02*
D03*
X347000Y280500D02*
D03*
D37*
X133260Y123500D02*
D03*
X140760Y138500D02*
D03*
Y131000D02*
D03*
Y123500D02*
D03*
X133260Y138500D02*
D03*
Y131000D02*
D03*
X125760Y138500D02*
D03*
Y131000D02*
D03*
Y123500D02*
D03*
X118260Y138500D02*
D03*
Y131000D02*
D03*
Y123500D02*
D03*
M02*
