G04 Layer_Color=16711935*
%FSLAX25Y25*%
%MOIN*%
G70*
G01*
G75*
%ADD58C,0.06706*%
%ADD59R,0.06706X0.06706*%
%ADD60C,0.06312*%
%ADD61R,0.06706X0.06706*%
%ADD62O,0.08674X0.04800*%
%ADD63O,0.08674X0.04800*%
%ADD64C,0.08674*%
%ADD65O,0.08674X0.04737*%
%ADD66O,0.08674X0.04737*%
%ADD67O,0.08674X0.04730*%
%ADD68O,0.08674X0.04730*%
%ADD69C,0.06800*%
%ADD70C,0.05800*%
%ADD71C,0.03402*%
D58*
X323500Y127500D02*
D03*
X313500D02*
D03*
X333500D02*
D03*
X343500D02*
D03*
X353500D02*
D03*
X363500D02*
D03*
X236000Y247500D02*
D03*
X191500Y238500D02*
D03*
X445642Y364702D02*
D03*
X435642Y354702D02*
D03*
X445642D02*
D03*
X435642Y344702D02*
D03*
X445642D02*
D03*
X435642Y334702D02*
D03*
X445642D02*
D03*
X435642Y324702D02*
D03*
X445642D02*
D03*
X435642Y314702D02*
D03*
X445642D02*
D03*
X435642Y304702D02*
D03*
X445642D02*
D03*
X435642Y294702D02*
D03*
X445642D02*
D03*
X435642Y284702D02*
D03*
X445642D02*
D03*
X435642Y274702D02*
D03*
X445642D02*
D03*
X435642Y264702D02*
D03*
X445642D02*
D03*
X435642Y254702D02*
D03*
X445642D02*
D03*
X435642Y244702D02*
D03*
X445642D02*
D03*
X435642Y234702D02*
D03*
X445642D02*
D03*
X435642Y224702D02*
D03*
X445642D02*
D03*
X435642Y214702D02*
D03*
X445642D02*
D03*
X435642Y204702D02*
D03*
X445642D02*
D03*
X435642Y194702D02*
D03*
X445642D02*
D03*
X149642Y364702D02*
D03*
X169642D02*
D03*
X179642D02*
D03*
X189642D02*
D03*
X199642D02*
D03*
X209642D02*
D03*
X219642D02*
D03*
X229642D02*
D03*
X159642D02*
D03*
X405642D02*
D03*
X395642D02*
D03*
X385642D02*
D03*
X375642D02*
D03*
X365642D02*
D03*
X355642D02*
D03*
X345642D02*
D03*
X335642Y174702D02*
D03*
X325642D02*
D03*
X315642D02*
D03*
X305642D02*
D03*
X295642D02*
D03*
X285642D02*
D03*
X275642D02*
D03*
X425642D02*
D03*
X415642D02*
D03*
X405642D02*
D03*
X395642D02*
D03*
X385642D02*
D03*
X375642D02*
D03*
X365642D02*
D03*
X189500Y267000D02*
D03*
Y277000D02*
D03*
Y287000D02*
D03*
Y297000D02*
D03*
Y307000D02*
D03*
Y317000D02*
D03*
Y327000D02*
D03*
X138000Y197500D02*
D03*
Y187500D02*
D03*
Y207500D02*
D03*
Y217500D02*
D03*
Y227500D02*
D03*
Y237500D02*
D03*
X245642Y174702D02*
D03*
X235642D02*
D03*
X225642D02*
D03*
X215642D02*
D03*
X205642D02*
D03*
X195642D02*
D03*
X185642D02*
D03*
X499000Y211000D02*
D03*
Y221000D02*
D03*
Y231000D02*
D03*
X480000Y130000D02*
D03*
Y140000D02*
D03*
Y150000D02*
D03*
X528500Y140000D02*
D03*
Y130000D02*
D03*
Y120000D02*
D03*
X390500Y386500D02*
D03*
X400500D02*
D03*
X410500D02*
D03*
X394000Y152500D02*
D03*
Y142500D02*
D03*
X289000Y316500D02*
D03*
X299000D02*
D03*
X309000D02*
D03*
X319000D02*
D03*
X329000D02*
D03*
X287000Y364000D02*
D03*
Y354000D02*
D03*
X319000Y351500D02*
D03*
X301000Y294000D02*
D03*
X267000Y312000D02*
D03*
X328500Y388500D02*
D03*
X338500D02*
D03*
X348500D02*
D03*
X482500Y343500D02*
D03*
Y353500D02*
D03*
Y292000D02*
D03*
Y302000D02*
D03*
X523500Y395000D02*
D03*
X275000Y397500D02*
D03*
X137000Y431500D02*
D03*
X127000D02*
D03*
X117000D02*
D03*
Y488500D02*
D03*
Y478500D02*
D03*
X202000Y431500D02*
D03*
X192000D02*
D03*
X182000D02*
D03*
Y488500D02*
D03*
Y478500D02*
D03*
X268500Y431500D02*
D03*
X258500D02*
D03*
X248500D02*
D03*
Y488500D02*
D03*
Y478500D02*
D03*
D59*
X303500Y127500D02*
D03*
X139642Y364702D02*
D03*
X335642D02*
D03*
X265642Y174702D02*
D03*
X355642D02*
D03*
X175642D02*
D03*
X380500Y386500D02*
D03*
X339000Y316500D02*
D03*
X291000Y294000D02*
D03*
X318500Y388500D02*
D03*
X147000Y431500D02*
D03*
X212000D02*
D03*
X278500D02*
D03*
D60*
X164000Y196500D02*
D03*
X204000D02*
D03*
X254500D02*
D03*
X214500D02*
D03*
X473000Y249000D02*
D03*
Y209000D02*
D03*
X190500Y116000D02*
D03*
X250500D02*
D03*
X191000Y128000D02*
D03*
X251000D02*
D03*
X174000Y153500D02*
D03*
X244000D02*
D03*
X292500Y231500D02*
D03*
X252500D02*
D03*
X293000Y206500D02*
D03*
X253000D02*
D03*
X501500Y398000D02*
D03*
X461500D02*
D03*
Y385500D02*
D03*
X501500D02*
D03*
X212000D02*
D03*
X252000D02*
D03*
X212000Y399000D02*
D03*
X252000D02*
D03*
X487500Y276500D02*
D03*
X527500D02*
D03*
X484000Y263500D02*
D03*
Y223500D02*
D03*
D61*
X236000Y237500D02*
D03*
X191500Y228500D02*
D03*
X435642Y364702D02*
D03*
X189500Y337000D02*
D03*
X138000Y177500D02*
D03*
X499000Y201000D02*
D03*
X480000Y120000D02*
D03*
X528500Y150000D02*
D03*
X394000Y132500D02*
D03*
X287000Y344000D02*
D03*
X319000Y361500D02*
D03*
X267000Y322000D02*
D03*
X482500Y363500D02*
D03*
Y312000D02*
D03*
X523500Y385000D02*
D03*
X275000Y387500D02*
D03*
X117000Y468500D02*
D03*
X182000D02*
D03*
X248500D02*
D03*
D62*
X217000Y224000D02*
D03*
Y229000D02*
D03*
X172500Y238500D02*
D03*
D63*
X217000Y234000D02*
D03*
D64*
X411158Y282000D02*
D03*
X371000D02*
D03*
X330842D02*
D03*
Y202079D02*
D03*
X360764D02*
D03*
X380842D02*
D03*
D65*
X306000Y221500D02*
D03*
Y226500D02*
D03*
X306500Y199000D02*
D03*
Y204000D02*
D03*
X508000Y344500D02*
D03*
Y349500D02*
D03*
Y295500D02*
D03*
Y300500D02*
D03*
D66*
X306000Y231500D02*
D03*
X306500Y209000D02*
D03*
X508000Y354500D02*
D03*
Y305500D02*
D03*
D67*
X172500Y233500D02*
D03*
D68*
Y243500D02*
D03*
D69*
X434500Y151000D02*
D03*
X424500D02*
D03*
X460000Y151500D02*
D03*
X450000D02*
D03*
X433000Y125500D02*
D03*
X423000D02*
D03*
D70*
X212500Y344000D02*
D03*
X158000Y161500D02*
D03*
X232000Y344500D02*
D03*
X487500Y164000D02*
D03*
X478500Y196500D02*
D03*
X155000Y467000D02*
D03*
X222000Y466500D02*
D03*
X288000Y467000D02*
D03*
Y142000D02*
D03*
X364000Y355000D02*
D03*
X347000Y280500D02*
D03*
D71*
X133260Y123500D02*
D03*
X140760Y138500D02*
D03*
Y131000D02*
D03*
Y123500D02*
D03*
X133260Y138500D02*
D03*
Y131000D02*
D03*
X125760Y138500D02*
D03*
Y131000D02*
D03*
Y123500D02*
D03*
X118260Y138500D02*
D03*
Y131000D02*
D03*
Y123500D02*
D03*
M02*
