G04 Layer_Color=8388736*
%FSLAX25Y25*%
%MOIN*%
G70*
G01*
G75*
%ADD45R,0.05131X0.07493*%
%ADD46R,0.05524X0.05524*%
%ADD47R,0.05524X0.03950*%
%ADD48R,0.04343X0.03556*%
%ADD49R,0.07493X0.05131*%
%ADD50R,0.03556X0.04343*%
%ADD51R,0.04343X0.03950*%
%ADD52R,0.03162X0.13398*%
%ADD53R,0.11036X0.05524*%
%ADD54R,0.03950X0.04343*%
%ADD55R,0.05550X0.02400*%
%ADD56O,0.12835X0.04291*%
%ADD57R,0.34409X0.21850*%
%ADD58R,0.06706X0.06706*%
%ADD59C,0.06706*%
%ADD60R,0.06706X0.06706*%
%ADD61C,0.06800*%
%ADD62C,0.06312*%
%ADD63O,0.08674X0.04737*%
%ADD64O,0.08674X0.04737*%
%ADD65O,0.08674X0.04730*%
%ADD66O,0.08674X0.04800*%
%ADD67O,0.08674X0.04730*%
%ADD68C,0.08674*%
%ADD69O,0.08674X0.04800*%
%ADD70C,0.05800*%
%ADD71C,0.03402*%
D45*
X275815Y487000D02*
D03*
X265185D02*
D03*
Y477000D02*
D03*
X275815D02*
D03*
X265185Y467000D02*
D03*
X275815D02*
D03*
X209315Y487000D02*
D03*
X198685D02*
D03*
Y477000D02*
D03*
X209315D02*
D03*
X198685Y467500D02*
D03*
X209315D02*
D03*
X143315Y485500D02*
D03*
X132685D02*
D03*
Y476500D02*
D03*
X143315D02*
D03*
X132685Y467500D02*
D03*
X143315D02*
D03*
X374630Y307500D02*
D03*
X364000D02*
D03*
X494185Y156000D02*
D03*
X504815D02*
D03*
X504130Y114500D02*
D03*
X493500D02*
D03*
X473870Y172000D02*
D03*
X484500D02*
D03*
X360500Y339500D02*
D03*
X371130D02*
D03*
D46*
X280500Y457500D02*
D03*
X213784D02*
D03*
X148784D02*
D03*
D47*
X280500Y447500D02*
D03*
Y442500D02*
D03*
Y452500D02*
D03*
X248217Y457500D02*
D03*
Y452500D02*
D03*
Y447500D02*
D03*
Y442500D02*
D03*
X213784Y447500D02*
D03*
Y442500D02*
D03*
Y452500D02*
D03*
X181500Y457500D02*
D03*
Y452500D02*
D03*
Y447500D02*
D03*
Y442500D02*
D03*
X148784Y447500D02*
D03*
Y442500D02*
D03*
Y452500D02*
D03*
X116500Y457500D02*
D03*
Y452500D02*
D03*
Y447500D02*
D03*
Y442500D02*
D03*
D48*
X521000Y297047D02*
D03*
Y302953D02*
D03*
X520500Y343547D02*
D03*
Y349453D02*
D03*
X252500Y332453D02*
D03*
Y326547D02*
D03*
X304500Y342000D02*
D03*
Y347905D02*
D03*
X499500Y143000D02*
D03*
Y148906D02*
D03*
Y132095D02*
D03*
Y138000D02*
D03*
X508000Y122000D02*
D03*
Y127905D02*
D03*
X514500Y111547D02*
D03*
Y117453D02*
D03*
X304000Y385953D02*
D03*
Y380047D02*
D03*
X304000Y396595D02*
D03*
Y402500D02*
D03*
X364000Y398000D02*
D03*
Y392094D02*
D03*
X484500Y182547D02*
D03*
Y188453D02*
D03*
X474500Y188453D02*
D03*
Y182547D02*
D03*
X227500Y218595D02*
D03*
Y224500D02*
D03*
D49*
X369500Y319185D02*
D03*
Y329815D02*
D03*
X351500Y334185D02*
D03*
Y344815D02*
D03*
X152000Y240630D02*
D03*
Y230000D02*
D03*
Y192500D02*
D03*
Y181870D02*
D03*
X152500Y214500D02*
D03*
Y203870D02*
D03*
X276500Y148185D02*
D03*
Y158815D02*
D03*
X177000Y124000D02*
D03*
Y113370D02*
D03*
X419500Y352185D02*
D03*
Y362815D02*
D03*
X378000Y154500D02*
D03*
Y143870D02*
D03*
D50*
X310500Y280000D02*
D03*
X304594D02*
D03*
X413500Y401000D02*
D03*
X419406D02*
D03*
X286547Y194000D02*
D03*
X292453D02*
D03*
X287094Y218500D02*
D03*
X293000D02*
D03*
X169547Y224500D02*
D03*
X175453D02*
D03*
D51*
X267000Y153744D02*
D03*
Y159256D02*
D03*
D52*
X259665Y128000D02*
D03*
X282500D02*
D03*
D53*
X255500Y141339D02*
D03*
Y158661D02*
D03*
D54*
X173488Y137000D02*
D03*
X179000D02*
D03*
D55*
X416000Y316500D02*
D03*
Y321500D02*
D03*
Y326500D02*
D03*
Y341500D02*
D03*
Y336500D02*
D03*
Y331500D02*
D03*
Y311500D02*
D03*
Y306500D02*
D03*
X383000D02*
D03*
Y311500D02*
D03*
Y331500D02*
D03*
Y336500D02*
D03*
Y341500D02*
D03*
Y326500D02*
D03*
Y321500D02*
D03*
Y316500D02*
D03*
D56*
X158260Y116000D02*
D03*
Y121000D02*
D03*
Y126000D02*
D03*
Y131000D02*
D03*
Y136000D02*
D03*
Y141000D02*
D03*
Y146000D02*
D03*
D57*
X129500Y131000D02*
D03*
D58*
X248500Y468500D02*
D03*
X182000D02*
D03*
X117000D02*
D03*
X275000Y387500D02*
D03*
X523500Y385000D02*
D03*
X482500Y312000D02*
D03*
Y363500D02*
D03*
X267000Y322000D02*
D03*
X319000Y361500D02*
D03*
X287000Y344000D02*
D03*
X394000Y132500D02*
D03*
X528500Y150000D02*
D03*
X480000Y120000D02*
D03*
X499000Y201000D02*
D03*
X138000Y177500D02*
D03*
X189500Y337000D02*
D03*
X435642Y364702D02*
D03*
X191500Y228500D02*
D03*
X236000Y237500D02*
D03*
D59*
X248500Y478500D02*
D03*
Y488500D02*
D03*
Y431500D02*
D03*
X258500D02*
D03*
X268500D02*
D03*
X182000Y478500D02*
D03*
Y488500D02*
D03*
Y431500D02*
D03*
X192000D02*
D03*
X202000D02*
D03*
X117000Y478500D02*
D03*
Y488500D02*
D03*
Y431500D02*
D03*
X127000D02*
D03*
X137000D02*
D03*
X275000Y397500D02*
D03*
X523500Y395000D02*
D03*
X482500Y302000D02*
D03*
Y292000D02*
D03*
Y353500D02*
D03*
Y343500D02*
D03*
X348500Y388500D02*
D03*
X338500D02*
D03*
X328500D02*
D03*
X267000Y312000D02*
D03*
X301000Y294000D02*
D03*
X319000Y351500D02*
D03*
X287000Y354000D02*
D03*
Y364000D02*
D03*
X329000Y316500D02*
D03*
X319000D02*
D03*
X309000D02*
D03*
X299000D02*
D03*
X289000D02*
D03*
X394000Y142500D02*
D03*
Y152500D02*
D03*
X410500Y386500D02*
D03*
X400500D02*
D03*
X390500D02*
D03*
X528500Y120000D02*
D03*
Y130000D02*
D03*
Y140000D02*
D03*
X480000Y150000D02*
D03*
Y140000D02*
D03*
Y130000D02*
D03*
X499000Y231000D02*
D03*
Y221000D02*
D03*
Y211000D02*
D03*
X185642Y174702D02*
D03*
X195642D02*
D03*
X205642D02*
D03*
X215642D02*
D03*
X225642D02*
D03*
X235642D02*
D03*
X245642D02*
D03*
X138000Y237500D02*
D03*
Y227500D02*
D03*
Y217500D02*
D03*
Y207500D02*
D03*
Y187500D02*
D03*
Y197500D02*
D03*
X189500Y327000D02*
D03*
Y317000D02*
D03*
Y307000D02*
D03*
Y297000D02*
D03*
Y287000D02*
D03*
Y277000D02*
D03*
Y267000D02*
D03*
X365642Y174702D02*
D03*
X375642D02*
D03*
X385642D02*
D03*
X395642D02*
D03*
X405642D02*
D03*
X415642D02*
D03*
X425642D02*
D03*
X275642D02*
D03*
X285642D02*
D03*
X295642D02*
D03*
X305642D02*
D03*
X315642D02*
D03*
X325642D02*
D03*
X335642D02*
D03*
X345642Y364702D02*
D03*
X355642D02*
D03*
X365642D02*
D03*
X375642D02*
D03*
X385642D02*
D03*
X395642D02*
D03*
X405642D02*
D03*
X159642D02*
D03*
X229642D02*
D03*
X219642D02*
D03*
X209642D02*
D03*
X199642D02*
D03*
X189642D02*
D03*
X179642D02*
D03*
X169642D02*
D03*
X149642D02*
D03*
X445642Y194702D02*
D03*
X435642D02*
D03*
X445642Y204702D02*
D03*
X435642D02*
D03*
X445642Y214702D02*
D03*
X435642D02*
D03*
X445642Y224702D02*
D03*
X435642D02*
D03*
X445642Y234702D02*
D03*
X435642D02*
D03*
X445642Y244702D02*
D03*
X435642D02*
D03*
X445642Y254702D02*
D03*
X435642D02*
D03*
X445642Y264702D02*
D03*
X435642D02*
D03*
X445642Y274702D02*
D03*
X435642D02*
D03*
X445642Y284702D02*
D03*
X435642D02*
D03*
X445642Y294702D02*
D03*
X435642D02*
D03*
X445642Y304702D02*
D03*
X435642D02*
D03*
X445642Y314702D02*
D03*
X435642D02*
D03*
X445642Y324702D02*
D03*
X435642D02*
D03*
X445642Y334702D02*
D03*
X435642D02*
D03*
X445642Y344702D02*
D03*
X435642D02*
D03*
X445642Y354702D02*
D03*
X435642D02*
D03*
X445642Y364702D02*
D03*
X191500Y238500D02*
D03*
X236000Y247500D02*
D03*
X363500Y127500D02*
D03*
X353500D02*
D03*
X343500D02*
D03*
X333500D02*
D03*
X313500D02*
D03*
X323500D02*
D03*
D60*
X278500Y431500D02*
D03*
X212000D02*
D03*
X147000D02*
D03*
X318500Y388500D02*
D03*
X291000Y294000D02*
D03*
X339000Y316500D02*
D03*
X380500Y386500D02*
D03*
X175642Y174702D02*
D03*
X355642D02*
D03*
X265642D02*
D03*
X335642Y364702D02*
D03*
X139642D02*
D03*
X303500Y127500D02*
D03*
D61*
X423000Y125500D02*
D03*
X433000D02*
D03*
X450000Y151500D02*
D03*
X460000D02*
D03*
X424500Y151000D02*
D03*
X434500D02*
D03*
D62*
X484000Y223500D02*
D03*
Y263500D02*
D03*
X527500Y276500D02*
D03*
X487500D02*
D03*
X252000Y399000D02*
D03*
X212000D02*
D03*
X252000Y385500D02*
D03*
X212000D02*
D03*
X501500D02*
D03*
X461500D02*
D03*
Y398000D02*
D03*
X501500D02*
D03*
X253000Y206500D02*
D03*
X293000D02*
D03*
X252500Y231500D02*
D03*
X292500D02*
D03*
X244000Y153500D02*
D03*
X174000D02*
D03*
X251000Y128000D02*
D03*
X191000D02*
D03*
X250500Y116000D02*
D03*
X190500D02*
D03*
X473000Y209000D02*
D03*
Y249000D02*
D03*
X214500Y196500D02*
D03*
X254500D02*
D03*
X204000D02*
D03*
X164000D02*
D03*
D63*
X508000Y305500D02*
D03*
Y354500D02*
D03*
X306500Y209000D02*
D03*
X306000Y231500D02*
D03*
D64*
X508000Y300500D02*
D03*
Y295500D02*
D03*
Y349500D02*
D03*
Y344500D02*
D03*
X306500Y204000D02*
D03*
Y199000D02*
D03*
X306000Y226500D02*
D03*
Y221500D02*
D03*
D65*
X172500Y243500D02*
D03*
D66*
Y238500D02*
D03*
X217000Y229000D02*
D03*
Y224000D02*
D03*
D67*
X172500Y233500D02*
D03*
D68*
X380842Y202079D02*
D03*
X360764D02*
D03*
X330842D02*
D03*
Y282000D02*
D03*
X371000D02*
D03*
X411158D02*
D03*
D69*
X217000Y234000D02*
D03*
D70*
X347000Y280500D02*
D03*
X364000Y355000D02*
D03*
X288000Y142000D02*
D03*
Y467000D02*
D03*
X222000Y466500D02*
D03*
X155000Y467000D02*
D03*
X478500Y196500D02*
D03*
X487500Y164000D02*
D03*
X232000Y344500D02*
D03*
X158000Y161500D02*
D03*
X212500Y344000D02*
D03*
D71*
X118260Y123500D02*
D03*
Y131000D02*
D03*
Y138500D02*
D03*
X125760Y123500D02*
D03*
Y131000D02*
D03*
Y138500D02*
D03*
X133260Y131000D02*
D03*
Y138500D02*
D03*
X140760Y123500D02*
D03*
Y131000D02*
D03*
Y138500D02*
D03*
X133260Y123500D02*
D03*
M02*
