G04 Layer_Physical_Order=1*
G04 Layer_Color=255*
%FSLAX25Y25*%
%MOIN*%
G70*
G01*
G75*
%ADD10R,0.02756X0.03543*%
%ADD11R,0.03543X0.02756*%
%ADD12R,0.06693X0.04331*%
%ADD13R,0.33622X0.21063*%
%ADD14O,0.12047X0.03504*%
%ADD15R,0.04331X0.06693*%
%ADD16R,0.04750X0.01600*%
%ADD17R,0.03150X0.03543*%
%ADD18R,0.10236X0.04724*%
%ADD19R,0.02362X0.12598*%
%ADD20R,0.03543X0.03150*%
%ADD21R,0.04724X0.03150*%
%ADD22R,0.04724X0.04724*%
%ADD23C,0.01000*%
%ADD24C,0.05905*%
%ADD25R,0.05905X0.05905*%
%ADD26C,0.05512*%
%ADD27R,0.05905X0.05905*%
%ADD28O,0.07874X0.04000*%
%ADD29O,0.07874X0.04000*%
%ADD30C,0.07874*%
%ADD31O,0.07874X0.03937*%
%ADD32O,0.07874X0.03937*%
%ADD33O,0.07874X0.03930*%
%ADD34O,0.07874X0.03930*%
%ADD35C,0.06000*%
%ADD36C,0.05000*%
%ADD37C,0.02598*%
G36*
X537500Y410500D02*
Y105000D01*
X107000D01*
Y409500D01*
X107500Y410000D01*
X107213Y410575D01*
X107475Y411000D01*
X537000D01*
X537500Y410500D01*
D02*
G37*
%LPC*%
G36*
X308469Y211994D02*
X307000D01*
Y209500D01*
X311397D01*
X311361Y209775D01*
X311062Y210497D01*
X310586Y211117D01*
X309966Y211593D01*
X309243Y211892D01*
X308469Y211994D01*
D02*
G37*
G36*
X435642Y228689D02*
X434610Y228553D01*
X433649Y228155D01*
X432823Y227521D01*
X432189Y226695D01*
X431791Y225734D01*
X431655Y224702D01*
X431791Y223670D01*
X432189Y222709D01*
X432823Y221883D01*
X433649Y221249D01*
X434610Y220851D01*
X435642Y220715D01*
X436674Y220851D01*
X437635Y221249D01*
X438461Y221883D01*
X439095Y222709D01*
X439493Y223670D01*
X439629Y224702D01*
X439493Y225734D01*
X439095Y226695D01*
X438461Y227521D01*
X437635Y228155D01*
X436674Y228553D01*
X435642Y228689D01*
D02*
G37*
G36*
X306000Y211994D02*
X304532D01*
X303757Y211892D01*
X303034Y211593D01*
X302414Y211117D01*
X301939Y210497D01*
X301639Y209775D01*
X301603Y209500D01*
X306000D01*
Y211994D01*
D02*
G37*
G36*
X253000Y210288D02*
X252020Y210159D01*
X251106Y209781D01*
X250321Y209179D01*
X249719Y208394D01*
X249341Y207481D01*
X249212Y206500D01*
X249341Y205520D01*
X249719Y204606D01*
X250321Y203821D01*
X251106Y203219D01*
X252020Y202841D01*
X253000Y202712D01*
X253980Y202841D01*
X254894Y203219D01*
X255679Y203821D01*
X256281Y204606D01*
X256659Y205520D01*
X256788Y206500D01*
X256659Y207481D01*
X256281Y208394D01*
X255679Y209179D01*
X254894Y209781D01*
X253980Y210159D01*
X253000Y210288D01*
D02*
G37*
G36*
X499000Y214987D02*
X497968Y214851D01*
X497007Y214453D01*
X496181Y213819D01*
X495547Y212993D01*
X495149Y212032D01*
X495013Y211000D01*
X495149Y209968D01*
X495547Y209007D01*
X496181Y208181D01*
X497007Y207547D01*
X497968Y207149D01*
X499000Y207013D01*
X500032Y207149D01*
X500993Y207547D01*
X501819Y208181D01*
X502453Y209007D01*
X502851Y209968D01*
X502987Y211000D01*
X502851Y212032D01*
X502453Y212993D01*
X501819Y213819D01*
X500993Y214453D01*
X500032Y214851D01*
X499000Y214987D01*
D02*
G37*
G36*
X307968Y234494D02*
X306500D01*
Y232000D01*
X310897D01*
X310861Y232275D01*
X310561Y232997D01*
X310086Y233617D01*
X309466Y234093D01*
X308743Y234392D01*
X307968Y234494D01*
D02*
G37*
G36*
X174472Y246491D02*
X170528D01*
X169754Y246389D01*
X169033Y246090D01*
X168413Y245615D01*
X167938Y244995D01*
X167639Y244274D01*
X167537Y243500D01*
X167639Y242726D01*
X167938Y242005D01*
X168413Y241385D01*
X168579Y241259D01*
X168578Y240759D01*
X168423Y240640D01*
X167943Y240013D01*
X167640Y239283D01*
X167537Y238500D01*
X167640Y237717D01*
X167943Y236987D01*
X168423Y236360D01*
X168579Y236241D01*
Y235741D01*
X168413Y235615D01*
X167938Y234995D01*
X167639Y234274D01*
X167537Y233500D01*
X167639Y232726D01*
X167938Y232005D01*
X167959Y231978D01*
X167738Y231529D01*
X156346D01*
Y233165D01*
X147653D01*
Y226835D01*
X156346D01*
Y228471D01*
X168016D01*
X168018Y228469D01*
Y227272D01*
X167169D01*
Y221728D01*
X167488D01*
X167695Y221228D01*
X153503Y207035D01*
X148153D01*
Y200705D01*
X156846D01*
Y206054D01*
X170629Y219836D01*
X170960Y220332D01*
X171077Y220917D01*
Y221728D01*
X171925D01*
Y227272D01*
X171077D01*
Y229102D01*
X170960Y229688D01*
X170916Y229753D01*
X171672Y230509D01*
X174472D01*
X175246Y230611D01*
X175469Y230704D01*
X176111Y230435D01*
X176130Y230388D01*
X174371Y228629D01*
X174040Y228133D01*
X173923Y227547D01*
Y227272D01*
X173075D01*
Y221728D01*
X177831D01*
Y227272D01*
X177831D01*
X177687Y227619D01*
X179018Y228950D01*
X179350Y229446D01*
X179466Y230031D01*
Y234937D01*
X179350Y235522D01*
X179018Y236018D01*
X177348Y237688D01*
X177360Y237717D01*
X177463Y238500D01*
X177360Y239283D01*
X177058Y240013D01*
X176577Y240640D01*
X176422Y240759D01*
X176421Y241259D01*
X176587Y241385D01*
X177036Y241971D01*
X185866D01*
X187841Y239996D01*
X187649Y239532D01*
X187513Y238500D01*
X187649Y237468D01*
X188047Y236507D01*
X188681Y235681D01*
X189507Y235047D01*
X190468Y234649D01*
X191500Y234513D01*
X192532Y234649D01*
X193493Y235047D01*
X194319Y235681D01*
X194953Y236507D01*
X195351Y237468D01*
X195487Y238500D01*
X195351Y239532D01*
X194953Y240493D01*
X194319Y241319D01*
X193493Y241953D01*
X192532Y242351D01*
X191500Y242487D01*
X190468Y242351D01*
X190004Y242159D01*
X187581Y244581D01*
X187085Y244913D01*
X186500Y245029D01*
X177036D01*
X176587Y245615D01*
X175967Y246090D01*
X175246Y246389D01*
X174472Y246491D01*
D02*
G37*
G36*
X305500Y234494D02*
X304031D01*
X303257Y234392D01*
X302534Y234093D01*
X301914Y233617D01*
X301438Y232997D01*
X301139Y232275D01*
X301103Y232000D01*
X305500D01*
Y234494D01*
D02*
G37*
G36*
X499000Y234987D02*
X497968Y234851D01*
X497007Y234453D01*
X496181Y233819D01*
X495547Y232993D01*
X495149Y232032D01*
X495013Y231000D01*
X495149Y229968D01*
X495547Y229007D01*
X496181Y228181D01*
X497007Y227547D01*
X497968Y227149D01*
X499000Y227013D01*
X500032Y227149D01*
X500993Y227547D01*
X501819Y228181D01*
X502453Y229007D01*
X502851Y229968D01*
X502987Y231000D01*
X502851Y232032D01*
X502453Y232993D01*
X501819Y233819D01*
X500993Y234453D01*
X500032Y234851D01*
X499000Y234987D01*
D02*
G37*
G36*
X435642Y238689D02*
X434610Y238553D01*
X433649Y238155D01*
X432823Y237521D01*
X432189Y236695D01*
X431791Y235734D01*
X431655Y234702D01*
X431791Y233670D01*
X432189Y232709D01*
X432823Y231883D01*
X433649Y231249D01*
X434610Y230851D01*
X435642Y230715D01*
X436674Y230851D01*
X437635Y231249D01*
X438461Y231883D01*
X439095Y232709D01*
X439493Y233670D01*
X439629Y234702D01*
X439493Y235734D01*
X439095Y236695D01*
X438461Y237521D01*
X437635Y238155D01*
X436674Y238553D01*
X435642Y238689D01*
D02*
G37*
G36*
X137500Y181453D02*
X134047D01*
Y178000D01*
X137500D01*
Y181453D01*
D02*
G37*
G36*
X141953D02*
X138500D01*
Y178000D01*
X141953D01*
Y181453D01*
D02*
G37*
G36*
Y177000D02*
X138500D01*
Y173547D01*
X141953D01*
Y177000D01*
D02*
G37*
G36*
X359595Y178655D02*
X351689D01*
Y170749D01*
X359595D01*
Y178655D01*
D02*
G37*
G36*
X137500Y177000D02*
X134047D01*
Y173547D01*
X137500D01*
Y177000D01*
D02*
G37*
G36*
X498500Y204953D02*
X495047D01*
Y201500D01*
X498500D01*
Y204953D01*
D02*
G37*
G36*
X502953D02*
X499500D01*
Y201500D01*
X502953D01*
Y204953D01*
D02*
G37*
G36*
Y200500D02*
X499500D01*
Y197047D01*
X502953D01*
Y200500D01*
D02*
G37*
G36*
X445642Y198689D02*
X444610Y198553D01*
X443649Y198155D01*
X442823Y197521D01*
X442189Y196695D01*
X441791Y195734D01*
X441655Y194702D01*
X441791Y193670D01*
X442189Y192709D01*
X442823Y191883D01*
X443649Y191249D01*
X444610Y190851D01*
X445642Y190715D01*
X446674Y190851D01*
X447635Y191249D01*
X448461Y191883D01*
X449095Y192709D01*
X449493Y193670D01*
X449629Y194702D01*
X449493Y195734D01*
X449095Y196695D01*
X448461Y197521D01*
X447635Y198155D01*
X446674Y198553D01*
X445642Y198689D01*
D02*
G37*
G36*
X498500Y200500D02*
X495047D01*
Y197047D01*
X498500D01*
Y200500D01*
D02*
G37*
G36*
X411657Y286914D02*
Y282500D01*
X416071D01*
X415967Y283289D01*
X415470Y284490D01*
X414679Y285521D01*
X413647Y286313D01*
X412446Y286810D01*
X411657Y286914D01*
D02*
G37*
G36*
X482500Y295987D02*
X481468Y295851D01*
X480507Y295453D01*
X479681Y294819D01*
X479047Y293993D01*
X478649Y293032D01*
X478513Y292000D01*
X478649Y290968D01*
X479047Y290007D01*
X479681Y289181D01*
X480507Y288547D01*
X481468Y288149D01*
X482500Y288013D01*
X483532Y288149D01*
X484493Y288547D01*
X485319Y289181D01*
X485953Y290007D01*
X486351Y290968D01*
X486487Y292000D01*
X486351Y293032D01*
X485953Y293993D01*
X485319Y294819D01*
X484493Y295453D01*
X483532Y295851D01*
X482500Y295987D01*
D02*
G37*
G36*
X410658Y286914D02*
X409869Y286810D01*
X408668Y286313D01*
X407636Y285521D01*
X406845Y284490D01*
X406348Y283289D01*
X406244Y282500D01*
X410658D01*
Y286914D01*
D02*
G37*
G36*
X445642Y288689D02*
X444610Y288553D01*
X443649Y288155D01*
X442823Y287521D01*
X442189Y286695D01*
X441791Y285734D01*
X441655Y284702D01*
X441791Y283670D01*
X442189Y282709D01*
X442823Y281883D01*
X443649Y281249D01*
X444610Y280851D01*
X445642Y280715D01*
X446674Y280851D01*
X447635Y281249D01*
X448461Y281883D01*
X449095Y282709D01*
X449493Y283670D01*
X449629Y284702D01*
X449493Y285734D01*
X449095Y286695D01*
X448461Y287521D01*
X447635Y288155D01*
X446674Y288553D01*
X445642Y288689D01*
D02*
G37*
G36*
X330842Y286980D02*
X329554Y286810D01*
X328353Y286313D01*
X327321Y285521D01*
X326530Y284490D01*
X326033Y283289D01*
X325863Y282000D01*
X325875Y281905D01*
X325546Y281529D01*
X312878D01*
Y282772D01*
X308122D01*
Y277228D01*
X312878D01*
Y278471D01*
X327332D01*
X328353Y277688D01*
X329554Y277190D01*
X330842Y277020D01*
X332131Y277190D01*
X333332Y277688D01*
X334364Y278479D01*
X335155Y279510D01*
X335652Y280711D01*
X335822Y282000D01*
X335652Y283289D01*
X335155Y284490D01*
X334364Y285521D01*
X333332Y286313D01*
X332131Y286810D01*
X330842Y286980D01*
D02*
G37*
G36*
X445642Y298689D02*
X444610Y298553D01*
X443649Y298155D01*
X442823Y297521D01*
X442189Y296695D01*
X441791Y295734D01*
X441655Y294702D01*
X441791Y293670D01*
X442189Y292709D01*
X442823Y291883D01*
X443649Y291249D01*
X444610Y290851D01*
X445642Y290715D01*
X446674Y290851D01*
X447635Y291249D01*
X448461Y291883D01*
X449095Y292709D01*
X449493Y293670D01*
X449629Y294702D01*
X449493Y295734D01*
X449095Y296695D01*
X448461Y297521D01*
X447635Y298155D01*
X446674Y298553D01*
X445642Y298689D01*
D02*
G37*
G36*
X290500Y297953D02*
X287047D01*
Y294500D01*
X290500D01*
Y297953D01*
D02*
G37*
G36*
X435642Y298689D02*
X434610Y298553D01*
X433649Y298155D01*
X432823Y297521D01*
X432189Y296695D01*
X431791Y295734D01*
X431655Y294702D01*
X431791Y293670D01*
X432189Y292709D01*
X432823Y291883D01*
X433649Y291249D01*
X434610Y290851D01*
X435642Y290715D01*
X436674Y290851D01*
X437635Y291249D01*
X438461Y291883D01*
X439095Y292709D01*
X439493Y293670D01*
X439629Y294702D01*
X439493Y295734D01*
X439095Y296695D01*
X438461Y297521D01*
X437635Y298155D01*
X436674Y298553D01*
X435642Y298689D01*
D02*
G37*
G36*
X290500Y293500D02*
X287047D01*
Y290047D01*
X290500D01*
Y293500D01*
D02*
G37*
G36*
X294953D02*
X291500D01*
Y290047D01*
X294953D01*
Y293500D01*
D02*
G37*
G36*
X435642Y278689D02*
X434610Y278553D01*
X433649Y278155D01*
X432823Y277521D01*
X432189Y276695D01*
X431791Y275734D01*
X431655Y274702D01*
X431791Y273670D01*
X432189Y272709D01*
X432823Y271883D01*
X433649Y271249D01*
X434610Y270851D01*
X435642Y270715D01*
X436674Y270851D01*
X437635Y271249D01*
X438461Y271883D01*
X439095Y272709D01*
X439493Y273670D01*
X439629Y274702D01*
X439493Y275734D01*
X439095Y276695D01*
X438461Y277521D01*
X437635Y278155D01*
X436674Y278553D01*
X435642Y278689D01*
D02*
G37*
G36*
X445642D02*
X444610Y278553D01*
X443649Y278155D01*
X442823Y277521D01*
X442189Y276695D01*
X441791Y275734D01*
X441655Y274702D01*
X441791Y273670D01*
X442189Y272709D01*
X442823Y271883D01*
X443649Y271249D01*
X444610Y270851D01*
X445642Y270715D01*
X446674Y270851D01*
X447635Y271249D01*
X448461Y271883D01*
X449095Y272709D01*
X449493Y273670D01*
X449629Y274702D01*
X449493Y275734D01*
X449095Y276695D01*
X448461Y277521D01*
X447635Y278155D01*
X446674Y278553D01*
X445642Y278689D01*
D02*
G37*
G36*
X435642Y268689D02*
X434610Y268553D01*
X433649Y268155D01*
X432823Y267521D01*
X432189Y266695D01*
X431791Y265734D01*
X431655Y264702D01*
X431791Y263670D01*
X432189Y262709D01*
X432823Y261883D01*
X433649Y261249D01*
X434610Y260851D01*
X435642Y260715D01*
X436674Y260851D01*
X437635Y261249D01*
X438461Y261883D01*
X439095Y262709D01*
X439493Y263670D01*
X439629Y264702D01*
X439493Y265734D01*
X439095Y266695D01*
X438461Y267521D01*
X437635Y268155D01*
X436674Y268553D01*
X435642Y268689D01*
D02*
G37*
G36*
X236000Y251487D02*
X234968Y251351D01*
X234007Y250953D01*
X233181Y250319D01*
X232547Y249493D01*
X232149Y248532D01*
X232013Y247500D01*
X232149Y246468D01*
X232341Y246004D01*
X221990Y235653D01*
X221429Y235680D01*
X221077Y236140D01*
X220450Y236620D01*
X219720Y236923D01*
X218937Y237026D01*
X215063D01*
X214280Y236923D01*
X213550Y236620D01*
X212923Y236140D01*
X212442Y235513D01*
X212140Y234783D01*
X212037Y234000D01*
X212140Y233217D01*
X212442Y232487D01*
X212923Y231860D01*
X213067Y231750D01*
Y231250D01*
X212923Y231140D01*
X212442Y230513D01*
X212140Y229783D01*
X212037Y229000D01*
X212140Y228217D01*
X212442Y227487D01*
X212923Y226860D01*
X213067Y226750D01*
Y226250D01*
X212923Y226140D01*
X212442Y225513D01*
X212140Y224783D01*
X212037Y224000D01*
X212140Y223217D01*
X212442Y222487D01*
X212923Y221860D01*
X213550Y221379D01*
X214280Y221077D01*
X215063Y220974D01*
X217863D01*
X221324Y217513D01*
X221820Y217181D01*
X222406Y217065D01*
X224728D01*
Y216216D01*
X230272D01*
Y220972D01*
X224728D01*
Y220124D01*
X223039D01*
X221175Y221988D01*
X221557Y222487D01*
X221860Y223217D01*
X221963Y224000D01*
X221860Y224783D01*
X221557Y225513D01*
X221077Y226140D01*
X220933Y226250D01*
Y226750D01*
X221077Y226860D01*
X221545Y227471D01*
X222366D01*
X224728Y225109D01*
Y222122D01*
X230272D01*
Y226878D01*
X227285D01*
X224081Y230081D01*
X223585Y230413D01*
X223000Y230529D01*
X221545D01*
X221077Y231140D01*
X220933Y231250D01*
Y231750D01*
X221077Y231860D01*
X221545Y232471D01*
X222500D01*
X223085Y232587D01*
X223581Y232919D01*
X231585Y240922D01*
X232047Y240731D01*
Y233547D01*
X234471D01*
Y215000D01*
X234587Y214415D01*
X234919Y213919D01*
X250992Y197845D01*
X250841Y197480D01*
X250712Y196500D01*
X250841Y195519D01*
X251219Y194606D01*
X251821Y193821D01*
X252606Y193219D01*
X253520Y192841D01*
X254500Y192712D01*
X255481Y192841D01*
X256394Y193219D01*
X257179Y193821D01*
X257781Y194606D01*
X258159Y195519D01*
X258288Y196500D01*
X258159Y197480D01*
X257781Y198394D01*
X257179Y199179D01*
X256394Y199781D01*
X255481Y200159D01*
X254500Y200288D01*
X253520Y200159D01*
X253155Y200008D01*
X237529Y215634D01*
Y233547D01*
X239953D01*
Y241453D01*
X232769D01*
X232578Y241915D01*
X234504Y243841D01*
X234968Y243649D01*
X236000Y243513D01*
X237032Y243649D01*
X237993Y244047D01*
X238819Y244681D01*
X239453Y245507D01*
X239851Y246468D01*
X239987Y247500D01*
X239851Y248532D01*
X239453Y249493D01*
X238819Y250319D01*
X237993Y250953D01*
X237032Y251351D01*
X236000Y251487D01*
D02*
G37*
G36*
X484000Y267288D02*
X483019Y267159D01*
X482106Y266781D01*
X481321Y266179D01*
X480719Y265394D01*
X480341Y264480D01*
X480212Y263500D01*
X480341Y262520D01*
X480492Y262155D01*
X473122Y254785D01*
X471237D01*
X470652Y254669D01*
X470156Y254337D01*
X452050Y236231D01*
X449287D01*
X449095Y236695D01*
X448461Y237521D01*
X447635Y238155D01*
X446674Y238553D01*
X445642Y238689D01*
X444610Y238553D01*
X443649Y238155D01*
X442823Y237521D01*
X442189Y236695D01*
X441791Y235734D01*
X441655Y234702D01*
X441791Y233670D01*
X442189Y232709D01*
X442823Y231883D01*
X443649Y231249D01*
X444610Y230851D01*
X445642Y230715D01*
X446674Y230851D01*
X447635Y231249D01*
X448461Y231883D01*
X449095Y232709D01*
X449287Y233173D01*
X452683D01*
X453268Y233289D01*
X453765Y233621D01*
X468758Y248614D01*
X469286Y248435D01*
X469341Y248020D01*
X469492Y247655D01*
X449119Y227282D01*
X448620Y227314D01*
X448461Y227521D01*
X447635Y228155D01*
X446674Y228553D01*
X445642Y228689D01*
X444610Y228553D01*
X443649Y228155D01*
X442823Y227521D01*
X442189Y226695D01*
X441791Y225734D01*
X441655Y224702D01*
X441791Y223670D01*
X442189Y222709D01*
X442823Y221883D01*
X443649Y221249D01*
X444610Y220851D01*
X445642Y220715D01*
X446674Y220851D01*
X447635Y221249D01*
X448461Y221883D01*
X449095Y222709D01*
X449354Y223333D01*
X449783Y223621D01*
X471655Y245492D01*
X472019Y245341D01*
X473000Y245212D01*
X473981Y245341D01*
X474894Y245719D01*
X475679Y246321D01*
X476281Y247106D01*
X476659Y248020D01*
X476788Y249000D01*
X476659Y249980D01*
X476281Y250894D01*
X475679Y251679D01*
X475223Y252028D01*
X475190Y252527D01*
X482655Y259992D01*
X483019Y259841D01*
X484000Y259712D01*
X484980Y259841D01*
X485894Y260219D01*
X486679Y260821D01*
X487281Y261606D01*
X487659Y262520D01*
X487788Y263500D01*
X487659Y264480D01*
X487281Y265394D01*
X486679Y266179D01*
X485894Y266781D01*
X484980Y267159D01*
X484000Y267288D01*
D02*
G37*
G36*
X416071Y281500D02*
X411657D01*
Y277086D01*
X412446Y277190D01*
X413647Y277688D01*
X414679Y278479D01*
X415470Y279510D01*
X415967Y280711D01*
X416071Y281500D01*
D02*
G37*
G36*
X435642Y288689D02*
X434610Y288553D01*
X433649Y288155D01*
X432823Y287521D01*
X432189Y286695D01*
X431791Y285734D01*
X431655Y284702D01*
X431791Y283670D01*
X432189Y282709D01*
X432823Y281883D01*
X433649Y281249D01*
X434610Y280851D01*
X435642Y280715D01*
X436674Y280851D01*
X437635Y281249D01*
X438461Y281883D01*
X439095Y282709D01*
X439493Y283670D01*
X439629Y284702D01*
X439493Y285734D01*
X439095Y286695D01*
X438461Y287521D01*
X437635Y288155D01*
X436674Y288553D01*
X435642Y288689D01*
D02*
G37*
G36*
X410658Y281500D02*
X406244D01*
X406348Y280711D01*
X406845Y279510D01*
X407636Y278479D01*
X408668Y277688D01*
X409869Y277190D01*
X410658Y277086D01*
Y281500D01*
D02*
G37*
G36*
X487500Y280288D02*
X486519Y280159D01*
X485606Y279781D01*
X484821Y279179D01*
X484219Y278394D01*
X483841Y277481D01*
X483712Y276500D01*
X483841Y275519D01*
X483992Y275155D01*
X455068Y246231D01*
X449287D01*
X449095Y246695D01*
X448461Y247521D01*
X447635Y248155D01*
X446674Y248553D01*
X445642Y248689D01*
X444610Y248553D01*
X443649Y248155D01*
X442823Y247521D01*
X442189Y246695D01*
X441791Y245734D01*
X441655Y244702D01*
X441791Y243670D01*
X442189Y242709D01*
X442823Y241883D01*
X443649Y241249D01*
X444610Y240851D01*
X445642Y240715D01*
X446674Y240851D01*
X447635Y241249D01*
X448461Y241883D01*
X449095Y242709D01*
X449287Y243173D01*
X455702D01*
X456287Y243289D01*
X456783Y243621D01*
X486155Y272992D01*
X486519Y272841D01*
X487500Y272712D01*
X488481Y272841D01*
X489394Y273219D01*
X490179Y273821D01*
X490781Y274606D01*
X491159Y275519D01*
X491288Y276500D01*
X491159Y277481D01*
X490781Y278394D01*
X490179Y279179D01*
X489394Y279781D01*
X488481Y280159D01*
X487500Y280288D01*
D02*
G37*
G36*
X527500D02*
X526519Y280159D01*
X525606Y279781D01*
X524821Y279179D01*
X524219Y278394D01*
X523841Y277481D01*
X523712Y276500D01*
X523841Y275519D01*
X523992Y275155D01*
X488419Y239581D01*
X488087Y239085D01*
X487971Y238500D01*
Y225035D01*
X487471Y224936D01*
X487281Y225394D01*
X486679Y226179D01*
X485894Y226781D01*
X484980Y227159D01*
X484000Y227288D01*
X483019Y227159D01*
X482106Y226781D01*
X481321Y226179D01*
X480719Y225394D01*
X480341Y224481D01*
X480212Y223500D01*
X480341Y222519D01*
X480492Y222155D01*
X476174Y217837D01*
X475843Y217341D01*
X475727Y216756D01*
Y212272D01*
X475226Y212026D01*
X474894Y212281D01*
X473981Y212659D01*
X473000Y212788D01*
X472019Y212659D01*
X471106Y212281D01*
X470321Y211679D01*
X469719Y210894D01*
X469341Y209981D01*
X469212Y209000D01*
X469226Y208889D01*
X437169Y176831D01*
X436837Y176335D01*
X436721Y175750D01*
Y165384D01*
X426032Y154695D01*
X425544Y154897D01*
X424500Y155034D01*
X423456Y154897D01*
X422483Y154494D01*
X421647Y153853D01*
X421006Y153017D01*
X420603Y152044D01*
X420466Y151000D01*
X420603Y149956D01*
X421006Y148983D01*
X421647Y148147D01*
X422483Y147506D01*
X423456Y147103D01*
X424500Y146966D01*
X425544Y147103D01*
X426517Y147506D01*
X427353Y148147D01*
X427994Y148983D01*
X428397Y149956D01*
X428535Y151000D01*
X428397Y152044D01*
X428195Y152532D01*
X439331Y163669D01*
X439663Y164165D01*
X439779Y164750D01*
Y175117D01*
X470696Y206033D01*
X471106Y205719D01*
X472019Y205341D01*
X472435Y205286D01*
X472614Y204758D01*
X448919Y181063D01*
X448587Y180567D01*
X448471Y179981D01*
Y155196D01*
X447983Y154994D01*
X447147Y154353D01*
X446506Y153517D01*
X446103Y152544D01*
X445965Y151500D01*
X446103Y150456D01*
X446506Y149483D01*
X447147Y148647D01*
X447983Y148006D01*
X448956Y147603D01*
X450000Y147466D01*
X451044Y147603D01*
X452017Y148006D01*
X452853Y148647D01*
X453494Y149483D01*
X453897Y150456D01*
X454035Y151500D01*
X453897Y152544D01*
X453494Y153517D01*
X452853Y154353D01*
X452017Y154994D01*
X451529Y155196D01*
Y179348D01*
X464530Y192349D01*
X464991Y192102D01*
X464971Y192000D01*
Y150634D01*
X464187Y149850D01*
X463764Y150134D01*
X463897Y150456D01*
X464035Y151500D01*
X463897Y152544D01*
X463494Y153517D01*
X462853Y154353D01*
X462017Y154994D01*
X461044Y155397D01*
X460000Y155535D01*
X458956Y155397D01*
X457983Y154994D01*
X457147Y154353D01*
X456506Y153517D01*
X456103Y152544D01*
X455966Y151500D01*
X456103Y150456D01*
X456506Y149483D01*
X457147Y148647D01*
X457983Y148006D01*
X458956Y147603D01*
X460000Y147466D01*
X461044Y147603D01*
X461366Y147736D01*
X461650Y147312D01*
X445866Y131529D01*
X431136D01*
X430551Y131413D01*
X430055Y131081D01*
X426761Y127787D01*
X426262Y127820D01*
X425853Y128353D01*
X425017Y128994D01*
X424044Y129397D01*
X423000Y129534D01*
X421956Y129397D01*
X420983Y128994D01*
X420147Y128353D01*
X419506Y127517D01*
X419103Y126544D01*
X418965Y125500D01*
X419103Y124456D01*
X419506Y123483D01*
X420147Y122647D01*
X420983Y122006D01*
X421956Y121603D01*
X423000Y121466D01*
X424044Y121603D01*
X425017Y122006D01*
X425853Y122647D01*
X426494Y123483D01*
X426701Y123984D01*
X427221Y124087D01*
X427717Y124419D01*
X428501Y125201D01*
X429028Y125022D01*
X429103Y124456D01*
X429506Y123483D01*
X430147Y122647D01*
X430983Y122006D01*
X431956Y121603D01*
X433000Y121466D01*
X434044Y121603D01*
X435017Y122006D01*
X435853Y122647D01*
X436494Y123483D01*
X436897Y124456D01*
X437035Y125500D01*
X436897Y126544D01*
X436494Y127517D01*
X436146Y127971D01*
X436393Y128471D01*
X446500D01*
X447085Y128587D01*
X447581Y128919D01*
X467581Y148919D01*
X467913Y149415D01*
X468029Y150000D01*
Y191367D01*
X474883Y198220D01*
X475307Y197937D01*
X475090Y197414D01*
X474970Y196500D01*
X475090Y195586D01*
X475188Y195351D01*
X472697Y192860D01*
X472107D01*
X471522Y192744D01*
X471026Y192412D01*
X469466Y190852D01*
X469134Y190356D01*
X469018Y189771D01*
Y186500D01*
X469134Y185915D01*
X469466Y185419D01*
X471728Y183156D01*
Y180169D01*
X472971D01*
Y176347D01*
X470705D01*
Y167654D01*
X477035D01*
Y176347D01*
X476029D01*
Y180169D01*
X477272D01*
Y184925D01*
X474285D01*
X473597Y185613D01*
X473789Y186075D01*
X477272D01*
Y186923D01*
X481728D01*
Y186075D01*
X487272D01*
Y190831D01*
X486029D01*
Y205867D01*
X497504Y217341D01*
X497968Y217149D01*
X499000Y217013D01*
X500032Y217149D01*
X500993Y217547D01*
X501819Y218181D01*
X502453Y219007D01*
X502851Y219968D01*
X502987Y221000D01*
X502851Y222032D01*
X502453Y222993D01*
X501819Y223819D01*
X500993Y224453D01*
X500032Y224851D01*
X499000Y224987D01*
X497968Y224851D01*
X497007Y224453D01*
X496181Y223819D01*
X495547Y222993D01*
X495149Y222032D01*
X495013Y221000D01*
X495149Y219968D01*
X495341Y219504D01*
X491491Y215654D01*
X491029Y215846D01*
Y237866D01*
X526155Y272992D01*
X526519Y272841D01*
X527500Y272712D01*
X528480Y272841D01*
X529394Y273219D01*
X530179Y273821D01*
X530781Y274606D01*
X531159Y275519D01*
X531288Y276500D01*
X531159Y277481D01*
X530781Y278394D01*
X530179Y279179D01*
X529394Y279781D01*
X528480Y280159D01*
X527500Y280288D01*
D02*
G37*
G36*
X179595Y178655D02*
X171689D01*
Y170749D01*
X179595D01*
Y178655D01*
D02*
G37*
G36*
X377500Y143370D02*
X373654D01*
Y140705D01*
X377500D01*
Y143370D01*
D02*
G37*
G36*
X382347D02*
X378500D01*
Y140705D01*
X382347D01*
Y143370D01*
D02*
G37*
G36*
X528500Y143987D02*
X527468Y143851D01*
X526507Y143453D01*
X525681Y142819D01*
X525047Y141993D01*
X524649Y141032D01*
X524513Y140000D01*
X524649Y138968D01*
X525047Y138007D01*
X525681Y137181D01*
X526507Y136547D01*
X527468Y136149D01*
X528500Y136013D01*
X529532Y136149D01*
X530493Y136547D01*
X531319Y137181D01*
X531953Y138007D01*
X532351Y138968D01*
X532487Y140000D01*
X532351Y141032D01*
X531953Y141993D01*
X531319Y142819D01*
X530493Y143453D01*
X529532Y143851D01*
X528500Y143987D01*
D02*
G37*
G36*
X393500Y136453D02*
X390047D01*
Y133000D01*
X393500D01*
Y136453D01*
D02*
G37*
G36*
X397953D02*
X394500D01*
Y133000D01*
X397953D01*
Y136453D01*
D02*
G37*
G36*
X528000Y149500D02*
X524547D01*
Y146047D01*
X528000D01*
Y149500D01*
D02*
G37*
G36*
X532453D02*
X529000D01*
Y146047D01*
X532453D01*
Y149500D01*
D02*
G37*
G36*
X480000Y153987D02*
X478968Y153851D01*
X478007Y153453D01*
X477181Y152819D01*
X476547Y151993D01*
X476149Y151032D01*
X476013Y150000D01*
X476149Y148968D01*
X476547Y148007D01*
X477181Y147181D01*
X478007Y146547D01*
X478968Y146149D01*
X480000Y146013D01*
X481032Y146149D01*
X481993Y146547D01*
X482819Y147181D01*
X483453Y148007D01*
X483851Y148968D01*
X483987Y150000D01*
X483851Y151032D01*
X483453Y151993D01*
X482819Y152819D01*
X481993Y153453D01*
X481032Y153851D01*
X480000Y153987D01*
D02*
G37*
G36*
X377500Y147035D02*
X373654D01*
Y144370D01*
X377500D01*
Y147035D01*
D02*
G37*
G36*
X382347D02*
X378500D01*
Y144370D01*
X382347D01*
Y147035D01*
D02*
G37*
G36*
X479500Y123953D02*
X476047D01*
Y120500D01*
X479500D01*
Y123953D01*
D02*
G37*
G36*
X313500Y131487D02*
X312468Y131351D01*
X311507Y130953D01*
X310681Y130319D01*
X310047Y129493D01*
X309649Y128532D01*
X309513Y127500D01*
X309649Y126468D01*
X310047Y125507D01*
X310681Y124681D01*
X311507Y124047D01*
X312468Y123649D01*
X313500Y123513D01*
X314532Y123649D01*
X315493Y124047D01*
X316319Y124681D01*
X316953Y125507D01*
X317351Y126468D01*
X317487Y127500D01*
X317351Y128532D01*
X316953Y129493D01*
X316319Y130319D01*
X315493Y130953D01*
X314532Y131351D01*
X313500Y131487D01*
D02*
G37*
G36*
X483953Y119500D02*
X480500D01*
Y116047D01*
X483953D01*
Y119500D01*
D02*
G37*
G36*
X528500Y123987D02*
X527468Y123851D01*
X526507Y123453D01*
X525681Y122819D01*
X525047Y121993D01*
X524649Y121032D01*
X524513Y120000D01*
X524649Y118968D01*
X525047Y118007D01*
X525681Y117181D01*
X526507Y116547D01*
X527468Y116149D01*
X528500Y116013D01*
X529532Y116149D01*
X530493Y116547D01*
X531319Y117181D01*
X531953Y118007D01*
X532351Y118968D01*
X532487Y120000D01*
X532351Y121032D01*
X531953Y121993D01*
X531319Y122819D01*
X530493Y123453D01*
X529532Y123851D01*
X528500Y123987D01*
D02*
G37*
G36*
X479500Y119500D02*
X476047D01*
Y116047D01*
X479500D01*
Y119500D01*
D02*
G37*
G36*
X393500Y132000D02*
X390047D01*
Y128547D01*
X393500D01*
Y132000D01*
D02*
G37*
G36*
X397953D02*
X394500D01*
Y128547D01*
X397953D01*
Y132000D01*
D02*
G37*
G36*
X363500Y131487D02*
X362468Y131351D01*
X361507Y130953D01*
X360681Y130319D01*
X360047Y129493D01*
X359649Y128532D01*
X359513Y127500D01*
X359649Y126468D01*
X360047Y125507D01*
X360681Y124681D01*
X361507Y124047D01*
X362468Y123649D01*
X363500Y123513D01*
X364532Y123649D01*
X365493Y124047D01*
X366319Y124681D01*
X366953Y125507D01*
X367351Y126468D01*
X367487Y127500D01*
X367351Y128532D01*
X366953Y129493D01*
X366319Y130319D01*
X365493Y130953D01*
X364532Y131351D01*
X363500Y131487D01*
D02*
G37*
G36*
X323500D02*
X322468Y131351D01*
X321507Y130953D01*
X320681Y130319D01*
X320047Y129493D01*
X319649Y128532D01*
X319513Y127500D01*
X319649Y126468D01*
X320047Y125507D01*
X320681Y124681D01*
X321507Y124047D01*
X322468Y123649D01*
X323500Y123513D01*
X324532Y123649D01*
X325493Y124047D01*
X326319Y124681D01*
X326953Y125507D01*
X327351Y126468D01*
X327487Y127500D01*
X327351Y128532D01*
X326953Y129493D01*
X326319Y130319D01*
X325493Y130953D01*
X324532Y131351D01*
X323500Y131487D01*
D02*
G37*
G36*
X353500D02*
X352468Y131351D01*
X351507Y130953D01*
X350681Y130319D01*
X350047Y129493D01*
X349649Y128532D01*
X349513Y127500D01*
X349649Y126468D01*
X350047Y125507D01*
X350681Y124681D01*
X351507Y124047D01*
X352468Y123649D01*
X353500Y123513D01*
X354532Y123649D01*
X355493Y124047D01*
X356319Y124681D01*
X356953Y125507D01*
X357351Y126468D01*
X357487Y127500D01*
X357351Y128532D01*
X356953Y129493D01*
X356319Y130319D01*
X355493Y130953D01*
X354532Y131351D01*
X353500Y131487D01*
D02*
G37*
G36*
X365642Y178689D02*
X364610Y178553D01*
X363649Y178155D01*
X362823Y177521D01*
X362189Y176695D01*
X361791Y175734D01*
X361655Y174702D01*
X361791Y173670D01*
X362189Y172709D01*
X362823Y171883D01*
X363649Y171249D01*
X364610Y170851D01*
X365642Y170715D01*
X366674Y170851D01*
X367635Y171249D01*
X368461Y171883D01*
X369095Y172709D01*
X369493Y173670D01*
X369629Y174702D01*
X369493Y175734D01*
X369095Y176695D01*
X368461Y177521D01*
X367635Y178155D01*
X366674Y178553D01*
X365642Y178689D01*
D02*
G37*
G36*
X375642D02*
X374610Y178553D01*
X373649Y178155D01*
X372823Y177521D01*
X372189Y176695D01*
X371791Y175734D01*
X371655Y174702D01*
X371791Y173670D01*
X372189Y172709D01*
X372823Y171883D01*
X373649Y171249D01*
X374610Y170851D01*
X375642Y170715D01*
X376674Y170851D01*
X377635Y171249D01*
X378461Y171883D01*
X379095Y172709D01*
X379493Y173670D01*
X379629Y174702D01*
X379493Y175734D01*
X379095Y176695D01*
X378461Y177521D01*
X377635Y178155D01*
X376674Y178553D01*
X375642Y178689D01*
D02*
G37*
G36*
X325642D02*
X324610Y178553D01*
X323649Y178155D01*
X322823Y177521D01*
X322189Y176695D01*
X321791Y175734D01*
X321655Y174702D01*
X321791Y173670D01*
X322189Y172709D01*
X322823Y171883D01*
X323649Y171249D01*
X324610Y170851D01*
X325642Y170715D01*
X326674Y170851D01*
X327635Y171249D01*
X328461Y171883D01*
X329095Y172709D01*
X329493Y173670D01*
X329629Y174702D01*
X329493Y175734D01*
X329095Y176695D01*
X328461Y177521D01*
X327635Y178155D01*
X326674Y178553D01*
X325642Y178689D01*
D02*
G37*
G36*
X305642D02*
X304610Y178553D01*
X303649Y178155D01*
X302823Y177521D01*
X302189Y176695D01*
X301791Y175734D01*
X301655Y174702D01*
X301791Y173670D01*
X302189Y172709D01*
X302823Y171883D01*
X303649Y171249D01*
X304610Y170851D01*
X305642Y170715D01*
X306674Y170851D01*
X307635Y171249D01*
X308461Y171883D01*
X309095Y172709D01*
X309493Y173670D01*
X309629Y174702D01*
X309493Y175734D01*
X309095Y176695D01*
X308461Y177521D01*
X307635Y178155D01*
X306674Y178553D01*
X305642Y178689D01*
D02*
G37*
G36*
X315642D02*
X314610Y178553D01*
X313649Y178155D01*
X312823Y177521D01*
X312189Y176695D01*
X311791Y175734D01*
X311655Y174702D01*
X311791Y173670D01*
X312189Y172709D01*
X312823Y171883D01*
X313649Y171249D01*
X314610Y170851D01*
X315642Y170715D01*
X316674Y170851D01*
X317635Y171249D01*
X318461Y171883D01*
X319095Y172709D01*
X319493Y173670D01*
X319629Y174702D01*
X319493Y175734D01*
X319095Y176695D01*
X318461Y177521D01*
X317635Y178155D01*
X316674Y178553D01*
X315642Y178689D01*
D02*
G37*
G36*
X415642D02*
X414610Y178553D01*
X413649Y178155D01*
X412823Y177521D01*
X412189Y176695D01*
X411791Y175734D01*
X411655Y174702D01*
X411791Y173670D01*
X412189Y172709D01*
X412823Y171883D01*
X413649Y171249D01*
X414610Y170851D01*
X415642Y170715D01*
X416674Y170851D01*
X417635Y171249D01*
X418461Y171883D01*
X419095Y172709D01*
X419493Y173670D01*
X419629Y174702D01*
X419493Y175734D01*
X419095Y176695D01*
X418461Y177521D01*
X417635Y178155D01*
X416674Y178553D01*
X415642Y178689D01*
D02*
G37*
G36*
X425642D02*
X424610Y178553D01*
X423649Y178155D01*
X422823Y177521D01*
X422189Y176695D01*
X421791Y175734D01*
X421655Y174702D01*
X421791Y173670D01*
X422189Y172709D01*
X422823Y171883D01*
X423649Y171249D01*
X424610Y170851D01*
X425642Y170715D01*
X426674Y170851D01*
X427635Y171249D01*
X428461Y171883D01*
X429095Y172709D01*
X429493Y173670D01*
X429629Y174702D01*
X429493Y175734D01*
X429095Y176695D01*
X428461Y177521D01*
X427635Y178155D01*
X426674Y178553D01*
X425642Y178689D01*
D02*
G37*
G36*
X405642D02*
X404610Y178553D01*
X403649Y178155D01*
X402823Y177521D01*
X402189Y176695D01*
X401791Y175734D01*
X401655Y174702D01*
X401791Y173670D01*
X402189Y172709D01*
X402823Y171883D01*
X403649Y171249D01*
X404610Y170851D01*
X405642Y170715D01*
X406674Y170851D01*
X407635Y171249D01*
X408461Y171883D01*
X409095Y172709D01*
X409493Y173670D01*
X409629Y174702D01*
X409493Y175734D01*
X409095Y176695D01*
X408461Y177521D01*
X407635Y178155D01*
X406674Y178553D01*
X405642Y178689D01*
D02*
G37*
G36*
X385642D02*
X384610Y178553D01*
X383649Y178155D01*
X382823Y177521D01*
X382189Y176695D01*
X381791Y175734D01*
X381655Y174702D01*
X381791Y173670D01*
X382189Y172709D01*
X382823Y171883D01*
X383649Y171249D01*
X384610Y170851D01*
X385642Y170715D01*
X386674Y170851D01*
X387635Y171249D01*
X388461Y171883D01*
X389095Y172709D01*
X389493Y173670D01*
X389629Y174702D01*
X389493Y175734D01*
X389095Y176695D01*
X388461Y177521D01*
X387635Y178155D01*
X386674Y178553D01*
X385642Y178689D01*
D02*
G37*
G36*
X395642D02*
X394610Y178553D01*
X393649Y178155D01*
X392823Y177521D01*
X392189Y176695D01*
X391791Y175734D01*
X391655Y174702D01*
X391791Y173670D01*
X392189Y172709D01*
X392823Y171883D01*
X393649Y171249D01*
X394610Y170851D01*
X395642Y170715D01*
X396674Y170851D01*
X397635Y171249D01*
X398461Y171883D01*
X399095Y172709D01*
X399493Y173670D01*
X399629Y174702D01*
X399493Y175734D01*
X399095Y176695D01*
X398461Y177521D01*
X397635Y178155D01*
X396674Y178553D01*
X395642Y178689D01*
D02*
G37*
G36*
X528000Y153953D02*
X524547D01*
Y150500D01*
X528000D01*
Y153953D01*
D02*
G37*
G36*
X532453D02*
X529000D01*
Y150500D01*
X532453D01*
Y153953D01*
D02*
G37*
G36*
X174000Y157288D02*
X173020Y157159D01*
X172106Y156781D01*
X171321Y156179D01*
X170719Y155394D01*
X170341Y154481D01*
X170212Y153500D01*
X170341Y152520D01*
X170719Y151606D01*
X171321Y150821D01*
X172106Y150219D01*
X173020Y149841D01*
X174000Y149712D01*
X174980Y149841D01*
X175894Y150219D01*
X176679Y150821D01*
X177281Y151606D01*
X177659Y152520D01*
X177788Y153500D01*
X177659Y154481D01*
X177281Y155394D01*
X176679Y156179D01*
X175894Y156781D01*
X174980Y157159D01*
X174000Y157288D01*
D02*
G37*
G36*
X434500Y155034D02*
X433456Y154897D01*
X432483Y154494D01*
X431647Y153853D01*
X431006Y153017D01*
X430603Y152044D01*
X430466Y151000D01*
X430603Y149956D01*
X431006Y148983D01*
X431647Y148147D01*
X432483Y147506D01*
X433456Y147103D01*
X434500Y146966D01*
X435544Y147103D01*
X436517Y147506D01*
X437353Y148147D01*
X437994Y148983D01*
X438397Y149956D01*
X438534Y151000D01*
X438397Y152044D01*
X437994Y153017D01*
X437353Y153853D01*
X436517Y154494D01*
X435544Y154897D01*
X434500Y155034D01*
D02*
G37*
G36*
X335642Y178689D02*
X334610Y178553D01*
X333649Y178155D01*
X332823Y177521D01*
X332189Y176695D01*
X331791Y175734D01*
X331655Y174702D01*
X331791Y173670D01*
X332189Y172709D01*
X332823Y171883D01*
X333649Y171249D01*
X334610Y170851D01*
X335642Y170715D01*
X336674Y170851D01*
X337138Y171043D01*
X350263Y157919D01*
X350759Y157587D01*
X351344Y157471D01*
X373654D01*
Y151335D01*
X379002D01*
X388919Y141419D01*
X389415Y141087D01*
X390000Y140971D01*
X390355D01*
X390547Y140507D01*
X391181Y139681D01*
X392007Y139047D01*
X392968Y138649D01*
X394000Y138513D01*
X395032Y138649D01*
X395993Y139047D01*
X396819Y139681D01*
X397453Y140507D01*
X397851Y141468D01*
X397987Y142500D01*
X397851Y143532D01*
X397453Y144493D01*
X396819Y145319D01*
X395993Y145953D01*
X395032Y146351D01*
X394000Y146487D01*
X392968Y146351D01*
X392007Y145953D01*
X391181Y145319D01*
X390690Y144680D01*
X390090Y144573D01*
X382347Y152316D01*
Y157471D01*
X386866D01*
X390341Y153996D01*
X390149Y153532D01*
X390013Y152500D01*
X390149Y151468D01*
X390547Y150507D01*
X391181Y149681D01*
X392007Y149047D01*
X392968Y148649D01*
X394000Y148513D01*
X395032Y148649D01*
X395993Y149047D01*
X396819Y149681D01*
X397453Y150507D01*
X397851Y151468D01*
X397987Y152500D01*
X397851Y153532D01*
X397453Y154493D01*
X396819Y155319D01*
X395993Y155953D01*
X395032Y156351D01*
X394000Y156487D01*
X392968Y156351D01*
X392504Y156159D01*
X388581Y160081D01*
X388085Y160413D01*
X387500Y160529D01*
X351977D01*
X339301Y173206D01*
X339493Y173670D01*
X339629Y174702D01*
X339493Y175734D01*
X339095Y176695D01*
X338461Y177521D01*
X337635Y178155D01*
X336674Y178553D01*
X335642Y178689D01*
D02*
G37*
G36*
X215642D02*
X214610Y178553D01*
X213649Y178155D01*
X212823Y177521D01*
X212189Y176695D01*
X211791Y175734D01*
X211655Y174702D01*
X211791Y173670D01*
X212189Y172709D01*
X212823Y171883D01*
X213649Y171249D01*
X214610Y170851D01*
X215642Y170715D01*
X216674Y170851D01*
X217635Y171249D01*
X218461Y171883D01*
X219095Y172709D01*
X219493Y173670D01*
X219629Y174702D01*
X219493Y175734D01*
X219095Y176695D01*
X218461Y177521D01*
X217635Y178155D01*
X216674Y178553D01*
X215642Y178689D01*
D02*
G37*
G36*
X225642D02*
X224610Y178553D01*
X223649Y178155D01*
X222823Y177521D01*
X222189Y176695D01*
X221791Y175734D01*
X221655Y174702D01*
X221791Y173670D01*
X222189Y172709D01*
X222823Y171883D01*
X223649Y171249D01*
X224610Y170851D01*
X225642Y170715D01*
X226674Y170851D01*
X227635Y171249D01*
X228461Y171883D01*
X229095Y172709D01*
X229493Y173670D01*
X229629Y174702D01*
X229493Y175734D01*
X229095Y176695D01*
X228461Y177521D01*
X227635Y178155D01*
X226674Y178553D01*
X225642Y178689D01*
D02*
G37*
G36*
X205642D02*
X204610Y178553D01*
X203649Y178155D01*
X202823Y177521D01*
X202189Y176695D01*
X201791Y175734D01*
X201655Y174702D01*
X201791Y173670D01*
X202189Y172709D01*
X202823Y171883D01*
X203649Y171249D01*
X204610Y170851D01*
X205642Y170715D01*
X206674Y170851D01*
X207635Y171249D01*
X208461Y171883D01*
X209095Y172709D01*
X209493Y173670D01*
X209629Y174702D01*
X209493Y175734D01*
X209095Y176695D01*
X208461Y177521D01*
X207635Y178155D01*
X206674Y178553D01*
X205642Y178689D01*
D02*
G37*
G36*
X185642D02*
X184610Y178553D01*
X183649Y178155D01*
X182823Y177521D01*
X182189Y176695D01*
X181791Y175734D01*
X181655Y174702D01*
X181791Y173670D01*
X182189Y172709D01*
X182823Y171883D01*
X183649Y171249D01*
X184610Y170851D01*
X185642Y170715D01*
X186674Y170851D01*
X187635Y171249D01*
X188461Y171883D01*
X189095Y172709D01*
X189493Y173670D01*
X189629Y174702D01*
X189493Y175734D01*
X189095Y176695D01*
X188461Y177521D01*
X187635Y178155D01*
X186674Y178553D01*
X185642Y178689D01*
D02*
G37*
G36*
X195642D02*
X194610Y178553D01*
X193649Y178155D01*
X192823Y177521D01*
X192189Y176695D01*
X191791Y175734D01*
X191655Y174702D01*
X191791Y173670D01*
X192189Y172709D01*
X192823Y171883D01*
X193649Y171249D01*
X194610Y170851D01*
X195642Y170715D01*
X196674Y170851D01*
X197635Y171249D01*
X198461Y171883D01*
X199095Y172709D01*
X199493Y173670D01*
X199629Y174702D01*
X199493Y175734D01*
X199095Y176695D01*
X198461Y177521D01*
X197635Y178155D01*
X196674Y178553D01*
X195642Y178689D01*
D02*
G37*
G36*
X294953Y297953D02*
X291500D01*
Y294500D01*
X294953D01*
Y297953D01*
D02*
G37*
G36*
X143595Y368655D02*
X135689D01*
Y360749D01*
X143595D01*
Y368655D01*
D02*
G37*
G36*
X306772Y382425D02*
X301228D01*
Y377669D01*
X306772D01*
Y378518D01*
X319663D01*
X331689Y366492D01*
Y360749D01*
X339595D01*
Y368655D01*
X333852D01*
X321378Y381129D01*
X320882Y381460D01*
X320297Y381577D01*
X306772D01*
Y382425D01*
D02*
G37*
G36*
X445642Y368689D02*
X444610Y368553D01*
X443649Y368155D01*
X442823Y367521D01*
X442189Y366695D01*
X441791Y365734D01*
X441655Y364702D01*
X441791Y363670D01*
X442189Y362709D01*
X442823Y361883D01*
X443649Y361249D01*
X444610Y360851D01*
X445642Y360715D01*
X446674Y360851D01*
X447635Y361249D01*
X448461Y361883D01*
X449095Y362709D01*
X449493Y363670D01*
X449629Y364702D01*
X449493Y365734D01*
X449095Y366695D01*
X448461Y367521D01*
X447635Y368155D01*
X446674Y368553D01*
X445642Y368689D01*
D02*
G37*
G36*
X229642D02*
X228610Y368553D01*
X227649Y368155D01*
X226823Y367521D01*
X226189Y366695D01*
X225791Y365734D01*
X225655Y364702D01*
X225791Y363670D01*
X226189Y362709D01*
X226823Y361883D01*
X227649Y361249D01*
X228610Y360851D01*
X229642Y360715D01*
X230674Y360851D01*
X231635Y361249D01*
X232461Y361883D01*
X233095Y362709D01*
X233493Y363670D01*
X233629Y364702D01*
X233493Y365734D01*
X233095Y366695D01*
X232461Y367521D01*
X231635Y368155D01*
X230674Y368553D01*
X229642Y368689D01*
D02*
G37*
G36*
X366772Y394472D02*
X361228D01*
Y391486D01*
X354561Y384818D01*
X354229Y384322D01*
X354113Y383736D01*
Y368347D01*
X353649Y368155D01*
X352823Y367521D01*
X352189Y366695D01*
X351791Y365734D01*
X351655Y364702D01*
X351791Y363670D01*
X352189Y362709D01*
X352823Y361883D01*
X353649Y361249D01*
X354610Y360851D01*
X355642Y360715D01*
X356674Y360851D01*
X357635Y361249D01*
X358461Y361883D01*
X359095Y362709D01*
X359493Y363670D01*
X359629Y364702D01*
X359493Y365734D01*
X359095Y366695D01*
X358461Y367521D01*
X357635Y368155D01*
X357171Y368347D01*
Y383103D01*
X363785Y389717D01*
X366772D01*
Y394472D01*
D02*
G37*
G36*
X419000Y365980D02*
X415154D01*
Y363315D01*
X419000D01*
Y365980D01*
D02*
G37*
G36*
X482000Y367453D02*
X478547D01*
Y364000D01*
X482000D01*
Y367453D01*
D02*
G37*
G36*
X322953Y365453D02*
X319500D01*
Y362000D01*
X322953D01*
Y365453D01*
D02*
G37*
G36*
X439595Y368655D02*
X431689D01*
Y360749D01*
X439595D01*
Y368655D01*
D02*
G37*
G36*
X318500Y365453D02*
X315047D01*
Y362000D01*
X318500D01*
Y365453D01*
D02*
G37*
G36*
X219642Y368689D02*
X218610Y368553D01*
X217649Y368155D01*
X216823Y367521D01*
X216189Y366695D01*
X215791Y365734D01*
X215655Y364702D01*
X215791Y363670D01*
X216189Y362709D01*
X216823Y361883D01*
X217649Y361249D01*
X218610Y360851D01*
X219642Y360715D01*
X220674Y360851D01*
X221635Y361249D01*
X222461Y361883D01*
X223095Y362709D01*
X223493Y363670D01*
X223629Y364702D01*
X223493Y365734D01*
X223095Y366695D01*
X222461Y367521D01*
X221635Y368155D01*
X220674Y368553D01*
X219642Y368689D01*
D02*
G37*
G36*
X149642D02*
X148610Y368553D01*
X147649Y368155D01*
X146823Y367521D01*
X146189Y366695D01*
X145791Y365734D01*
X145655Y364702D01*
X145791Y363670D01*
X146189Y362709D01*
X146823Y361883D01*
X147649Y361249D01*
X148610Y360851D01*
X149642Y360715D01*
X150674Y360851D01*
X151635Y361249D01*
X152461Y361883D01*
X153095Y362709D01*
X153493Y363670D01*
X153629Y364702D01*
X153493Y365734D01*
X153095Y366695D01*
X152461Y367521D01*
X151635Y368155D01*
X150674Y368553D01*
X149642Y368689D01*
D02*
G37*
G36*
X159642D02*
X158610Y368553D01*
X157649Y368155D01*
X156823Y367521D01*
X156189Y366695D01*
X155791Y365734D01*
X155655Y364702D01*
X155791Y363670D01*
X155983Y363206D01*
X130919Y338141D01*
X130587Y337645D01*
X130471Y337060D01*
Y193500D01*
X130587Y192915D01*
X130919Y192419D01*
X134341Y188996D01*
X134149Y188532D01*
X134013Y187500D01*
X134149Y186468D01*
X134547Y185507D01*
X135181Y184681D01*
X136007Y184047D01*
X136968Y183649D01*
X138000Y183513D01*
X139032Y183649D01*
X139993Y184047D01*
X140819Y184681D01*
X141453Y185507D01*
X141851Y186468D01*
X141987Y187500D01*
X141851Y188532D01*
X141453Y189493D01*
X141275Y189725D01*
X141652Y190056D01*
X147653Y184054D01*
Y178705D01*
X156346D01*
Y185035D01*
X150997D01*
X141051Y194982D01*
X141453Y195507D01*
X141851Y196468D01*
X141987Y197500D01*
X141851Y198532D01*
X141453Y199493D01*
X140819Y200319D01*
X139993Y200953D01*
X139032Y201351D01*
X138000Y201487D01*
X136968Y201351D01*
X136007Y200953D01*
X135181Y200319D01*
X134547Y199493D01*
X134149Y198532D01*
X134074Y197964D01*
X133808Y197836D01*
X133551Y197818D01*
X133529Y197845D01*
Y207155D01*
X133551Y207182D01*
X133808Y207164D01*
X134074Y207036D01*
X134149Y206468D01*
X134547Y205507D01*
X135181Y204681D01*
X136007Y204047D01*
X136968Y203649D01*
X138000Y203513D01*
X139032Y203649D01*
X139993Y204047D01*
X140423Y204377D01*
X140923Y204131D01*
Y202047D01*
X141040Y201462D01*
X141371Y200966D01*
X147653Y194684D01*
Y189335D01*
X156346D01*
Y190715D01*
X193244D01*
X193829Y190831D01*
X194325Y191163D01*
X199759Y196596D01*
X200230Y196360D01*
X200341Y195519D01*
X200719Y194606D01*
X201321Y193821D01*
X202106Y193219D01*
X203019Y192841D01*
X204000Y192712D01*
X204980Y192841D01*
X205894Y193219D01*
X206679Y193821D01*
X207281Y194606D01*
X207432Y194971D01*
X211068D01*
X211219Y194606D01*
X211821Y193821D01*
X212606Y193219D01*
X213520Y192841D01*
X214500Y192712D01*
X215480Y192841D01*
X215845Y192992D01*
X230764Y178073D01*
X231260Y177742D01*
X231845Y177625D01*
X232273D01*
X232519Y177125D01*
X232189Y176695D01*
X231791Y175734D01*
X231655Y174702D01*
X231791Y173670D01*
X232189Y172709D01*
X232823Y171883D01*
X233649Y171249D01*
X234610Y170851D01*
X235642Y170715D01*
X236674Y170851D01*
X237635Y171249D01*
X238461Y171883D01*
X239095Y172709D01*
X239493Y173670D01*
X239564Y174207D01*
X240092Y174387D01*
X240858Y173621D01*
X241354Y173289D01*
X241939Y173173D01*
X241997D01*
X242189Y172709D01*
X242823Y171883D01*
X243649Y171249D01*
X244113Y171057D01*
Y168519D01*
X244229Y167934D01*
X244561Y167438D01*
X249556Y162443D01*
X249382Y162024D01*
X249382D01*
Y155299D01*
X249382D01*
X249556Y154880D01*
X248279Y153603D01*
X247751Y153782D01*
X247659Y154481D01*
X247281Y155394D01*
X246679Y156179D01*
X245894Y156781D01*
X244981Y157159D01*
X244000Y157288D01*
X243020Y157159D01*
X242106Y156781D01*
X241321Y156179D01*
X240719Y155394D01*
X240341Y154481D01*
X240212Y153500D01*
X240341Y152520D01*
X240719Y151606D01*
X241321Y150821D01*
X242106Y150219D01*
X243020Y149841D01*
X243718Y149749D01*
X243897Y149221D01*
X242205Y147529D01*
X164827D01*
X164494Y147963D01*
X163919Y148404D01*
X163250Y148681D01*
X162531Y148776D01*
X159789D01*
Y158461D01*
X160496Y159004D01*
X161057Y159735D01*
X161410Y160586D01*
X161530Y161500D01*
X161410Y162414D01*
X161057Y163265D01*
X160496Y163996D01*
X159765Y164557D01*
X158914Y164910D01*
X158000Y165030D01*
X157086Y164910D01*
X156235Y164557D01*
X155504Y163996D01*
X154943Y163265D01*
X154590Y162414D01*
X154470Y161500D01*
X154590Y160586D01*
X154943Y159735D01*
X155504Y159004D01*
X156235Y158443D01*
X156730Y158238D01*
Y148776D01*
X153988D01*
X153270Y148681D01*
X152600Y148404D01*
X152025Y147963D01*
X151584Y147388D01*
X151307Y146718D01*
X151213Y146000D01*
X151307Y145282D01*
X151584Y144612D01*
X152025Y144037D01*
X152324Y143808D01*
Y143192D01*
X152025Y142963D01*
X151584Y142388D01*
X151307Y141718D01*
X151213Y141000D01*
X151307Y140282D01*
X151584Y139612D01*
X152025Y139037D01*
X152324Y138808D01*
Y138192D01*
X152025Y137963D01*
X151584Y137388D01*
X151307Y136718D01*
X151213Y136000D01*
X151307Y135282D01*
X151584Y134612D01*
X152025Y134037D01*
X152324Y133808D01*
Y133192D01*
X152025Y132963D01*
X151693Y132529D01*
X147311D01*
Y142532D01*
X111689D01*
Y119468D01*
X147311D01*
Y129471D01*
X151693D01*
X152025Y129037D01*
X152324Y128808D01*
Y128192D01*
X152025Y127963D01*
X151584Y127388D01*
X151307Y126718D01*
X151213Y126000D01*
X151307Y125282D01*
X151584Y124612D01*
X152025Y124037D01*
X152324Y123808D01*
Y123192D01*
X152025Y122963D01*
X151584Y122388D01*
X151307Y121718D01*
X151213Y121000D01*
X151307Y120282D01*
X151584Y119612D01*
X152025Y119037D01*
X152324Y118808D01*
Y118192D01*
X152025Y117963D01*
X151584Y117388D01*
X151307Y116718D01*
X151213Y116000D01*
X151307Y115282D01*
X151584Y114612D01*
X152025Y114037D01*
X152600Y113596D01*
X153270Y113319D01*
X153988Y113224D01*
X158873D01*
X159808Y112289D01*
X160304Y111957D01*
X160890Y111841D01*
X172653D01*
Y110205D01*
X181346D01*
Y111841D01*
X186478D01*
X187656Y110663D01*
X188152Y110331D01*
X188737Y110215D01*
X246244D01*
X246829Y110331D01*
X247325Y110663D01*
X249155Y112492D01*
X249519Y112341D01*
X250500Y112212D01*
X251481Y112341D01*
X252394Y112719D01*
X253179Y113321D01*
X253781Y114106D01*
X253932Y114471D01*
X292000D01*
X292585Y114587D01*
X293081Y114919D01*
X301710Y123547D01*
X307453D01*
Y131453D01*
X305029D01*
Y160547D01*
X304913Y161132D01*
X304581Y161628D01*
X295957Y170252D01*
X296137Y170780D01*
X296674Y170851D01*
X297138Y171043D01*
X337518Y130663D01*
Y129436D01*
X337018Y129336D01*
X336953Y129493D01*
X336319Y130319D01*
X335493Y130953D01*
X334532Y131351D01*
X333500Y131487D01*
X332468Y131351D01*
X331507Y130953D01*
X330681Y130319D01*
X330047Y129493D01*
X329649Y128532D01*
X329513Y127500D01*
X329649Y126468D01*
X330047Y125507D01*
X330681Y124681D01*
X331507Y124047D01*
X332468Y123649D01*
X333500Y123513D01*
X334532Y123649D01*
X335493Y124047D01*
X336319Y124681D01*
X336953Y125507D01*
X337046Y125526D01*
X337618Y125152D01*
X337634Y125070D01*
X337966Y124574D01*
X353968Y108572D01*
X354464Y108241D01*
X355049Y108124D01*
X496287D01*
X496872Y108241D01*
X497368Y108572D01*
X500503Y111707D01*
X500965Y111515D01*
Y110153D01*
X507295D01*
Y112971D01*
X510914D01*
X511728Y112156D01*
Y109169D01*
X517272D01*
Y113925D01*
X514285D01*
X513597Y114613D01*
X513789Y115075D01*
X517272D01*
Y118061D01*
X526083Y126873D01*
X526507Y126547D01*
X527468Y126149D01*
X528500Y126013D01*
X529532Y126149D01*
X530493Y126547D01*
X531319Y127181D01*
X531953Y128007D01*
X532351Y128968D01*
X532487Y130000D01*
X532351Y131032D01*
X531953Y131993D01*
X531319Y132819D01*
X530493Y133453D01*
X529532Y133851D01*
X528500Y133987D01*
X527468Y133851D01*
X526507Y133453D01*
X525681Y132819D01*
X525047Y131993D01*
X524649Y131032D01*
X524513Y130000D01*
X524556Y129672D01*
X514715Y119831D01*
X514285D01*
X511034Y123081D01*
X510772Y123257D01*
Y124378D01*
X505228D01*
Y119622D01*
X510168D01*
X511728Y118061D01*
Y116178D01*
X511547Y116029D01*
X507295D01*
Y118846D01*
X500965D01*
Y115996D01*
X500548Y115913D01*
X500052Y115581D01*
X497127Y112657D01*
X496665Y112848D01*
Y118846D01*
X493316D01*
X486249Y125914D01*
X486440Y126376D01*
X505228D01*
Y125528D01*
X510772D01*
Y130283D01*
X507785D01*
X504892Y133176D01*
X504396Y133508D01*
X503885Y133609D01*
X503643Y134030D01*
X503630Y134061D01*
X505896Y136328D01*
X506228Y136824D01*
X506344Y137409D01*
Y151654D01*
X507980D01*
Y160346D01*
X502631D01*
X489896Y173081D01*
X489400Y173413D01*
X488815Y173529D01*
X487665D01*
Y176347D01*
X486029D01*
Y180169D01*
X487272D01*
Y184925D01*
X481728D01*
Y180169D01*
X482971D01*
Y176347D01*
X481335D01*
Y167654D01*
X485868D01*
X485967Y167154D01*
X485735Y167057D01*
X485004Y166496D01*
X484443Y165765D01*
X484090Y164914D01*
X483970Y164000D01*
X484090Y163086D01*
X484443Y162235D01*
X485004Y161504D01*
X485735Y160943D01*
X486586Y160590D01*
X487500Y160470D01*
X487546Y160476D01*
X491020Y157002D01*
Y151654D01*
X494589D01*
X496728Y149514D01*
Y146528D01*
X502272D01*
Y151154D01*
X502272Y151284D01*
X502585Y151654D01*
X503286D01*
Y138043D01*
X502734Y137491D01*
X502272Y137682D01*
Y140378D01*
X502272D01*
Y140622D01*
X502272D01*
Y145378D01*
X496728D01*
Y141529D01*
X483645D01*
X483453Y141993D01*
X482819Y142819D01*
X481993Y143453D01*
X481032Y143851D01*
X480000Y143987D01*
X478968Y143851D01*
X478007Y143453D01*
X477181Y142819D01*
X476547Y141993D01*
X476149Y141032D01*
X476013Y140000D01*
X476149Y138968D01*
X476547Y138007D01*
X477181Y137181D01*
X478007Y136547D01*
X478968Y136149D01*
X480000Y136013D01*
X481032Y136149D01*
X481993Y136547D01*
X482819Y137181D01*
X483453Y138007D01*
X483645Y138471D01*
X496728D01*
Y135622D01*
X500211D01*
X500403Y135160D01*
X499715Y134472D01*
X496728D01*
Y129717D01*
X496345Y129435D01*
X484292D01*
X483962Y129811D01*
X483987Y130000D01*
X483851Y131032D01*
X483453Y131993D01*
X482819Y132819D01*
X481993Y133453D01*
X481032Y133851D01*
X480000Y133987D01*
X478968Y133851D01*
X478007Y133453D01*
X477181Y132819D01*
X476547Y131993D01*
X476149Y131032D01*
X476013Y130000D01*
X476149Y128968D01*
X476547Y128007D01*
X477181Y127181D01*
X478007Y126547D01*
X478968Y126149D01*
X480000Y126013D01*
X481032Y126149D01*
X481496Y126341D01*
X483422Y124415D01*
X483231Y123953D01*
X480500D01*
Y120500D01*
X483953D01*
Y123231D01*
X484415Y123422D01*
X490335Y117502D01*
Y111183D01*
X355683D01*
X343815Y123050D01*
X343995Y123578D01*
X344532Y123649D01*
X345493Y124047D01*
X346319Y124681D01*
X346953Y125507D01*
X347351Y126468D01*
X347487Y127500D01*
X347351Y128532D01*
X346953Y129493D01*
X346319Y130319D01*
X345493Y130953D01*
X344532Y131351D01*
X343500Y131487D01*
X342468Y131351D01*
X341507Y130953D01*
X341077Y130623D01*
X340577Y130869D01*
Y131297D01*
X340460Y131882D01*
X340129Y132378D01*
X299301Y173206D01*
X299493Y173670D01*
X299629Y174702D01*
X299493Y175734D01*
X299095Y176695D01*
X298461Y177521D01*
X297635Y178155D01*
X296674Y178553D01*
X295642Y178689D01*
X295271Y178640D01*
X295037Y179113D01*
X309926Y194002D01*
X361906D01*
X362491Y194118D01*
X362987Y194450D01*
X369086Y200549D01*
X376132D01*
X376530Y199589D01*
X377321Y198558D01*
X378353Y197766D01*
X379554Y197269D01*
X380842Y197099D01*
X382131Y197269D01*
X383332Y197766D01*
X384364Y198558D01*
X385155Y199589D01*
X385652Y200790D01*
X385822Y202079D01*
X385652Y203368D01*
X385155Y204569D01*
X384364Y205600D01*
X383332Y206391D01*
X382131Y206889D01*
X380842Y207058D01*
X379554Y206889D01*
X378353Y206391D01*
X377321Y205600D01*
X376530Y204569D01*
X376132Y203608D01*
X368453D01*
X367868Y203492D01*
X367371Y203160D01*
X366197Y201985D01*
X365725Y202221D01*
X365574Y203368D01*
X365076Y204569D01*
X364285Y205600D01*
X363254Y206391D01*
X362053Y206889D01*
X360764Y207058D01*
X359475Y206889D01*
X358274Y206391D01*
X357243Y205600D01*
X356451Y204569D01*
X355954Y203368D01*
X355784Y202079D01*
X355954Y200790D01*
X356451Y199589D01*
X357243Y198558D01*
X358274Y197766D01*
X358770Y197561D01*
X358670Y197061D01*
X332936D01*
X332837Y197561D01*
X333332Y197766D01*
X334364Y198558D01*
X335155Y199589D01*
X335652Y200790D01*
X335822Y202079D01*
X335652Y203368D01*
X335155Y204569D01*
X334364Y205600D01*
X333332Y206391D01*
X332131Y206889D01*
X330842Y207058D01*
X329554Y206889D01*
X328353Y206391D01*
X327321Y205600D01*
X326530Y204569D01*
X326033Y203368D01*
X325863Y202079D01*
X326033Y200790D01*
X326530Y199589D01*
X327321Y198558D01*
X328353Y197766D01*
X328849Y197561D01*
X328749Y197061D01*
X311280D01*
X311251Y197118D01*
X311086Y197561D01*
X311361Y198225D01*
X311463Y199000D01*
X311361Y199775D01*
X311062Y200497D01*
X310586Y201117D01*
X310413Y201250D01*
Y201750D01*
X310586Y201883D01*
X311062Y202503D01*
X311361Y203225D01*
X311463Y204000D01*
X311361Y204775D01*
X311062Y205497D01*
X310586Y206117D01*
X310413Y206250D01*
Y206750D01*
X310586Y206883D01*
X311062Y207503D01*
X311361Y208225D01*
X311397Y208500D01*
X301603D01*
X301639Y208225D01*
X301915Y207561D01*
X301749Y207118D01*
X301720Y207061D01*
X296714D01*
X296659Y207481D01*
X296281Y208394D01*
X295679Y209179D01*
X294894Y209781D01*
X293981Y210159D01*
X293000Y210288D01*
X292020Y210159D01*
X291106Y209781D01*
X290321Y209179D01*
X289719Y208394D01*
X289341Y207481D01*
X289212Y206500D01*
X289341Y205520D01*
X289719Y204606D01*
X290321Y203821D01*
X291106Y203219D01*
X292020Y202841D01*
X293000Y202712D01*
X293981Y202841D01*
X294894Y203219D01*
X295679Y203821D01*
X295817Y204002D01*
X301536D01*
X301537Y204000D01*
X301639Y203225D01*
X301939Y202503D01*
X302414Y201883D01*
X302588Y201750D01*
Y201250D01*
X302414Y201117D01*
X301939Y200497D01*
X301639Y199775D01*
X301537Y199000D01*
X301639Y198225D01*
X301939Y197503D01*
X302330Y196993D01*
X300867Y195529D01*
X294831D01*
Y196772D01*
X290075D01*
Y191228D01*
X294831D01*
Y192471D01*
X301500D01*
X302085Y192587D01*
X302581Y192919D01*
X305669Y196006D01*
X306950D01*
X307142Y195544D01*
X290108Y178510D01*
X289776Y178014D01*
X289660Y177429D01*
Y176638D01*
X289160Y176538D01*
X289095Y176695D01*
X288461Y177521D01*
X287635Y178155D01*
X286674Y178553D01*
X285642Y178689D01*
X284610Y178553D01*
X283649Y178155D01*
X282823Y177521D01*
X282189Y176695D01*
X281791Y175734D01*
X281655Y174702D01*
X281791Y173670D01*
X281983Y173206D01*
X279307Y170529D01*
X277204D01*
X277105Y171029D01*
X277635Y171249D01*
X278461Y171883D01*
X279095Y172709D01*
X279493Y173670D01*
X279629Y174702D01*
X279493Y175734D01*
X279095Y176695D01*
X278461Y177521D01*
X277635Y178155D01*
X276674Y178553D01*
X275642Y178689D01*
X274610Y178553D01*
X273649Y178155D01*
X272823Y177521D01*
X272189Y176695D01*
X271791Y175734D01*
X271655Y174702D01*
X271791Y173670D01*
X272189Y172709D01*
X272823Y171883D01*
X273649Y171249D01*
X274179Y171029D01*
X274080Y170529D01*
X270004D01*
X269595Y170749D01*
Y178655D01*
X261689D01*
Y173127D01*
X261227Y172936D01*
X253927Y180236D01*
X253431Y180568D01*
X252845Y180684D01*
X240948D01*
X219051Y202581D01*
X218555Y202913D01*
X217970Y203029D01*
X202500D01*
X201915Y202913D01*
X201419Y202581D01*
X192611Y193773D01*
X167272D01*
X167026Y194273D01*
X167281Y194606D01*
X167659Y195519D01*
X167788Y196500D01*
X167659Y197480D01*
X167508Y197845D01*
X192581Y222919D01*
X192913Y223415D01*
X193029Y224000D01*
Y224547D01*
X195453D01*
Y232453D01*
X187547D01*
Y224547D01*
X189231D01*
X189422Y224085D01*
X165345Y200008D01*
X164980Y200159D01*
X164000Y200288D01*
X163020Y200159D01*
X162106Y199781D01*
X161321Y199179D01*
X160719Y198394D01*
X160341Y197480D01*
X160212Y196500D01*
X160341Y195519D01*
X160719Y194606D01*
X160974Y194273D01*
X160728Y193773D01*
X156346D01*
Y195665D01*
X150997D01*
X143982Y202681D01*
Y209344D01*
X143866Y209930D01*
X143534Y210426D01*
X140304Y213656D01*
X140348Y214319D01*
X140819Y214681D01*
X141453Y215507D01*
X141851Y216468D01*
X141987Y217500D01*
X141851Y218532D01*
X141453Y219493D01*
X140819Y220319D01*
X139993Y220953D01*
X139032Y221351D01*
X138000Y221487D01*
X136968Y221351D01*
X136007Y220953D01*
X135181Y220319D01*
X134547Y219493D01*
X134149Y218532D01*
X134074Y217964D01*
X133808Y217836D01*
X133551Y217818D01*
X133529Y217845D01*
Y227344D01*
X134029Y227377D01*
X134060Y227146D01*
X134149Y226468D01*
X134547Y225507D01*
X135181Y224681D01*
X136007Y224047D01*
X136968Y223649D01*
X138000Y223513D01*
X139032Y223649D01*
X139993Y224047D01*
X140444Y224393D01*
X148153Y216684D01*
Y211335D01*
X156846D01*
Y217665D01*
X151497D01*
X141949Y227214D01*
X141987Y227500D01*
X141851Y228532D01*
X141453Y229493D01*
X140819Y230319D01*
X139993Y230953D01*
X139032Y231351D01*
X138000Y231487D01*
X136968Y231351D01*
X136007Y230953D01*
X135181Y230319D01*
X134547Y229493D01*
X134149Y228532D01*
X134060Y227854D01*
X134029Y227624D01*
X133529Y227656D01*
Y237344D01*
X134029Y237376D01*
X134060Y237146D01*
X134149Y236468D01*
X134547Y235507D01*
X135181Y234681D01*
X136007Y234047D01*
X136968Y233649D01*
X138000Y233513D01*
X139032Y233649D01*
X139993Y234047D01*
X140819Y234681D01*
X141453Y235507D01*
X141645Y235971D01*
X148870D01*
X149455Y236087D01*
X149952Y236419D01*
X150997Y237465D01*
X156346D01*
Y243795D01*
X147653D01*
Y239029D01*
X141645D01*
X141453Y239493D01*
X140819Y240319D01*
X139993Y240953D01*
X139032Y241351D01*
X138000Y241487D01*
X136968Y241351D01*
X136007Y240953D01*
X135181Y240319D01*
X134547Y239493D01*
X134149Y238532D01*
X134060Y237854D01*
X134029Y237624D01*
X133529Y237656D01*
Y336426D01*
X158146Y361043D01*
X158610Y360851D01*
X159642Y360715D01*
X160674Y360851D01*
X161635Y361249D01*
X162461Y361883D01*
X163095Y362709D01*
X163493Y363670D01*
X163629Y364702D01*
X163493Y365734D01*
X163095Y366695D01*
X162461Y367521D01*
X161635Y368155D01*
X160674Y368553D01*
X159642Y368689D01*
D02*
G37*
G36*
X419000Y362315D02*
X415154D01*
Y359650D01*
X419000D01*
Y362315D01*
D02*
G37*
G36*
X482000Y363000D02*
X478547D01*
Y359547D01*
X482000D01*
Y363000D01*
D02*
G37*
G36*
X486453D02*
X483000D01*
Y359547D01*
X486453D01*
Y363000D01*
D02*
G37*
G36*
X199642Y368689D02*
X198610Y368553D01*
X197649Y368155D01*
X196823Y367521D01*
X196189Y366695D01*
X195791Y365734D01*
X195655Y364702D01*
X195791Y363670D01*
X196189Y362709D01*
X196823Y361883D01*
X197649Y361249D01*
X198610Y360851D01*
X199642Y360715D01*
X200674Y360851D01*
X201635Y361249D01*
X202461Y361883D01*
X203095Y362709D01*
X203493Y363670D01*
X203629Y364702D01*
X203493Y365734D01*
X203095Y366695D01*
X202461Y367521D01*
X201635Y368155D01*
X200674Y368553D01*
X199642Y368689D01*
D02*
G37*
G36*
X209642D02*
X208610Y368553D01*
X207649Y368155D01*
X206823Y367521D01*
X206189Y366695D01*
X205791Y365734D01*
X205655Y364702D01*
X205791Y363670D01*
X206189Y362709D01*
X206823Y361883D01*
X207649Y361249D01*
X208610Y360851D01*
X209642Y360715D01*
X210674Y360851D01*
X211635Y361249D01*
X212461Y361883D01*
X213095Y362709D01*
X213493Y363670D01*
X213629Y364702D01*
X213493Y365734D01*
X213095Y366695D01*
X212461Y367521D01*
X211635Y368155D01*
X210674Y368553D01*
X209642Y368689D01*
D02*
G37*
G36*
X189642D02*
X188610Y368553D01*
X187649Y368155D01*
X186823Y367521D01*
X186189Y366695D01*
X185791Y365734D01*
X185655Y364702D01*
X185791Y363670D01*
X186189Y362709D01*
X186823Y361883D01*
X187649Y361249D01*
X188610Y360851D01*
X189642Y360715D01*
X190674Y360851D01*
X191635Y361249D01*
X192461Y361883D01*
X193095Y362709D01*
X193493Y363670D01*
X193629Y364702D01*
X193493Y365734D01*
X193095Y366695D01*
X192461Y367521D01*
X191635Y368155D01*
X190674Y368553D01*
X189642Y368689D01*
D02*
G37*
G36*
X169642D02*
X168610Y368553D01*
X167649Y368155D01*
X166823Y367521D01*
X166189Y366695D01*
X165791Y365734D01*
X165655Y364702D01*
X165791Y363670D01*
X166189Y362709D01*
X166823Y361883D01*
X167649Y361249D01*
X168610Y360851D01*
X169642Y360715D01*
X170674Y360851D01*
X171635Y361249D01*
X172461Y361883D01*
X173095Y362709D01*
X173493Y363670D01*
X173629Y364702D01*
X173493Y365734D01*
X173095Y366695D01*
X172461Y367521D01*
X171635Y368155D01*
X170674Y368553D01*
X169642Y368689D01*
D02*
G37*
G36*
X179642D02*
X178610Y368553D01*
X177649Y368155D01*
X176823Y367521D01*
X176189Y366695D01*
X175791Y365734D01*
X175655Y364702D01*
X175791Y363670D01*
X176189Y362709D01*
X176823Y361883D01*
X177649Y361249D01*
X178610Y360851D01*
X179642Y360715D01*
X180674Y360851D01*
X181635Y361249D01*
X182461Y361883D01*
X183095Y362709D01*
X183493Y363670D01*
X183629Y364702D01*
X183493Y365734D01*
X183095Y366695D01*
X182461Y367521D01*
X181635Y368155D01*
X180674Y368553D01*
X179642Y368689D01*
D02*
G37*
G36*
X486453Y367453D02*
X483000D01*
Y364000D01*
X486453D01*
Y367453D01*
D02*
G37*
G36*
X380000Y390453D02*
X376547D01*
Y387000D01*
X380000D01*
Y390453D01*
D02*
G37*
G36*
X306772Y404878D02*
X301228D01*
Y400122D01*
X306772D01*
Y400122D01*
X307085Y400252D01*
X314419Y392919D01*
X314436Y392907D01*
X314547Y392453D01*
X314547Y392453D01*
Y389000D01*
X318500D01*
Y388000D01*
X314547D01*
Y387219D01*
X314423Y387167D01*
X314047Y387071D01*
X313606Y387366D01*
X313020Y387482D01*
X306772D01*
Y388331D01*
X305529D01*
Y394216D01*
X306772D01*
Y398972D01*
X301228D01*
Y394216D01*
X302471D01*
Y388331D01*
X301228D01*
Y383575D01*
X306772D01*
Y384423D01*
X312387D01*
X313844Y382966D01*
X314341Y382634D01*
X314926Y382518D01*
X324047D01*
X324633Y382634D01*
X325129Y382966D01*
X327004Y384841D01*
X327468Y384649D01*
X328500Y384513D01*
X329532Y384649D01*
X330493Y385047D01*
X331319Y385681D01*
X331953Y386507D01*
X332351Y387468D01*
X332487Y388500D01*
X332351Y389532D01*
X331953Y390493D01*
X331319Y391319D01*
X330493Y391953D01*
X330450Y391971D01*
X330550Y392471D01*
X336450D01*
X336550Y391971D01*
X336507Y391953D01*
X335681Y391319D01*
X335047Y390493D01*
X334649Y389532D01*
X334513Y388500D01*
X334649Y387468D01*
X335047Y386507D01*
X335681Y385681D01*
X336507Y385047D01*
X337468Y384649D01*
X338500Y384513D01*
X339532Y384649D01*
X339996Y384841D01*
X344113Y380725D01*
Y368347D01*
X343649Y368155D01*
X342823Y367521D01*
X342189Y366695D01*
X341791Y365734D01*
X341655Y364702D01*
X341791Y363670D01*
X342189Y362709D01*
X342823Y361883D01*
X343649Y361249D01*
X344610Y360851D01*
X345642Y360715D01*
X346674Y360851D01*
X347635Y361249D01*
X348461Y361883D01*
X349095Y362709D01*
X349493Y363670D01*
X349629Y364702D01*
X349493Y365734D01*
X349095Y366695D01*
X348461Y367521D01*
X347635Y368155D01*
X347171Y368347D01*
Y381358D01*
X347055Y381943D01*
X346723Y382439D01*
X342159Y387004D01*
X342351Y387468D01*
X342487Y388500D01*
X342351Y389532D01*
X341953Y390493D01*
X341319Y391319D01*
X340493Y391953D01*
X340450Y391971D01*
X340550Y392471D01*
X342367D01*
X344841Y389996D01*
X344649Y389532D01*
X344513Y388500D01*
X344649Y387468D01*
X345047Y386507D01*
X345681Y385681D01*
X346507Y385047D01*
X347468Y384649D01*
X348500Y384513D01*
X349532Y384649D01*
X350493Y385047D01*
X351319Y385681D01*
X351953Y386507D01*
X352351Y387468D01*
X352487Y388500D01*
X352351Y389532D01*
X351953Y390493D01*
X351319Y391319D01*
X350493Y391953D01*
X349532Y392351D01*
X348500Y392487D01*
X347468Y392351D01*
X347004Y392159D01*
X344081Y395081D01*
X343585Y395413D01*
X343000Y395529D01*
X316133D01*
X308081Y403581D01*
X307585Y403913D01*
X307000Y404029D01*
X306772D01*
Y404878D01*
D02*
G37*
G36*
X462000Y389223D02*
Y386000D01*
X465223D01*
X465159Y386480D01*
X464781Y387394D01*
X464179Y388179D01*
X463394Y388781D01*
X462480Y389159D01*
X462000Y389223D01*
D02*
G37*
G36*
X461000D02*
X460520Y389159D01*
X459606Y388781D01*
X458821Y388179D01*
X458219Y387394D01*
X457841Y386480D01*
X457778Y386000D01*
X461000D01*
Y389223D01*
D02*
G37*
G36*
X212500D02*
Y386000D01*
X215722D01*
X215659Y386480D01*
X215281Y387394D01*
X214679Y388179D01*
X213894Y388781D01*
X212981Y389159D01*
X212500Y389223D01*
D02*
G37*
G36*
X212000Y402788D02*
X211019Y402659D01*
X210106Y402281D01*
X209321Y401679D01*
X208719Y400894D01*
X208341Y399980D01*
X208212Y399000D01*
X208341Y398020D01*
X208719Y397106D01*
X209321Y396321D01*
X210106Y395719D01*
X211019Y395341D01*
X212000Y395212D01*
X212981Y395341D01*
X213894Y395719D01*
X214679Y396321D01*
X215281Y397106D01*
X215659Y398020D01*
X215788Y399000D01*
X215659Y399980D01*
X215281Y400894D01*
X214679Y401679D01*
X213894Y402281D01*
X212981Y402659D01*
X212000Y402788D01*
D02*
G37*
G36*
X421783Y403772D02*
X417028D01*
Y400785D01*
X416340Y400097D01*
X415878Y400289D01*
Y403772D01*
X411122D01*
Y402529D01*
X405000D01*
X404415Y402413D01*
X403919Y402081D01*
X391996Y390159D01*
X391532Y390351D01*
X390500Y390487D01*
X389468Y390351D01*
X389004Y390159D01*
X380081Y399081D01*
X379585Y399413D01*
X379000Y399529D01*
X366772D01*
Y400378D01*
X361228D01*
Y395622D01*
X366772D01*
Y396471D01*
X378366D01*
X383922Y390915D01*
X383731Y390453D01*
X381000D01*
Y387000D01*
X384453D01*
Y389731D01*
X384915Y389922D01*
X386841Y387996D01*
X386649Y387532D01*
X386513Y386500D01*
X386649Y385468D01*
X387047Y384507D01*
X387681Y383681D01*
X388507Y383047D01*
X389468Y382649D01*
X390500Y382513D01*
X391532Y382649D01*
X392493Y383047D01*
X393319Y383681D01*
X393953Y384507D01*
X394351Y385468D01*
X394487Y386500D01*
X394351Y387532D01*
X394159Y387996D01*
X405633Y399471D01*
X411122D01*
Y398228D01*
X413818D01*
X414009Y397766D01*
X409419Y393176D01*
X409087Y392680D01*
X408971Y392094D01*
Y390145D01*
X408507Y389953D01*
X407681Y389319D01*
X407047Y388493D01*
X406649Y387532D01*
X406513Y386500D01*
X406649Y385468D01*
X407047Y384507D01*
X407681Y383681D01*
X408507Y383047D01*
X409468Y382649D01*
X410500Y382513D01*
X411532Y382649D01*
X411996Y382841D01*
X422817Y372020D01*
Y365980D01*
X420000D01*
Y362815D01*
Y359650D01*
X421152D01*
X421343Y359188D01*
X418419Y356263D01*
X418087Y355767D01*
X418004Y355350D01*
X415154D01*
Y351710D01*
X414692Y351518D01*
X405957Y360252D01*
X406137Y360780D01*
X406674Y360851D01*
X407635Y361249D01*
X408461Y361883D01*
X409095Y362709D01*
X409493Y363670D01*
X409629Y364702D01*
X409493Y365734D01*
X409095Y366695D01*
X408461Y367521D01*
X407635Y368155D01*
X406674Y368553D01*
X405642Y368689D01*
X404610Y368553D01*
X403649Y368155D01*
X402823Y367521D01*
X402189Y366695D01*
X401791Y365734D01*
X401655Y364702D01*
X401727Y364155D01*
X401398Y363779D01*
X399886D01*
X399557Y364155D01*
X399629Y364702D01*
X399493Y365734D01*
X399095Y366695D01*
X398461Y367521D01*
X397635Y368155D01*
X396674Y368553D01*
X395642Y368689D01*
X394610Y368553D01*
X393649Y368155D01*
X392823Y367521D01*
X392189Y366695D01*
X391791Y365734D01*
X391655Y364702D01*
X391791Y363670D01*
X392189Y362709D01*
X392519Y362279D01*
X392273Y361779D01*
X389011D01*
X388765Y362279D01*
X389095Y362709D01*
X389493Y363670D01*
X389629Y364702D01*
X389493Y365734D01*
X389095Y366695D01*
X388461Y367521D01*
X387635Y368155D01*
X386674Y368553D01*
X385642Y368689D01*
X385503Y368671D01*
X385282Y369119D01*
X399004Y382841D01*
X399468Y382649D01*
X400500Y382513D01*
X401532Y382649D01*
X402493Y383047D01*
X403319Y383681D01*
X403953Y384507D01*
X404351Y385468D01*
X404487Y386500D01*
X404351Y387532D01*
X403953Y388493D01*
X403319Y389319D01*
X402493Y389953D01*
X401532Y390351D01*
X400500Y390487D01*
X399468Y390351D01*
X398507Y389953D01*
X397681Y389319D01*
X397047Y388493D01*
X396649Y387532D01*
X396513Y386500D01*
X396649Y385468D01*
X396841Y385004D01*
X382521Y370684D01*
X373798D01*
X373212Y370568D01*
X372716Y370236D01*
X369486Y367006D01*
X368823Y367050D01*
X368461Y367521D01*
X367635Y368155D01*
X366674Y368553D01*
X365642Y368689D01*
X364610Y368553D01*
X363649Y368155D01*
X362823Y367521D01*
X362189Y366695D01*
X361791Y365734D01*
X361655Y364702D01*
X361791Y363670D01*
X362189Y362709D01*
X362823Y361883D01*
X363649Y361249D01*
X364610Y360851D01*
X365642Y360715D01*
X366674Y360851D01*
X367635Y361249D01*
X368461Y361883D01*
X369095Y362709D01*
X369287Y363173D01*
X369345D01*
X369930Y363289D01*
X370426Y363621D01*
X371192Y364387D01*
X371720Y364207D01*
X371791Y363670D01*
X372189Y362709D01*
X372823Y361883D01*
X373649Y361249D01*
X374610Y360851D01*
X375642Y360715D01*
X376674Y360851D01*
X377635Y361249D01*
X378461Y361883D01*
X378823Y362354D01*
X379486Y362398D01*
X382716Y359168D01*
X383212Y358836D01*
X383798Y358720D01*
X400336D01*
X413617Y345438D01*
X414114Y345107D01*
X414699Y344990D01*
X417347D01*
X418575Y343762D01*
X418384Y343300D01*
X416500D01*
Y342000D01*
X419375D01*
Y342309D01*
X419837Y342500D01*
X423267Y339070D01*
Y325634D01*
X419837Y322203D01*
X419375Y322395D01*
Y323300D01*
X412625D01*
Y319700D01*
X416680D01*
X416872Y319238D01*
X415933Y318300D01*
X412625D01*
Y315729D01*
X412525D01*
X411940Y315613D01*
X411444Y315281D01*
X375982Y279820D01*
X375558Y280103D01*
X375810Y280711D01*
X375980Y282000D01*
X375810Y283289D01*
X375312Y284490D01*
X374521Y285521D01*
X373490Y286313D01*
X372289Y286810D01*
X371000Y286980D01*
X369711Y286810D01*
X368510Y286313D01*
X367479Y285521D01*
X366687Y284490D01*
X366190Y283289D01*
X366032Y282089D01*
X365789Y281912D01*
X365540Y281817D01*
X365396Y281913D01*
X364811Y282029D01*
X350155D01*
X350057Y282265D01*
X349496Y282996D01*
X348765Y283557D01*
X347914Y283910D01*
X347000Y284030D01*
X346086Y283910D01*
X345235Y283557D01*
X344504Y282996D01*
X343943Y282265D01*
X343590Y281414D01*
X343470Y280500D01*
X343590Y279586D01*
X343943Y278735D01*
X344504Y278004D01*
X345235Y277443D01*
X346086Y277090D01*
X347000Y276970D01*
X347914Y277090D01*
X348765Y277443D01*
X349496Y278004D01*
X350057Y278735D01*
X350155Y278971D01*
X364177D01*
X367619Y275529D01*
X367592Y275330D01*
X367443Y275029D01*
X267634D01*
X244581Y298081D01*
X244085Y298413D01*
X243500Y298529D01*
X193145D01*
X192953Y298993D01*
X192319Y299819D01*
X191493Y300453D01*
X190532Y300851D01*
X189500Y300987D01*
X188468Y300851D01*
X187507Y300453D01*
X186681Y299819D01*
X186047Y298993D01*
X185649Y298032D01*
X185513Y297000D01*
X185649Y295968D01*
X186047Y295007D01*
X186681Y294181D01*
X187507Y293547D01*
X188468Y293149D01*
X189500Y293013D01*
X190532Y293149D01*
X191493Y293547D01*
X192319Y294181D01*
X192953Y295007D01*
X193145Y295471D01*
X242866D01*
X249346Y288991D01*
X249154Y288529D01*
X193145D01*
X192953Y288993D01*
X192319Y289819D01*
X191493Y290453D01*
X190532Y290851D01*
X189500Y290987D01*
X188468Y290851D01*
X187507Y290453D01*
X186681Y289819D01*
X186047Y288993D01*
X185649Y288032D01*
X185513Y287000D01*
X185649Y285968D01*
X186047Y285007D01*
X186681Y284181D01*
X187507Y283547D01*
X188468Y283149D01*
X189500Y283013D01*
X190532Y283149D01*
X191493Y283547D01*
X192319Y284181D01*
X192953Y285007D01*
X193145Y285471D01*
X250038D01*
X256517Y278991D01*
X256326Y278529D01*
X193145D01*
X192953Y278993D01*
X192319Y279819D01*
X191493Y280453D01*
X190532Y280851D01*
X189500Y280987D01*
X188468Y280851D01*
X187507Y280453D01*
X186681Y279819D01*
X186047Y278993D01*
X185649Y278032D01*
X185513Y277000D01*
X185649Y275968D01*
X186047Y275007D01*
X186681Y274181D01*
X187507Y273547D01*
X188468Y273149D01*
X189500Y273013D01*
X190532Y273149D01*
X191493Y273547D01*
X192319Y274181D01*
X192953Y275007D01*
X193145Y275471D01*
X257210D01*
X264262Y268419D01*
X264758Y268087D01*
X265343Y267971D01*
X361866D01*
X430669Y199168D01*
X431166Y198836D01*
X431751Y198720D01*
X433706D01*
X433806Y198220D01*
X433649Y198155D01*
X432823Y197521D01*
X432189Y196695D01*
X431791Y195734D01*
X431655Y194702D01*
X431791Y193670D01*
X432189Y192709D01*
X432823Y191883D01*
X433649Y191249D01*
X434610Y190851D01*
X435642Y190715D01*
X436674Y190851D01*
X437635Y191249D01*
X438461Y191883D01*
X439095Y192709D01*
X439493Y193670D01*
X439629Y194702D01*
X439493Y195734D01*
X439095Y196695D01*
X438461Y197521D01*
X437635Y198155D01*
X437616Y198248D01*
X437990Y198820D01*
X438072Y198836D01*
X438568Y199168D01*
X441798Y202398D01*
X442461Y202354D01*
X442823Y201883D01*
X443649Y201249D01*
X444610Y200851D01*
X445642Y200715D01*
X446674Y200851D01*
X447635Y201249D01*
X448461Y201883D01*
X449095Y202709D01*
X449493Y203670D01*
X449629Y204702D01*
X449493Y205734D01*
X449095Y206695D01*
X448461Y207521D01*
X447635Y208155D01*
X446674Y208553D01*
X445642Y208689D01*
X444610Y208553D01*
X443649Y208155D01*
X442823Y207521D01*
X442189Y206695D01*
X441997Y206231D01*
X441939D01*
X441354Y206115D01*
X440858Y205783D01*
X440092Y205017D01*
X439564Y205197D01*
X439493Y205734D01*
X439095Y206695D01*
X438461Y207521D01*
X437635Y208155D01*
X437478Y208220D01*
X437578Y208720D01*
X441189D01*
X441775Y208836D01*
X442271Y209168D01*
X444146Y211043D01*
X444610Y210851D01*
X445642Y210715D01*
X446674Y210851D01*
X447635Y211249D01*
X448461Y211883D01*
X449095Y212709D01*
X449493Y213670D01*
X449629Y214702D01*
X449493Y215734D01*
X449095Y216695D01*
X448461Y217521D01*
X447635Y218155D01*
X446674Y218553D01*
X445642Y218689D01*
X444610Y218553D01*
X443649Y218155D01*
X442823Y217521D01*
X442189Y216695D01*
X441791Y215734D01*
X441655Y214702D01*
X441791Y213670D01*
X441983Y213206D01*
X440556Y211779D01*
X439011D01*
X438765Y212279D01*
X439095Y212709D01*
X439493Y213670D01*
X439629Y214702D01*
X439493Y215734D01*
X439095Y216695D01*
X438461Y217521D01*
X437635Y218155D01*
X436674Y218553D01*
X435642Y218689D01*
X434610Y218553D01*
X434146Y218361D01*
X377925Y274581D01*
X377429Y274913D01*
X376844Y275029D01*
X376193D01*
X376044Y275330D01*
X376017Y275529D01*
X412163Y311675D01*
X412625Y311484D01*
Y309700D01*
X419375D01*
Y312746D01*
X419582Y312787D01*
X420078Y313119D01*
X420956Y313997D01*
X421288Y314493D01*
X421404Y315079D01*
Y316617D01*
X427878Y323090D01*
X428209Y323586D01*
X428326Y324172D01*
Y340532D01*
X428209Y341117D01*
X427878Y341614D01*
X420934Y348558D01*
X421125Y349020D01*
X423846D01*
Y355350D01*
X422485D01*
X422293Y355812D01*
X425428Y358947D01*
X425759Y359443D01*
X425876Y360028D01*
Y372654D01*
X425759Y373239D01*
X425428Y373735D01*
X414159Y385004D01*
X414351Y385468D01*
X414487Y386500D01*
X414351Y387532D01*
X413953Y388493D01*
X413319Y389319D01*
X412493Y389953D01*
X412029Y390145D01*
Y391461D01*
X418797Y398228D01*
X421783D01*
Y403772D01*
D02*
G37*
G36*
X461500Y401788D02*
X460520Y401659D01*
X459606Y401281D01*
X458821Y400679D01*
X458219Y399894D01*
X457841Y398980D01*
X457712Y398000D01*
X457841Y397020D01*
X458219Y396106D01*
X458821Y395321D01*
X459606Y394719D01*
X460520Y394341D01*
X461500Y394212D01*
X462480Y394341D01*
X463394Y394719D01*
X464179Y395321D01*
X464781Y396106D01*
X465159Y397020D01*
X465288Y398000D01*
X465159Y398980D01*
X464781Y399894D01*
X464179Y400679D01*
X463394Y401281D01*
X462480Y401659D01*
X461500Y401788D01*
D02*
G37*
G36*
X523500Y398987D02*
X522468Y398851D01*
X521507Y398453D01*
X520681Y397819D01*
X520047Y396993D01*
X519649Y396032D01*
X519513Y395000D01*
X519649Y393968D01*
X520047Y393007D01*
X520681Y392181D01*
X521507Y391547D01*
X522468Y391149D01*
X523500Y391013D01*
X524532Y391149D01*
X525493Y391547D01*
X526319Y392181D01*
X526953Y393007D01*
X527351Y393968D01*
X527487Y395000D01*
X527351Y396032D01*
X526953Y396993D01*
X526319Y397819D01*
X525493Y398453D01*
X524532Y398851D01*
X523500Y398987D01*
D02*
G37*
G36*
X275000Y401487D02*
X273968Y401351D01*
X273007Y400953D01*
X272181Y400319D01*
X271547Y399493D01*
X271149Y398532D01*
X271013Y397500D01*
X271149Y396468D01*
X271547Y395507D01*
X272181Y394681D01*
X273007Y394047D01*
X273968Y393649D01*
X275000Y393513D01*
X276032Y393649D01*
X276993Y394047D01*
X277819Y394681D01*
X278453Y395507D01*
X278851Y396468D01*
X278987Y397500D01*
X278851Y398532D01*
X278453Y399493D01*
X277819Y400319D01*
X276993Y400953D01*
X276032Y401351D01*
X275000Y401487D01*
D02*
G37*
G36*
X211500Y389223D02*
X211019Y389159D01*
X210106Y388781D01*
X209321Y388179D01*
X208719Y387394D01*
X208341Y386480D01*
X208278Y386000D01*
X211500D01*
Y389223D01*
D02*
G37*
G36*
Y385000D02*
X208278D01*
X208341Y384520D01*
X208719Y383606D01*
X209321Y382821D01*
X210106Y382219D01*
X211019Y381841D01*
X211500Y381778D01*
Y385000D01*
D02*
G37*
G36*
X461000D02*
X457778D01*
X457841Y384520D01*
X458219Y383606D01*
X458821Y382821D01*
X459606Y382219D01*
X460520Y381841D01*
X461000Y381778D01*
Y385000D01*
D02*
G37*
G36*
X501500Y401788D02*
X500520Y401659D01*
X499606Y401281D01*
X498821Y400679D01*
X498219Y399894D01*
X497841Y398980D01*
X497712Y398000D01*
X497841Y397020D01*
X498219Y396106D01*
X498821Y395321D01*
X499606Y394719D01*
X499971Y394568D01*
Y388932D01*
X499606Y388781D01*
X498821Y388179D01*
X498219Y387394D01*
X497841Y386480D01*
X497712Y385500D01*
X497841Y384520D01*
X498219Y383606D01*
X498821Y382821D01*
X499606Y382219D01*
X500520Y381841D01*
X501500Y381712D01*
X502481Y381841D01*
X503394Y382219D01*
X504179Y382821D01*
X504781Y383606D01*
X504932Y383971D01*
X519547D01*
Y381047D01*
X527453D01*
Y388953D01*
X519547D01*
Y387029D01*
X504932D01*
X504781Y387394D01*
X504179Y388179D01*
X503394Y388781D01*
X503029Y388932D01*
Y394568D01*
X503394Y394719D01*
X504179Y395321D01*
X504781Y396106D01*
X505159Y397020D01*
X505288Y398000D01*
X505159Y398980D01*
X504781Y399894D01*
X504179Y400679D01*
X503394Y401281D01*
X502481Y401659D01*
X501500Y401788D01*
D02*
G37*
G36*
X286500Y367921D02*
X285968Y367851D01*
X285007Y367453D01*
X284181Y366819D01*
X283547Y365993D01*
X283149Y365032D01*
X283079Y364500D01*
X286500D01*
Y367921D01*
D02*
G37*
G36*
X287500D02*
Y364500D01*
X290921D01*
X290851Y365032D01*
X290453Y365993D01*
X289819Y366819D01*
X288993Y367453D01*
X288032Y367851D01*
X287500Y367921D01*
D02*
G37*
G36*
X384453Y386000D02*
X381000D01*
Y382547D01*
X384453D01*
Y386000D01*
D02*
G37*
G36*
X252000Y402788D02*
X251020Y402659D01*
X250106Y402281D01*
X249321Y401679D01*
X248719Y400894D01*
X248341Y399980D01*
X248212Y399000D01*
X248341Y398020D01*
X248719Y397106D01*
X249321Y396321D01*
X250106Y395719D01*
X250471Y395568D01*
Y388932D01*
X250106Y388781D01*
X249321Y388179D01*
X248719Y387394D01*
X248341Y386480D01*
X248212Y385500D01*
X248341Y384520D01*
X248719Y383606D01*
X249321Y382821D01*
X250106Y382219D01*
X251020Y381841D01*
X252000Y381712D01*
X252980Y381841D01*
X253894Y382219D01*
X254679Y382821D01*
X255281Y383606D01*
X255659Y384520D01*
X255788Y385500D01*
X255776Y385595D01*
X256105Y385971D01*
X271047D01*
Y383547D01*
X278953D01*
Y391453D01*
X271047D01*
Y389029D01*
X254000D01*
X253916Y389013D01*
X253529Y389330D01*
Y395568D01*
X253894Y395719D01*
X254679Y396321D01*
X255281Y397106D01*
X255659Y398020D01*
X255788Y399000D01*
X255659Y399980D01*
X255281Y400894D01*
X254679Y401679D01*
X253894Y402281D01*
X252980Y402659D01*
X252000Y402788D01*
D02*
G37*
G36*
X380000Y386000D02*
X376547D01*
Y382547D01*
X380000D01*
Y386000D01*
D02*
G37*
G36*
X215722Y385000D02*
X212500D01*
Y381778D01*
X212981Y381841D01*
X213894Y382219D01*
X214679Y382821D01*
X215281Y383606D01*
X215659Y384520D01*
X215722Y385000D01*
D02*
G37*
G36*
X465223D02*
X462000D01*
Y381778D01*
X462480Y381841D01*
X463394Y382219D01*
X464179Y382821D01*
X464781Y383606D01*
X465159Y384520D01*
X465223Y385000D01*
D02*
G37*
G36*
X290921Y363500D02*
X287000D01*
X283079D01*
X283149Y362968D01*
X283547Y362007D01*
X284181Y361181D01*
X285007Y360547D01*
X285164Y360482D01*
X285064Y359982D01*
X201453D01*
X200868Y359866D01*
X200371Y359534D01*
X177919Y337081D01*
X177587Y336585D01*
X177471Y336000D01*
Y267000D01*
X177587Y266415D01*
X177919Y265919D01*
X183919Y259919D01*
X184415Y259587D01*
X185000Y259471D01*
X249867D01*
X287603Y221734D01*
X287412Y221272D01*
X284717D01*
Y220029D01*
X266133D01*
X256008Y230155D01*
X256159Y230520D01*
X256288Y231500D01*
X256159Y232481D01*
X255781Y233394D01*
X255179Y234179D01*
X254394Y234781D01*
X253481Y235159D01*
X252500Y235288D01*
X251519Y235159D01*
X250606Y234781D01*
X249821Y234179D01*
X249219Y233394D01*
X248841Y232481D01*
X248712Y231500D01*
X248841Y230520D01*
X249219Y229606D01*
X249821Y228821D01*
X250606Y228219D01*
X251519Y227841D01*
X252500Y227712D01*
X253481Y227841D01*
X253845Y227992D01*
X264419Y217419D01*
X264915Y217087D01*
X265500Y216971D01*
X284717D01*
Y215728D01*
X285018D01*
Y196772D01*
X284169D01*
Y191228D01*
X288925D01*
Y196772D01*
X288077D01*
Y215728D01*
X289472D01*
Y219211D01*
X289934Y219403D01*
X290622Y218715D01*
Y215728D01*
X295378D01*
Y216971D01*
X303000D01*
X303585Y217087D01*
X304081Y217419D01*
X305169Y218506D01*
X307968D01*
X308743Y218608D01*
X309466Y218907D01*
X310086Y219383D01*
X310561Y220003D01*
X310861Y220725D01*
X310963Y221500D01*
X310861Y222275D01*
X310561Y222997D01*
X310086Y223617D01*
X309912Y223750D01*
Y224250D01*
X310086Y224383D01*
X310561Y225003D01*
X310861Y225725D01*
X310963Y226500D01*
X310861Y227275D01*
X310561Y227997D01*
X310086Y228617D01*
X309913Y228750D01*
Y229250D01*
X310086Y229383D01*
X310561Y230003D01*
X310861Y230725D01*
X310897Y231000D01*
X301103D01*
X301139Y230725D01*
X301233Y230500D01*
X300965Y229857D01*
X300919Y229839D01*
X298176Y232581D01*
X297680Y232913D01*
X297094Y233029D01*
X295932D01*
X295781Y233394D01*
X295179Y234179D01*
X294394Y234781D01*
X293480Y235159D01*
X292500Y235288D01*
X291519Y235159D01*
X290606Y234781D01*
X289821Y234179D01*
X289219Y233394D01*
X288841Y232481D01*
X288712Y231500D01*
X288841Y230520D01*
X289219Y229606D01*
X289821Y228821D01*
X290606Y228219D01*
X291519Y227841D01*
X292500Y227712D01*
X293480Y227841D01*
X294394Y228219D01*
X295179Y228821D01*
X295781Y229606D01*
X295932Y229971D01*
X296461D01*
X299482Y226950D01*
X299978Y226619D01*
X300563Y226502D01*
X301035D01*
X301037Y226500D01*
X301139Y225725D01*
X301438Y225003D01*
X301914Y224383D01*
X302087Y224250D01*
Y223750D01*
X301914Y223617D01*
X301438Y222997D01*
X301139Y222275D01*
X301037Y221500D01*
X301139Y220725D01*
X301255Y220445D01*
X300978Y220029D01*
X295378D01*
Y221272D01*
X292391D01*
X251581Y262081D01*
X251085Y262413D01*
X250500Y262529D01*
X189656D01*
X189623Y263029D01*
X189854Y263060D01*
X190532Y263149D01*
X191493Y263547D01*
X192319Y264181D01*
X192953Y265007D01*
X193351Y265968D01*
X193487Y267000D01*
X193351Y268032D01*
X192953Y268993D01*
X192319Y269819D01*
X191493Y270453D01*
X190532Y270851D01*
X189500Y270987D01*
X188468Y270851D01*
X187507Y270453D01*
X186681Y269819D01*
X186047Y268993D01*
X185649Y268032D01*
X185513Y267000D01*
X185649Y265968D01*
X186047Y265007D01*
X186681Y264181D01*
X187507Y263547D01*
X188468Y263149D01*
X189146Y263060D01*
X189376Y263029D01*
X189344Y262529D01*
X185634D01*
X180529Y267634D01*
Y335367D01*
X185085Y339922D01*
X185547Y339731D01*
Y337500D01*
X189000D01*
Y340953D01*
X186769D01*
X186578Y341415D01*
X202086Y356923D01*
X283631D01*
X283877Y356423D01*
X283547Y355993D01*
X283149Y355032D01*
X283013Y354000D01*
X283149Y352968D01*
X283547Y352007D01*
X284181Y351181D01*
X285007Y350547D01*
X285968Y350149D01*
X287000Y350013D01*
X288032Y350149D01*
X288496Y350341D01*
X289923Y348914D01*
Y347953D01*
X283047D01*
Y342210D01*
X274819Y333982D01*
X255272D01*
Y334831D01*
X249728D01*
Y330075D01*
X255272D01*
Y330923D01*
X275453D01*
X276038Y331040D01*
X276534Y331371D01*
X285210Y340047D01*
X289137D01*
X289328Y339585D01*
X287919Y338176D01*
X287587Y337680D01*
X287471Y337094D01*
Y320145D01*
X287007Y319953D01*
X286181Y319319D01*
X285547Y318493D01*
X285149Y317532D01*
X285013Y316500D01*
X285149Y315468D01*
X285547Y314507D01*
X285913Y314029D01*
X285667Y313529D01*
X270645D01*
X270453Y313993D01*
X269819Y314819D01*
X268993Y315453D01*
X268032Y315851D01*
X267000Y315987D01*
X265968Y315851D01*
X265538Y315673D01*
X263625Y317585D01*
X263816Y318047D01*
X266500D01*
Y321500D01*
X263047D01*
Y318816D01*
X262585Y318625D01*
X255272Y325939D01*
Y328925D01*
X249728D01*
Y324169D01*
X252715D01*
X263355Y313529D01*
X263149Y313032D01*
X263013Y312000D01*
X263149Y310968D01*
X263547Y310007D01*
X264181Y309181D01*
X265007Y308547D01*
X265968Y308149D01*
X267000Y308013D01*
X268032Y308149D01*
X268993Y308547D01*
X269819Y309181D01*
X270453Y310007D01*
X270645Y310471D01*
X304500D01*
X305085Y310587D01*
X305581Y310919D01*
X307504Y312841D01*
X307968Y312649D01*
X309000Y312513D01*
X310032Y312649D01*
X310993Y313047D01*
X311819Y313681D01*
X312453Y314507D01*
X312851Y315468D01*
X312987Y316500D01*
X312851Y317532D01*
X312453Y318493D01*
X311819Y319319D01*
X310993Y319953D01*
X310032Y320351D01*
X309000Y320487D01*
X307968Y320351D01*
X307007Y319953D01*
X306181Y319319D01*
X305547Y318493D01*
X305149Y317532D01*
X305013Y316500D01*
X305149Y315468D01*
X305341Y315004D01*
X303867Y313529D01*
X302333D01*
X302087Y314029D01*
X302453Y314507D01*
X302851Y315468D01*
X302987Y316500D01*
X302851Y317532D01*
X302453Y318493D01*
X301819Y319319D01*
X300993Y319953D01*
X300529Y320145D01*
Y341772D01*
X301266Y342509D01*
X301728Y342318D01*
Y339622D01*
X304715D01*
X325676Y318661D01*
X325547Y318493D01*
X325149Y317532D01*
X325013Y316500D01*
X325149Y315468D01*
X325547Y314507D01*
X326181Y313681D01*
X327007Y313047D01*
X327968Y312649D01*
X329000Y312513D01*
X330032Y312649D01*
X330993Y313047D01*
X331819Y313681D01*
X332453Y314507D01*
X332645Y314971D01*
X333883D01*
X334468Y315087D01*
X334547Y315140D01*
X335047Y314873D01*
Y312547D01*
X342953D01*
Y314971D01*
X354669D01*
X358805Y310834D01*
Y303532D01*
X358922Y302947D01*
X359253Y302451D01*
X360132Y301572D01*
X360628Y301241D01*
X361213Y301124D01*
X385979D01*
X386564Y301241D01*
X387060Y301572D01*
X412163Y326675D01*
X412625Y326484D01*
Y324700D01*
X419375D01*
Y328300D01*
X415616D01*
X415425Y328762D01*
X416363Y329700D01*
X419375D01*
Y333300D01*
X412625D01*
Y330329D01*
X412125D01*
X411540Y330213D01*
X411044Y329881D01*
X386837Y305675D01*
X386375Y305866D01*
Y308300D01*
X379625D01*
Y304700D01*
X384626D01*
X384893Y304200D01*
X384882Y304183D01*
X377795D01*
Y309429D01*
X379163Y310796D01*
X379625Y310605D01*
Y309700D01*
X386375D01*
Y313300D01*
X382320D01*
X382129Y313762D01*
X383067Y314700D01*
X386375D01*
Y317516D01*
X386678Y317719D01*
X403930Y334971D01*
X412625D01*
Y334700D01*
X419375D01*
Y338300D01*
X412625D01*
Y338029D01*
X403296D01*
X402711Y337913D01*
X402215Y337581D01*
X386837Y322203D01*
X386375Y322395D01*
Y323300D01*
X379625D01*
Y322329D01*
X379175D01*
X378590Y322213D01*
X378094Y321881D01*
X376927Y320714D01*
X373847D01*
Y322350D01*
X365154D01*
X365154Y322350D01*
Y322350D01*
X365154Y322350D01*
X364700Y322463D01*
X362154Y325009D01*
Y328375D01*
X362038Y328960D01*
X361706Y329456D01*
X360581Y330581D01*
X360085Y330913D01*
X359500Y331029D01*
X355847D01*
Y332656D01*
X365154D01*
Y326650D01*
X373847D01*
Y327671D01*
X379625D01*
Y324700D01*
X386375D01*
Y328300D01*
X383363D01*
X382425Y329238D01*
X382616Y329700D01*
X386375D01*
Y333300D01*
X383363D01*
X382425Y334238D01*
X382616Y334700D01*
X386375D01*
Y338300D01*
X383363D01*
X382425Y339238D01*
X382616Y339700D01*
X386375D01*
Y343300D01*
X383363D01*
X380767Y345896D01*
X380270Y346228D01*
X379685Y346344D01*
X355847D01*
Y347980D01*
X347153D01*
Y341650D01*
X355847D01*
Y343286D01*
X357335D01*
Y339380D01*
X347532D01*
X346947Y339263D01*
X346451Y338932D01*
X345572Y338053D01*
X345241Y337557D01*
X345124Y336972D01*
Y331398D01*
X345241Y330813D01*
X345572Y330317D01*
X347470Y328419D01*
X347967Y328087D01*
X348552Y327971D01*
X358867D01*
X359096Y327742D01*
Y324375D01*
X359212Y323790D01*
X359544Y323294D01*
X362471Y320367D01*
Y314976D01*
X362009Y314785D01*
X354760Y322034D01*
X354263Y322366D01*
X353678Y322482D01*
X335426D01*
X334841Y322366D01*
X334345Y322034D01*
X333466Y321156D01*
X333134Y320659D01*
X333018Y320074D01*
Y318436D01*
X332518Y318336D01*
X332453Y318493D01*
X331819Y319319D01*
X330993Y319953D01*
X330032Y320351D01*
X329000Y320487D01*
X328272Y320391D01*
X307272Y341391D01*
Y344378D01*
X303789D01*
X303597Y344840D01*
X304285Y345528D01*
X307272D01*
Y348514D01*
X308728Y349971D01*
X315355D01*
X315547Y349507D01*
X316181Y348681D01*
X317007Y348047D01*
X317968Y347649D01*
X319000Y347513D01*
X320032Y347649D01*
X320993Y348047D01*
X321819Y348681D01*
X322453Y349507D01*
X322851Y350468D01*
X322987Y351500D01*
X322851Y352532D01*
X322634Y353055D01*
X322912Y353471D01*
X360845D01*
X360943Y353235D01*
X361504Y352504D01*
X362235Y351943D01*
X363086Y351590D01*
X364000Y351470D01*
X364914Y351590D01*
X365765Y351943D01*
X366496Y352504D01*
X367057Y353235D01*
X367410Y354086D01*
X367530Y355000D01*
X367410Y355914D01*
X367057Y356765D01*
X366496Y357496D01*
X365765Y358057D01*
X364914Y358410D01*
X364000Y358530D01*
X363086Y358410D01*
X362235Y358057D01*
X361504Y357496D01*
X360943Y356765D01*
X360845Y356529D01*
X322431D01*
X321926Y357034D01*
X321906Y357047D01*
X322058Y357547D01*
X322953D01*
Y361000D01*
X319000D01*
X315047D01*
X315047Y357547D01*
X314574Y357482D01*
X291978D01*
X289926Y359534D01*
X289430Y359866D01*
X289348Y359882D01*
X288974Y360454D01*
X288993Y360547D01*
X289819Y361181D01*
X290453Y362007D01*
X290851Y362968D01*
X290921Y363500D01*
D02*
G37*
G36*
X435642Y328689D02*
X434610Y328553D01*
X433649Y328155D01*
X432823Y327521D01*
X432189Y326695D01*
X431791Y325734D01*
X431655Y324702D01*
X431791Y323670D01*
X432189Y322709D01*
X432823Y321883D01*
X433649Y321249D01*
X434610Y320851D01*
X435642Y320715D01*
X436674Y320851D01*
X437635Y321249D01*
X438461Y321883D01*
X439095Y322709D01*
X439493Y323670D01*
X439629Y324702D01*
X439493Y325734D01*
X439095Y326695D01*
X438461Y327521D01*
X437635Y328155D01*
X436674Y328553D01*
X435642Y328689D01*
D02*
G37*
G36*
X445642D02*
X444610Y328553D01*
X443649Y328155D01*
X442823Y327521D01*
X442189Y326695D01*
X441791Y325734D01*
X441655Y324702D01*
X441791Y323670D01*
X442189Y322709D01*
X442823Y321883D01*
X443649Y321249D01*
X444610Y320851D01*
X445642Y320715D01*
X446674Y320851D01*
X447635Y321249D01*
X448461Y321883D01*
X449095Y322709D01*
X449493Y323670D01*
X449629Y324702D01*
X449493Y325734D01*
X449095Y326695D01*
X448461Y327521D01*
X447635Y328155D01*
X446674Y328553D01*
X445642Y328689D01*
D02*
G37*
G36*
X270953Y321500D02*
X267500D01*
Y318047D01*
X270953D01*
Y321500D01*
D02*
G37*
G36*
X319000Y320487D02*
X317968Y320351D01*
X317007Y319953D01*
X316181Y319319D01*
X315547Y318493D01*
X315149Y317532D01*
X315013Y316500D01*
X315149Y315468D01*
X315341Y315004D01*
X299919Y299581D01*
X299587Y299085D01*
X299471Y298500D01*
Y297645D01*
X299007Y297453D01*
X298181Y296819D01*
X297547Y295993D01*
X297149Y295032D01*
X297013Y294000D01*
X297149Y292968D01*
X297547Y292007D01*
X298181Y291181D01*
X299007Y290547D01*
X299968Y290149D01*
X301000Y290013D01*
X302032Y290149D01*
X302496Y290341D01*
X303065Y289772D01*
Y282772D01*
X302217D01*
Y277228D01*
X306972D01*
Y282772D01*
X306124D01*
Y290406D01*
X306008Y290991D01*
X305676Y291487D01*
X304659Y292504D01*
X304851Y292968D01*
X304987Y294000D01*
X304851Y295032D01*
X304453Y295993D01*
X303819Y296819D01*
X302993Y297453D01*
X302866Y297506D01*
X302755Y298093D01*
X317504Y312841D01*
X317968Y312649D01*
X319000Y312513D01*
X320032Y312649D01*
X320993Y313047D01*
X321819Y313681D01*
X322453Y314507D01*
X322851Y315468D01*
X322987Y316500D01*
X322851Y317532D01*
X322453Y318493D01*
X321819Y319319D01*
X320993Y319953D01*
X320032Y320351D01*
X319000Y320487D01*
D02*
G37*
G36*
X189500Y320987D02*
X188468Y320851D01*
X187507Y320453D01*
X186681Y319819D01*
X186047Y318993D01*
X185649Y318032D01*
X185513Y317000D01*
X185649Y315968D01*
X186047Y315007D01*
X186681Y314181D01*
X187507Y313547D01*
X188468Y313149D01*
X189500Y313013D01*
X190532Y313149D01*
X191493Y313547D01*
X192319Y314181D01*
X192953Y315007D01*
X193351Y315968D01*
X193487Y317000D01*
X193351Y318032D01*
X192953Y318993D01*
X192319Y319819D01*
X191493Y320453D01*
X190532Y320851D01*
X189500Y320987D01*
D02*
G37*
G36*
X435642Y338689D02*
X434610Y338553D01*
X433649Y338155D01*
X432823Y337521D01*
X432189Y336695D01*
X431791Y335734D01*
X431655Y334702D01*
X431791Y333670D01*
X432189Y332709D01*
X432823Y331883D01*
X433649Y331249D01*
X434610Y330851D01*
X435642Y330715D01*
X436674Y330851D01*
X437635Y331249D01*
X438461Y331883D01*
X439095Y332709D01*
X439493Y333670D01*
X439629Y334702D01*
X439493Y335734D01*
X439095Y336695D01*
X438461Y337521D01*
X437635Y338155D01*
X436674Y338553D01*
X435642Y338689D01*
D02*
G37*
G36*
X445642D02*
X444610Y338553D01*
X443649Y338155D01*
X442823Y337521D01*
X442189Y336695D01*
X441791Y335734D01*
X441655Y334702D01*
X441791Y333670D01*
X442189Y332709D01*
X442823Y331883D01*
X443649Y331249D01*
X444610Y330851D01*
X445642Y330715D01*
X446674Y330851D01*
X447635Y331249D01*
X448461Y331883D01*
X449095Y332709D01*
X449493Y333670D01*
X449629Y334702D01*
X449493Y335734D01*
X449095Y336695D01*
X448461Y337521D01*
X447635Y338155D01*
X446674Y338553D01*
X445642Y338689D01*
D02*
G37*
G36*
X189500Y330987D02*
X188468Y330851D01*
X187507Y330453D01*
X186681Y329819D01*
X186047Y328993D01*
X185649Y328032D01*
X185513Y327000D01*
X185649Y325968D01*
X186047Y325007D01*
X186681Y324181D01*
X187507Y323547D01*
X188468Y323149D01*
X189500Y323013D01*
X190532Y323149D01*
X191493Y323547D01*
X192319Y324181D01*
X192953Y325007D01*
X193351Y325968D01*
X193487Y327000D01*
X193351Y328032D01*
X192953Y328993D01*
X192319Y329819D01*
X191493Y330453D01*
X190532Y330851D01*
X189500Y330987D01*
D02*
G37*
G36*
X266500Y325953D02*
X263047D01*
Y322500D01*
X266500D01*
Y325953D01*
D02*
G37*
G36*
X270953D02*
X267500D01*
Y322500D01*
X270953D01*
Y325953D01*
D02*
G37*
G36*
X486453Y315953D02*
X483000D01*
Y312500D01*
X486453D01*
Y315953D01*
D02*
G37*
G36*
X419375Y308300D02*
X412625D01*
Y304700D01*
X419375D01*
Y308300D01*
D02*
G37*
G36*
X509969Y308494D02*
X506032D01*
X505257Y308392D01*
X504534Y308093D01*
X503914Y307617D01*
X503463Y307029D01*
X486000D01*
X485415Y306913D01*
X484919Y306581D01*
X483996Y305659D01*
X483532Y305851D01*
X482500Y305987D01*
X481468Y305851D01*
X480507Y305453D01*
X479681Y304819D01*
X479047Y303993D01*
X478649Y303032D01*
X478513Y302000D01*
X478649Y300968D01*
X479047Y300007D01*
X479681Y299181D01*
X480507Y298547D01*
X481468Y298149D01*
X482500Y298013D01*
X483532Y298149D01*
X484493Y298547D01*
X485319Y299181D01*
X485953Y300007D01*
X486351Y300968D01*
X486487Y302000D01*
X486351Y303032D01*
X486159Y303496D01*
X486633Y303971D01*
X503463D01*
X503914Y303383D01*
X504087Y303250D01*
Y302750D01*
X503914Y302617D01*
X503463Y302029D01*
X499905D01*
X499320Y301913D01*
X498824Y301581D01*
X457927Y260684D01*
X447578D01*
X447478Y261184D01*
X447635Y261249D01*
X448461Y261883D01*
X449095Y262709D01*
X449493Y263670D01*
X449629Y264702D01*
X449493Y265734D01*
X449095Y266695D01*
X448461Y267521D01*
X447635Y268155D01*
X446674Y268553D01*
X445642Y268689D01*
X444610Y268553D01*
X443649Y268155D01*
X442823Y267521D01*
X442189Y266695D01*
X441791Y265734D01*
X441655Y264702D01*
X441791Y263670D01*
X442189Y262709D01*
X442823Y261883D01*
X443649Y261249D01*
X443668Y261156D01*
X443294Y260584D01*
X443212Y260568D01*
X442716Y260236D01*
X440108Y257628D01*
X439776Y257132D01*
X439760Y257050D01*
X439188Y256676D01*
X439095Y256695D01*
X438461Y257521D01*
X437635Y258155D01*
X436674Y258553D01*
X435642Y258689D01*
X434610Y258553D01*
X433649Y258155D01*
X432823Y257521D01*
X432189Y256695D01*
X431791Y255734D01*
X431655Y254702D01*
X431791Y253670D01*
X432189Y252709D01*
X432823Y251883D01*
X433649Y251249D01*
X434610Y250851D01*
X435642Y250715D01*
X436674Y250851D01*
X437635Y251249D01*
X438461Y251883D01*
X439095Y252709D01*
X439160Y252866D01*
X439660Y252766D01*
Y250883D01*
X437138Y248361D01*
X436674Y248553D01*
X435642Y248689D01*
X434610Y248553D01*
X433649Y248155D01*
X432823Y247521D01*
X432189Y246695D01*
X431791Y245734D01*
X431655Y244702D01*
X431791Y243670D01*
X432189Y242709D01*
X432823Y241883D01*
X433649Y241249D01*
X434610Y240851D01*
X435642Y240715D01*
X436674Y240851D01*
X437635Y241249D01*
X438461Y241883D01*
X439095Y242709D01*
X439493Y243670D01*
X439629Y244702D01*
X439493Y245734D01*
X439301Y246198D01*
X442271Y249168D01*
X442602Y249664D01*
X442719Y250249D01*
Y251333D01*
X443219Y251579D01*
X443649Y251249D01*
X444610Y250851D01*
X445642Y250715D01*
X446674Y250851D01*
X447635Y251249D01*
X448461Y251883D01*
X449095Y252709D01*
X449493Y253670D01*
X449629Y254702D01*
X449493Y255734D01*
X449095Y256695D01*
X448765Y257125D01*
X449011Y257625D01*
X458560D01*
X459146Y257742D01*
X459642Y258073D01*
X500539Y298971D01*
X503463D01*
X503914Y298383D01*
X504087Y298250D01*
Y297750D01*
X503914Y297617D01*
X503439Y296997D01*
X503139Y296275D01*
X503037Y295500D01*
X503139Y294725D01*
X503439Y294003D01*
X503914Y293383D01*
X504534Y292907D01*
X505257Y292608D01*
X506032Y292506D01*
X509969D01*
X510743Y292608D01*
X511466Y292907D01*
X512086Y293383D01*
X512562Y294003D01*
X512861Y294725D01*
X512963Y295500D01*
X512964Y295502D01*
X518228D01*
Y294669D01*
X523772D01*
Y299425D01*
X518228D01*
Y298561D01*
X512780D01*
X512751Y298618D01*
X512585Y299061D01*
X512861Y299725D01*
X512963Y300500D01*
X512964Y300502D01*
X521000D01*
X521365Y300575D01*
X523772D01*
Y305331D01*
X518228D01*
Y303561D01*
X512780D01*
X512751Y303618D01*
X512585Y304061D01*
X512861Y304725D01*
X512963Y305500D01*
X512861Y306275D01*
X512562Y306997D01*
X512086Y307617D01*
X511466Y308093D01*
X510744Y308392D01*
X509969Y308494D01*
D02*
G37*
G36*
X189500Y310987D02*
X188468Y310851D01*
X187507Y310453D01*
X186681Y309819D01*
X186047Y308993D01*
X185649Y308032D01*
X185513Y307000D01*
X185649Y305968D01*
X186047Y305007D01*
X186681Y304181D01*
X187507Y303547D01*
X188468Y303149D01*
X189500Y303013D01*
X190532Y303149D01*
X191493Y303547D01*
X192319Y304181D01*
X192953Y305007D01*
X193351Y305968D01*
X193487Y307000D01*
X193351Y308032D01*
X192953Y308993D01*
X192319Y309819D01*
X191493Y310453D01*
X190532Y310851D01*
X189500Y310987D01*
D02*
G37*
G36*
X435642Y308689D02*
X434610Y308553D01*
X433649Y308155D01*
X432823Y307521D01*
X432189Y306695D01*
X431791Y305734D01*
X431655Y304702D01*
X431791Y303670D01*
X432189Y302709D01*
X432823Y301883D01*
X433649Y301249D01*
X434610Y300851D01*
X435642Y300715D01*
X436674Y300851D01*
X437635Y301249D01*
X438461Y301883D01*
X439095Y302709D01*
X439493Y303670D01*
X439629Y304702D01*
X439493Y305734D01*
X439095Y306695D01*
X438461Y307521D01*
X437635Y308155D01*
X436674Y308553D01*
X435642Y308689D01*
D02*
G37*
G36*
X445642D02*
X444610Y308553D01*
X443649Y308155D01*
X442823Y307521D01*
X442189Y306695D01*
X441791Y305734D01*
X441655Y304702D01*
X441791Y303670D01*
X442189Y302709D01*
X442823Y301883D01*
X443649Y301249D01*
X444610Y300851D01*
X445642Y300715D01*
X446674Y300851D01*
X447635Y301249D01*
X448461Y301883D01*
X449095Y302709D01*
X449493Y303670D01*
X449629Y304702D01*
X449493Y305734D01*
X449095Y306695D01*
X448461Y307521D01*
X447635Y308155D01*
X446674Y308553D01*
X445642Y308689D01*
D02*
G37*
G36*
Y318689D02*
X444610Y318553D01*
X443649Y318155D01*
X442823Y317521D01*
X442189Y316695D01*
X441791Y315734D01*
X441655Y314702D01*
X441791Y313670D01*
X442189Y312709D01*
X442823Y311883D01*
X443649Y311249D01*
X444610Y310851D01*
X445642Y310715D01*
X446674Y310851D01*
X447635Y311249D01*
X448461Y311883D01*
X449095Y312709D01*
X449493Y313670D01*
X449629Y314702D01*
X449493Y315734D01*
X449095Y316695D01*
X448461Y317521D01*
X447635Y318155D01*
X446674Y318553D01*
X445642Y318689D01*
D02*
G37*
G36*
X482000Y315953D02*
X478547D01*
Y312500D01*
X482000D01*
Y315953D01*
D02*
G37*
G36*
X435642Y318689D02*
X434610Y318553D01*
X433649Y318155D01*
X432823Y317521D01*
X432189Y316695D01*
X431791Y315734D01*
X431655Y314702D01*
X431791Y313670D01*
X432189Y312709D01*
X432823Y311883D01*
X433649Y311249D01*
X434610Y310851D01*
X435642Y310715D01*
X436674Y310851D01*
X437635Y311249D01*
X438461Y311883D01*
X439095Y312709D01*
X439493Y313670D01*
X439629Y314702D01*
X439493Y315734D01*
X439095Y316695D01*
X438461Y317521D01*
X437635Y318155D01*
X436674Y318553D01*
X435642Y318689D01*
D02*
G37*
G36*
X482000Y311500D02*
X478547D01*
Y308047D01*
X482000D01*
Y311500D01*
D02*
G37*
G36*
X486453D02*
X483000D01*
Y308047D01*
X486453D01*
Y311500D01*
D02*
G37*
G36*
X189000Y336500D02*
X185547D01*
Y333047D01*
X189000D01*
Y336500D01*
D02*
G37*
G36*
X419375Y341000D02*
X416500D01*
Y339700D01*
X419375D01*
Y341000D01*
D02*
G37*
G36*
X212000Y347464D02*
X211586Y347410D01*
X210735Y347057D01*
X210004Y346496D01*
X209443Y345765D01*
X209090Y344914D01*
X209036Y344500D01*
X212000D01*
Y347464D01*
D02*
G37*
G36*
X415500Y341000D02*
X412625D01*
Y339700D01*
X415500D01*
Y341000D01*
D02*
G37*
G36*
X212000Y343500D02*
X209036D01*
X209090Y343086D01*
X209443Y342235D01*
X210004Y341504D01*
X210735Y340943D01*
X211586Y340590D01*
X212000Y340536D01*
Y343500D01*
D02*
G37*
G36*
X415500Y343300D02*
X412625D01*
Y342000D01*
X415500D01*
Y343300D01*
D02*
G37*
G36*
X232000Y348030D02*
X231086Y347910D01*
X230235Y347557D01*
X229504Y346996D01*
X228943Y346265D01*
X228590Y345414D01*
X228470Y344500D01*
X228590Y343586D01*
X228943Y342735D01*
X229504Y342004D01*
X230235Y341443D01*
X231086Y341090D01*
X232000Y340970D01*
X232914Y341090D01*
X233765Y341443D01*
X234496Y342004D01*
X235057Y342735D01*
X235410Y343586D01*
X235530Y344500D01*
X235410Y345414D01*
X235057Y346265D01*
X234496Y346996D01*
X233765Y347557D01*
X232914Y347910D01*
X232000Y348030D01*
D02*
G37*
G36*
X215964Y343500D02*
X213000D01*
Y340536D01*
X213414Y340590D01*
X214265Y340943D01*
X214996Y341504D01*
X215557Y342235D01*
X215910Y343086D01*
X215964Y343500D01*
D02*
G37*
G36*
X213000Y347464D02*
Y344500D01*
X215964D01*
X215910Y344914D01*
X215557Y345765D01*
X214996Y346496D01*
X214265Y347057D01*
X213414Y347410D01*
X213000Y347464D01*
D02*
G37*
G36*
X435642Y358689D02*
X434610Y358553D01*
X433649Y358155D01*
X432823Y357521D01*
X432189Y356695D01*
X431791Y355734D01*
X431655Y354702D01*
X431791Y353670D01*
X432189Y352709D01*
X432823Y351883D01*
X433649Y351249D01*
X434610Y350851D01*
X435642Y350715D01*
X436674Y350851D01*
X437635Y351249D01*
X438461Y351883D01*
X439095Y352709D01*
X439493Y353670D01*
X439629Y354702D01*
X439493Y355734D01*
X439095Y356695D01*
X438461Y357521D01*
X437635Y358155D01*
X436674Y358553D01*
X435642Y358689D01*
D02*
G37*
G36*
X445642D02*
X444610Y358553D01*
X443649Y358155D01*
X442823Y357521D01*
X442189Y356695D01*
X441791Y355734D01*
X441655Y354702D01*
X441791Y353670D01*
X442189Y352709D01*
X442823Y351883D01*
X443649Y351249D01*
X443806Y351184D01*
X443706Y350684D01*
X440095D01*
X439509Y350568D01*
X439013Y350236D01*
X437138Y348361D01*
X436674Y348553D01*
X435642Y348689D01*
X434610Y348553D01*
X433649Y348155D01*
X432823Y347521D01*
X432189Y346695D01*
X431791Y345734D01*
X431655Y344702D01*
X431791Y343670D01*
X432189Y342709D01*
X432823Y341883D01*
X433649Y341249D01*
X434610Y340851D01*
X435642Y340715D01*
X436674Y340851D01*
X437635Y341249D01*
X438461Y341883D01*
X439095Y342709D01*
X439493Y343670D01*
X439629Y344702D01*
X439493Y345734D01*
X439301Y346198D01*
X440728Y347625D01*
X442273D01*
X442519Y347125D01*
X442189Y346695D01*
X441791Y345734D01*
X441655Y344702D01*
X441791Y343670D01*
X442189Y342709D01*
X442823Y341883D01*
X443649Y341249D01*
X444610Y340851D01*
X445642Y340715D01*
X446674Y340851D01*
X447635Y341249D01*
X448461Y341883D01*
X449095Y342709D01*
X449493Y343670D01*
X449629Y344702D01*
X449493Y345734D01*
X449095Y346695D01*
X448765Y347125D01*
X449011Y347625D01*
X480115D01*
X480152Y347618D01*
X480526Y347046D01*
X480507Y346953D01*
X479681Y346319D01*
X479047Y345493D01*
X478649Y344532D01*
X478513Y343500D01*
X478649Y342468D01*
X479047Y341507D01*
X479681Y340681D01*
X480507Y340047D01*
X481468Y339649D01*
X482500Y339513D01*
X483532Y339649D01*
X484493Y340047D01*
X485319Y340681D01*
X485953Y341507D01*
X486351Y342468D01*
X486487Y343500D01*
X486351Y344532D01*
X485953Y345493D01*
X485319Y346319D01*
X484493Y346953D01*
X484336Y347018D01*
X484436Y347518D01*
X503811D01*
X503914Y347383D01*
X504087Y347250D01*
Y346750D01*
X503914Y346617D01*
X503439Y345997D01*
X503139Y345275D01*
X503037Y344500D01*
X503139Y343725D01*
X503439Y343003D01*
X503914Y342383D01*
X504534Y341907D01*
X505257Y341608D01*
X506032Y341506D01*
X509969D01*
X510743Y341608D01*
X511466Y341907D01*
X511610Y342018D01*
X517728D01*
Y341169D01*
X523272D01*
Y345925D01*
X517728D01*
Y345077D01*
X512887D01*
X512861Y345275D01*
X512562Y345997D01*
X512086Y346617D01*
X511912Y346750D01*
Y347250D01*
X512086Y347383D01*
X512500Y347923D01*
X517728D01*
Y347075D01*
X523272D01*
Y351831D01*
X517728D01*
Y350982D01*
X512568D01*
X512562Y350997D01*
X512086Y351617D01*
X511913Y351750D01*
Y352250D01*
X512086Y352383D01*
X512562Y353003D01*
X512861Y353725D01*
X512963Y354500D01*
X512861Y355275D01*
X512562Y355997D01*
X512086Y356617D01*
X511466Y357093D01*
X510744Y357392D01*
X509969Y357494D01*
X506032D01*
X505257Y357392D01*
X504534Y357093D01*
X503914Y356617D01*
X503463Y356029D01*
X485541D01*
X485319Y356319D01*
X484493Y356953D01*
X483532Y357351D01*
X482500Y357487D01*
X481468Y357351D01*
X480507Y356953D01*
X479681Y356319D01*
X479047Y355493D01*
X478649Y354532D01*
X478513Y353500D01*
X478649Y352468D01*
X479047Y351507D01*
X479334Y351133D01*
X479113Y350684D01*
X447578D01*
X447478Y351184D01*
X447635Y351249D01*
X448461Y351883D01*
X449095Y352709D01*
X449493Y353670D01*
X449629Y354702D01*
X449493Y355734D01*
X449095Y356695D01*
X448461Y357521D01*
X447635Y358155D01*
X446674Y358553D01*
X445642Y358689D01*
D02*
G37*
G36*
X193453Y340953D02*
X190000D01*
Y337500D01*
X193453D01*
Y340953D01*
D02*
G37*
G36*
Y336500D02*
X190000D01*
Y333047D01*
X193453D01*
Y336500D01*
D02*
G37*
%LPD*%
G36*
X482971Y205654D02*
Y190831D01*
X481728D01*
Y189982D01*
X477272D01*
Y190831D01*
X475647D01*
X475456Y191293D01*
X477351Y193188D01*
X477586Y193090D01*
X478500Y192970D01*
X479414Y193090D01*
X480265Y193443D01*
X480996Y194004D01*
X481557Y194735D01*
X481910Y195586D01*
X482030Y196500D01*
X481910Y197414D01*
X481557Y198265D01*
X480996Y198996D01*
X480265Y199557D01*
X479414Y199910D01*
X478500Y200030D01*
X477586Y199910D01*
X477063Y199693D01*
X476780Y200117D01*
X482509Y205846D01*
X482971Y205654D01*
D02*
G37*
G36*
X487971Y221965D02*
Y215634D01*
X479226Y206889D01*
X478765Y207135D01*
X478785Y207237D01*
Y216122D01*
X482655Y219992D01*
X483019Y219841D01*
X484000Y219712D01*
X484980Y219841D01*
X485894Y220219D01*
X486679Y220821D01*
X487281Y221606D01*
X487471Y222064D01*
X487971Y221965D01*
D02*
G37*
G36*
X171122Y117253D02*
X171618Y116922D01*
X172204Y116805D01*
X172265D01*
X172653Y116535D01*
Y114900D01*
X165525D01*
X165228Y115400D01*
X165307Y116000D01*
X165213Y116718D01*
X164935Y117388D01*
X164494Y117963D01*
X164196Y118192D01*
Y118808D01*
X164494Y119037D01*
X164827Y119471D01*
X168905D01*
X171122Y117253D01*
D02*
G37*
G36*
X236161Y181146D02*
X235969Y180684D01*
X232479D01*
X218008Y195155D01*
X218159Y195519D01*
X218288Y196500D01*
X218159Y197480D01*
X217781Y198394D01*
X217179Y199179D01*
X217014Y199305D01*
X217152Y199829D01*
X217438Y199869D01*
X236161Y181146D01*
D02*
G37*
G36*
X261919Y167919D02*
X262415Y167587D01*
X263000Y167471D01*
X279940D01*
X280525Y167587D01*
X281021Y167919D01*
X284146Y171043D01*
X284610Y170851D01*
X285642Y170715D01*
X286674Y170851D01*
X287635Y171249D01*
X288461Y171883D01*
X289095Y172709D01*
X289188Y172728D01*
X289760Y172354D01*
X289776Y172272D01*
X290108Y171776D01*
X301971Y159913D01*
Y131453D01*
X299547D01*
Y125710D01*
X291367Y117529D01*
X253932D01*
X253781Y117894D01*
X253179Y118679D01*
X252394Y119281D01*
X252029Y119432D01*
Y124361D01*
X252894Y124719D01*
X253679Y125321D01*
X254281Y126106D01*
X254659Y127020D01*
X254788Y128000D01*
X254659Y128981D01*
X254281Y129894D01*
X253679Y130679D01*
X252894Y131281D01*
X251980Y131659D01*
X251000Y131788D01*
X250020Y131659D01*
X249106Y131281D01*
X248321Y130679D01*
X247719Y129894D01*
X247341Y128981D01*
X247212Y128000D01*
X247341Y127020D01*
X247719Y126106D01*
X248321Y125321D01*
X248971Y124823D01*
Y119432D01*
X248606Y119281D01*
X247821Y118679D01*
X247219Y117894D01*
X246841Y116981D01*
X246712Y116000D01*
X246841Y115020D01*
X246992Y114655D01*
X245611Y113274D01*
X193772D01*
X193526Y113774D01*
X193781Y114106D01*
X194159Y115020D01*
X194288Y116000D01*
X194159Y116981D01*
X193781Y117894D01*
X193179Y118679D01*
X192394Y119281D01*
X191481Y119659D01*
X190500Y119788D01*
X189520Y119659D01*
X189127Y119497D01*
X188751Y119748D01*
X188165Y119864D01*
X185680D01*
X185489Y120326D01*
X189655Y124492D01*
X190020Y124341D01*
X191000Y124212D01*
X191981Y124341D01*
X192894Y124719D01*
X193679Y125321D01*
X194281Y126106D01*
X194659Y127020D01*
X194788Y128000D01*
X194659Y128981D01*
X194281Y129894D01*
X193679Y130679D01*
X192894Y131281D01*
X191981Y131659D01*
X191000Y131788D01*
X190020Y131659D01*
X189106Y131281D01*
X188321Y130679D01*
X187719Y129894D01*
X187341Y128981D01*
X187212Y128000D01*
X187341Y127020D01*
X187492Y126655D01*
X182701Y121864D01*
X181346D01*
Y127165D01*
X180529D01*
Y134228D01*
X181575D01*
Y139471D01*
X249382D01*
Y137976D01*
X256022D01*
X258136Y135863D01*
Y135299D01*
X257484D01*
Y120701D01*
X261846D01*
Y135299D01*
X261195D01*
Y136496D01*
X261078Y137081D01*
X260814Y137476D01*
X260981Y137976D01*
X261618D01*
Y144701D01*
X261618D01*
X261444Y145120D01*
X267494Y151169D01*
X269772D01*
Y156319D01*
X269772D01*
Y156681D01*
X269772D01*
Y157286D01*
X272153D01*
Y155650D01*
X280847D01*
Y161980D01*
X272153D01*
Y160344D01*
X269772D01*
Y161831D01*
X264228D01*
Y160785D01*
X261618D01*
Y162024D01*
X254301D01*
X247171Y169153D01*
Y171057D01*
X247635Y171249D01*
X248461Y171883D01*
X249095Y172709D01*
X249493Y173670D01*
X249629Y174702D01*
X249493Y175734D01*
X249095Y176695D01*
X248765Y177125D01*
X249011Y177625D01*
X252212D01*
X261919Y167919D01*
D02*
G37*
G36*
X501650Y157002D02*
Y151784D01*
X501650Y151654D01*
X501336Y151284D01*
X499285D01*
X497350Y153218D01*
Y160346D01*
X492001D01*
X490364Y161984D01*
X490557Y162235D01*
X490910Y163086D01*
X491030Y164000D01*
X490910Y164914D01*
X490557Y165765D01*
X489996Y166496D01*
X489265Y167057D01*
X488414Y167410D01*
X488083Y167454D01*
X487665Y167654D01*
X487665Y168013D01*
Y170471D01*
X488181D01*
X501650Y157002D01*
D02*
G37*
G36*
X170913Y134228D02*
X176063D01*
Y134228D01*
X176425D01*
Y134228D01*
X177471D01*
Y127165D01*
X175997D01*
X171081Y132081D01*
X170585Y132413D01*
X170000Y132529D01*
X164827D01*
X164494Y132963D01*
X164196Y133192D01*
Y133808D01*
X164494Y134037D01*
X164827Y134471D01*
X170913D01*
Y134228D01*
D02*
G37*
G36*
X264228Y156681D02*
X264228D01*
Y156319D01*
X264228D01*
Y152230D01*
X256699Y144701D01*
X249382D01*
Y142529D01*
X164827D01*
X164494Y142963D01*
X164196Y143192D01*
Y143808D01*
X164494Y144037D01*
X164827Y144471D01*
X242839D01*
X243424Y144587D01*
X243920Y144919D01*
X254301Y155299D01*
X261618D01*
Y157727D01*
X264228D01*
Y156681D01*
D02*
G37*
%LPC*%
G36*
X280847Y151350D02*
X272153D01*
Y145020D01*
X274971D01*
Y134000D01*
X275087Y133415D01*
X275419Y132919D01*
X280319Y128018D01*
Y120701D01*
X284681D01*
Y135299D01*
X280319D01*
Y132997D01*
X279857Y132806D01*
X278029Y134634D01*
Y145020D01*
X280847D01*
Y146284D01*
X281347Y146491D01*
X284688Y143149D01*
X284590Y142914D01*
X284470Y142000D01*
X284590Y141086D01*
X284943Y140235D01*
X285504Y139504D01*
X286235Y138943D01*
X287086Y138590D01*
X288000Y138470D01*
X288914Y138590D01*
X289765Y138943D01*
X290496Y139504D01*
X291057Y140235D01*
X291410Y141086D01*
X291530Y142000D01*
X291410Y142914D01*
X291057Y143765D01*
X290496Y144496D01*
X289765Y145057D01*
X288914Y145410D01*
X288000Y145530D01*
X287086Y145410D01*
X286851Y145312D01*
X282896Y149267D01*
X282400Y149598D01*
X281815Y149714D01*
X280847D01*
Y151350D01*
D02*
G37*
%LPD*%
G36*
X431983Y216198D02*
X431791Y215734D01*
X431720Y215197D01*
X431192Y215017D01*
X374701Y271509D01*
X374892Y271971D01*
X376210D01*
X431983Y216198D01*
D02*
G37*
G36*
X432716Y209168D02*
X433212Y208836D01*
X433294Y208820D01*
X433668Y208248D01*
X433649Y208155D01*
X432823Y207521D01*
X432189Y206695D01*
X431791Y205734D01*
X431655Y204702D01*
X431791Y203670D01*
X432189Y202709D01*
X432281Y202589D01*
X431904Y202258D01*
X364654Y269509D01*
X364846Y269971D01*
X371913D01*
X432716Y209168D01*
D02*
G37*
G36*
X376235Y317194D02*
X372917Y313876D01*
X371843D01*
X371258Y313759D01*
X370762Y313428D01*
X367627Y310293D01*
X367165Y310485D01*
Y311846D01*
X365529D01*
Y316020D01*
X373847D01*
Y317656D01*
X376043D01*
X376235Y317194D01*
D02*
G37*
G36*
X367965Y335714D02*
X363665D01*
Y343286D01*
X367965D01*
Y335714D01*
D02*
G37*
G36*
X315877Y353923D02*
X315547Y353493D01*
X315355Y353029D01*
X308095D01*
X307509Y352913D01*
X307013Y352581D01*
X304715Y350284D01*
X301728D01*
Y347297D01*
X297919Y343487D01*
X297587Y342991D01*
X297471Y342406D01*
Y320145D01*
X297007Y319953D01*
X296181Y319319D01*
X295547Y318493D01*
X295149Y317532D01*
X295013Y316500D01*
X295149Y315468D01*
X295547Y314507D01*
X295913Y314029D01*
X295667Y313529D01*
X292333D01*
X292087Y314029D01*
X292453Y314507D01*
X292851Y315468D01*
X292987Y316500D01*
X292851Y317532D01*
X292453Y318493D01*
X291819Y319319D01*
X290993Y319953D01*
X290529Y320145D01*
Y336461D01*
X292534Y338466D01*
X292866Y338962D01*
X292982Y339547D01*
Y349547D01*
X292866Y350132D01*
X292534Y350629D01*
X290659Y352504D01*
X290851Y352968D01*
X290985Y353985D01*
X291013Y354117D01*
X291111Y354209D01*
X291435Y354423D01*
X315631D01*
X315877Y353923D01*
D02*
G37*
G36*
X503914Y352383D02*
X504087Y352250D01*
Y351750D01*
X503914Y351617D01*
X503439Y350997D01*
X503264Y350577D01*
X485869D01*
X485623Y351077D01*
X485953Y351507D01*
X486351Y352468D01*
X486417Y352971D01*
X503463D01*
X503914Y352383D01*
D02*
G37*
D10*
X175453Y224500D02*
D03*
X169547D02*
D03*
X293000Y218500D02*
D03*
X287094D02*
D03*
X292453Y194000D02*
D03*
X286547D02*
D03*
X419406Y401000D02*
D03*
X413500D02*
D03*
X304594Y280000D02*
D03*
X310500D02*
D03*
D11*
X227500Y224500D02*
D03*
Y218595D02*
D03*
X474500Y182547D02*
D03*
Y188453D02*
D03*
X484500Y188453D02*
D03*
Y182547D02*
D03*
X364000Y392094D02*
D03*
Y398000D02*
D03*
X304000Y402500D02*
D03*
Y396595D02*
D03*
X304000Y380047D02*
D03*
Y385953D02*
D03*
X514500Y117453D02*
D03*
Y111547D02*
D03*
X508000Y127905D02*
D03*
Y122000D02*
D03*
X499500Y138000D02*
D03*
Y132095D02*
D03*
Y148906D02*
D03*
Y143000D02*
D03*
X304500Y347905D02*
D03*
Y342000D02*
D03*
X252500Y326547D02*
D03*
Y332453D02*
D03*
X520500Y349453D02*
D03*
Y343547D02*
D03*
X521000Y302953D02*
D03*
Y297047D02*
D03*
D12*
X378000Y143870D02*
D03*
Y154500D02*
D03*
X419500Y362815D02*
D03*
Y352185D02*
D03*
X177000Y113370D02*
D03*
Y124000D02*
D03*
X276500Y158815D02*
D03*
Y148185D02*
D03*
X152500Y203870D02*
D03*
Y214500D02*
D03*
X152000Y181870D02*
D03*
Y192500D02*
D03*
Y230000D02*
D03*
Y240630D02*
D03*
X351500Y344815D02*
D03*
Y334185D02*
D03*
X369500Y329815D02*
D03*
Y319185D02*
D03*
D13*
X129500Y131000D02*
D03*
D14*
X158260Y146000D02*
D03*
Y141000D02*
D03*
Y136000D02*
D03*
Y131000D02*
D03*
Y126000D02*
D03*
Y121000D02*
D03*
Y116000D02*
D03*
D15*
X371130Y339500D02*
D03*
X360500D02*
D03*
X484500Y172000D02*
D03*
X473870D02*
D03*
X493500Y114500D02*
D03*
X504130D02*
D03*
X504815Y156000D02*
D03*
X494185D02*
D03*
X364000Y307500D02*
D03*
X374630D02*
D03*
X143315Y467500D02*
D03*
X132685D02*
D03*
X143315Y476500D02*
D03*
X132685D02*
D03*
Y485500D02*
D03*
X143315D02*
D03*
X209315Y467500D02*
D03*
X198685D02*
D03*
X209315Y477000D02*
D03*
X198685D02*
D03*
Y487000D02*
D03*
X209315D02*
D03*
X275815Y467000D02*
D03*
X265185D02*
D03*
X275815Y477000D02*
D03*
X265185D02*
D03*
Y487000D02*
D03*
X275815D02*
D03*
D16*
X383000Y316500D02*
D03*
Y321500D02*
D03*
Y326500D02*
D03*
Y341500D02*
D03*
Y336500D02*
D03*
Y331500D02*
D03*
Y311500D02*
D03*
Y306500D02*
D03*
X416000D02*
D03*
Y311500D02*
D03*
Y331500D02*
D03*
Y336500D02*
D03*
Y341500D02*
D03*
Y326500D02*
D03*
Y321500D02*
D03*
Y316500D02*
D03*
D17*
X179000Y137000D02*
D03*
X173488D02*
D03*
D18*
X255500Y158661D02*
D03*
Y141339D02*
D03*
D19*
X282500Y128000D02*
D03*
X259665D02*
D03*
D20*
X267000Y159256D02*
D03*
Y153744D02*
D03*
D21*
X116500Y442500D02*
D03*
Y447500D02*
D03*
Y452500D02*
D03*
Y457500D02*
D03*
X148784Y452500D02*
D03*
Y442500D02*
D03*
Y447500D02*
D03*
X181500Y442500D02*
D03*
Y447500D02*
D03*
Y452500D02*
D03*
Y457500D02*
D03*
X213784Y452500D02*
D03*
Y442500D02*
D03*
Y447500D02*
D03*
X248217Y442500D02*
D03*
Y447500D02*
D03*
Y452500D02*
D03*
Y457500D02*
D03*
X280500Y452500D02*
D03*
Y442500D02*
D03*
Y447500D02*
D03*
D22*
X148784Y457500D02*
D03*
X213784D02*
D03*
X280500D02*
D03*
D23*
X480656Y349047D02*
X508000D01*
X509531Y297031D02*
X521000D01*
X509531Y302031D02*
X521000D01*
X499905Y300500D02*
X508000D01*
X509531Y302031D01*
X293000Y205532D02*
X304969D01*
X158000Y161500D02*
X158260Y161240D01*
Y146000D02*
Y161240D01*
Y116000D02*
X160890Y113370D01*
X177000D01*
X158260Y136000D02*
X172488D01*
X173488Y137000D01*
X158260Y141000D02*
X255161D01*
X158260Y146000D02*
X242839D01*
X292000Y116000D02*
X303500Y127500D01*
X250500Y116000D02*
X292000D01*
X250500D02*
Y127500D01*
X251000Y128000D01*
X246244Y111744D02*
X250500Y116000D01*
X188737Y111744D02*
X246244D01*
X187111Y113370D02*
X188737Y111744D01*
X177000Y113370D02*
X187111D01*
X245642Y168519D02*
X255500Y158661D01*
X245642Y168519D02*
Y174702D01*
X129500Y131000D02*
X133260D01*
X140760D01*
X158260D01*
X177000Y124000D02*
X179000Y126000D01*
Y137000D01*
X158260Y131000D02*
X170000D01*
X177000Y124000D01*
X158260Y126000D02*
X167367D01*
X173032Y120335D01*
X183335D01*
X191000Y128000D01*
X158260Y121000D02*
X169538D01*
X172204Y118335D01*
X188165D01*
X190500Y116000D01*
X259665Y128000D02*
Y136496D01*
X255161Y141000D02*
X259665Y136496D01*
X256095Y159256D02*
X267000D01*
X255500Y158661D02*
X256095Y159256D01*
X255500Y141339D02*
X267000Y152839D01*
Y153744D01*
X267441Y158815D02*
X276500D01*
X267000Y159256D02*
X267441Y158815D01*
X276500Y134000D02*
Y148185D01*
Y134000D02*
X282500Y128000D01*
X292453Y194000D02*
X301500D01*
X306500Y199000D01*
X293000Y205532D02*
Y206500D01*
X304969Y205532D02*
X306500Y204000D01*
X293000Y218500D02*
X303000D01*
X306000Y221500D01*
X265500Y218500D02*
X287094D01*
X252500Y231500D02*
X265500Y218500D01*
X306000Y231500D02*
X306500Y231000D01*
Y229969D02*
Y231000D01*
X292500Y231500D02*
X297094D01*
X300563Y228031D01*
X304468D01*
X306000Y226500D01*
X286547Y194000D02*
Y217953D01*
X287094Y218500D01*
X484500Y172000D02*
X484500Y172000D01*
X498953Y211047D02*
X499000Y211000D01*
X499500Y138000D02*
Y143000D01*
X494185Y154220D02*
Y156000D01*
Y154220D02*
X499500Y148906D01*
X480000Y140000D02*
X497500D01*
X499500Y138000D01*
X508000Y122000D02*
X509953D01*
X514500Y117453D01*
X527047Y130000D01*
X528500D01*
X504130Y114500D02*
X511547D01*
X514500Y111547D01*
X504815Y137409D02*
Y156000D01*
X499500Y132095D02*
X504815Y137409D01*
X499500Y132095D02*
X503811D01*
X508000Y127905D01*
X482094D02*
X508000D01*
X351500Y344815D02*
X379685D01*
X383000Y341500D01*
X371130Y339200D02*
Y339500D01*
Y339200D02*
X380300D01*
X383000Y336500D01*
X369500Y329200D02*
Y329815D01*
X380315Y334185D02*
X383000Y331500D01*
X358850Y337850D02*
X360500Y339500D01*
X347532Y337850D02*
X358850D01*
X346654Y336972D02*
X347532Y337850D01*
X346654Y331398D02*
Y336972D01*
Y331398D02*
X348552Y329500D01*
X359500D01*
X339000Y316500D02*
X355302D01*
X360335Y311468D01*
Y303532D02*
Y311468D01*
Y303532D02*
X361213Y302654D01*
X385979D01*
X362335Y309165D02*
X364000Y307500D01*
X362335Y309165D02*
Y312296D01*
X353678Y320953D02*
X362335Y312296D01*
X335426Y320953D02*
X353678D01*
X334547Y320074D02*
X335426Y320953D01*
X334547Y317164D02*
Y320074D01*
X333883Y316500D02*
X334547Y317164D01*
X329000Y316500D02*
X333883D01*
X416000D02*
X416296D01*
X424796Y325000D01*
X379345Y364702D02*
X383798Y360249D01*
X375642Y364702D02*
X379345D01*
X351500Y334185D02*
X380315D01*
X369500Y329200D02*
X380300D01*
X383000Y326500D01*
X382704Y316500D02*
X383000D01*
X374630Y307500D02*
Y308426D01*
X382704Y316500D01*
X380004Y318800D02*
X385596D01*
X373550Y312347D02*
X380004Y318800D01*
X371843Y312347D02*
X373550D01*
X366997Y307500D02*
X371843Y312347D01*
X364000Y307500D02*
X366997D01*
X369500Y319185D02*
X377560D01*
X379175Y320800D01*
X382300D01*
X383000Y321500D01*
X301000Y298500D02*
X319000Y316500D01*
X301000Y294000D02*
X304594Y290406D01*
Y280000D02*
Y290406D01*
X310500Y280000D02*
X328842D01*
X330842Y282000D01*
X267000Y312000D02*
X304500D01*
X309000Y316500D01*
X308095Y351500D02*
X319000D01*
X304500Y347905D02*
X308095Y351500D01*
X299000Y342406D02*
X304500Y347905D01*
X299000Y316500D02*
Y342406D01*
X304500Y342000D02*
X329000Y317500D01*
Y316500D02*
Y317500D01*
X252500Y326547D02*
X267000Y312047D01*
Y312000D02*
Y312047D01*
X287000Y354000D02*
X291453Y349547D01*
Y339547D02*
Y349547D01*
X289000Y337094D02*
X291453Y339547D01*
X289000Y316500D02*
Y337094D01*
X252500Y332453D02*
X275453D01*
X287000Y344000D01*
X348500Y388500D02*
Y388906D01*
X405000Y401000D02*
X413500D01*
X390500Y386500D02*
X405000Y401000D01*
X364000Y398000D02*
X379000D01*
X390500Y386500D01*
X365642Y364702D02*
X369345D01*
X373798Y369155D01*
X383155D01*
X400500Y386500D01*
X355642Y364702D02*
Y383736D01*
X364000Y392094D01*
X338500Y388500D02*
X345642Y381358D01*
Y364702D02*
Y381358D01*
X324047Y384047D02*
X328500Y388500D01*
X314926Y384047D02*
X324047D01*
X313020Y385953D02*
X314926Y384047D01*
X304000Y385953D02*
X313020D01*
X304000D02*
Y396595D01*
X304000Y396595D02*
X304000Y396595D01*
Y380047D02*
X320297D01*
X335642Y364702D01*
X304000Y402500D02*
X307000D01*
X315500Y394000D01*
X343000D01*
X348500Y388500D01*
X410500Y392094D02*
X419406Y401000D01*
X410500Y386500D02*
Y392094D01*
X501500Y385500D02*
Y398000D01*
Y385500D02*
X523000D01*
X523500Y385000D01*
X508953Y343547D02*
X520500D01*
X508000Y344500D02*
X508953Y343547D01*
X508047Y349453D02*
X520500D01*
X508000Y349500D02*
X508047Y349453D01*
X483500Y354500D02*
X508000D01*
X482500Y353500D02*
X483500Y354500D01*
X508000Y349047D02*
Y349500D01*
X480548Y349155D02*
X480656Y349047D01*
X440095Y349155D02*
X480548D01*
X435642Y344702D02*
X440095Y349155D01*
X521000Y297031D02*
Y297047D01*
X508000Y295500D02*
X509531Y297031D01*
X521000Y302031D02*
Y302953D01*
X486000Y305500D02*
X508000D01*
X482500Y302000D02*
X486000Y305500D01*
X458560Y259155D02*
X499905Y300500D01*
X443798Y259155D02*
X458560D01*
X441189Y256546D02*
X443798Y259155D01*
X441189Y250249D02*
Y256546D01*
X435642Y244702D02*
X441189Y250249D01*
X252000Y385500D02*
Y399000D01*
X254000Y387500D02*
X275000D01*
X252000Y385500D02*
X254000Y387500D01*
X474500Y188453D02*
X484500D01*
X474500Y188453D02*
X474500Y188453D01*
X484500D02*
Y206500D01*
X499000Y221000D01*
X474500Y172630D02*
Y182547D01*
X473870Y172000D02*
X474500Y172630D01*
X484500Y172000D02*
Y182547D01*
X484500Y172000D02*
X488815D01*
X504815Y156000D01*
X242839Y146000D02*
X255500Y158661D01*
X448702Y224702D02*
X473000Y249000D01*
X445642Y224702D02*
X448702D01*
X473756Y253256D02*
X484000Y263500D01*
X471237Y253256D02*
X473756D01*
X452683Y234702D02*
X471237Y253256D01*
X445642Y234702D02*
X452683D01*
X445642Y244702D02*
X455702D01*
X487500Y276500D01*
X438250Y164750D02*
Y175750D01*
X424500Y151000D02*
X438250Y164750D01*
X477256Y216756D02*
X484000Y223500D01*
X477256Y207237D02*
Y216756D01*
X450000Y179981D02*
X477256Y207237D01*
X489500Y238500D02*
X527500Y276500D01*
X466500Y150000D02*
Y192000D01*
X446500Y130000D02*
X466500Y150000D01*
X431136Y130000D02*
X446500D01*
X426636Y125500D02*
X431136Y130000D01*
X423000Y125500D02*
X426636D01*
X438250Y175750D02*
X471500Y209000D01*
X473000D01*
X450000Y151500D02*
Y179981D01*
X138000Y227500D02*
X139500D01*
X152500Y214500D01*
X138000Y237500D02*
X148870D01*
X152000Y240630D01*
X172500Y243500D02*
X186500D01*
X191500Y238500D01*
Y224000D02*
Y228500D01*
X164000Y196500D02*
X191500Y224000D01*
X152000Y230000D02*
X169000D01*
Y229650D02*
Y230000D01*
X169547Y224500D02*
Y229102D01*
X169000Y229650D02*
X169547Y229102D01*
X142453Y202047D02*
X152000Y192500D01*
X142453Y202047D02*
Y209344D01*
X138000Y213797D02*
X142453Y209344D01*
X138000Y213797D02*
Y217500D01*
Y195870D02*
X152000Y181870D01*
X138000Y195870D02*
Y197500D01*
X132000Y193500D02*
X138000Y187500D01*
X132000Y193500D02*
Y337060D01*
X159642Y364702D01*
X301000Y294000D02*
Y298500D01*
X376844Y273500D02*
X435642Y214702D01*
X267000Y273500D02*
X376844D01*
X243500Y297000D02*
X267000Y273500D01*
X189500Y297000D02*
X243500D01*
X441189Y210249D02*
X445642Y214702D01*
X266172Y271500D02*
X372547D01*
X250672Y287000D02*
X266172Y271500D01*
X189500Y287000D02*
X250672D01*
X372547Y271500D02*
X433798Y210249D01*
X441189D01*
X441939Y204702D02*
X445642D01*
X437486Y200249D02*
X441939Y204702D01*
X431751Y200249D02*
X437486D01*
X362500Y269500D02*
X431751Y200249D01*
X265343Y269500D02*
X362500D01*
X257843Y277000D02*
X265343Y269500D01*
X189500Y277000D02*
X257843D01*
X217000Y229000D02*
X223000D01*
X227500Y224500D01*
X222406Y218595D02*
X227500D01*
X217000Y224000D02*
X222406Y218595D01*
X217000Y234000D02*
X222500D01*
X236000Y247500D01*
X204000Y196500D02*
X214500D01*
X231845Y179155D02*
X237486D01*
X241939Y174702D01*
X245642D01*
X152000Y192244D02*
Y192500D01*
X214500Y196500D02*
X231845Y179155D01*
X202500Y201500D02*
X217970D01*
X240315Y179155D01*
X252845D01*
X263000Y169000D01*
X279940D01*
X285642Y174702D01*
X390000Y142500D02*
X394000D01*
X378000Y154500D02*
X390000Y142500D01*
X335642Y174702D02*
X351344Y159000D01*
X387500D01*
X394000Y152500D01*
X466500Y192000D02*
X489500Y215000D01*
Y238500D01*
X487500Y162685D02*
X494185Y156000D01*
X487500Y162685D02*
Y164000D01*
X501133Y114500D02*
X504130D01*
X496287Y109653D02*
X501133Y114500D01*
X355049Y109653D02*
X496287D01*
X339047Y125656D02*
Y131297D01*
Y125656D02*
X355049Y109653D01*
X295642Y174702D02*
X339047Y131297D01*
X303500Y127500D02*
Y160547D01*
X291189Y172858D02*
X303500Y160547D01*
X291189Y172858D02*
Y177429D01*
X309292Y195531D01*
X361906D01*
X368453Y202079D01*
X380842D01*
X470547Y186500D02*
X474500Y182547D01*
X470547Y186500D02*
Y189771D01*
X472107Y191331D01*
X473331D01*
X478500Y196500D01*
X193244Y192244D02*
X202500Y201500D01*
X152000Y192244D02*
X193244D01*
X152500Y203870D02*
X169547Y220917D01*
Y224500D01*
X120000Y485500D02*
X132685D01*
X117000Y488500D02*
X120000Y485500D01*
X132685Y476500D02*
Y485500D01*
Y467500D02*
Y476500D01*
Y467500D02*
X142685Y457500D01*
X148784D01*
X117000Y431500D02*
Y435942D01*
X112638Y440304D02*
X117000Y435942D01*
X112638Y440304D02*
Y464835D01*
X112547Y464926D02*
X112638Y464835D01*
X112547Y464926D02*
Y474047D01*
X117000Y478500D01*
X127000Y431500D02*
X127784D01*
X144921Y448638D01*
Y450575D01*
X146858D01*
X148784Y452500D01*
X137000Y431500D02*
Y435716D01*
X144921Y443638D01*
Y445575D01*
X146858D01*
X148784Y447500D01*
X147000Y431500D02*
Y440717D01*
X148784Y442500D01*
X143297Y431500D02*
X147000D01*
X138844Y427047D02*
X143297Y431500D01*
X125156Y427047D02*
X138844D01*
X122547Y429656D02*
X125156Y427047D01*
X122547Y429656D02*
Y458390D01*
X117000Y463937D02*
X122547Y458390D01*
X117000Y463937D02*
Y468500D01*
X143315Y467500D02*
Y476500D01*
Y467500D02*
X154500D01*
X155000Y467000D01*
X143315Y485500D02*
X159000Y469815D01*
Y465343D02*
Y469815D01*
X152646Y458989D02*
X159000Y465343D01*
X152646Y453638D02*
Y458989D01*
X149921Y453638D02*
X152646D01*
X148784Y452500D02*
X149921Y453638D01*
X175500Y438000D02*
X182000Y431500D01*
X175500Y438000D02*
Y472000D01*
X182000Y478500D01*
X192000Y431500D02*
Y443000D01*
X201500Y452500D01*
X213784D01*
X182000Y488500D02*
X197185D01*
X198685Y487000D01*
Y477000D02*
Y487000D01*
Y467500D02*
Y477000D01*
Y467500D02*
X208685Y457500D01*
X213784D01*
X209315Y467500D02*
Y477000D01*
X212000Y431500D02*
Y440717D01*
X213784Y442500D01*
X209315Y467500D02*
X221000D01*
X222000Y466500D01*
X207500Y447500D02*
X213784D01*
X202000Y442000D02*
X207500Y447500D01*
X202000Y431500D02*
Y442000D01*
X209315Y487000D02*
X226000Y470315D01*
Y457000D02*
Y470315D01*
X221500Y452500D02*
X226000Y457000D01*
X213784Y452500D02*
X221500D01*
X182000Y463058D02*
Y468500D01*
Y463058D02*
X186453Y458606D01*
Y429547D02*
Y458606D01*
Y429547D02*
X188953Y427047D01*
X207547D01*
X212000Y431500D01*
X248500Y488500D02*
X263685D01*
X265185Y487000D01*
Y477000D02*
Y487000D01*
Y467000D02*
Y477000D01*
X242000Y472000D02*
X248500Y478500D01*
X242000Y438000D02*
Y472000D01*
Y438000D02*
X248500Y431500D01*
X268500D02*
Y442000D01*
X274000Y447500D01*
X280500D01*
Y433500D02*
Y442500D01*
X278500Y431500D02*
X280500Y433500D01*
X258500Y431500D02*
X266500Y439500D01*
Y442828D01*
X276172Y452500D01*
X280500D01*
X275815Y467000D02*
Y477000D01*
X265185Y458815D02*
Y467000D01*
Y458815D02*
X266500Y457500D01*
X280500D01*
X275815Y467000D02*
X288000D01*
X275815Y487000D02*
X292500Y470315D01*
Y458000D02*
Y470315D01*
X287000Y452500D02*
X292500Y458000D01*
X280500Y452500D02*
X287000D01*
X248500Y468500D02*
X253500Y463500D01*
Y427000D02*
Y463500D01*
Y427000D02*
X274000D01*
X278500Y431500D01*
X236000Y215000D02*
Y237500D01*
Y215000D02*
X254500Y196500D01*
X276500Y148185D02*
X281815D01*
X288000Y142000D01*
X493500Y114500D02*
Y116500D01*
X480000Y130000D02*
X482094Y127905D01*
X493500Y116500D01*
X424346Y360028D02*
Y372654D01*
X410500Y386500D02*
X424346Y372654D01*
X250500Y261000D02*
X293000Y218500D01*
X185000Y261000D02*
X250500D01*
X179000Y267000D02*
X185000Y261000D01*
X179000Y267000D02*
Y336000D01*
X201453Y358453D01*
X288844D01*
X291344Y355953D01*
X320844D01*
X385979Y302654D02*
X412125Y328800D01*
X413300D01*
X416000Y331500D01*
X403296Y336500D02*
X416000D01*
X385596Y318800D02*
X403296Y336500D01*
X424796Y325000D02*
Y339704D01*
X347000Y280500D02*
X364811D01*
X368748Y276563D01*
X374888D01*
X412525Y314200D01*
X418996D01*
X419875Y315079D01*
X419500Y352185D02*
Y355182D01*
X424346Y360028D01*
X417980Y346520D02*
X424796Y339704D01*
X383798Y360249D02*
X400969D01*
X414699Y346520D02*
X417980D01*
X400969Y360249D02*
X414699Y346520D01*
X419875Y315079D02*
Y317250D01*
X426796Y324172D01*
Y340532D01*
X418809Y348520D02*
X426796Y340532D01*
X415527Y348520D02*
X418809D01*
X401798Y362249D02*
X415527Y348520D01*
X398095Y362249D02*
X401798D01*
X395642Y364702D02*
X398095Y362249D01*
X320844Y355953D02*
X321797Y355000D01*
X364000D01*
X359500Y329500D02*
X360625Y328375D01*
Y324375D02*
Y328375D01*
Y324375D02*
X364000Y321000D01*
Y307500D02*
Y321000D01*
X175453Y224500D02*
Y227547D01*
X177937Y230031D01*
X172500Y238500D02*
X174031Y236968D01*
X172500D02*
Y238500D01*
X177937Y230031D02*
Y234937D01*
X174031Y236968D02*
X175905D01*
X177937Y234937D01*
X169000Y230000D02*
X172500Y233500D01*
D24*
X323500Y127500D02*
D03*
X313500D02*
D03*
X333500D02*
D03*
X343500D02*
D03*
X353500D02*
D03*
X363500D02*
D03*
X236000Y247500D02*
D03*
X191500Y238500D02*
D03*
X445642Y364702D02*
D03*
X435642Y354702D02*
D03*
X445642D02*
D03*
X435642Y344702D02*
D03*
X445642D02*
D03*
X435642Y334702D02*
D03*
X445642D02*
D03*
X435642Y324702D02*
D03*
X445642D02*
D03*
X435642Y314702D02*
D03*
X445642D02*
D03*
X435642Y304702D02*
D03*
X445642D02*
D03*
X435642Y294702D02*
D03*
X445642D02*
D03*
X435642Y284702D02*
D03*
X445642D02*
D03*
X435642Y274702D02*
D03*
X445642D02*
D03*
X435642Y264702D02*
D03*
X445642D02*
D03*
X435642Y254702D02*
D03*
X445642D02*
D03*
X435642Y244702D02*
D03*
X445642D02*
D03*
X435642Y234702D02*
D03*
X445642D02*
D03*
X435642Y224702D02*
D03*
X445642D02*
D03*
X435642Y214702D02*
D03*
X445642D02*
D03*
X435642Y204702D02*
D03*
X445642D02*
D03*
X435642Y194702D02*
D03*
X445642D02*
D03*
X149642Y364702D02*
D03*
X169642D02*
D03*
X179642D02*
D03*
X189642D02*
D03*
X199642D02*
D03*
X209642D02*
D03*
X219642D02*
D03*
X229642D02*
D03*
X159642D02*
D03*
X405642D02*
D03*
X395642D02*
D03*
X385642D02*
D03*
X375642D02*
D03*
X365642D02*
D03*
X355642D02*
D03*
X345642D02*
D03*
X335642Y174702D02*
D03*
X325642D02*
D03*
X315642D02*
D03*
X305642D02*
D03*
X295642D02*
D03*
X285642D02*
D03*
X275642D02*
D03*
X425642D02*
D03*
X415642D02*
D03*
X405642D02*
D03*
X395642D02*
D03*
X385642D02*
D03*
X375642D02*
D03*
X365642D02*
D03*
X189500Y267000D02*
D03*
Y277000D02*
D03*
Y287000D02*
D03*
Y297000D02*
D03*
Y307000D02*
D03*
Y317000D02*
D03*
Y327000D02*
D03*
X138000Y197500D02*
D03*
Y187500D02*
D03*
Y207500D02*
D03*
Y217500D02*
D03*
Y227500D02*
D03*
Y237500D02*
D03*
X245642Y174702D02*
D03*
X235642D02*
D03*
X225642D02*
D03*
X215642D02*
D03*
X205642D02*
D03*
X195642D02*
D03*
X185642D02*
D03*
X499000Y211000D02*
D03*
Y221000D02*
D03*
Y231000D02*
D03*
X480000Y130000D02*
D03*
Y140000D02*
D03*
Y150000D02*
D03*
X528500Y140000D02*
D03*
Y130000D02*
D03*
Y120000D02*
D03*
X390500Y386500D02*
D03*
X400500D02*
D03*
X410500D02*
D03*
X394000Y152500D02*
D03*
Y142500D02*
D03*
X289000Y316500D02*
D03*
X299000D02*
D03*
X309000D02*
D03*
X319000D02*
D03*
X329000D02*
D03*
X287000Y364000D02*
D03*
Y354000D02*
D03*
X319000Y351500D02*
D03*
X301000Y294000D02*
D03*
X267000Y312000D02*
D03*
X328500Y388500D02*
D03*
X338500D02*
D03*
X348500D02*
D03*
X482500Y343500D02*
D03*
Y353500D02*
D03*
Y292000D02*
D03*
Y302000D02*
D03*
X523500Y395000D02*
D03*
X275000Y397500D02*
D03*
X137000Y431500D02*
D03*
X127000D02*
D03*
X117000D02*
D03*
Y488500D02*
D03*
Y478500D02*
D03*
X202000Y431500D02*
D03*
X192000D02*
D03*
X182000D02*
D03*
Y488500D02*
D03*
Y478500D02*
D03*
X268500Y431500D02*
D03*
X258500D02*
D03*
X248500D02*
D03*
Y488500D02*
D03*
Y478500D02*
D03*
D25*
X303500Y127500D02*
D03*
X139642Y364702D02*
D03*
X335642D02*
D03*
X265642Y174702D02*
D03*
X355642D02*
D03*
X175642D02*
D03*
X380500Y386500D02*
D03*
X339000Y316500D02*
D03*
X291000Y294000D02*
D03*
X318500Y388500D02*
D03*
X147000Y431500D02*
D03*
X212000D02*
D03*
X278500D02*
D03*
D26*
X164000Y196500D02*
D03*
X204000D02*
D03*
X254500D02*
D03*
X214500D02*
D03*
X473000Y249000D02*
D03*
Y209000D02*
D03*
X190500Y116000D02*
D03*
X250500D02*
D03*
X191000Y128000D02*
D03*
X251000D02*
D03*
X174000Y153500D02*
D03*
X244000D02*
D03*
X292500Y231500D02*
D03*
X252500D02*
D03*
X293000Y206500D02*
D03*
X253000D02*
D03*
X501500Y398000D02*
D03*
X461500D02*
D03*
Y385500D02*
D03*
X501500D02*
D03*
X212000D02*
D03*
X252000D02*
D03*
X212000Y399000D02*
D03*
X252000D02*
D03*
X487500Y276500D02*
D03*
X527500D02*
D03*
X484000Y263500D02*
D03*
Y223500D02*
D03*
D27*
X236000Y237500D02*
D03*
X191500Y228500D02*
D03*
X435642Y364702D02*
D03*
X189500Y337000D02*
D03*
X138000Y177500D02*
D03*
X499000Y201000D02*
D03*
X480000Y120000D02*
D03*
X528500Y150000D02*
D03*
X394000Y132500D02*
D03*
X287000Y344000D02*
D03*
X319000Y361500D02*
D03*
X267000Y322000D02*
D03*
X482500Y363500D02*
D03*
Y312000D02*
D03*
X523500Y385000D02*
D03*
X275000Y387500D02*
D03*
X117000Y468500D02*
D03*
X182000D02*
D03*
X248500D02*
D03*
D28*
X217000Y224000D02*
D03*
Y229000D02*
D03*
X172500Y238500D02*
D03*
D29*
X217000Y234000D02*
D03*
D30*
X411158Y282000D02*
D03*
X371000D02*
D03*
X330842D02*
D03*
Y202079D02*
D03*
X360764D02*
D03*
X380842D02*
D03*
D31*
X306000Y221500D02*
D03*
Y226500D02*
D03*
X306500Y199000D02*
D03*
Y204000D02*
D03*
X508000Y344500D02*
D03*
Y349500D02*
D03*
Y295500D02*
D03*
Y300500D02*
D03*
D32*
X306000Y231500D02*
D03*
X306500Y209000D02*
D03*
X508000Y354500D02*
D03*
Y305500D02*
D03*
D33*
X172500Y233500D02*
D03*
D34*
Y243500D02*
D03*
D35*
X434500Y151000D02*
D03*
X424500D02*
D03*
X460000Y151500D02*
D03*
X450000D02*
D03*
X433000Y125500D02*
D03*
X423000D02*
D03*
D36*
X212500Y344000D02*
D03*
X158000Y161500D02*
D03*
X232000Y344500D02*
D03*
X487500Y164000D02*
D03*
X478500Y196500D02*
D03*
X155000Y467000D02*
D03*
X222000Y466500D02*
D03*
X288000Y467000D02*
D03*
Y142000D02*
D03*
X364000Y355000D02*
D03*
X347000Y280500D02*
D03*
D37*
X133260Y123500D02*
D03*
X140760Y138500D02*
D03*
Y131000D02*
D03*
Y123500D02*
D03*
X133260Y138500D02*
D03*
Y131000D02*
D03*
X125760Y138500D02*
D03*
Y131000D02*
D03*
Y123500D02*
D03*
X118260Y138500D02*
D03*
Y131000D02*
D03*
Y123500D02*
D03*
M02*
