G04 Layer_Color=32896*
%FSLAX25Y25*%
%MOIN*%
G70*
G01*
G75*
%ADD40C,0.00500*%
%ADD72C,0.02000*%
D40*
X255500Y441000D02*
X256500D01*
X256000D01*
Y438001D01*
X255500Y438501D01*
X260998Y439501D02*
X262998D01*
X268996Y438001D02*
X266996D01*
Y439501D01*
X267996Y439001D01*
X268496D01*
X268996Y439501D01*
Y440500D01*
X268496Y441000D01*
X267496D01*
X266996Y440500D01*
X269995Y438001D02*
Y440000D01*
X270995Y441000D01*
X271995Y440000D01*
Y438001D01*
X275993D02*
X276993D01*
X276493D01*
Y441000D01*
X275993D01*
X276993D01*
X278493D02*
Y439001D01*
X279992D01*
X280492Y439501D01*
Y441000D01*
X257499Y445500D02*
X255500D01*
X257499Y443501D01*
Y443001D01*
X256999Y442501D01*
X256000D01*
X255500Y443001D01*
X261498Y444000D02*
X263497D01*
X269496Y443001D02*
X268996Y442501D01*
X267996D01*
X267496Y443001D01*
Y445000D01*
X267996Y445500D01*
X268996D01*
X269496Y445000D01*
Y444000D01*
X268496D01*
X270495Y445500D02*
Y442501D01*
X272495Y445500D01*
Y442501D01*
X273494D02*
Y445500D01*
X274994D01*
X275494Y445000D01*
Y443001D01*
X274994Y442501D01*
X273494D01*
X255500Y447501D02*
X256000Y447001D01*
X256999D01*
X257499Y447501D01*
Y448001D01*
X256999Y448500D01*
X256500D01*
X256999D01*
X257499Y449000D01*
Y449500D01*
X256999Y450000D01*
X256000D01*
X255500Y449500D01*
X261498Y448500D02*
X263497D01*
X267496Y450000D02*
Y447001D01*
X268996D01*
X269496Y447501D01*
Y448500D01*
X268996Y449000D01*
X267496D01*
X274994Y447001D02*
X273994D01*
X273494Y447501D01*
Y449500D01*
X273994Y450000D01*
X274994D01*
X275494Y449500D01*
Y447501D01*
X274994Y447001D01*
X276493D02*
Y449500D01*
X276993Y450000D01*
X277993D01*
X278493Y449500D01*
Y447001D01*
X279492D02*
X281492D01*
X280492D01*
Y450000D01*
X256999Y454500D02*
Y451501D01*
X255500Y453000D01*
X257499D01*
X261498D02*
X263497D01*
X267496Y451501D02*
X269496D01*
X268496D01*
Y454500D01*
X274994Y451501D02*
X273994D01*
X273494Y452001D01*
Y454000D01*
X273994Y454500D01*
X274994D01*
X275494Y454000D01*
Y452001D01*
X274994Y451501D01*
X276493D02*
Y454000D01*
X276993Y454500D01*
X277993D01*
X278493Y454000D01*
Y451501D01*
X279492D02*
X281492D01*
X280492D01*
Y454500D01*
X257499Y456001D02*
X255500D01*
Y457501D01*
X256500Y457001D01*
X256999D01*
X257499Y457501D01*
Y458500D01*
X256999Y459000D01*
X256000D01*
X255500Y458500D01*
X261498Y457501D02*
X263497D01*
X269496Y456001D02*
X267496D01*
Y457501D01*
X268496Y457001D01*
X268996D01*
X269496Y457501D01*
Y458500D01*
X268996Y459000D01*
X267996D01*
X267496Y458500D01*
X270495Y456001D02*
Y458000D01*
X271495Y459000D01*
X272495Y458000D01*
Y456001D01*
X257499Y460501D02*
X256500Y461001D01*
X255500Y462001D01*
Y463000D01*
X256000Y463500D01*
X256999D01*
X257499Y463000D01*
Y462500D01*
X256999Y462001D01*
X255500D01*
X261498D02*
X263497D01*
X269496Y461001D02*
X268996Y460501D01*
X267996D01*
X267496Y461001D01*
Y463000D01*
X267996Y463500D01*
X268996D01*
X269496Y463000D01*
Y462001D01*
X268496D01*
X270495Y463500D02*
Y460501D01*
X272495Y463500D01*
Y460501D01*
X273494D02*
Y463500D01*
X274994D01*
X275494Y463000D01*
Y461001D01*
X274994Y460501D01*
X273494D01*
X188000Y441000D02*
X189000D01*
X188500D01*
Y438001D01*
X188000Y438501D01*
X193498Y439501D02*
X195498D01*
X201496Y438001D02*
X199496D01*
Y439501D01*
X200496Y439001D01*
X200996D01*
X201496Y439501D01*
Y440500D01*
X200996Y441000D01*
X199996D01*
X199496Y440500D01*
X202495Y438001D02*
Y440000D01*
X203495Y441000D01*
X204495Y440000D01*
Y438001D01*
X208493D02*
X209493D01*
X208993D01*
Y441000D01*
X208493D01*
X209493D01*
X210993D02*
Y439001D01*
X212492D01*
X212992Y439501D01*
Y441000D01*
X189999Y445500D02*
X188000D01*
X189999Y443501D01*
Y443001D01*
X189499Y442501D01*
X188500D01*
X188000Y443001D01*
X193998Y444000D02*
X195997D01*
X201995Y443001D02*
X201496Y442501D01*
X200496D01*
X199996Y443001D01*
Y445000D01*
X200496Y445500D01*
X201496D01*
X201995Y445000D01*
Y444000D01*
X200996D01*
X202995Y445500D02*
Y442501D01*
X204995Y445500D01*
Y442501D01*
X205994D02*
Y445500D01*
X207494D01*
X207994Y445000D01*
Y443001D01*
X207494Y442501D01*
X205994D01*
X188000Y447501D02*
X188500Y447001D01*
X189499D01*
X189999Y447501D01*
Y448001D01*
X189499Y448500D01*
X189000D01*
X189499D01*
X189999Y449000D01*
Y449500D01*
X189499Y450000D01*
X188500D01*
X188000Y449500D01*
X193998Y448500D02*
X195997D01*
X199996Y450000D02*
Y447001D01*
X201496D01*
X201995Y447501D01*
Y448500D01*
X201496Y449000D01*
X199996D01*
X207494Y447001D02*
X206494D01*
X205994Y447501D01*
Y449500D01*
X206494Y450000D01*
X207494D01*
X207994Y449500D01*
Y447501D01*
X207494Y447001D01*
X208993D02*
Y449500D01*
X209493Y450000D01*
X210493D01*
X210993Y449500D01*
Y447001D01*
X211992D02*
X213992D01*
X212992D01*
Y450000D01*
X189499Y454500D02*
Y451501D01*
X188000Y453000D01*
X189999D01*
X193998D02*
X195997D01*
X199996Y451501D02*
X201995D01*
X200996D01*
Y454500D01*
X207494Y451501D02*
X206494D01*
X205994Y452001D01*
Y454000D01*
X206494Y454500D01*
X207494D01*
X207994Y454000D01*
Y452001D01*
X207494Y451501D01*
X208993D02*
Y454000D01*
X209493Y454500D01*
X210493D01*
X210993Y454000D01*
Y451501D01*
X211992D02*
X213992D01*
X212992D01*
Y454500D01*
X189999Y456001D02*
X188000D01*
Y457501D01*
X189000Y457001D01*
X189499D01*
X189999Y457501D01*
Y458500D01*
X189499Y459000D01*
X188500D01*
X188000Y458500D01*
X193998Y457501D02*
X195997D01*
X201995Y456001D02*
X199996D01*
Y457501D01*
X200996Y457001D01*
X201496D01*
X201995Y457501D01*
Y458500D01*
X201496Y459000D01*
X200496D01*
X199996Y458500D01*
X202995Y456001D02*
Y458000D01*
X203995Y459000D01*
X204995Y458000D01*
Y456001D01*
X189999Y460501D02*
X189000Y461001D01*
X188000Y462001D01*
Y463000D01*
X188500Y463500D01*
X189499D01*
X189999Y463000D01*
Y462500D01*
X189499Y462001D01*
X188000D01*
X193998D02*
X195997D01*
X201995Y461001D02*
X201496Y460501D01*
X200496D01*
X199996Y461001D01*
Y463000D01*
X200496Y463500D01*
X201496D01*
X201995Y463000D01*
Y462001D01*
X200996D01*
X202995Y463500D02*
Y460501D01*
X204995Y463500D01*
Y460501D01*
X205994D02*
Y463500D01*
X207494D01*
X207994Y463000D01*
Y461001D01*
X207494Y460501D01*
X205994D01*
X126921Y460639D02*
X125921Y461139D01*
X124921Y462138D01*
Y463138D01*
X125421Y463638D01*
X126421D01*
X126921Y463138D01*
Y462638D01*
X126421Y462138D01*
X124921D01*
X130919D02*
X132919D01*
X138917Y461139D02*
X138417Y460639D01*
X137417D01*
X136917Y461139D01*
Y463138D01*
X137417Y463638D01*
X138417D01*
X138917Y463138D01*
Y462138D01*
X137917D01*
X139916Y463638D02*
Y460639D01*
X141916Y463638D01*
Y460639D01*
X142915D02*
Y463638D01*
X144415D01*
X144915Y463138D01*
Y461139D01*
X144415Y460639D01*
X142915D01*
X126921Y456139D02*
X124921D01*
Y457638D01*
X125921Y457138D01*
X126421D01*
X126921Y457638D01*
Y458638D01*
X126421Y459138D01*
X125421D01*
X124921Y458638D01*
X130919Y457638D02*
X132919D01*
X138917Y456139D02*
X136917D01*
Y457638D01*
X137917Y457138D01*
X138417D01*
X138917Y457638D01*
Y458638D01*
X138417Y459138D01*
X137417D01*
X136917Y458638D01*
X139916Y456139D02*
Y458138D01*
X140916Y459138D01*
X141916Y458138D01*
Y456139D01*
X126421Y454638D02*
Y451639D01*
X124921Y453138D01*
X126921D01*
X130919D02*
X132919D01*
X136917Y451639D02*
X138917D01*
X137917D01*
Y454638D01*
X144415Y451639D02*
X143415D01*
X142915Y452139D01*
Y454138D01*
X143415Y454638D01*
X144415D01*
X144915Y454138D01*
Y452139D01*
X144415Y451639D01*
X145914D02*
Y454138D01*
X146414Y454638D01*
X147414D01*
X147914Y454138D01*
Y451639D01*
X148914D02*
X150913D01*
X149913D01*
Y454638D01*
X124921Y447639D02*
X125421Y447139D01*
X126421D01*
X126921Y447639D01*
Y448138D01*
X126421Y448638D01*
X125921D01*
X126421D01*
X126921Y449138D01*
Y449638D01*
X126421Y450138D01*
X125421D01*
X124921Y449638D01*
X130919Y448638D02*
X132919D01*
X136917Y450138D02*
Y447139D01*
X138417D01*
X138917Y447639D01*
Y448638D01*
X138417Y449138D01*
X136917D01*
X144415Y447139D02*
X143415D01*
X142915Y447639D01*
Y449638D01*
X143415Y450138D01*
X144415D01*
X144915Y449638D01*
Y447639D01*
X144415Y447139D01*
X145914D02*
Y449638D01*
X146414Y450138D01*
X147414D01*
X147914Y449638D01*
Y447139D01*
X148914D02*
X150913D01*
X149913D01*
Y450138D01*
X126921Y445638D02*
X124921D01*
X126921Y443638D01*
Y443139D01*
X126421Y442639D01*
X125421D01*
X124921Y443139D01*
X130919Y444138D02*
X132919D01*
X138917Y443139D02*
X138417Y442639D01*
X137417D01*
X136917Y443139D01*
Y445138D01*
X137417Y445638D01*
X138417D01*
X138917Y445138D01*
Y444138D01*
X137917D01*
X139916Y445638D02*
Y442639D01*
X141916Y445638D01*
Y442639D01*
X142915D02*
Y445638D01*
X144415D01*
X144915Y445138D01*
Y443139D01*
X144415Y442639D01*
X142915D01*
X124921Y441138D02*
X125921D01*
X125421D01*
Y438139D01*
X124921Y438639D01*
X130420Y439638D02*
X132419D01*
X138417Y438139D02*
X136417D01*
Y439638D01*
X137417Y439138D01*
X137917D01*
X138417Y439638D01*
Y440638D01*
X137917Y441138D01*
X136917D01*
X136417Y440638D01*
X139417Y438139D02*
Y440138D01*
X140416Y441138D01*
X141416Y440138D01*
Y438139D01*
X145415D02*
X146414D01*
X145914D01*
Y441138D01*
X145415D01*
X146414D01*
X147914D02*
Y439138D01*
X149413D01*
X149913Y439638D01*
Y441138D01*
D72*
X114000Y232000D02*
X125996D01*
Y237998D01*
X123997Y239997D01*
X119998D01*
X117999Y237998D01*
Y232000D01*
Y235999D02*
X114000Y239997D01*
Y245995D02*
Y249994D01*
X115999Y251993D01*
X119998D01*
X121997Y249994D01*
Y245995D01*
X119998Y243996D01*
X115999D01*
X114000Y245995D01*
X121997Y263990D02*
Y257992D01*
X119998Y255992D01*
X115999D01*
X114000Y257992D01*
Y263990D01*
Y267988D02*
X125996D01*
X117999D02*
X121997Y273986D01*
X117999Y267988D02*
X114000Y273986D01*
Y285982D02*
Y281984D01*
X115999Y279984D01*
X119998D01*
X121997Y281984D01*
Y285982D01*
X119998Y287982D01*
X117999D01*
Y279984D01*
X123997Y293980D02*
X121997D01*
Y291981D01*
Y295979D01*
Y293980D01*
X115999D01*
X114000Y295979D01*
X123997Y309975D02*
X125996Y307975D01*
Y303977D01*
X123997Y301977D01*
X121997D01*
X119998Y303977D01*
Y307975D01*
X117999Y309975D01*
X115999D01*
X114000Y307975D01*
Y303977D01*
X115999Y301977D01*
X121997Y315973D02*
Y319971D01*
X119998Y321971D01*
X114000D01*
Y315973D01*
X115999Y313973D01*
X117999Y315973D01*
Y321971D01*
X123997Y327969D02*
X121997D01*
Y325970D01*
Y329968D01*
Y327969D01*
X115999D01*
X114000Y329968D01*
X119998Y335966D02*
Y343964D01*
X125996Y347962D02*
X114000Y355960D01*
X125996D02*
X114000Y347962D01*
X125996Y359959D02*
Y363957D01*
Y361958D01*
X114000D01*
Y359959D01*
Y363957D01*
X132000Y252000D02*
X139997D01*
X143996Y255999D01*
X139997Y259997D01*
X132000D01*
X137998D01*
Y252000D01*
X139997Y263996D02*
X132000Y267995D01*
X139997Y271993D01*
X132000Y275992D02*
Y279991D01*
Y277992D01*
X139997D01*
Y275992D01*
X132000Y287988D02*
Y291987D01*
X133999Y293986D01*
X137998D01*
X139997Y291987D01*
Y287988D01*
X137998Y285989D01*
X133999D01*
X132000Y287988D01*
Y297985D02*
X139997D01*
Y303983D01*
X137998Y305982D01*
X132000D01*
Y309981D02*
Y313980D01*
Y311981D01*
X139997D01*
Y309981D01*
Y327975D02*
Y321977D01*
X137998Y319978D01*
X133999D01*
X132000Y321977D01*
Y327975D01*
Y331974D02*
Y337972D01*
X133999Y339971D01*
X135999Y337972D01*
Y333974D01*
X137998Y331974D01*
X139997Y333974D01*
Y339971D01*
M02*
