M48
;Layer_Color=9474304
;FILE_FORMAT=2:5
INCH,LZ
;TYPE=PLATED
T1F00S00C0.01299
T2F00S00C0.02800
T3F00S00C0.03150
T4F00S00C0.03346
T5F00S00C0.03543
T6F00S00C0.05118
%
T01
X011826Y01235
Y0131
Y01385
X012576
Y0131
Y01235
X013326
Y0131
Y01385
X014076
Y0131
Y01235
T02
X0288Y0142
X04875Y0164
X04785Y01965
X0347Y02805
X0217Y0234
Y0229
Y0224
X01725Y02335
Y02385
Y02435
X0158Y01615
X0155Y0467
X0222Y04665
X0288Y0467
X0232Y03445
X02125Y0344
X0364Y0355
T03
X0508Y02955
Y03005
Y03055
X0306Y02315
Y02265
Y02215
X03065Y0209
Y0204
Y0199
X0508Y03445
Y03495
Y03545
T04
X01905Y0116
X0191Y0128
X0174Y01535
X0244
X0251Y0128
X02505Y0116
X0473Y0209
X0484Y02235
X0473Y0249
X0484Y02635
X04875Y02765
X05275
X02925Y02315
X0293Y02065
X0253
X02545Y01965
X02525Y02315
X02145Y01965
X0204
X0164
X0212Y03855
Y0399
X0252
Y03855
X04615
Y0398
X05015
Y03855
T05
X03035Y01275
X03135
X03235
X03335
X03435
X03535
X03635
X0394Y01325
Y01425
Y01525
X04245Y0151
X04345
X045Y01515
X046
X0433Y01255
X0423
X048Y013
Y014
Y015
Y012
X05285
Y013
Y014
Y015
X0499Y0201
Y0211
Y0221
Y0231
X04825Y0292
Y0302
Y0312
X0445642Y0304702
Y0294702
Y0284702
Y0274702
Y0264702
Y0254702
Y0244702
Y0234702
Y0224702
Y0214702
Y0204702
Y0194702
X0435642
Y0204702
Y0214702
Y0224702
Y0234702
Y0244702
Y0254702
Y0264702
Y0274702
Y0284702
Y0294702
Y0304702
X0425642Y0174702
X0415642
X0405642
X0395642
X0385642
X0375642
X0365642
X0355642
X0335642
X0325642
X0315642
X0305642
X0295642
X0285642
X0275642
X0265642
X0245642
X0235642
X0225642
X0215642
X0205642
X0195642
X0185642
X0175642
X01915Y02285
Y02385
X01895Y0267
Y0277
Y0287
Y0297
Y0307
X0267Y0312
X0291Y0294
X0301
X0236Y02475
Y02375
X0138
Y02275
Y02175
Y02075
Y01975
Y01875
Y01775
X0139642Y0364702
X0149642
X0147Y04315
X0137
X0127
X0117
Y04685
X0182
Y04315
X0192
X0202
X0212
X02485
X02585
X02685
X02785
X0275Y03975
Y03875
X0287Y0364
Y0354
Y0344
X0289Y03165
X0299
X0309
X0267Y0322
X0229642Y0364702
X0219642
X0209642
X0199642
X0189642
X0179642
X0169642
X0159642
X01895Y0337
Y0327
Y0317
X02485Y04685
X03185Y03885
X03285
X03385
X03485
X0345642Y0364702
X0335642
X0319Y03615
Y03515
Y03165
X0329
X0339
X0355642Y0364702
X0365642
X0375642
X0385642
X0395642
X0405642
X04105Y03865
X04005
X03905
X03805
X0435642Y0364702
Y0354702
Y0344702
Y0334702
Y0324702
Y0314702
X0445642
Y0324702
Y0334702
Y0344702
Y0354702
Y0364702
X04825Y03635
Y03535
Y03435
X05235Y0385
Y0395
X02485Y04785
Y04885
X0182
Y04785
X0117
Y04885
T06
X0330842Y0202079
X0360764
X0380842
X0371Y0282
X0330842
X0411158
M30
