G04 Layer_Color=16711935*
%FSLAX25Y25*%
%MOIN*%
G70*
G01*
G75*
%ADD58R,0.06706X0.06706*%
%ADD59C,0.06706*%
%ADD60R,0.06706X0.06706*%
%ADD61C,0.06800*%
%ADD62C,0.06312*%
%ADD63O,0.08674X0.04737*%
%ADD64O,0.08674X0.04737*%
%ADD65O,0.08674X0.04730*%
%ADD66O,0.08674X0.04800*%
%ADD67O,0.08674X0.04730*%
%ADD68C,0.08674*%
%ADD69O,0.08674X0.04800*%
%ADD70C,0.05800*%
%ADD71C,0.03402*%
D58*
X248500Y468500D02*
D03*
X182000D02*
D03*
X117000D02*
D03*
X275000Y387500D02*
D03*
X523500Y385000D02*
D03*
X482500Y312000D02*
D03*
Y363500D02*
D03*
X267000Y322000D02*
D03*
X319000Y361500D02*
D03*
X287000Y344000D02*
D03*
X394000Y132500D02*
D03*
X528500Y150000D02*
D03*
X480000Y120000D02*
D03*
X499000Y201000D02*
D03*
X138000Y177500D02*
D03*
X189500Y337000D02*
D03*
X435642Y364702D02*
D03*
X191500Y228500D02*
D03*
X236000Y237500D02*
D03*
D59*
X248500Y478500D02*
D03*
Y488500D02*
D03*
Y431500D02*
D03*
X258500D02*
D03*
X268500D02*
D03*
X182000Y478500D02*
D03*
Y488500D02*
D03*
Y431500D02*
D03*
X192000D02*
D03*
X202000D02*
D03*
X117000Y478500D02*
D03*
Y488500D02*
D03*
Y431500D02*
D03*
X127000D02*
D03*
X137000D02*
D03*
X275000Y397500D02*
D03*
X523500Y395000D02*
D03*
X482500Y302000D02*
D03*
Y292000D02*
D03*
Y353500D02*
D03*
Y343500D02*
D03*
X348500Y388500D02*
D03*
X338500D02*
D03*
X328500D02*
D03*
X267000Y312000D02*
D03*
X301000Y294000D02*
D03*
X319000Y351500D02*
D03*
X287000Y354000D02*
D03*
Y364000D02*
D03*
X329000Y316500D02*
D03*
X319000D02*
D03*
X309000D02*
D03*
X299000D02*
D03*
X289000D02*
D03*
X394000Y142500D02*
D03*
Y152500D02*
D03*
X410500Y386500D02*
D03*
X400500D02*
D03*
X390500D02*
D03*
X528500Y120000D02*
D03*
Y130000D02*
D03*
Y140000D02*
D03*
X480000Y150000D02*
D03*
Y140000D02*
D03*
Y130000D02*
D03*
X499000Y231000D02*
D03*
Y221000D02*
D03*
Y211000D02*
D03*
X185642Y174702D02*
D03*
X195642D02*
D03*
X205642D02*
D03*
X215642D02*
D03*
X225642D02*
D03*
X235642D02*
D03*
X245642D02*
D03*
X138000Y237500D02*
D03*
Y227500D02*
D03*
Y217500D02*
D03*
Y207500D02*
D03*
Y187500D02*
D03*
Y197500D02*
D03*
X189500Y327000D02*
D03*
Y317000D02*
D03*
Y307000D02*
D03*
Y297000D02*
D03*
Y287000D02*
D03*
Y277000D02*
D03*
Y267000D02*
D03*
X365642Y174702D02*
D03*
X375642D02*
D03*
X385642D02*
D03*
X395642D02*
D03*
X405642D02*
D03*
X415642D02*
D03*
X425642D02*
D03*
X275642D02*
D03*
X285642D02*
D03*
X295642D02*
D03*
X305642D02*
D03*
X315642D02*
D03*
X325642D02*
D03*
X335642D02*
D03*
X345642Y364702D02*
D03*
X355642D02*
D03*
X365642D02*
D03*
X375642D02*
D03*
X385642D02*
D03*
X395642D02*
D03*
X405642D02*
D03*
X159642D02*
D03*
X229642D02*
D03*
X219642D02*
D03*
X209642D02*
D03*
X199642D02*
D03*
X189642D02*
D03*
X179642D02*
D03*
X169642D02*
D03*
X149642D02*
D03*
X445642Y194702D02*
D03*
X435642D02*
D03*
X445642Y204702D02*
D03*
X435642D02*
D03*
X445642Y214702D02*
D03*
X435642D02*
D03*
X445642Y224702D02*
D03*
X435642D02*
D03*
X445642Y234702D02*
D03*
X435642D02*
D03*
X445642Y244702D02*
D03*
X435642D02*
D03*
X445642Y254702D02*
D03*
X435642D02*
D03*
X445642Y264702D02*
D03*
X435642D02*
D03*
X445642Y274702D02*
D03*
X435642D02*
D03*
X445642Y284702D02*
D03*
X435642D02*
D03*
X445642Y294702D02*
D03*
X435642D02*
D03*
X445642Y304702D02*
D03*
X435642D02*
D03*
X445642Y314702D02*
D03*
X435642D02*
D03*
X445642Y324702D02*
D03*
X435642D02*
D03*
X445642Y334702D02*
D03*
X435642D02*
D03*
X445642Y344702D02*
D03*
X435642D02*
D03*
X445642Y354702D02*
D03*
X435642D02*
D03*
X445642Y364702D02*
D03*
X191500Y238500D02*
D03*
X236000Y247500D02*
D03*
X363500Y127500D02*
D03*
X353500D02*
D03*
X343500D02*
D03*
X333500D02*
D03*
X313500D02*
D03*
X323500D02*
D03*
D60*
X278500Y431500D02*
D03*
X212000D02*
D03*
X147000D02*
D03*
X318500Y388500D02*
D03*
X291000Y294000D02*
D03*
X339000Y316500D02*
D03*
X380500Y386500D02*
D03*
X175642Y174702D02*
D03*
X355642D02*
D03*
X265642D02*
D03*
X335642Y364702D02*
D03*
X139642D02*
D03*
X303500Y127500D02*
D03*
D61*
X423000Y125500D02*
D03*
X433000D02*
D03*
X450000Y151500D02*
D03*
X460000D02*
D03*
X424500Y151000D02*
D03*
X434500D02*
D03*
D62*
X484000Y223500D02*
D03*
Y263500D02*
D03*
X527500Y276500D02*
D03*
X487500D02*
D03*
X252000Y399000D02*
D03*
X212000D02*
D03*
X252000Y385500D02*
D03*
X212000D02*
D03*
X501500D02*
D03*
X461500D02*
D03*
Y398000D02*
D03*
X501500D02*
D03*
X253000Y206500D02*
D03*
X293000D02*
D03*
X252500Y231500D02*
D03*
X292500D02*
D03*
X244000Y153500D02*
D03*
X174000D02*
D03*
X251000Y128000D02*
D03*
X191000D02*
D03*
X250500Y116000D02*
D03*
X190500D02*
D03*
X473000Y209000D02*
D03*
Y249000D02*
D03*
X214500Y196500D02*
D03*
X254500D02*
D03*
X204000D02*
D03*
X164000D02*
D03*
D63*
X508000Y305500D02*
D03*
Y354500D02*
D03*
X306500Y209000D02*
D03*
X306000Y231500D02*
D03*
D64*
X508000Y300500D02*
D03*
Y295500D02*
D03*
Y349500D02*
D03*
Y344500D02*
D03*
X306500Y204000D02*
D03*
Y199000D02*
D03*
X306000Y226500D02*
D03*
Y221500D02*
D03*
D65*
X172500Y243500D02*
D03*
D66*
Y238500D02*
D03*
X217000Y229000D02*
D03*
Y224000D02*
D03*
D67*
X172500Y233500D02*
D03*
D68*
X380842Y202079D02*
D03*
X360764D02*
D03*
X330842D02*
D03*
Y282000D02*
D03*
X371000D02*
D03*
X411158D02*
D03*
D69*
X217000Y234000D02*
D03*
D70*
X347000Y280500D02*
D03*
X364000Y355000D02*
D03*
X288000Y142000D02*
D03*
Y467000D02*
D03*
X222000Y466500D02*
D03*
X155000Y467000D02*
D03*
X478500Y196500D02*
D03*
X487500Y164000D02*
D03*
X232000Y344500D02*
D03*
X158000Y161500D02*
D03*
X212500Y344000D02*
D03*
D71*
X118260Y123500D02*
D03*
Y131000D02*
D03*
Y138500D02*
D03*
X125760Y123500D02*
D03*
Y131000D02*
D03*
Y138500D02*
D03*
X133260Y131000D02*
D03*
Y138500D02*
D03*
X140760Y123500D02*
D03*
Y131000D02*
D03*
Y138500D02*
D03*
X133260Y123500D02*
D03*
M02*
