G04 Layer_Color=8421504*
%FSLAX25Y25*%
%MOIN*%
G70*
G01*
G75*
%ADD10R,0.02756X0.03543*%
%ADD11R,0.03543X0.02756*%
%ADD12R,0.06693X0.04331*%
%ADD13R,0.33622X0.21063*%
%ADD14O,0.12047X0.03504*%
%ADD15R,0.04331X0.06693*%
%ADD16R,0.04750X0.01600*%
%ADD17R,0.03150X0.03543*%
%ADD18R,0.10236X0.04724*%
%ADD19R,0.02362X0.12598*%
%ADD20R,0.03543X0.03150*%
%ADD21R,0.04724X0.03150*%
%ADD22R,0.04724X0.04724*%
D10*
X175453Y224500D02*
D03*
X169547D02*
D03*
X293000Y218500D02*
D03*
X287094D02*
D03*
X292453Y194000D02*
D03*
X286547D02*
D03*
X419406Y401000D02*
D03*
X413500D02*
D03*
X304594Y280000D02*
D03*
X310500D02*
D03*
D11*
X227500Y224500D02*
D03*
Y218595D02*
D03*
X474500Y182547D02*
D03*
Y188453D02*
D03*
X484500Y188453D02*
D03*
Y182547D02*
D03*
X364000Y392094D02*
D03*
Y398000D02*
D03*
X304000Y402500D02*
D03*
Y396595D02*
D03*
X304000Y380047D02*
D03*
Y385953D02*
D03*
X514500Y117453D02*
D03*
Y111547D02*
D03*
X508000Y127905D02*
D03*
Y122000D02*
D03*
X499500Y138000D02*
D03*
Y132095D02*
D03*
Y148906D02*
D03*
Y143000D02*
D03*
X304500Y347905D02*
D03*
Y342000D02*
D03*
X252500Y326547D02*
D03*
Y332453D02*
D03*
X520500Y349453D02*
D03*
Y343547D02*
D03*
X521000Y302953D02*
D03*
Y297047D02*
D03*
D12*
X378000Y143870D02*
D03*
Y154500D02*
D03*
X419500Y362815D02*
D03*
Y352185D02*
D03*
X177000Y113370D02*
D03*
Y124000D02*
D03*
X276500Y158815D02*
D03*
Y148185D02*
D03*
X152500Y203870D02*
D03*
Y214500D02*
D03*
X152000Y181870D02*
D03*
Y192500D02*
D03*
Y230000D02*
D03*
Y240630D02*
D03*
X351500Y344815D02*
D03*
Y334185D02*
D03*
X369500Y329815D02*
D03*
Y319185D02*
D03*
D13*
X129500Y131000D02*
D03*
D14*
X158260Y146000D02*
D03*
Y141000D02*
D03*
Y136000D02*
D03*
Y131000D02*
D03*
Y126000D02*
D03*
Y121000D02*
D03*
Y116000D02*
D03*
D15*
X371130Y339500D02*
D03*
X360500D02*
D03*
X484500Y172000D02*
D03*
X473870D02*
D03*
X493500Y114500D02*
D03*
X504130D02*
D03*
X504815Y156000D02*
D03*
X494185D02*
D03*
X364000Y307500D02*
D03*
X374630D02*
D03*
X143315Y467500D02*
D03*
X132685D02*
D03*
X143315Y476500D02*
D03*
X132685D02*
D03*
Y485500D02*
D03*
X143315D02*
D03*
X209315Y467500D02*
D03*
X198685D02*
D03*
X209315Y477000D02*
D03*
X198685D02*
D03*
Y487000D02*
D03*
X209315D02*
D03*
X275815Y467000D02*
D03*
X265185D02*
D03*
X275815Y477000D02*
D03*
X265185D02*
D03*
Y487000D02*
D03*
X275815D02*
D03*
D16*
X383000Y316500D02*
D03*
Y321500D02*
D03*
Y326500D02*
D03*
Y341500D02*
D03*
Y336500D02*
D03*
Y331500D02*
D03*
Y311500D02*
D03*
Y306500D02*
D03*
X416000D02*
D03*
Y311500D02*
D03*
Y331500D02*
D03*
Y336500D02*
D03*
Y341500D02*
D03*
Y326500D02*
D03*
Y321500D02*
D03*
Y316500D02*
D03*
D17*
X179000Y137000D02*
D03*
X173488D02*
D03*
D18*
X255500Y158661D02*
D03*
Y141339D02*
D03*
D19*
X282500Y128000D02*
D03*
X259665D02*
D03*
D20*
X267000Y159256D02*
D03*
Y153744D02*
D03*
D21*
X116500Y442500D02*
D03*
Y447500D02*
D03*
Y452500D02*
D03*
Y457500D02*
D03*
X148784Y452500D02*
D03*
Y442500D02*
D03*
Y447500D02*
D03*
X181500Y442500D02*
D03*
Y447500D02*
D03*
Y452500D02*
D03*
Y457500D02*
D03*
X213784Y452500D02*
D03*
Y442500D02*
D03*
Y447500D02*
D03*
X248217Y442500D02*
D03*
Y447500D02*
D03*
Y452500D02*
D03*
Y457500D02*
D03*
X280500Y452500D02*
D03*
Y442500D02*
D03*
Y447500D02*
D03*
D22*
X148784Y457500D02*
D03*
X213784D02*
D03*
X280500D02*
D03*
M02*
